<svg xmlns="http://www.w3.org/2000/svg" xmlns:xlink="http://www.w3.org/1999/xlink" preserveAspectRatio="xMidYMid" width="40" height="40" viewBox="0 0 40 40">
  <defs>
    
  </defs>
  <path d="M35.636,-0.001 C33.230,-0.001 31.273,1.956 31.273,4.363 C31.273,5.116 31.464,5.824 31.801,6.442 L24.652,13.591 C23.667,12.824 22.433,12.363 21.091,12.363 C19.748,12.363 18.515,12.824 17.529,13.591 L11.951,8.013 C12.207,7.580 12.363,7.083 12.363,6.545 C12.363,4.940 11.059,3.636 9.454,3.636 C7.850,3.636 6.545,4.940 6.545,6.545 C6.545,8.149 7.850,9.453 9.454,9.453 C9.993,9.453 10.490,9.298 10.923,9.041 L16.500,14.619 C15.734,15.605 15.273,16.838 15.273,18.181 C15.273,19.524 15.734,20.757 16.500,21.742 L7.290,30.953 C6.515,30.250 5.490,29.817 4.364,29.817 C1.957,29.817 -0.000,31.774 -0.000,34.181 C-0.000,36.587 1.957,38.545 4.364,38.545 C6.770,38.545 8.727,36.587 8.727,34.181 C8.727,33.428 8.536,32.720 8.199,32.101 L17.529,22.771 C18.334,23.396 19.304,23.815 20.364,23.948 L20.364,31.337 C18.304,31.685 16.728,33.477 16.728,35.636 C16.728,38.042 18.685,40.000 21.092,40.000 C23.498,40.000 25.455,38.042 25.455,35.636 C25.455,33.477 23.879,31.685 21.819,31.337 L21.819,23.948 C22.879,23.815 23.849,23.396 24.654,22.771 L30.231,28.348 C29.974,28.782 29.818,29.279 29.818,29.817 C29.818,31.422 31.123,32.726 32.727,32.726 C34.332,32.726 35.636,31.422 35.636,29.817 C35.636,28.213 34.332,26.908 32.727,26.908 C32.189,26.908 31.692,27.065 31.259,27.321 L25.681,21.743 C26.448,20.757 26.909,19.524 26.909,18.181 C26.909,16.838 26.448,15.605 25.681,14.619 L32.710,7.591 C33.485,8.294 34.510,8.726 35.636,8.726 C38.043,8.726 40.000,6.769 40.000,4.363 C40.000,1.956 38.043,-0.001 35.636,-0.001 ZM8.000,6.545 C8.000,5.743 8.652,5.090 9.454,5.090 C10.257,5.090 10.909,5.743 10.909,6.545 C10.909,7.347 10.257,7.999 9.454,7.999 C8.652,7.999 8.000,7.347 8.000,6.545 ZM4.364,37.090 C2.759,37.090 1.454,35.785 1.454,34.181 C1.454,32.576 2.759,31.272 4.364,31.272 C5.968,31.272 7.273,32.576 7.273,34.181 C7.273,35.785 5.968,37.090 4.364,37.090 ZM24.000,35.636 C24.000,37.240 22.695,38.545 21.091,38.545 C19.486,38.545 18.182,37.240 18.182,35.636 C18.182,34.031 19.486,32.726 21.091,32.726 C22.695,32.726 24.000,34.031 24.000,35.636 ZM21.091,22.545 C18.684,22.545 16.727,20.588 16.727,18.181 C16.727,15.774 18.684,13.817 21.091,13.817 C23.497,13.817 25.454,15.774 25.454,18.181 C25.454,20.588 23.497,22.545 21.091,22.545 ZM34.182,29.817 C34.182,30.620 33.529,31.272 32.727,31.272 C31.925,31.272 31.273,30.620 31.273,29.817 C31.273,29.015 31.925,28.363 32.727,28.363 C33.529,28.363 34.182,29.015 34.182,29.817 ZM35.636,7.271 C34.032,7.271 32.727,5.967 32.727,4.363 C32.727,2.758 34.032,1.454 35.636,1.454 C37.241,1.454 38.545,2.758 38.545,4.363 C38.545,5.967 37.241,7.271 35.636,7.271 Z" class="cls-1"/>
</svg>
