<svg xmlns="http://www.w3.org/2000/svg" xmlns:xlink="http://www.w3.org/1999/xlink" width="50" height="52" viewBox="0 0 50 52"><defs><path id="1epfa" d="M653.06 1848.8l-4.44-2.95c-.44-.3-1.02-.3-1.46 0l-5.74 3.83-5.76-3.83c-.44-.3-1.02-.3-1.46 0l-5.74 3.82-5.76-3.82c-.44-.3-1.03-.3-1.47 0l-4.41 2.94v-45.16h36.23zm5.62-47.8h-47.36c-.72 0-1.32.6-1.32 1.32 0 .73.6 1.32 1.32 1.32h2.85v47.62c0 .49.27.94.7 1.17.43.23.95.21 1.35-.06l5.74-3.83 5.76 3.84c.44.3 1.02.3 1.47 0l5.73-3.82 5.76 3.83c.44.3 1.03.3 1.47 0l5.74-3.82 5.76 3.83a1.34 1.34 0 0 0 1.35.06c.43-.23.7-.68.7-1.16l-.03-47.62h3c.74 0 1.33-.6 1.33-1.33 0-.72-.6-1.35-1.32-1.35z"/><path id="1epfc" d="M622.9 1822.1h13.84c.73 0 1.32-.6 1.32-1.32 0-.73-.6-1.32-1.32-1.32H622.9a1.32 1.32 0 1 0 0 2.64z"/><path id="1epfe" d="M622.9 1826.7h10.37a1.33 1.33 0 1 0 0-2.64H622.9a1.32 1.32 0 0 0 0 2.64z"/><path id="1epfg" d="M643.66 1822.1h3.45c.73 0 1.33-.6 1.33-1.32 0-.73-.6-1.32-1.33-1.32h-3.45a1.32 1.32 0 1 0 0 2.64z"/><path id="1epfi" d="M643.66 1826.7h3.45a1.33 1.33 0 1 0 0-2.64h-3.45a1.32 1.32 0 0 0 0 2.64z"/><path id="1epfk" d="M622.9 1811.5h13.84a1.33 1.33 0 1 0 0-2.64H622.9a1.32 1.32 0 0 0 0 2.64z"/><path id="1epfm" d="M622.9 1816.08h10.37c.73 0 1.32-.6 1.32-1.32 0-.73-.6-1.33-1.32-1.33H622.9c-.73 0-1.32.6-1.32 1.33 0 .72.58 1.32 1.32 1.32z"/><path id="1epfo" d="M643.66 1811.5h3.45a1.33 1.33 0 1 0 0-2.64h-3.45a1.32 1.32 0 0 0 0 2.64z"/><path id="1epfq" d="M643.66 1816.08h3.45c.73 0 1.33-.6 1.33-1.32 0-.73-.6-1.33-1.33-1.33h-3.45c-.73 0-1.32.6-1.32 1.33 0 .72.58 1.32 1.32 1.32z"/><path id="1epfs" d="M622.9 1832.84h13.84c.73 0 1.32-.6 1.32-1.32 0-.73-.6-1.32-1.32-1.32H622.9a1.32 1.32 0 1 0 0 2.64z"/><path id="1epfu" d="M622.9 1837.42h10.37c.73 0 1.32-.6 1.32-1.32 0-.73-.6-1.32-1.32-1.32H622.9a1.32 1.32 0 1 0 0 2.64z"/><path id="1epfw" d="M643.66 1832.84h3.45c.73 0 1.33-.6 1.33-1.32 0-.73-.6-1.32-1.33-1.32h-3.45a1.32 1.32 0 1 0 0 2.64z"/><path id="1epfy" d="M643.66 1837.42h3.45c.73 0 1.33-.6 1.33-1.32 0-.73-.6-1.32-1.33-1.32h-3.45a1.32 1.32 0 1 0 0 2.64z"/><linearGradient id="1epfb" x1="635" x2="635" y1="1801" y2="1852.62" gradientUnits="userSpaceOnUse"><stop offset="0" stop-color="#5077e7"/><stop offset="1" stop-color="#a776dd"/></linearGradient><linearGradient id="1epfd" x1="629.81" x2="629.81" y1="1819.46" y2="1822.1" gradientUnits="userSpaceOnUse"><stop offset="0" stop-color="#5077e7"/><stop offset="1" stop-color="#a776dd"/></linearGradient><linearGradient id="1epff" x1="628.08" x2="628.08" y1="1824.05" y2="1826.69" gradientUnits="userSpaceOnUse"><stop offset="0" stop-color="#5077e7"/><stop offset="1" stop-color="#a776dd"/></linearGradient><linearGradient id="1epfh" x1="645.39" x2="645.39" y1="1819.46" y2="1822.1" gradientUnits="userSpaceOnUse"><stop offset="0" stop-color="#5077e7"/><stop offset="1" stop-color="#a776dd"/></linearGradient><linearGradient id="1epfj" x1="645.39" x2="645.39" y1="1824.05" y2="1826.69" gradientUnits="userSpaceOnUse"><stop offset="0" stop-color="#5077e7"/><stop offset="1" stop-color="#a776dd"/></linearGradient><linearGradient id="1epfl" x1="629.81" x2="629.81" y1="1808.85" y2="1811.5" gradientUnits="userSpaceOnUse"><stop offset="0" stop-color="#5077e7"/><stop offset="1" stop-color="#a776dd"/></linearGradient><linearGradient id="1epfn" x1="628.08" x2="628.08" y1="1813.43" y2="1816.08" gradientUnits="userSpaceOnUse"><stop offset="0" stop-color="#5077e7"/><stop offset="1" stop-color="#a776dd"/></linearGradient><linearGradient id="1epfp" x1="645.39" x2="645.39" y1="1808.85" y2="1811.5" gradientUnits="userSpaceOnUse"><stop offset="0" stop-color="#5077e7"/><stop offset="1" stop-color="#a776dd"/></linearGradient><linearGradient id="1epfr" x1="645.39" x2="645.39" y1="1813.43" y2="1816.08" gradientUnits="userSpaceOnUse"><stop offset="0" stop-color="#5077e7"/><stop offset="1" stop-color="#a776dd"/></linearGradient><linearGradient id="1epft" x1="629.81" x2="629.81" y1="1830.2" y2="1832.84" gradientUnits="userSpaceOnUse"><stop offset="0" stop-color="#5077e7"/><stop offset="1" stop-color="#a776dd"/></linearGradient><linearGradient id="1epfv" x1="628.08" x2="628.08" y1="1834.78" y2="1837.42" gradientUnits="userSpaceOnUse"><stop offset="0" stop-color="#5077e7"/><stop offset="1" stop-color="#a776dd"/></linearGradient><linearGradient id="1epfx" x1="645.39" x2="645.39" y1="1830.2" y2="1832.84" gradientUnits="userSpaceOnUse"><stop offset="0" stop-color="#5077e7"/><stop offset="1" stop-color="#a776dd"/></linearGradient><linearGradient id="1epfz" x1="645.39" x2="645.39" y1="1834.78" y2="1837.42" gradientUnits="userSpaceOnUse"><stop offset="0" stop-color="#5077e7"/><stop offset="1" stop-color="#a776dd"/></linearGradient></defs><g><g transform="translate(-610 -1801)"><g><g><use xlink:href="#1epfa"/></g><g><use xlink:href="#1epfc"/></g><g><use xlink:href="#1epfe"/></g><g><use xlink:href="#1epfg"/></g><g><use xlink:href="#1epfi"/></g><g><use xlink:href="#1epfk"/></g><g><use xlink:href="#1epfm"/></g><g><use xlink:href="#1epfo"/></g><g><use xlink:href="#1epfq"/></g><g><use xlink:href="#1epfs"/></g><g><use xlink:href="#1epfu"/></g><g><use xlink:href="#1epfw"/></g><g><use xlink:href="#1epfy"/></g></g></g></g></svg>