<svg xmlns="http://www.w3.org/2000/svg" xmlns:xlink="http://www.w3.org/1999/xlink" width="40" height="40" viewBox="0 0 40 40"><defs><path id="jbtra" d="M1028.26 1542.74c0 5.27-4.29 9.56-9.56 9.56h-1.74c-.23 0-.46.1-.62.26l-5.47 5.47v-4.86a.87.87 0 0 0-.87-.87h-8.7a9.58 9.58 0 0 1-9.56-9.56v-10.44c0-5.27 4.29-9.56 9.56-9.56h17.4c5.27 0 9.56 4.29 9.56 9.56zm-9.56-21.74h-17.4c-6.23 0-11.3 5.07-11.3 11.3v10.44c0 6.23 5.07 11.3 11.3 11.3h7.83v6.09a.87.87 0 0 0 1.48.62l6.7-6.7h1.39c6.23 0 11.3-5.08 11.3-11.31v-10.44c0-6.23-5.07-11.3-11.3-11.3z"/><path id="jbtrb" d="M1010 1540.13c.48 0 .87-.39.87-.87v-10.43a.87.87 0 1 0-1.74 0v10.43c0 .48.39.87.87.87z"/><path id="jbtrc" d="M1008.26 1545.35a1.74 1.74 0 1 1 3.48 0 1.74 1.74 0 0 1-3.48 0z"/><path id="jbtrd" d="M1023.91 1540.13a.87.87 0 0 0-.87.87v1.74c0 2.4-1.95 4.35-4.34 4.35h-1.74a.87.87 0 1 0 0 1.74h1.74a6.1 6.1 0 0 0 6.08-6.1V1541a.87.87 0 0 0-.87-.87z"/><path id="jbtre" d="M1003.04 1526.22h-1.74a6.1 6.1 0 0 0-6.08 6.08v1.74a.87.87 0 1 0 1.74 0v-1.74c0-2.4 1.95-4.34 4.34-4.34h1.74a.87.87 0 1 0 0-1.74z"/></defs><g><g transform="translate(-990 -1521)"><g><g><g><use xlink:href="#jbtra"/></g><g><use xlink:href="#jbtrb"/></g><g><use xlink:href="#jbtrc"/></g><g><use xlink:href="#jbtrd"/></g><g><use xlink:href="#jbtre"/></g></g></g></g></g></svg>