<svg xmlns="http://www.w3.org/2000/svg" xmlns:xlink="http://www.w3.org/1999/xlink" width="50" height="50" viewBox="0 0 50 50"><defs><path id="ym9sa" d="M1026.69 1504.74l-.13-.05.13.05zm9.31.56a22.23 22.23 0 0 1-19.76-11.97 22.32 22.32 0 0 1 19.76-32.62c5.83 0 11.15 2.24 15.12 5.92a22.16 22.16 0 0 1 7.17 16.37c0 12.3-10 22.3-22.29 22.3zm0-47.3c-13.78 0-25 11.22-25 25s11.22 25 25 25 25-11.22 25-25-11.21-25-25-25z"/><path id="ym9sb" d="M1024.94 1477.6a2.7 2.7 0 1 1 5.4 0 2.7 2.7 0 0 1-5.4 0z"/><path id="ym9sc" d="M1041.66 1477.6a2.7 2.7 0 1 1 5.4 0 2.7 2.7 0 0 1-5.4 0z"/><path id="ym9sd" d="M1041.16 1469.62l1.07-2.48 8.56 3.7-1.07 2.48z"/><path id="ym9se" d="M1029.77 1467.14l1.07 2.48-8.56 3.7-1.07-2.48z"/><path id="ym9sf" d="M1047.2 1492.25c.2.37.39.75.56 1.14l2.47-1.09a15.56 15.56 0 0 0-15.05-9.27c-5.8.3-11.07 3.94-13.41 9.27l2.47 1.1a12.94 12.94 0 0 1 11.08-7.67c4.83-.25 9.5 2.31 11.87 6.52z"/></defs><g><g transform="translate(-1011 -1458)"><g><use xlink:href="#ym9sa"/></g><g><use xlink:href="#ym9sb"/></g><g><use xlink:href="#ym9sc"/></g><g><use xlink:href="#ym9sd"/></g><g><use xlink:href="#ym9se"/></g><g><use xlink:href="#ym9sf"/></g></g></g></svg>