<svg xmlns="http://www.w3.org/2000/svg" xmlns:xlink="http://www.w3.org/1999/xlink" preserveAspectRatio="xMidYMid" width="40" height="40" viewBox="0 0 40 40">
  <defs>
    
  </defs>
  <path d="M33.182,38.791 C32.999,39.479 32.321,40.000 31.549,40.000 L1.710,40.000 C1.173,40.000 0.679,39.755 0.352,39.329 C0.117,39.021 0.001,38.654 0.004,38.279 L-0.000,38.279 L-0.000,9.154 C-0.000,8.150 0.817,7.333 1.821,7.333 L2.667,7.333 L2.667,2.666 L4.667,2.666 L4.667,1.333 L6.667,1.333 L6.667,-0.001 L33.333,-0.001 L33.333,11.999 L34.179,11.999 C35.183,11.999 36.000,12.816 36.000,13.821 L36.000,17.999 L38.327,17.999 C39.296,17.999 40.000,18.833 40.000,19.981 L40.000,20.098 L33.182,38.791 ZM2.667,8.666 L1.821,8.666 C1.553,8.666 1.333,8.884 1.333,9.154 L1.333,34.264 L2.667,30.628 L2.667,8.666 ZM4.667,3.999 L4.000,3.999 L4.000,7.333 L4.000,27.033 L4.667,25.206 L4.667,3.999 ZM6.667,2.666 L6.000,2.666 L6.000,21.550 L6.625,19.838 L6.667,19.722 L6.667,2.666 ZM32.000,11.999 L32.000,1.333 L8.000,1.333 L8.000,18.070 C8.012,18.067 8.026,18.068 8.038,18.065 C8.183,18.025 8.332,17.999 8.487,17.999 L32.000,17.999 L32.000,11.999 ZM34.667,13.821 C34.667,13.551 34.448,13.333 34.179,13.333 L33.333,13.333 L33.333,17.999 L34.667,17.999 L34.667,13.821 ZM38.327,19.333 L36.000,19.333 L33.333,19.333 L32.000,19.333 L8.487,19.333 C8.318,19.333 8.168,19.447 8.124,19.611 L8.106,19.665 L8.000,19.958 L7.955,20.081 L6.667,23.615 L6.667,23.613 L4.667,29.097 L2.667,34.580 L2.667,34.580 L1.329,38.246 C1.305,38.347 1.369,38.463 1.411,38.517 C1.453,38.573 1.548,38.666 1.710,38.666 L31.549,38.666 C31.719,38.666 31.869,38.552 31.912,38.388 L38.660,19.878 C38.645,19.696 38.579,19.333 38.327,19.333 ZM12.000,5.332 L18.667,5.332 C19.035,5.332 19.333,5.630 19.333,5.999 C19.333,6.368 19.035,6.666 18.667,6.666 L12.000,6.666 C11.632,6.666 11.333,6.368 11.333,5.999 C11.333,5.630 11.632,5.332 12.000,5.332 ZM12.000,9.999 L28.000,9.999 C28.368,9.999 28.666,10.297 28.666,10.666 C28.666,11.035 28.368,11.332 28.000,11.332 L12.000,11.332 C11.632,11.332 11.333,11.035 11.333,10.666 C11.333,10.297 11.632,9.999 12.000,9.999 ZM12.000,14.666 L28.000,14.666 C28.368,14.666 28.666,14.964 28.666,15.333 C28.666,15.701 28.368,15.999 28.000,15.999 L12.000,15.999 C11.632,15.999 11.333,15.701 11.333,15.333 C11.333,14.964 11.632,14.666 12.000,14.666 Z" class="cls-1"/>
</svg>
