<svg xmlns="http://www.w3.org/2000/svg" xmlns:xlink="http://www.w3.org/1999/xlink" width="50" height="50" viewBox="0 0 50 50"><defs><path id="tftka" d="M435 1505.3a22.23 22.23 0 0 1-19.76-11.97A22.32 22.32 0 0 1 435 1460.7c5.83 0 11.15 2.24 15.12 5.92a22.16 22.16 0 0 1 7.17 16.37c0 12.3-10 22.3-22.29 22.3zm0-47.3c-13.78 0-25 11.22-25 25s11.22 25 25 25 25-11.22 25-25-11.21-25-25-25z"/><path id="tftkb" d="M423.94 1477.6a2.7 2.7 0 1 1 5.4 0 2.7 2.7 0 0 1-5.4 0z"/><path id="tftkc" d="M440.66 1477.6a2.7 2.7 0 1 1 5.4 0 2.7 2.7 0 0 1-5.4 0z"/><path id="tftkd" d="M435 1492.36a18.3 18.3 0 0 0 11.52-4.1 5.49 5.49 0 0 0 4.64 2.78v-2.7a2.7 2.7 0 0 1-2.63-2.64 2.7 2.7 0 0 1 2.63-2.63v-2.7a5.38 5.38 0 0 0-5.29 4.87 15.65 15.65 0 0 1-21.8 0 5.43 5.43 0 0 0-5.34-4.87v2.7a2.6 2.6 0 0 1 2.63 2.63 2.6 2.6 0 0 1-2.63 2.64v2.7a5.36 5.36 0 0 0 4.69-2.77 18.25 18.25 0 0 0 11.58 4.09z"/></defs><g><g transform="translate(-410 -1458)"><g><use xlink:href="#tftka"/></g><g><use xlink:href="#tftkb"/></g><g><use xlink:href="#tftkc"/></g><g><use xlink:href="#tftkd"/></g></g></g></svg>