<?xml version="1.0" encoding="iso-8859-1"?>
<!-- Generator: Adobe Illustrator 19.0.0, SVG Export Plug-In . SVG Version: 6.00 Build 0)  -->
<svg version="1.1" id="Layer_1" xmlns="http://www.w3.org/2000/svg" xmlns:xlink="http://www.w3.org/1999/xlink" x="0px" y="0px"
	 viewBox="0 0 512 512" style="enable-background:new 0 0 512 512;" xml:space="preserve">
<g>
	<path style="fill:#EEC319;" d="M470.397,476.07h-25.771v-16.788c0-10.572-8.569-19.142-19.142-19.142H86.514
		c-10.572,0-19.151,8.569-19.151,19.142v16.788H41.601c-10.572,0-19.151,8.569-19.151,19.142V512h467.088v-16.788
		C489.538,484.639,480.969,476.07,470.397,476.07"/>
	<path style="fill:#6CA1E9;" d="M91.675,440.14h328.65c53.365-45.945,87.184-112.856,87.184-188.632
		C507.509,113.134,394.905,0,256,0S4.491,113.134,4.491,251.509C4.491,327.285,38.31,394.195,91.675,440.14"/>
	<g>
		<path style="fill:#FFFFFF;" d="M139.547,89.825c-2.865,0-5.686-1.365-7.428-3.916c-2.794-4.096-1.743-9.683,2.353-12.477
			c10.572-7.231,21.836-13.537,33.478-18.755c4.518-2.012,9.836-0.009,11.866,4.527c2.021,4.536,0,9.845-4.527,11.875
			c-10.662,4.77-20.983,10.554-30.684,17.174C143.059,89.313,141.29,89.825,139.547,89.825"/>
		<path style="fill:#FFFFFF;" d="M65.814,179.649c-1.168,0-2.362-0.225-3.512-0.719c-4.563-1.94-6.692-7.222-4.743-11.785
			c11.309-26.597,27.621-50.311,48.469-70.503c3.566-3.44,9.261-3.359,12.701,0.207c3.449,3.566,3.359,9.252-0.198,12.701
			c-19.124,18.513-34.07,40.259-44.454,64.638C72.632,177.601,69.309,179.649,65.814,179.649"/>
	</g>
	<g>
		<path style="fill:#CFD2CF;" d="M506.046,276.816c-40.008,9.962-76.081,29.732-105.697,56.527
			c25.223,13.357,48.469,29.956,69.12,49.305C489.024,351.307,501.923,315.387,506.046,276.816"/>
		<path style="fill:#CFD2CF;" d="M108.293,330.391C79.316,305.114,44.464,286.404,5.956,276.82
			c3.889,36.406,15.674,70.404,33.424,100.469C60.103,358.811,83.259,343.011,108.293,330.391"/>
	</g>
	<path style="fill:#E4E5E6;" d="M371.419,319.793c-6.8,37.771-39.765,66.452-79.486,66.452c-44.652,0-80.842-36.19-80.842-80.842
		c0-2.174,0.269-4.285,0.44-6.422c-65.725,8.237-125.233,36.424-172.239,78.381c13.986,23.678,31.69,44.894,52.386,62.778H420.32
		c19.142-16.537,35.705-35.939,49.152-57.488C441.141,356.1,407.969,334.659,371.419,319.793"/>
	<g>
		<path style="fill:#A46F3E;" d="M222.916,272.325c-2.3,0-4.599-0.88-6.351-2.632l-29.795-29.795c-3.512-3.512-3.512-9.198,0-12.701
			c3.512-3.512,9.198-3.512,12.701,0l29.795,29.795c3.512,3.512,3.512,9.189,0,12.701
			C227.515,271.444,225.215,272.325,222.916,272.325"/>
		<path style="fill:#A46F3E;" d="M193.122,242.526c-4.958,0-8.982-4.015-8.982-8.982v-17.965c0-4.967,4.024-8.982,8.982-8.982
			s8.982,4.015,8.982,8.982v17.965C202.104,238.511,198.08,242.526,193.122,242.526"/>
		<path style="fill:#A46F3E;" d="M193.122,242.526h-17.965c-4.958,0-8.982-4.015-8.982-8.982c0-4.967,4.024-8.982,8.982-8.982
			h17.965c4.958,0,8.982,4.015,8.982,8.982C202.104,238.511,198.08,242.526,193.122,242.526"/>
		<path style="fill:#A46F3E;" d="M360.885,272.377c-2.299,0-4.599-0.88-6.351-2.632c-3.512-3.512-3.512-9.189,0-12.701
			l29.849-29.849c3.512-3.512,9.198-3.512,12.701,0c3.512,3.503,3.512,9.189,0,12.701l-29.849,29.849
			C365.484,271.497,363.185,272.377,360.885,272.377"/>
		<path style="fill:#A46F3E;" d="M390.736,242.526c-4.958,0-8.982-4.015-8.982-8.982v-17.965c0-4.967,4.024-8.982,8.982-8.982
			c4.958,0,8.982,4.015,8.982,8.982v17.965C399.718,238.511,395.694,242.526,390.736,242.526"/>
		<path style="fill:#A46F3E;" d="M408.701,242.526h-17.965c-4.958,0-8.982-4.015-8.982-8.982c0-4.967,4.024-8.982,8.982-8.982
			h17.965c4.958,0,8.982,4.015,8.982,8.982C417.683,238.511,413.659,242.526,408.701,242.526"/>
	</g>
	<path style="fill:#BE3A2B;" d="M291.929,476.07c0,19.842-16.088,35.93-35.93,35.93s-35.93-16.088-35.93-35.93
		c0-19.842,16.088-35.93,35.93-35.93S291.929,456.228,291.929,476.07"/>
	<g>
		<path style="fill:#FFFFFF;" d="M167.885,152.702H155.48c-4.015,0-7.267-3.252-7.267-7.276V133.03c0-4.024,3.252-7.276,7.267-7.276
			h12.405c4.015,0,7.276,3.252,7.276,7.276v12.396C175.161,149.45,171.9,152.702,167.885,152.702"/>
		<path style="fill:#FFFFFF;" d="M293.639,62.877h-12.405c-4.015,0-7.267-3.252-7.267-7.276V43.206c0-4.024,3.252-7.276,7.267-7.276
			h12.405c4.015,0,7.276,3.252,7.276,7.276v12.396C300.915,59.626,297.654,62.877,293.639,62.877"/>
		<path style="fill:#FFFFFF;" d="M428.376,179.649h-12.405c-4.015,0-7.267-3.252-7.267-7.276v-12.396
			c0-4.024,3.252-7.276,7.267-7.276h12.405c4.015,0,7.276,3.252,7.276,7.276v12.396
			C435.652,176.397,432.391,179.649,428.376,179.649"/>
		<path style="fill:#FFFFFF;" d="M113.99,260.491h-12.405c-4.015,0-7.267-3.252-7.267-7.276V240.82c0-4.024,3.252-7.276,7.267-7.276
			h12.405c4.015,0,7.276,3.252,7.276,7.276v12.396C121.266,257.24,118.005,260.491,113.99,260.491"/>
	</g>
	<path style="fill:#6F58A8;" d="M331.013,234.651c-9.827,10.357-23.678,16.86-39.083,16.86c-15.405,0-29.265-6.503-39.083-16.86
		c-24.89,13.779-41.759,40.286-41.759,70.755c0,44.643,36.19,80.842,80.842,80.842s80.842-36.199,80.842-80.842
		C372.772,274.938,355.903,248.43,331.013,234.651"/>
	<path style="fill:#4F3F82;" d="M291.929,251.509c-7.554,0-14.74-1.572-21.27-4.374l-18.189,31.51l31.115,17.965l28.259-48.945
		C305.681,250.116,298.971,251.509,291.929,251.509"/>
	<polygon style="fill:#6F58A8;" points="255.999,161.684 327.859,161.684 327.859,125.754 255.999,125.754 	"/>
	<path style="fill:#4F3F82;" d="M332.019,161.684h-80.177c-8.56,9.539-13.806,22.106-13.806,35.93
		c0,29.768,24.127,53.895,53.895,53.895s53.895-24.127,53.895-53.895C345.825,183.79,340.579,171.224,332.019,161.684"/>
	<path style="fill:#6F58A8;" d="M354.806,170.667H229.052c-4.958,0-8.982-4.015-8.982-8.982c0-4.967,4.024-8.982,8.982-8.982
		h125.754c4.958,0,8.982,4.015,8.982,8.982C363.789,166.652,359.764,170.667,354.806,170.667"/>
</g>
<g>
</g>
<g>
</g>
<g>
</g>
<g>
</g>
<g>
</g>
<g>
</g>
<g>
</g>
<g>
</g>
<g>
</g>
<g>
</g>
<g>
</g>
<g>
</g>
<g>
</g>
<g>
</g>
<g>
</g>
</svg>
