<?xml version="1.0" encoding="iso-8859-1"?>
<!-- Generator: Adobe Illustrator 19.0.0, SVG Export Plug-In . SVG Version: 6.00 Build 0)  -->
<svg version="1.1" id="Layer_1" xmlns="http://www.w3.org/2000/svg" xmlns:xlink="http://www.w3.org/1999/xlink" x="0px" y="0px"
	 viewBox="0 0 512 512" style="enable-background:new 0 0 512 512;" xml:space="preserve">
<path style="fill:#687F82;" d="M434.087,42.402H77.913c-4.391,0-7.95,3.559-7.95,7.95V504.05c0,4.392,3.56,7.95,7.95,7.95h356.174
	c4.391,0,7.95-3.559,7.95-7.95V50.352C442.037,45.96,438.478,42.402,434.087,42.402z"/>
<path style="fill:#365558;" d="M77.913,42.402c-4.391,0-7.95,3.559-7.95,7.95V504.05c0,4.392,3.56,7.95,7.95,7.95H256V42.402H77.913
	z"/>
<path style="fill:#E6EAEA;" d="M400.166,76.323H111.834c-4.391,0-7.95,3.559-7.95,7.95v390.095c0,4.392,3.56,7.95,7.95,7.95h207.768
	c2.108,0,4.131-0.837,5.621-2.328l80.563-80.563c1.491-1.491,2.329-3.513,2.329-5.622V84.273
	C408.116,79.882,404.556,76.323,400.166,76.323z"/>
<path style="fill:#9BAAAB;" d="M319.602,401.756v80.563h0.001c2.108,0,4.13-0.837,5.62-2.328l80.563-80.563
	c1.491-1.491,2.329-3.513,2.329-5.622l0,0h-80.563C323.162,393.805,319.602,397.365,319.602,401.756z"/>
<path style="fill:#FF8C29;" d="M340.803,42.402H312.5C305.323,17.468,282.544,0,256,0s-49.323,17.468-56.5,42.402h-28.303
	c-4.391,0-7.95,3.559-7.95,7.95v63.602c0,4.392,3.56,7.95,7.95,7.95h169.607c4.391,0,7.95-3.559,7.95-7.95V50.352
	C348.754,45.96,345.194,42.402,340.803,42.402z"/>
<path style="fill:#F0353D;" d="M199.5,42.402h-28.303c-4.391,0-7.95,3.559-7.95,7.95v63.602c0,4.392,3.56,7.95,7.95,7.95H256V0
	C229.456,0,206.677,17.468,199.5,42.402z"/>
<path style="fill:#FFFFFF;" d="M285.248,61.813c-3.813,0-7.179-2.751-7.832-6.636C275.657,44.704,266.651,37.101,256,37.101
	c-4.391,0-7.95-3.559-7.95-7.95s3.56-7.95,7.95-7.95c18.447,0,34.049,13.183,37.097,31.344c0.727,4.33-2.194,8.429-6.525,9.157
	C286.127,61.776,285.684,61.813,285.248,61.813z"/>
<path style="fill:#4ACFD9;" d="M256,152.646c-55.821,0-101.234,45.413-101.234,101.234S200.179,355.114,256,355.114
	s101.234-45.413,101.234-101.234S311.821,152.646,256,152.646z"/>
<path style="fill:#0295AA;" d="M154.766,253.88c0,55.821,45.413,101.234,101.234,101.234V152.646
	C200.179,152.646,154.766,198.059,154.766,253.88z"/>
<path style="fill:#FFFFFF;" d="M224.199,299.992c-2.034,0-4.07-0.776-5.621-2.328l-25.441-25.441c-3.105-3.106-3.105-8.139,0-11.244
	c3.105-3.104,8.139-3.104,11.243,0l19.82,19.82l68.581-68.581c3.105-3.104,8.139-3.104,11.243,0c3.105,3.106,3.105,8.139,0,11.244
	l-74.203,74.203C228.268,299.216,226.233,299.992,224.199,299.992z"/>
<g>
</g>
<g>
</g>
<g>
</g>
<g>
</g>
<g>
</g>
<g>
</g>
<g>
</g>
<g>
</g>
<g>
</g>
<g>
</g>
<g>
</g>
<g>
</g>
<g>
</g>
<g>
</g>
<g>
</g>
</svg>
