<svg xmlns="http://www.w3.org/2000/svg" xmlns:xlink="http://www.w3.org/1999/xlink" preserveAspectRatio="xMidYMid" width="14.88" height="15.531" viewBox="0 0 14.88 15.531">
  <defs>
    
  </defs>
  <path d="M13.213,10.803 C12.248,10.001 11.269,9.514 10.316,10.316 L9.748,10.801 C9.332,11.153 8.558,12.796 5.565,9.446 C2.573,6.099 4.353,5.578 4.770,5.229 L5.342,4.744 C6.290,3.940 5.933,2.929 5.249,1.887 L4.836,1.256 C4.150,0.217 3.402,-0.465 2.452,0.338 L1.938,0.775 C1.519,1.072 0.345,2.040 0.060,3.879 C-0.283,6.086 0.798,8.613 3.275,11.385 C5.749,14.160 8.171,15.553 10.465,15.528 C12.372,15.509 13.523,14.513 13.883,14.151 L14.399,13.713 C15.346,12.912 14.758,12.095 13.792,11.291 L13.213,10.803 Z" class="cls-1"/>
</svg>
