<?xml version="1.0" standalone="no"?>
<!DOCTYPE svg PUBLIC "-//W3C//DTD SVG 1.1//EN" "http://www.w3.org/Graphics/SVG/1.1/DTD/svg11.dtd">
<!--Generator: Xara Designer (www.xara.com), SVG filter version: 6.5.0.22-->
<svg fill-rule="evenodd" stroke="black" stroke-width="0.501" stroke-linejoin="bevel" stroke-miterlimit="10" font-family="Times New Roman" font-size="16" xmlns:xlink="http://www.w3.org/1999/xlink" xmlns="http://www.w3.org/2000/svg" version="1.1" overflow="visible" width="10.5pt" height="10.5pt" viewBox="602.578 -893.332 10.5 10.5">
 <defs>
	</defs>
 <g id="Layer 1" transform="scale(1 -1)">
  <path d="M 613.078,888.798 L 613.078,887.368 C 613.078,887.168 613.008,886.999 612.868,886.859 C 612.73,886.72 612.561,886.65 612.363,886.65 L 609.26,886.65 L 609.261,883.548 C 609.26,883.349 609.191,883.18 609.051,883.042 C 608.911,882.902 608.742,882.832 608.544,882.832 L 607.114,882.832 C 606.914,882.832 606.745,882.902 606.605,883.042 C 606.466,883.18 606.396,883.349 606.395,883.548 L 606.396,886.65 L 603.294,886.649 C 603.095,886.65 602.926,886.72 602.788,886.859 C 602.648,886.999 602.578,887.168 602.578,887.368 L 602.578,888.798 C 602.578,888.996 602.648,889.165 602.788,889.305 C 602.926,889.445 603.095,889.514 603.294,889.515 L 606.396,889.514 L 606.396,892.617 C 606.396,892.815 606.466,892.984 606.605,893.122 C 606.745,893.262 606.914,893.332 607.114,893.332 L 608.544,893.332 C 608.742,893.332 608.911,893.262 609.051,893.122 C 609.191,892.984 609.26,892.815 609.26,892.617 L 609.26,889.514 L 612.363,889.514 C 612.561,889.514 612.73,889.445 612.868,889.305 C 613.008,889.165 613.078,888.996 613.078,888.798 Z" stroke="none" stroke-width="0.278" fill-rule="nonzero" stroke-linejoin="round" stroke-linecap="round" marker-start="none" marker-end="none"/>
 </g>
</svg>
