<svg xmlns="http://www.w3.org/2000/svg" xmlns:xlink="http://www.w3.org/1999/xlink" width="34" height="30" viewBox="0 0 34 30"><defs><path id="pfvpa" d="M952.86 2085.92a.91.91 0 1 0-1.8.13 13.2 13.2 0 0 1-13.1 14.13 13.17 13.17 0 0 1 0-26.36c2.86 0 5.58.91 7.87 2.64.4.3.97.22 1.27-.19.3-.4.22-.97-.18-1.27-2.6-1.96-5.7-3-8.97-3a15 15 0 0 0 0 30 15 15 0 0 0 14.91-16.08z"/><path id="pfvpb" d="M955.96 2074.06a3.54 3.54 0 0 0-5 0l-13.1 13.13-4.64-4.65a3.54 3.54 0 0 0-5.01 0 3.57 3.57 0 0 0 0 5.02l8 8.02a2.34 2.34 0 0 0 3.31 0l16.44-16.5a3.57 3.57 0 0 0 0-5.02z"/></defs><g><g transform="translate(-923 -2072)"><use xlink:href="#pfvpa"/></g><g transform="translate(-923 -2072)"><use xlink:href="#pfvpb"/></g></g></svg>