<svg xmlns="http://www.w3.org/2000/svg" xmlns:xlink="http://www.w3.org/1999/xlink" width="92" height="96" viewBox="0 0 92 96"><defs><path id="9oqda" d="M609.37 1302.81l-7.14 3.8a8.25 8.25 0 0 0-4.29 5.89l-1.4 7.96a2.8 2.8 0 0 1-3.16 2.3l-8-1.13a8.24 8.24 0 0 0-6.93 2.25l-5.82 5.62a2.8 2.8 0 0 1-3.9 0l-5.81-5.62a8.24 8.24 0 0 0-6.94-2.25l-8 1.13a2.8 2.8 0 0 1-3.16-2.3l-1.4-7.96a8.25 8.25 0 0 0-4.28-5.9l-7.15-3.79a2.8 2.8 0 0 1-1.2-3.71l3.55-7.27a8.25 8.25 0 0 0 0-7.29l-3.55-7.26a2.8 2.8 0 0 1 1.2-3.72l7.15-3.79a8.25 8.25 0 0 0 4.28-5.9l1.4-7.96a2.8 2.8 0 0 1 3.16-2.3l8 1.14a8.25 8.25 0 0 0 6.94-2.25l5.8-5.62a2.8 2.8 0 0 1 3.91 0l5.82 5.62a8.25 8.25 0 0 0 6.93 2.25l8-1.13c1.51-.22 2.9.8 3.16 2.3l1.4 7.96c.45 2.54 2 4.69 4.29 5.9l7.14 3.79a2.8 2.8 0 0 1 1.2 3.7l-3.55 7.27a8.25 8.25 0 0 0 0 7.3l3.56 7.26c.66 1.37.13 3-1.21 3.71zm2.59-13.39a2.79 2.79 0 0 1 0-2.47l3.55-7.26a8.27 8.27 0 0 0-3.57-10.98l-7.14-3.79a2.79 2.79 0 0 1-1.45-2l-1.4-7.96a8.27 8.27 0 0 0-9.33-6.78l-8.01 1.13a2.79 2.79 0 0 1-2.35-.76l-5.8-5.62a8.27 8.27 0 0 0-11.55 0l-5.81 5.62a2.8 2.8 0 0 1-2.35.76l-8-1.13a8.26 8.26 0 0 0-9.34 6.78l-1.4 7.97a2.8 2.8 0 0 1-1.45 2l-7.14 3.78a8.27 8.27 0 0 0-3.57 10.98l3.55 7.27c.39.78.39 1.68 0 2.46l-3.55 7.27a8.27 8.27 0 0 0 3.57 10.97l7.14 3.8c.77.4 1.3 1.13 1.45 1.99l1.4 7.96a8.26 8.26 0 0 0 9.34 6.79l8-1.14c.87-.12 1.72.16 2.35.77l5.81 5.62a8.27 8.27 0 0 0 11.54 0l5.81-5.62a2.8 2.8 0 0 1 2.35-.77l8 1.14a8.26 8.26 0 0 0 9.34-6.79l1.4-7.96a2.8 2.8 0 0 1 1.45-2l7.14-3.79a8.27 8.27 0 0 0 3.57-10.97z"/><path id="9oqdc" d="M590.74 1268.13a2.75 2.75 0 0 0-3.88 0l-36.24 36.24a2.75 2.75 0 0 0 3.88 3.88l36.24-36.24a2.75 2.75 0 0 0 0-3.88z"/><path id="9oqde" d="M559.7 1278.12a4.58 4.58 0 1 1 0-9.16 4.58 4.58 0 0 1 0 9.16zm0-14.64a10.08 10.08 0 0 0 0 20.13 10.08 10.08 0 0 0 0-20.13z"/><path id="9oqdg" d="M581.66 1307.4a4.58 4.58 0 1 1 .01-9.15 4.58 4.58 0 0 1 0 9.16zm0-14.64a10.08 10.08 0 0 0 0 20.14 10.08 10.08 0 0 0 0-20.14z"/><linearGradient id="9oqdb" x1="570.68" x2="570.68" y1="1240.58" y2="1335.8" gradientUnits="userSpaceOnUse"><stop offset="0" stop-color="#5077e7"/><stop offset="1" stop-color="#a776dd"/></linearGradient><linearGradient id="9oqdd" x1="570.68" x2="570.68" y1="1267.32" y2="1309.05" gradientUnits="userSpaceOnUse"><stop offset="0" stop-color="#5077e7"/><stop offset="1" stop-color="#a776dd"/></linearGradient><linearGradient id="9oqdf" x1="559.7" x2="559.7" y1="1263.48" y2="1283.62" gradientUnits="userSpaceOnUse"><stop offset="0" stop-color="#5077e7"/><stop offset="1" stop-color="#a776dd"/></linearGradient><linearGradient id="9oqdh" x1="581.67" x2="581.67" y1="1292.76" y2="1312.9" gradientUnits="userSpaceOnUse"><stop offset="0" stop-color="#5077e7"/><stop offset="1" stop-color="#a776dd"/></linearGradient></defs><g><g transform="translate(-525 -1240)"><g><g><g><use xlink:href="#9oqda"/></g></g></g><g><g><g><use xlink:href="#9oqdc"/></g></g></g><g><g><g><use xlink:href="#9oqde"/></g></g></g><g><g><g><use xlink:href="#9oqdg"/></g></g></g></g></g></svg>