<svg xmlns="http://www.w3.org/2000/svg" xmlns:xlink="http://www.w3.org/1999/xlink" preserveAspectRatio="xMidYMid" width="40" height="40" viewBox="0 0 40 40">
  <defs>
    
  </defs>
  <path d="M40.000,16.005 L40.000,23.994 C40.000,24.989 39.531,25.868 38.815,26.440 C39.531,27.012 39.999,27.890 39.999,28.886 L39.999,36.875 C39.999,38.598 38.621,39.999 36.927,39.999 L3.072,39.999 C1.378,39.999 -0.000,38.598 -0.000,36.874 L-0.000,28.886 C-0.000,27.891 0.469,27.012 1.185,26.439 C0.469,25.867 -0.000,24.989 -0.000,23.993 L-0.000,16.005 C-0.000,15.010 0.469,14.131 1.185,13.558 C0.469,12.985 -0.000,12.108 -0.000,11.112 L-0.000,3.123 C-0.000,1.401 1.378,-0.001 3.072,-0.001 L36.928,-0.001 C38.622,-0.001 40.000,1.401 40.000,3.123 L40.000,11.112 C40.000,12.108 39.531,12.986 38.815,13.559 C39.531,14.131 40.000,15.009 40.000,16.005 ZM38.667,3.123 C38.667,2.149 37.887,1.355 36.927,1.355 L3.072,1.355 C2.113,1.355 1.333,2.149 1.333,3.123 L1.333,11.112 C1.333,12.088 2.113,12.880 3.072,12.880 L3.072,12.880 L36.928,12.880 C37.887,12.880 38.667,12.086 38.667,11.112 L38.667,3.123 ZM38.667,16.005 C38.667,15.029 37.887,14.237 36.927,14.237 L3.072,14.237 C2.113,14.237 1.333,15.029 1.333,16.005 L1.333,23.994 C1.333,24.969 2.113,25.762 3.072,25.761 L36.928,25.761 C37.887,25.761 38.667,24.968 38.667,23.993 L38.667,16.005 ZM38.667,28.886 C38.667,27.911 37.887,27.118 36.927,27.118 L3.072,27.118 C2.113,27.118 1.333,27.911 1.333,28.886 L1.333,36.875 C1.333,37.850 2.113,38.643 3.072,38.642 L36.928,38.642 C37.887,38.642 38.667,37.850 38.667,36.874 L38.667,28.886 ZM34.667,34.576 C34.298,34.576 34.000,34.272 34.000,33.897 C34.000,33.523 34.298,33.219 34.667,33.219 C35.035,33.219 35.333,33.523 35.333,33.897 C35.333,34.272 35.035,34.576 34.667,34.576 ZM33.333,32.542 C32.965,32.542 32.667,32.238 32.667,31.864 C32.667,31.489 32.965,31.185 33.333,31.185 C33.701,31.185 34.000,31.489 34.000,31.864 C34.000,32.238 33.701,32.542 33.333,32.542 ZM32.000,34.576 C31.632,34.576 31.333,34.272 31.333,33.897 C31.333,33.523 31.632,33.219 32.000,33.219 C32.368,33.219 32.667,33.523 32.667,33.897 C32.667,34.272 32.368,34.576 32.000,34.576 ZM30.667,32.542 C30.298,32.542 30.000,32.238 30.000,31.864 C30.000,31.489 30.298,31.185 30.667,31.185 C31.035,31.185 31.333,31.489 31.333,31.864 C31.333,32.238 31.035,32.542 30.667,32.542 ZM29.333,34.576 C28.965,34.576 28.666,34.272 28.666,33.897 C28.666,33.523 28.965,33.219 29.333,33.219 C29.701,33.219 30.000,33.523 30.000,33.897 C30.000,34.272 29.701,34.576 29.333,34.576 ZM28.000,32.542 C27.632,32.542 27.333,32.238 27.333,31.864 C27.333,31.489 27.632,31.185 28.000,31.185 C28.368,31.185 28.666,31.489 28.666,31.864 C28.666,32.238 28.368,32.542 28.000,32.542 ZM26.667,34.576 C26.298,34.576 26.000,34.272 26.000,33.897 C26.000,33.523 26.298,33.219 26.667,33.219 C27.035,33.219 27.333,33.523 27.333,33.897 C27.333,34.272 27.035,34.576 26.667,34.576 ZM25.333,32.542 C24.965,32.542 24.667,32.238 24.667,31.864 C24.667,31.489 24.965,31.185 25.333,31.185 C25.701,31.185 26.000,31.489 26.000,31.864 C26.000,32.238 25.701,32.542 25.333,32.542 ZM24.000,34.576 C23.632,34.576 23.333,34.272 23.333,33.897 C23.333,33.523 23.632,33.219 24.000,33.219 C24.368,33.219 24.667,33.523 24.667,33.897 C24.667,34.272 24.368,34.576 24.000,34.576 ZM22.667,32.542 C22.298,32.542 22.000,32.238 22.000,31.864 C22.000,31.489 22.298,31.185 22.667,31.185 C23.035,31.185 23.333,31.489 23.333,31.864 C23.333,32.238 23.035,32.542 22.667,32.542 ZM7.000,35.931 C5.346,35.931 4.000,34.562 4.000,32.880 C4.000,31.198 5.346,29.830 7.000,29.830 C8.654,29.830 10.000,31.198 10.000,32.880 C10.000,34.562 8.654,35.931 7.000,35.931 ZM7.000,31.185 C6.081,31.185 5.333,31.946 5.333,32.880 C5.333,33.815 6.081,34.576 7.000,34.576 C7.919,34.576 8.667,33.815 8.667,32.880 C8.667,31.946 7.919,31.185 7.000,31.185 ZM34.667,21.694 C34.298,21.694 34.000,21.391 34.000,21.016 C34.000,20.642 34.298,20.338 34.667,20.338 C35.035,20.338 35.333,20.642 35.333,21.016 C35.333,21.391 35.035,21.694 34.667,21.694 ZM33.333,19.660 C32.965,19.660 32.667,19.357 32.667,18.982 C32.667,18.608 32.965,18.304 33.333,18.304 C33.701,18.304 34.000,18.608 34.000,18.982 C34.000,19.357 33.701,19.660 33.333,19.660 ZM32.000,21.694 C31.632,21.694 31.333,21.391 31.333,21.016 C31.333,20.642 31.632,20.338 32.000,20.338 C32.368,20.338 32.667,20.642 32.667,21.016 C32.667,21.391 32.368,21.694 32.000,21.694 ZM30.667,19.660 C30.298,19.660 30.000,19.357 30.000,18.982 C30.000,18.608 30.298,18.304 30.667,18.304 C31.035,18.304 31.333,18.608 31.333,18.982 C31.333,19.357 31.035,19.660 30.667,19.660 ZM29.333,21.694 C28.965,21.694 28.666,21.391 28.666,21.016 C28.666,20.642 28.965,20.338 29.333,20.338 C29.701,20.338 30.000,20.642 30.000,21.016 C30.000,21.391 29.701,21.694 29.333,21.694 ZM28.000,19.660 C27.632,19.660 27.333,19.357 27.333,18.982 C27.333,18.608 27.632,18.304 28.000,18.304 C28.368,18.304 28.666,18.608 28.666,18.982 C28.666,19.357 28.368,19.660 28.000,19.660 ZM26.667,21.694 C26.298,21.694 26.000,21.391 26.000,21.016 C26.000,20.642 26.298,20.338 26.667,20.338 C27.035,20.338 27.333,20.642 27.333,21.016 C27.333,21.391 27.035,21.694 26.667,21.694 ZM25.333,19.660 C24.965,19.660 24.667,19.357 24.667,18.982 C24.667,18.608 24.965,18.304 25.333,18.304 C25.701,18.304 26.000,18.608 26.000,18.982 C26.000,19.357 25.701,19.660 25.333,19.660 ZM24.000,21.694 C23.632,21.694 23.333,21.391 23.333,21.016 C23.333,20.642 23.632,20.338 24.000,20.338 C24.368,20.338 24.667,20.642 24.667,21.016 C24.667,21.391 24.368,21.694 24.000,21.694 ZM22.667,19.660 C22.298,19.660 22.000,19.357 22.000,18.982 C22.000,18.608 22.298,18.304 22.667,18.304 C23.035,18.304 23.333,18.608 23.333,18.982 C23.333,19.357 23.035,19.660 22.667,19.660 ZM7.000,23.050 C5.346,23.050 4.000,21.681 4.000,19.999 C4.000,18.317 5.346,16.948 7.000,16.948 C8.654,16.948 10.000,18.317 10.000,19.999 C10.000,21.681 8.654,23.050 7.000,23.050 ZM7.000,18.304 C6.081,18.304 5.333,19.064 5.333,19.999 C5.333,20.934 6.081,21.694 7.000,21.694 C7.919,21.694 8.667,20.934 8.667,19.999 C8.667,19.064 7.919,18.304 7.000,18.304 ZM34.667,8.813 C34.298,8.813 34.000,8.509 34.000,8.135 C34.000,7.760 34.298,7.457 34.667,7.457 C35.035,7.457 35.333,7.760 35.333,8.135 C35.333,8.509 35.035,8.813 34.667,8.813 ZM33.333,6.779 C32.965,6.779 32.667,6.475 32.667,6.101 C32.667,5.727 32.965,5.423 33.333,5.423 C33.701,5.423 34.000,5.727 34.000,6.101 C34.000,6.475 33.701,6.779 33.333,6.779 ZM32.000,8.813 C31.632,8.813 31.333,8.509 31.333,8.135 C31.333,7.760 31.632,7.457 32.000,7.457 C32.368,7.457 32.667,7.760 32.667,8.135 C32.667,8.509 32.368,8.813 32.000,8.813 ZM30.667,6.779 C30.298,6.779 30.000,6.475 30.000,6.101 C30.000,5.727 30.298,5.423 30.667,5.423 C31.035,5.423 31.333,5.727 31.333,6.101 C31.333,6.475 31.035,6.779 30.667,6.779 ZM29.333,8.813 C28.965,8.813 28.666,8.509 28.666,8.135 C28.666,7.760 28.965,7.457 29.333,7.457 C29.701,7.457 30.000,7.760 30.000,8.135 C30.000,8.509 29.701,8.813 29.333,8.813 ZM28.000,6.779 C27.632,6.779 27.333,6.475 27.333,6.101 C27.333,5.727 27.632,5.423 28.000,5.423 C28.368,5.423 28.666,5.727 28.666,6.101 C28.666,6.475 28.368,6.779 28.000,6.779 ZM26.667,8.813 C26.298,8.813 26.000,8.509 26.000,8.135 C26.000,7.760 26.298,7.457 26.667,7.457 C27.035,7.457 27.333,7.760 27.333,8.135 C27.333,8.509 27.035,8.813 26.667,8.813 ZM25.333,6.779 C24.965,6.779 24.667,6.475 24.667,6.101 C24.667,5.727 24.965,5.423 25.333,5.423 C25.701,5.423 26.000,5.727 26.000,6.101 C26.000,6.475 25.701,6.779 25.333,6.779 ZM24.000,8.813 C23.632,8.813 23.333,8.509 23.333,8.135 C23.333,7.760 23.632,7.457 24.000,7.457 C24.368,7.457 24.667,7.760 24.667,8.135 C24.667,8.509 24.368,8.813 24.000,8.813 ZM22.667,6.779 C22.298,6.779 22.000,6.475 22.000,6.101 C22.000,5.727 22.298,5.423 22.667,5.423 C23.035,5.423 23.333,5.727 23.333,6.101 C23.333,6.475 23.035,6.779 22.667,6.779 ZM7.000,10.169 C5.346,10.169 4.000,8.800 4.000,7.118 C4.000,5.436 5.346,4.067 7.000,4.067 C8.654,4.067 10.000,5.436 10.000,7.118 C10.000,8.800 8.654,10.169 7.000,10.169 ZM7.000,5.423 C6.081,5.423 5.333,6.183 5.333,7.118 C5.333,8.053 6.081,8.813 7.000,8.813 C7.919,8.813 8.667,8.053 8.667,7.118 C8.667,6.183 7.919,5.423 7.000,5.423 Z"/>
</svg>
