<svg xmlns="http://www.w3.org/2000/svg" xmlns:xlink="http://www.w3.org/1999/xlink" preserveAspectRatio="xMidYMid" width="25" height="17" viewBox="0 0 25 17">
  <defs>
    
  </defs>
  <path d="M24.564,2.737 C24.258,1.440 23.171,0.483 21.862,0.341 C18.763,0.004 15.625,0.002 12.502,0.004 C9.379,0.002 6.241,0.004 3.141,0.341 C1.833,0.483 0.747,1.440 0.441,2.737 C0.005,4.583 0.000,6.598 0.000,8.500 C0.000,10.401 0.000,12.417 0.436,14.263 C0.741,15.559 1.828,16.516 3.137,16.659 C6.236,16.996 9.374,16.998 12.497,16.996 C15.621,16.998 18.758,16.996 21.857,16.659 C23.165,16.516 24.253,15.559 24.559,14.263 C24.994,12.417 24.996,10.401 24.996,8.500 C24.996,6.598 25.000,4.583 24.564,2.737 ZM9.272,12.284 C9.272,9.587 9.272,6.918 9.272,4.221 C11.922,5.569 14.553,6.908 17.219,8.265 C14.561,9.609 11.928,10.941 9.272,12.284 Z" class="cls-1"/>
</svg>
