<svg xmlns="http://www.w3.org/2000/svg" xmlns:xlink="http://www.w3.org/1999/xlink" width="512" height="11660" viewBox="0 0 512 11660"><svg preserveAspectRatio="xMidYMid" width="14.88" height="15.531" viewBox="0 0 14.88 15.531" id="Phone" y="0"><path d="M13.213 10.803c-.965-.802-1.944-1.289-2.897-.487l-.568.485c-.416.352-1.19 1.995-4.183-1.355-2.992-3.347-1.212-3.868-.795-4.217l.572-.485c.948-.804.591-1.815-.093-2.857l-.413-.631C4.15.217 3.402-.465 2.452.338l-.514.437A4.68 4.68 0 0 0 .06 3.879c-.343 2.207.738 4.734 3.215 7.506 2.474 2.775 4.896 4.168 7.19 4.143 1.907-.019 3.058-1.015 3.418-1.377l.516-.438c.947-.801.359-1.618-.607-2.422l-.579-.488z" class="cls-1"></path></svg><svg viewBox="0 0 129 129" width="129" height="129" id="arrow-down" y="16"><path d="M121.3 34.6c-1.6-1.6-4.2-1.6-5.8 0l-51 51.1-51.1-51.1c-1.6-1.6-4.2-1.6-5.8 0-1.6 1.6-1.6 4.2 0 5.8l53.9 53.9c.8.8 1.8 1.2 2.9 1.2 1 0 2.1-.4 2.9-1.2l53.9-53.9c1.7-1.6 1.7-4.2.1-5.8z"></path></svg><svg width="284.929" height="284.929" viewBox="0 0 284.929 284.929" id="arrow-down-fat" y="145"><path d="M282.082 76.511l-14.274-14.273c-1.902-1.906-4.093-2.856-6.57-2.856-2.471 0-4.661.95-6.563 2.856L142.466 174.441 30.262 62.241c-1.903-1.906-4.093-2.856-6.567-2.856-2.475 0-4.665.95-6.567 2.856L2.856 76.515C.95 78.417 0 80.607 0 83.082c0 2.473.953 4.663 2.856 6.565l133.043 133.046c1.902 1.903 4.093 2.854 6.567 2.854s4.661-.951 6.562-2.854L282.082 89.647c1.902-1.903 2.847-4.093 2.847-6.565 0-2.475-.945-4.665-2.847-6.571z"></path></svg><svg viewBox="0 0 477.175 477.175" width="477.175" height="477.175" id="arrow-left" y="430"><path d="M145.188 238.575l215.5-215.5c5.3-5.3 5.3-13.8 0-19.1s-13.8-5.3-19.1 0l-225.1 225.1c-5.3 5.3-5.3 13.8 0 19.1l225.1 225c2.6 2.6 6.1 4 9.5 4s6.9-1.3 9.5-4c5.3-5.3 5.3-13.8 0-19.1l-215.4-215.5z"></path></svg><svg viewBox="0 0 477.175 477.175" width="477.175" height="477.175" id="arrow-right" y="908"><path d="M360.731 229.075l-225.1-225.1c-5.3-5.3-13.8-5.3-19.1 0s-5.3 13.8 0 19.1l215.5 215.5-215.5 215.5c-5.3 5.3-5.3 13.8 0 19.1 2.6 2.6 6.1 4 9.5 4 3.4 0 6.9-1.3 9.5-4l225.1-225.1c5.3-5.2 5.3-13.8.1-19z"></path></svg><svg viewBox="0 0 31.49 31.49" width="31.49" height="31.49" id="arrow-simple-right" y="1386"><path d="M21.205 5.007a1.112 1.112 0 0 0-1.587 0 1.12 1.12 0 0 0 0 1.571l8.047 8.047H1.111A1.106 1.106 0 0 0 0 15.737c0 .619.492 1.127 1.111 1.127h26.554l-8.047 8.032c-.429.444-.429 1.159 0 1.587a1.112 1.112 0 0 0 1.587 0l9.952-9.952a1.093 1.093 0 0 0 0-1.571l-9.952-9.953z"></path></svg><svg width="37" height="37" viewBox="0 0 37 37" id="arrow-skew-left" y="1418"><defs><path id="a" d="M903.27 1381.11c0-.76-.6-1.38-1.37-1.37l-16.76.08 31.03-31.02a1.37 1.37 0 1 0-1.94-1.94l-31.03 31.02.09-16.75c0-.77-.6-1.38-1.37-1.38a1.4 1.4 0 0 0-1.39 1.4l-.1 20.07a1.34 1.34 0 0 0 1.37 1.37l20.07-.1a1.4 1.4 0 0 0 1.4-1.38z"></path></defs><use xlink:href="#a" opacity=".3" transform="translate(-880 -1346)"></use></svg><svg width="37" height="37" viewBox="0 0 37 37" id="arrow-skew-right" y="1455"><defs><path id="a" d="M1038.1 1359.75c-.77 0-1.39.6-1.38 1.37l.08 16.76-31.02-31.03a1.37 1.37 0 1 0-1.94 1.94l31.02 31.03-16.75-.09c-.77 0-1.38.6-1.37 1.37 0 .77.62 1.39 1.38 1.39l20.08.1a1.34 1.34 0 0 0 1.37-1.37l-.1-20.07a1.4 1.4 0 0 0-1.38-1.4z"></path></defs><use xlink:href="#a" opacity=".3" transform="translate(-1003 -1346)"></use></svg><svg width="64" height="64" viewBox="0 0 64 64" id="arrow-up" y="1492"><path d="M3.352 48.296l28.56-28.328 28.58 28.347c.397.394.917.59 1.436.59.52 0 1.04-.196 1.436-.59a2.003 2.003 0 0 0 0-2.849l-29.98-29.735c-.2-.2-.494-.375-.757-.475a2.052 2.052 0 0 0-2.166.456L.479 45.447a2.003 2.003 0 0 0 0 2.849 2.045 2.045 0 0 0 2.873 0z"></path></svg><svg preserveAspectRatio="xMidYMid" width="40" height="40" viewBox="0 0 40 40" id="atom" y="1556"><path d="M35.636-.001a4.368 4.368 0 0 0-4.363 4.364c0 .753.191 1.461.528 2.079l-7.149 7.149a5.777 5.777 0 0 0-7.123 0l-5.578-5.578a2.87 2.87 0 0 0 .412-1.468 2.911 2.911 0 0 0-2.909-2.909 2.912 2.912 0 0 0-2.909 2.909 2.911 2.911 0 0 0 2.909 2.908c.539 0 1.036-.155 1.469-.412l5.577 5.578a5.785 5.785 0 0 0 0 7.123l-9.21 9.211a4.343 4.343 0 0 0-2.926-1.136A4.368 4.368 0 0 0 0 34.181a4.369 4.369 0 0 0 4.364 4.364 4.368 4.368 0 0 0 4.363-4.364c0-.753-.191-1.461-.528-2.08l9.33-9.33a5.791 5.791 0 0 0 2.835 1.177v7.389a4.367 4.367 0 0 0-3.636 4.299A4.369 4.369 0 0 0 21.092 40a4.368 4.368 0 0 0 4.363-4.364 4.367 4.367 0 0 0-3.636-4.299v-7.389a5.791 5.791 0 0 0 2.835-1.177l5.577 5.577a2.868 2.868 0 0 0-.413 1.469 2.912 2.912 0 0 0 2.909 2.909 2.911 2.911 0 0 0 2.909-2.909 2.912 2.912 0 0 0-2.909-2.909c-.538 0-1.035.157-1.468.413l-5.578-5.578a5.78 5.78 0 0 0 0-7.124l7.029-7.028a4.342 4.342 0 0 0 2.926 1.135A4.368 4.368 0 0 0 40 4.363a4.368 4.368 0 0 0-4.364-4.364zM8 6.545c0-.802.652-1.455 1.454-1.455A1.456 1.456 0 1 1 8 6.545zM4.364 37.09a2.913 2.913 0 0 1-2.91-2.909 2.912 2.912 0 0 1 2.91-2.909 2.912 2.912 0 0 1 2.909 2.909 2.912 2.912 0 0 1-2.909 2.909zM24 35.636a2.912 2.912 0 0 1-2.909 2.909 2.912 2.912 0 0 1-2.909-2.909 2.912 2.912 0 0 1 2.909-2.91A2.913 2.913 0 0 1 24 35.636zm-2.909-13.091a4.368 4.368 0 0 1-4.364-4.364 4.368 4.368 0 0 1 4.364-4.364 4.368 4.368 0 0 1 4.363 4.364 4.368 4.368 0 0 1-4.363 4.364zm13.091 7.272a1.456 1.456 0 1 1-1.455-1.454c.802 0 1.455.652 1.455 1.454zm1.454-22.546a2.911 2.911 0 0 1-2.909-2.908 2.912 2.912 0 0 1 2.909-2.909 2.911 2.911 0 0 1 2.909 2.909 2.91 2.91 0 0 1-2.909 2.908z"></path></svg><svg viewBox="0 0 475.2 475.2" width="475.2" height="475.2" id="cancel" y="1596"><path d="M405.6 69.6C360.7 24.7 301.1 0 237.6 0s-123.1 24.7-168 69.6S0 174.1 0 237.6s24.7 123.1 69.6 168 104.5 69.6 168 69.6 123.1-24.7 168-69.6 69.6-104.5 69.6-168-24.7-123.1-69.6-168zm-19.1 316.9c-39.8 39.8-92.7 61.7-148.9 61.7s-109.1-21.9-148.9-61.7c-82.1-82.1-82.1-215.7 0-297.8C128.5 48.9 181.4 27 237.6 27s109.1 21.9 148.9 61.7c82.1 82.1 82.1 215.7 0 297.8z"></path><path d="M342.3 132.9c-5.3-5.3-13.8-5.3-19.1 0l-85.6 85.6-85.6-85.6c-5.3-5.3-13.8-5.3-19.1 0-5.3 5.3-5.3 13.8 0 19.1l85.6 85.6-85.6 85.6c-5.3 5.3-5.3 13.8 0 19.1 2.6 2.6 6.1 4 9.5 4s6.9-1.3 9.5-4l85.6-85.6 85.6 85.6c2.6 2.6 6.1 4 9.5 4 3.5 0 6.9-1.3 9.5-4 5.3-5.3 5.3-13.8 0-19.1l-85.4-85.6 85.6-85.6c5.3-5.3 5.3-13.8 0-19.1z"></path></svg><svg width="50" height="52" viewBox="0 0 50 52" id="check-payment" y="2072"><defs><path id="a" d="M653.06 1848.8l-4.44-2.95c-.44-.3-1.02-.3-1.46 0l-5.74 3.83-5.76-3.83c-.44-.3-1.02-.3-1.46 0l-5.74 3.82-5.76-3.82c-.44-.3-1.03-.3-1.47 0l-4.41 2.94v-45.16h36.23zm5.62-47.8h-47.36c-.72 0-1.32.6-1.32 1.32 0 .73.6 1.32 1.32 1.32h2.85v47.62c0 .49.27.94.7 1.17.43.23.95.21 1.35-.06l5.74-3.83 5.76 3.84c.44.3 1.02.3 1.47 0l5.73-3.82 5.76 3.83c.44.3 1.03.3 1.47 0l5.74-3.82 5.76 3.83a1.34 1.34 0 0 0 1.35.06c.43-.23.7-.68.7-1.16l-.03-47.62h3c.74 0 1.33-.6 1.33-1.33 0-.72-.6-1.35-1.32-1.35z"></path><path id="b" d="M622.9 1822.1h13.84c.73 0 1.32-.6 1.32-1.32 0-.73-.6-1.32-1.32-1.32H622.9a1.32 1.32 0 1 0 0 2.64z"></path><path id="c" d="M622.9 1826.7h10.37a1.33 1.33 0 1 0 0-2.64H622.9a1.32 1.32 0 0 0 0 2.64z"></path><path id="d" d="M643.66 1822.1h3.45c.73 0 1.33-.6 1.33-1.32 0-.73-.6-1.32-1.33-1.32h-3.45a1.32 1.32 0 1 0 0 2.64z"></path><path id="e" d="M643.66 1826.7h3.45a1.33 1.33 0 1 0 0-2.64h-3.45a1.32 1.32 0 0 0 0 2.64z"></path><path id="f" d="M622.9 1811.5h13.84a1.33 1.33 0 1 0 0-2.64H622.9a1.32 1.32 0 0 0 0 2.64z"></path><path id="g" d="M622.9 1816.08h10.37c.73 0 1.32-.6 1.32-1.32 0-.73-.6-1.33-1.32-1.33H622.9c-.73 0-1.32.6-1.32 1.33 0 .72.58 1.32 1.32 1.32z"></path><path id="h" d="M643.66 1811.5h3.45a1.33 1.33 0 1 0 0-2.64h-3.45a1.32 1.32 0 0 0 0 2.64z"></path><path id="i" d="M643.66 1816.08h3.45c.73 0 1.33-.6 1.33-1.32 0-.73-.6-1.33-1.33-1.33h-3.45c-.73 0-1.32.6-1.32 1.33 0 .72.58 1.32 1.32 1.32z"></path><path id="j" d="M622.9 1832.84h13.84c.73 0 1.32-.6 1.32-1.32 0-.73-.6-1.32-1.32-1.32H622.9a1.32 1.32 0 1 0 0 2.64z"></path><path id="k" d="M622.9 1837.42h10.37c.73 0 1.32-.6 1.32-1.32 0-.73-.6-1.32-1.32-1.32H622.9a1.32 1.32 0 1 0 0 2.64z"></path><path id="l" d="M643.66 1832.84h3.45c.73 0 1.33-.6 1.33-1.32 0-.73-.6-1.32-1.33-1.32h-3.45a1.32 1.32 0 1 0 0 2.64z"></path><path id="m" d="M643.66 1837.42h3.45c.73 0 1.33-.6 1.33-1.32 0-.73-.6-1.32-1.33-1.32h-3.45a1.32 1.32 0 1 0 0 2.64z"></path></defs><use xlink:href="#a" transform="translate(-610 -1801)"></use><use xlink:href="#b" transform="translate(-610 -1801)"></use><use xlink:href="#c" transform="translate(-610 -1801)"></use><use xlink:href="#d" transform="translate(-610 -1801)"></use><use xlink:href="#e" transform="translate(-610 -1801)"></use><use xlink:href="#f" transform="translate(-610 -1801)"></use><use xlink:href="#g" transform="translate(-610 -1801)"></use><use xlink:href="#h" transform="translate(-610 -1801)"></use><use xlink:href="#i" transform="translate(-610 -1801)"></use><use xlink:href="#j" transform="translate(-610 -1801)"></use><use xlink:href="#k" transform="translate(-610 -1801)"></use><use xlink:href="#l" transform="translate(-610 -1801)"></use><use xlink:href="#m" transform="translate(-610 -1801)"></use></svg><svg viewBox="0 0 26 26" width="26" height="26" id="checked" y="2124"><path d="M.3 14c-.2-.2-.3-.5-.3-.7s.1-.5.3-.7l1.4-1.4c.4-.4 1-.4 1.4 0l.1.1 5.5 5.9c.2.2.5.2.7 0L22.8 3.3h.1c.4-.4 1-.4 1.4 0l1.4 1.4c.4.4.4 1 0 1.4l-16 16.6c-.2.2-.4.3-.7.3-.3 0-.5-.1-.7-.3L.5 14.3.3 14z"></path></svg><svg width="54.422" height="54.422" viewBox="0 0 139 139" id="close" y="2150"><path class="fil0" d="M7 0l63 63 62-63 7 7-63 63 63 62-7 7-62-63-63 63-7-7 63-62L0 7z"></path></svg><svg width="40" height="40" viewBox="0 0 40 40" id="cloud-message" y="2205"><defs><path id="a" d="M1028.26 1542.74c0 5.27-4.29 9.56-9.56 9.56h-1.74c-.23 0-.46.1-.62.26l-5.47 5.47v-4.86a.87.87 0 0 0-.87-.87h-8.7a9.58 9.58 0 0 1-9.56-9.56v-10.44c0-5.27 4.29-9.56 9.56-9.56h17.4c5.27 0 9.56 4.29 9.56 9.56zm-9.56-21.74h-17.4c-6.23 0-11.3 5.07-11.3 11.3v10.44c0 6.23 5.07 11.3 11.3 11.3h7.83v6.09a.87.87 0 0 0 1.48.62l6.7-6.7h1.39c6.23 0 11.3-5.08 11.3-11.31v-10.44c0-6.23-5.07-11.3-11.3-11.3z"></path><path id="b" d="M1010 1540.13c.48 0 .87-.39.87-.87v-10.43a.87.87 0 1 0-1.74 0v10.43c0 .48.39.87.87.87z"></path><path id="c" d="M1008.26 1545.35a1.74 1.74 0 1 1 3.48 0 1.74 1.74 0 0 1-3.48 0z"></path><path id="d" d="M1023.91 1540.13a.87.87 0 0 0-.87.87v1.74c0 2.4-1.95 4.35-4.34 4.35h-1.74a.87.87 0 1 0 0 1.74h1.74a6.1 6.1 0 0 0 6.08-6.1V1541a.87.87 0 0 0-.87-.87z"></path><path id="e" d="M1003.04 1526.22h-1.74a6.1 6.1 0 0 0-6.08 6.08v1.74a.87.87 0 1 0 1.74 0v-1.74c0-2.4 1.95-4.34 4.34-4.34h1.74a.87.87 0 1 0 0-1.74z"></path></defs><use xlink:href="#a" transform="translate(-990 -1521)"></use><use xlink:href="#b" transform="translate(-990 -1521)"></use><use xlink:href="#c" transform="translate(-990 -1521)"></use><use xlink:href="#d" transform="translate(-990 -1521)"></use><use xlink:href="#e" transform="translate(-990 -1521)"></use></svg><svg width="50" height="50" viewBox="0 0 50 50" id="false" y="2245"><defs><path id="a" d="M1026.69 1504.74l-.13-.05.13.05zm9.31.56a22.23 22.23 0 0 1-19.76-11.97 22.32 22.32 0 0 1 19.76-32.62c5.83 0 11.15 2.24 15.12 5.92a22.16 22.16 0 0 1 7.17 16.37c0 12.3-10 22.3-22.29 22.3zm0-47.3c-13.78 0-25 11.22-25 25s11.22 25 25 25 25-11.22 25-25-11.21-25-25-25z"></path><path id="b" d="M1024.94 1477.6a2.7 2.7 0 1 1 5.4 0 2.7 2.7 0 0 1-5.4 0z"></path><path id="c" d="M1041.66 1477.6a2.7 2.7 0 1 1 5.4 0 2.7 2.7 0 0 1-5.4 0z"></path><path id="d" d="M1041.16 1469.62l1.07-2.48 8.56 3.7-1.07 2.48z"></path><path id="e" d="M1029.77 1467.14l1.07 2.48-8.56 3.7-1.07-2.48z"></path><path id="f" d="M1047.2 1492.25c.2.37.39.75.56 1.14l2.47-1.09a15.56 15.56 0 0 0-15.05-9.27c-5.8.3-11.07 3.94-13.41 9.27l2.47 1.1a12.94 12.94 0 0 1 11.08-7.67c4.83-.25 9.5 2.31 11.87 6.52z"></path></defs><use xlink:href="#a" transform="translate(-1011 -1458)"></use><use xlink:href="#b" transform="translate(-1011 -1458)"></use><use xlink:href="#c" transform="translate(-1011 -1458)"></use><use xlink:href="#d" transform="translate(-1011 -1458)"></use><use xlink:href="#e" transform="translate(-1011 -1458)"></use><use xlink:href="#f" transform="translate(-1011 -1458)"></use></svg><svg preserveAspectRatio="xMidYMid" width="40" height="40" viewBox="0 0 40 40" id="folder" y="2295"><path d="M33.182 38.791c-.183.688-.861 1.209-1.633 1.209H1.71a1.7 1.7 0 0 1-1.706-1.721H0V9.154C0 8.15.817 7.333 1.821 7.333h.846V2.666h2V1.333h2V-.001h26.666v12h.846c1.004 0 1.821.817 1.821 1.822v4.178h2.327c.969 0 1.673.834 1.673 1.982v.117l-6.818 18.693zM2.667 8.666h-.846a.489.489 0 0 0-.488.488v25.11l1.334-3.636V8.666zm2-4.667H4v23.034l.667-1.827V3.999zm2-1.333H6V21.55l.625-1.712.042-.116V2.666zM32 11.999V1.333H8V18.07c.012-.003.026-.002.038-.005a1.68 1.68 0 0 1 .449-.066H32v-6zm2.667 1.822a.488.488 0 0 0-.488-.488h-.846v4.666h1.334v-4.178zm3.66 5.512H8.487a.377.377 0 0 0-.363.278l-.018.054-.106.293-.045.123-1.288 3.534v-.002l-2 5.484-2 5.483-1.338 3.666c-.024.101.04.217.082.271a.367.367 0 0 0 .299.149h29.839c.17 0 .32-.114.363-.278l6.748-18.51c-.015-.182-.081-.545-.333-.545zM12 5.332h6.667a.666.666 0 1 1 0 1.334H12a.667.667 0 1 1 0-1.334zm0 4.667h16a.666.666 0 1 1 0 1.333H12a.666.666 0 1 1 0-1.333zm0 4.667h16a.666.666 0 1 1 0 1.333H12a.667.667 0 1 1 0-1.333z"></path></svg><svg viewBox="0 0 59 59" width="59" height="59" id="garbage" y="2335"><path d="M29.5 51a1 1 0 0 0 1-1V17a1 1 0 1 0-2 0v33a1 1 0 0 0 1 1zm-10 0a1 1 0 0 0 1-1V17a1 1 0 1 0-2 0v33a1 1 0 0 0 1 1zm20 0a1 1 0 0 0 1-1V17a1 1 0 1 0-2 0v33a1 1 0 0 0 1 1z"></path><path d="M52.5 6H38.456c-.11-1.25-.495-3.358-1.813-4.711C35.809.434 34.751 0 33.499 0H23.5c-1.252 0-2.31.434-3.144 1.289C19.038 2.642 18.653 4.75 18.543 6H6.5a1 1 0 1 0 0 2h2.041l1.915 46.021C10.493 55.743 11.565 59 15.364 59h28.272c3.799 0 4.871-3.257 4.907-4.958L50.459 8H52.5a1 1 0 1 0 0-2zM21.792 2.681C22.24 2.223 22.799 2 23.5 2h9.999c.701 0 1.26.223 1.708.681.805.823 1.128 2.271 1.24 3.319H20.553c.112-1.048.435-2.496 1.239-3.319zm24.752 51.298C46.538 54.288 46.4 57 43.636 57H15.364c-2.734 0-2.898-2.717-2.909-3.042L10.542 8h37.915l-1.913 45.979z"></path></svg><svg width="50" height="50" viewBox="0 0 50 50" id="good" y="2394"><defs><path id="a" d="M435 1505.3a22.23 22.23 0 0 1-19.76-11.97A22.32 22.32 0 0 1 435 1460.7c5.83 0 11.15 2.24 15.12 5.92a22.16 22.16 0 0 1 7.17 16.37c0 12.3-10 22.3-22.29 22.3zm0-47.3c-13.78 0-25 11.22-25 25s11.22 25 25 25 25-11.22 25-25-11.21-25-25-25z"></path><path id="b" d="M423.94 1477.6a2.7 2.7 0 1 1 5.4 0 2.7 2.7 0 0 1-5.4 0z"></path><path id="c" d="M440.66 1477.6a2.7 2.7 0 1 1 5.4 0 2.7 2.7 0 0 1-5.4 0z"></path><path id="d" d="M435 1492.36a18.3 18.3 0 0 0 11.52-4.1 5.49 5.49 0 0 0 4.64 2.78v-2.7a2.7 2.7 0 0 1-2.63-2.64 2.7 2.7 0 0 1 2.63-2.63v-2.7a5.38 5.38 0 0 0-5.29 4.87 15.65 15.65 0 0 1-21.8 0 5.43 5.43 0 0 0-5.34-4.87v2.7a2.6 2.6 0 0 1 2.63 2.63 2.6 2.6 0 0 1-2.63 2.64v2.7a5.36 5.36 0 0 0 4.69-2.77 18.25 18.25 0 0 0 11.58 4.09z"></path></defs><use xlink:href="#a" transform="translate(-410 -1458)"></use><use xlink:href="#b" transform="translate(-410 -1458)"></use><use xlink:href="#c" transform="translate(-410 -1458)"></use><use xlink:href="#d" transform="translate(-410 -1458)"></use></svg><svg viewBox="0 0 471.701 471.701" width="471.701" height="471.701" id="heart" y="2444"><path d="M433.601 67.001c-24.7-24.7-57.4-38.2-92.3-38.2s-67.7 13.6-92.4 38.3l-12.9 12.9-13.1-13.1c-24.7-24.7-57.6-38.4-92.5-38.4-34.8 0-67.6 13.6-92.2 38.2-24.7 24.7-38.3 57.5-38.2 92.4 0 34.9 13.7 67.6 38.4 92.3l187.8 187.8c2.6 2.6 6.1 4 9.5 4 3.4 0 6.9-1.3 9.5-3.9l188.2-187.5c24.7-24.7 38.3-57.5 38.3-92.4.1-34.9-13.4-67.7-38.1-92.4zm-19.2 165.7l-178.7 178-178.3-178.3c-19.6-19.6-30.4-45.6-30.4-73.3s10.7-53.7 30.3-73.2c19.5-19.5 45.5-30.3 73.1-30.3 27.7 0 53.8 10.8 73.4 30.4l22.6 22.6c5.3 5.3 13.8 5.3 19.1 0l22.4-22.4c19.6-19.6 45.7-30.4 73.3-30.4 27.6 0 53.6 10.8 73.2 30.3 19.6 19.6 30.3 45.6 30.3 73.3.1 27.7-10.7 53.7-30.3 73.3z"></path></svg><svg viewBox="0 0 486.196 486.196" width="486.196" height="486.196" id="house" y="2916"><path d="M481.708 220.456l-228.8-204.6c-.4-.4-.8-.7-1.3-1-5-4.8-13-5-18.3-.3l-228.8 204.6c-5.6 5-6 13.5-1.1 19.1 2.7 3 6.4 4.5 10.1 4.5 3.2 0 6.4-1.1 9-3.4l41.2-36.9v238.6c0 18.7 15.2 34 34 34h72.2c17.6 0 31.9-14.3 31.9-31.9v-121.3c0-2.7 2.2-4.9 4.9-4.9h72.9c2.7 0 4.9 2.2 4.9 4.9v121.3c0 17.6 14.3 31.9 31.9 31.9h72.2c19 0 34-18.7 34-42.6v-228.7l41.2 36.9c2.6 2.3 5.8 3.4 9 3.4 3.7 0 7.4-1.5 10.1-4.5 4.8-5.6 4.3-14.1-1.2-19.1zm-86.2 66.7v145.1c0 9.7-4.8 15.6-7 15.6h-72.2c-2.7 0-4.9-2.2-4.9-4.9v-121.1c0-17.6-14.3-31.9-31.9-31.9h-72.9c-17.6 0-31.9 14.3-31.9 31.9v121.3c0 2.7-2.2 4.9-4.9 4.9h-72.2c-3.8 0-7-3.1-7-7v-262.8l151.8-135.6 153.1 136.9v107.6z"></path></svg><svg viewBox="0 0 490.4 490.4" width="490.4" height="490.4" id="interface" y="3403"><path d="M245.2 490.4c135.2 0 245.2-110 245.2-245.2S380.4 0 245.2 0 0 110 0 245.2s110 245.2 245.2 245.2zm0-465.9c121.7 0 220.7 99 220.7 220.7s-99 220.7-220.7 220.7-220.7-99-220.7-220.7 99-220.7 220.7-220.7z"></path><path d="M206.5 349.6c2.3 2.3 5.4 3.6 8.7 3.6 3.2 0 6.3-1.3 8.6-3.6l147.5-146.7c2.3-2.3 3.6-5.4 3.6-8.7 0-3.2-1.3-6.4-3.6-8.7l-44.6-44.8c-4.8-4.8-12.5-4.8-17.3-.1l-94 93.5-34.2-34.4c-2.3-2.3-5.4-3.6-8.7-3.6-3.2 0-6.3 1.3-8.6 3.6l-44.8 44.6c-2.3 2.3-3.6 5.4-3.6 8.7 0 3.2 1.3 6.4 3.6 8.7l87.4 87.9zm-34-123.9l34.3 34.5c4.8 4.8 12.5 4.8 17.3.1l94-93.5 27.3 27.4-130.1 129.4-70.2-70.6 27.4-27.3z"></path></svg><svg viewBox="0 0 490.2 490.2" width="490.2" height="490.2" id="like" y="3894"><path d="M490.1 234.464c0-37.6-30.6-68.3-68.3-68.3H316.2v-76.1c0-32.2-9.4-55.4-28-69-29.4-21.6-69.8-9.3-71.5-8.7-5.1 1.6-8.6 6.3-8.6 11.7v85.5c0 67.3-78.1 90.2-81.4 91.2-1 .3-1.9.6-2.7 1.1-5.8-11.6-17.8-19.6-31.6-19.6H35.2c-19.4 0-35.2 15.8-35.2 35.2v207.9c0 19.4 15.8 35.2 35.2 35.2h33.1c6.8 0 12.3-5.5 12.3-12.3s-5.6-12.2-12.3-12.2H35.2c-5.9 0-10.7-4.8-10.7-10.7v-207.9c0-5.9 4.8-10.7 10.7-10.7h57.3c5.9 0 10.7 4.8 10.7 10.7v196.1c0 37.6 30.6 68.3 68.3 68.3h209.2c46.4 0 75.9-24.3 81.1-66.3l28.2-177c.1-.6.2-1.3.2-1.9v-2.2h-.1zm-24.5 1.1l-28.1 176.5c-3.7 30-22.8 45.3-56.8 45.3H171.5c-24.1 0-43.8-19.6-43.8-43.8v-189.1c1.8.4 3.7.3 5.6-.2 4.1-1.1 99.3-28.7 99.3-114.8v-75.6c10.4-1.6 28.2-2.5 41.1 6.9 11.9 8.8 18 25.3 18 49.3v88.4c0 6.8 5.5 12.3 12.3 12.3h117.9c24.1 0 43.8 19.6 43.8 43.8v1h-.1z"></path></svg><svg width="35" height="35" viewBox="0 0 35 35" id="location" y="4385"><defs><path id="a" d="M395.32 977.42a1.34 1.34 0 1 1 0-2.7 1.34 1.34 0 0 1 0 2.7zm0-4.03a2.68 2.68 0 1 0 0 5.37 2.68 2.68 0 0 0 0-5.37z"></path><path id="b" d="M388.61 992.18c-1.32 0-2.6-.17-3.82-.48l.7-2.43c.05-.16.07-.33.07-.5 0-.3-.07-.6-.2-.88a1.91 1.91 0 0 0-.58-.74l-.87-.65a.22.22 0 0 1-.08-.18c0-.05.01-.1.04-.13l2.38-3.17a.32.32 0 0 1 .25-.12c.06 0 .11.02.15.04l.79.5c.04.02.1.08.15.17.05.1.08.2.07.29v.1l-.36 1.16c-.04.15-.06.3-.06.43a1.34 1.34 0 0 0 1.29 1.36l1.96.15h.14c.36 0 .7-.08 1.03-.22.32-.14.62-.33.86-.6l.88-.99c.41.5.74.87.92 1.08l1 1.1 1-1.1c.96-1.07 5.71-6.54 5.71-9.85 0-.65-.1-1.28-.27-1.88h.06a2.6 2.6 0 0 1 1 .22l1.43.8.02.86c0 8.64-7.02 15.66-15.66 15.66zm12.08-15.66c0 2.97-5.37 8.95-5.37 8.95s-5.37-5.98-5.37-8.95a5.37 5.37 0 1 1 10.74 0zM384.2 988.9l-.7 2.42c-3.24-1.13-6-3.28-7.89-6.08l.2-.24c.26-.33.8-.9 1.14-1.2l.54-.5c.27-.23.48-.52.66-.84.18-.31.33-.64.4-.99l.12-.58a2.68 2.68 0 0 0-.6-2.12l-.61-.64-.03-.03.04-.03 1.08-.64a.81.81 0 0 1 .4-.09c.17 0 .35.06.42.1l1.08.7c.38.24.8.33 1.2.33.35 0 .7-.06 1.02-.23l1.33-.7c.34-.19.6-.45.83-.74.23-.3.41-.63.5-1l.22-.94a4.2 4.2 0 0 0-.22-2.1l-.76-1.66-.02-.1c0-.08.05-.16.13-.2l1.8-.83c.35-.17.63-.42.86-.72.23-.3.41-.63.49-1.02l.26-1.44a3.28 3.28 0 0 0-.47-2.12l-1.02-1.44a.83.83 0 0 1-.12-.45c0-.14.04-.28.07-.34l.85-1.52a15.68 15.68 0 0 1 16.67 13.1l-.6-.33a3.9 3.9 0 0 0-2.1-.35l-.13.02a6.72 6.72 0 0 0-12.63 3.16c0 2.26 2.22 5.53 3.93 7.72l-1.02 1.15c-.06.07-.22.18-.4.26-.17.07-.37.12-.49.11h-.04l-1.96-.15h-.05v-.06l.36-1.16a1.97 1.97 0 0 0-.15-1.39 1.8 1.8 0 0 0-.64-.7l-.79-.5a1.66 1.66 0 0 0-2.19.4l-2.37 3.18a1.56 1.56 0 0 0 .31 2.2l.87.65c.05.03.12.11.16.22.05.1.08.23.08.33 0 .05 0 .09-.02.12zm-11.25-12.38c0-2.1.42-4.1 1.18-5.93a34.88 34.88 0 0 0 2.31 2.81l.99 1.08.99-1.08c.8-.87 4.82-5.38 4.82-8.17 0-1.12-.33-2.17-.9-3.05 1.08-.47 2.22-.83 3.4-1.05l-.36.65c-.17.32-.24.66-.24 1 0 .43.1.85.37 1.23l1.02 1.43a1.99 1.99 0 0 1 .24 1.1l-.26 1.45c-.02.1-.1.28-.23.44-.12.16-.28.29-.37.32l-1.8.83a1.57 1.57 0 0 0-.76 2.08l.76 1.65a2.85 2.85 0 0 1 .13 1.26l-.01.03-.21.9c-.02.1-.12.31-.25.48-.13.17-.3.32-.4.37l-1.33.7a.87.87 0 0 1-.38.08c-.2 0-.4-.06-.48-.11l-1.09-.7a2.15 2.15 0 0 0-1.15-.32c-.36 0-.73.08-1.07.28l-1.09.64c-.2.12-.38.3-.5.5-.13.2-.2.44-.2.67 0 .36.15.71.4.97l.62.64c.05.05.13.18.19.33.05.15.08.32.08.45l-.01.14-.12.58c-.03.14-.13.38-.25.6-.13.21-.29.42-.4.51l-.54.5c-.37.32-.84.82-1.18 1.21a15.6 15.6 0 0 1-1.92-7.5zm0-11.3c0-2.4 2-4.36 4.48-4.36a4.42 4.42 0 0 1 4.47 4.37c0 2.4-4.47 7.27-4.47 7.27s-4.48-4.87-4.48-7.27zm15.66-5.7c-2.56 0-4.98.58-7.16 1.6a5.85 5.85 0 0 0-9.84 4.1c0 1.19.73 2.68 1.62 4.07a17 17 0 1 0 15.38-9.77z"></path><path id="c" d="M377.54 965.78a.9.9 0 1 1 0-1.79.9.9 0 0 1 0 1.8zm0-3.13a2.24 2.24 0 1 0 0 4.47 2.24 2.24 0 0 0 0-4.47z"></path></defs><use xlink:href="#a" transform="translate(-371 -959)"></use><use xlink:href="#b" transform="translate(-371 -959)"></use><use xlink:href="#c" transform="translate(-371 -959)"></use></svg><svg viewBox="0 0 451 451" width="451" height="451" id="magnifying-glass" y="4420"><path d="M447.05 428l-109.6-109.6c29.4-33.8 47.2-77.9 47.2-126.1C384.65 86.2 298.35 0 192.35 0 86.25 0 .05 86.3.05 192.3s86.3 192.3 192.3 192.3c48.2 0 92.3-17.8 126.1-47.2L428.05 447c2.6 2.6 6.1 4 9.5 4s6.9-1.3 9.5-4c5.2-5.2 5.2-13.8 0-19zM26.95 192.3c0-91.2 74.2-165.3 165.3-165.3 91.2 0 165.3 74.2 165.3 165.3s-74.1 165.4-165.3 165.4c-91.1 0-165.3-74.2-165.3-165.4z"></path></svg><svg viewBox="0 0 483.3 483.3" width="483.3" height="483.3" id="mail" y="4871"><path d="M424.3 57.75H59.1c-32.6 0-59.1 26.5-59.1 59.1v249.6c0 32.6 26.5 59.1 59.1 59.1h365.1c32.6 0 59.1-26.5 59.1-59.1v-249.5c.1-32.6-26.4-59.2-59-59.2zm32.1 308.7c0 17.7-14.4 32.1-32.1 32.1H59.1c-17.7 0-32.1-14.4-32.1-32.1v-249.5c0-17.7 14.4-32.1 32.1-32.1h365.1c17.7 0 32.1 14.4 32.1 32.1v249.5h.1z"></path><path d="M304.8 238.55l118.2-106c5.5-5 6-13.5 1-19.1-5-5.5-13.5-6-19.1-1l-163 146.3-31.8-28.4c-.1-.1-.2-.2-.2-.3-.7-.7-1.4-1.3-2.2-1.9L78.3 112.35c-5.6-5-14.1-4.5-19.1 1.1-5 5.6-4.5 14.1 1.1 19.1l119.6 106.9-119.1 111.5c-5.4 5.1-5.7 13.6-.6 19.1 2.7 2.8 6.3 4.3 9.9 4.3 3.3 0 6.6-1.2 9.2-3.6l120.9-113.1 32.8 29.3c2.6 2.3 5.8 3.4 9 3.4s6.5-1.2 9-3.5l33.7-30.2 120.2 114.2c2.6 2.5 6 3.7 9.3 3.7 3.6 0 7.1-1.4 9.8-4.2 5.1-5.4 4.9-14-.5-19.1l-118.7-112.7z"></path></svg><svg width="459" height="459" viewBox="0 0 459 459" id="menu" y="5355"><path d="M0 382.5h459v-51H0v51zM0 255h459v-51H0v51zM0 76.5v51h459v-51H0z"></path></svg><svg viewBox="0 0 473.806 473.806" width="473.806" height="473.806" id="phone-call" y="5814"><path d="M374.456 293.506c-9.7-10.1-21.4-15.5-33.8-15.5-12.3 0-24.1 5.3-34.2 15.4l-31.6 31.5c-2.6-1.4-5.2-2.7-7.7-4-3.6-1.8-7-3.5-9.9-5.3-29.6-18.8-56.5-43.3-82.3-75-12.5-15.8-20.9-29.1-27-42.6 8.2-7.5 15.8-15.3 23.2-22.8 2.8-2.8 5.6-5.7 8.4-8.5 21-21 21-48.2 0-69.2l-27.3-27.3c-3.1-3.1-6.3-6.3-9.3-9.5-6-6.2-12.3-12.6-18.8-18.6-9.7-9.6-21.3-14.7-33.5-14.7s-24 5.1-34 14.7l-.2.2-34 34.3c-12.8 12.8-20.1 28.4-21.7 46.5-2.4 29.2 6.2 56.4 12.8 74.2 16.2 43.7 40.4 84.2 76.5 127.6 43.8 52.3 96.5 93.6 156.7 122.7 23 10.9 53.7 23.8 88 26 2.1.1 4.3.2 6.3.2 23.1 0 42.5-8.3 57.7-24.8.1-.2.3-.3.4-.5 5.2-6.3 11.2-12 17.5-18.1 4.3-4.1 8.7-8.4 13-12.9 9.9-10.3 15.1-22.3 15.1-34.6 0-12.4-5.3-24.3-15.4-34.3l-54.9-55.1zm35.8 105.3c-.1 0-.1.1 0 0-3.9 4.2-7.9 8-12.2 12.2-6.5 6.2-13.1 12.7-19.3 20-10.1 10.8-22 15.9-37.6 15.9-1.5 0-3.1 0-4.6-.1-29.7-1.9-57.3-13.5-78-23.4-56.6-27.4-106.3-66.3-147.6-115.6-34.1-41.1-56.9-79.1-72-119.9-9.3-24.9-12.7-44.3-11.2-62.6 1-11.7 5.5-21.4 13.8-29.7l34.1-34.1c4.9-4.6 10.1-7.1 15.2-7.1 6.3 0 11.4 3.8 14.6 7l.3.3c6.1 5.7 11.9 11.6 18 17.9 3.1 3.2 6.3 6.4 9.5 9.7l27.3 27.3c10.6 10.6 10.6 20.4 0 31-2.9 2.9-5.7 5.8-8.6 8.6-8.4 8.6-16.4 16.6-25.1 24.4-.2.2-.4.3-.5.5-8.6 8.6-7 17-5.2 22.7l.3.9c7.1 17.2 17.1 33.4 32.3 52.7l.1.1c27.6 34 56.7 60.5 88.8 80.8 4.1 2.6 8.3 4.7 12.3 6.7 3.6 1.8 7 3.5 9.9 5.3.4.2.8.5 1.2.7 3.4 1.7 6.6 2.5 9.9 2.5 8.3 0 13.5-5.2 15.2-6.9l34.2-34.2c3.4-3.4 8.8-7.5 15.1-7.5 6.2 0 11.3 3.9 14.4 7.3l.2.2 55.1 55.1c10.3 10.2 10.3 20.7.1 31.3zm-154.2-286.1c26.2 4.4 50 16.8 69 35.8s31.3 42.8 35.8 69c1.1 6.6 6.8 11.2 13.3 11.2.8 0 1.5-.1 2.3-.2 7.4-1.2 12.3-8.2 11.1-15.6-5.4-31.7-20.4-60.6-43.3-83.5s-51.8-37.9-83.5-43.3c-7.4-1.2-14.3 3.7-15.6 11s3.5 14.4 10.9 15.6zm217.2 96.3c-8.9-52.2-33.5-99.7-71.3-137.5s-85.3-62.4-137.5-71.3c-7.3-1.3-14.2 3.7-15.5 11-1.2 7.4 3.7 14.3 11.1 15.6 46.6 7.9 89.1 30 122.9 63.7 33.8 33.8 55.8 76.3 63.7 122.9 1.1 6.6 6.8 11.2 13.3 11.2.8 0 1.5-.1 2.3-.2 7.3-1.1 12.3-8.1 11-15.4z"></path></svg><svg width="86" height="87" viewBox="0 0 86 87" id="phone-mark" y="6288"><defs><path id="a" d="M595.55 1228.83l-16.82-16.81 4.37-4.37 16.82 16.81-4.37 4.37zm-6 2.23c-3.7 3.7-10.24 4.31-18.42 1.72-8.76-2.78-18.12-8.84-26.34-17.07-8.23-8.22-14.3-17.58-17.07-26.34-2.6-8.18-1.98-14.73 1.72-18.43l.47-.46 13.05 13.05-1.2 1.2c-4.96 4.96 1 16.11 9.45 24.56 6.32 6.33 14.16 11.26 19.79 11.26a6.5 6.5 0 0 0 4.78-1.81l1.2-1.2 13.04 13.05zm-53.51-70.48l16.81 16.82-4.37 4.37-8.4-8.4-8.41-8.42zm67.52 60.24l-16.82-16.81c-2-2.01-5.27-2.01-7.28 0l-4.37 4.37a5.15 5.15 0 0 0-1.3 5.07l-1.65 1.65c-1.17 1.17-8.47-.63-17.3-9.45-8.81-8.82-10.61-16.11-9.44-17.29l1.65-1.65a5.18 5.18 0 0 0 5.07-1.3l4.37-4.37c2.01-2.01 2.01-5.28 0-7.28l-16.81-16.82a5.11 5.11 0 0 0-7.28 0l-4.37 4.37a5.15 5.15 0 0 0-1.3 5.07l-1.48 1.5c-4.65 5.17-5.52 13.32-2.44 23.05 3.02 9.53 9.53 19.62 18.34 28.42 8.8 8.8 18.9 15.32 28.42 18.34a35.58 35.58 0 0 0 10.66 1.81c5.34 0 9.78-1.62 12.97-4.8l.92-.92a5.17 5.17 0 0 0 5.07-1.3l4.37-4.38c2-2 2-5.27 0-7.28z"></path><path id="b" d="M586.17 1174.33c-4.9-4.9-11.4-7.6-18.33-7.6a2.57 2.57 0 1 0 0 5.16c5.55 0 10.77 2.16 14.7 6.08a20.63 20.63 0 0 1 6.07 14.69 2.57 2.57 0 0 0 5.15 0c0-6.93-2.7-13.43-7.59-18.33z"></path><path id="c" d="M595.4 1165.1a38.72 38.72 0 0 0-27.56-11.42 2.57 2.57 0 0 0 0 5.15 33.6 33.6 0 0 1 23.92 9.9 33.6 33.6 0 0 1 9.91 23.93 2.57 2.57 0 0 0 5.15 0c0-10.41-4.06-20.2-11.42-27.56z"></path><path id="d" d="M576.94 1183.56a12.6 12.6 0 0 0-9.1-3.77 2.57 2.57 0 1 0 0 5.15c2.12 0 3.96.76 5.46 2.26a7.56 7.56 0 0 1 2.26 5.46 2.57 2.57 0 0 0 5.15 0c0-3.49-1.3-6.63-3.77-9.1z"></path></defs><use xlink:href="#a" transform="translate(-521 -1153)"></use><use xlink:href="#b" transform="translate(-521 -1153)"></use><use xlink:href="#c" transform="translate(-521 -1153)"></use><use xlink:href="#d" transform="translate(-521 -1153)"></use></svg><svg viewBox="0 0 477 477" width="477" height="477" id="placeholder" y="6375"><path d="M238.4 0C133 0 47.2 85.8 47.2 191.2c0 12 1.1 24.1 3.4 35.9.1.7.5 2.8 1.3 6.4 2.9 12.9 7.2 25.6 12.8 37.7 20.6 48.5 65.9 123 165.3 202.8 2.5 2 5.5 3 8.5 3s6-1 8.5-3c99.3-79.8 144.7-154.3 165.3-202.8 5.6-12.1 9.9-24.7 12.8-37.7.8-3.6 1.2-5.7 1.3-6.4 2.2-11.8 3.4-23.9 3.4-35.9C429.6 85.8 343.8 0 238.4 0zm161.2 222.4c0 .2-.1.4-.1.6-.1.5-.4 2-.9 4.3v.2c-2.5 11.2-6.2 22.1-11.1 32.6-.1.1-.1.3-.2.4-18.7 44.3-59.7 111.9-148.9 185.6-89.2-73.7-130.2-141.3-148.9-185.6-.1-.1-.1-.3-.2-.4-4.8-10.4-8.5-21.4-11.1-32.6v-.2c-.6-2.3-.8-3.8-.9-4.3 0-.2-.1-.4-.1-.7-2-10.3-3-20.7-3-31.2 0-90.5 73.7-164.2 164.2-164.2s164.2 73.7 164.2 164.2c0 10.6-1 21.1-3 31.3z"></path><path d="M238.4 71.9c-66.9 0-121.4 54.5-121.4 121.4s54.5 121.4 121.4 121.4 121.4-54.5 121.4-121.4S305.3 71.9 238.4 71.9zm0 215.8c-52.1 0-94.4-42.4-94.4-94.4s42.4-94.4 94.4-94.4 94.4 42.4 94.4 94.4-42.3 94.4-94.4 94.4z"></path></svg><svg viewBox="0 0 512 512" width="512" height="512" id="play-round" y="6852"><path d="M256 0C114.617 0 0 114.615 0 256s114.617 256 256 256 256-114.615 256-256S397.383 0 256 0zm88.48 269.57l-128 80a16.008 16.008 0 0 1-16.238.422A15.994 15.994 0 0 1 192 336V176c0-5.82 3.156-11.172 8.242-13.992a15.957 15.957 0 0 1 16.238.422l128 80c4.676 2.93 7.52 8.055 7.52 13.57s-2.844 10.641-7.52 13.57z"></path></svg><svg width="34" height="30" viewBox="0 0 34 30" id="round-check" y="7364"><defs><path id="a" d="M952.86 2085.92a.91.91 0 1 0-1.8.13 13.2 13.2 0 0 1-13.1 14.13 13.17 13.17 0 0 1 0-26.36c2.86 0 5.58.91 7.87 2.64.4.3.97.22 1.27-.19.3-.4.22-.97-.18-1.27-2.6-1.96-5.7-3-8.97-3a15 15 0 0 0 0 30 15 15 0 0 0 14.91-16.08z"></path><path id="b" d="M955.96 2074.06a3.54 3.54 0 0 0-5 0l-13.1 13.13-4.64-4.65a3.54 3.54 0 0 0-5.01 0 3.57 3.57 0 0 0 0 5.02l8 8.02a2.34 2.34 0 0 0 3.31 0l16.44-16.5a3.57 3.57 0 0 0 0-5.02z"></path></defs><use xlink:href="#a" transform="translate(-923 -2072)"></use><use xlink:href="#b" transform="translate(-923 -2072)"></use></svg><svg width="92" height="96" viewBox="0 0 92 96" id="sale" y="7394"><defs><path id="a" d="M609.37 1302.81l-7.14 3.8a8.25 8.25 0 0 0-4.29 5.89l-1.4 7.96a2.8 2.8 0 0 1-3.16 2.3l-8-1.13a8.24 8.24 0 0 0-6.93 2.25l-5.82 5.62a2.8 2.8 0 0 1-3.9 0l-5.81-5.62a8.24 8.24 0 0 0-6.94-2.25l-8 1.13a2.8 2.8 0 0 1-3.16-2.3l-1.4-7.96a8.25 8.25 0 0 0-4.28-5.9l-7.15-3.79a2.8 2.8 0 0 1-1.2-3.71l3.55-7.27a8.25 8.25 0 0 0 0-7.29l-3.55-7.26a2.8 2.8 0 0 1 1.2-3.72l7.15-3.79a8.25 8.25 0 0 0 4.28-5.9l1.4-7.96a2.8 2.8 0 0 1 3.16-2.3l8 1.14a8.25 8.25 0 0 0 6.94-2.25l5.8-5.62a2.8 2.8 0 0 1 3.91 0l5.82 5.62a8.25 8.25 0 0 0 6.93 2.25l8-1.13c1.51-.22 2.9.8 3.16 2.3l1.4 7.96c.45 2.54 2 4.69 4.29 5.9l7.14 3.79a2.8 2.8 0 0 1 1.2 3.7l-3.55 7.27a8.25 8.25 0 0 0 0 7.3l3.56 7.26c.66 1.37.13 3-1.21 3.71zm2.59-13.39a2.79 2.79 0 0 1 0-2.47l3.55-7.26a8.27 8.27 0 0 0-3.57-10.98l-7.14-3.79a2.79 2.79 0 0 1-1.45-2l-1.4-7.96a8.27 8.27 0 0 0-9.33-6.78l-8.01 1.13a2.79 2.79 0 0 1-2.35-.76l-5.8-5.62a8.27 8.27 0 0 0-11.55 0l-5.81 5.62a2.8 2.8 0 0 1-2.35.76l-8-1.13a8.26 8.26 0 0 0-9.34 6.78l-1.4 7.97a2.8 2.8 0 0 1-1.45 2l-7.14 3.78a8.27 8.27 0 0 0-3.57 10.98l3.55 7.27c.39.78.39 1.68 0 2.46l-3.55 7.27a8.27 8.27 0 0 0 3.57 10.97l7.14 3.8c.77.4 1.3 1.13 1.45 1.99l1.4 7.96a8.26 8.26 0 0 0 9.34 6.79l8-1.14c.87-.12 1.72.16 2.35.77l5.81 5.62a8.27 8.27 0 0 0 11.54 0l5.81-5.62a2.8 2.8 0 0 1 2.35-.77l8 1.14a8.26 8.26 0 0 0 9.34-6.79l1.4-7.96a2.8 2.8 0 0 1 1.45-2l7.14-3.79a8.27 8.27 0 0 0 3.57-10.97z"></path><path id="b" d="M590.74 1268.13a2.75 2.75 0 0 0-3.88 0l-36.24 36.24a2.75 2.75 0 0 0 3.88 3.88l36.24-36.24a2.75 2.75 0 0 0 0-3.88z"></path><path id="c" d="M559.7 1278.12a4.58 4.58 0 1 1 0-9.16 4.58 4.58 0 0 1 0 9.16zm0-14.64a10.08 10.08 0 0 0 0 20.13 10.08 10.08 0 0 0 0-20.13z"></path><path id="d" d="M581.66 1307.4a4.58 4.58 0 1 1 .01-9.15 4.58 4.58 0 0 1 0 9.16zm0-14.64a10.08 10.08 0 0 0 0 20.14 10.08 10.08 0 0 0 0-20.14z"></path></defs><use xlink:href="#a" transform="translate(-525 -1240)"></use><use xlink:href="#b" transform="translate(-525 -1240)"></use><use xlink:href="#c" transform="translate(-525 -1240)"></use><use xlink:href="#d" transform="translate(-525 -1240)"></use></svg><svg preserveAspectRatio="xMidYMid" width="40" height="40" viewBox="0 0 40 40" id="service" y="7490"><path d="M40 16.005v7.989c0 .995-.469 1.874-1.185 2.446a3.123 3.123 0 0 1 1.184 2.446v7.989c0 1.723-1.378 3.124-3.072 3.124H3.072C1.378 39.999 0 38.598 0 36.874v-7.988c0-.995.469-1.874 1.185-2.447A3.124 3.124 0 0 1 0 23.993v-7.988c0-.995.469-1.874 1.185-2.447A3.125 3.125 0 0 1 0 11.112V3.123C0 1.401 1.378-.001 3.072-.001h33.856C38.622-.001 40 1.401 40 3.123v7.989c0 .996-.469 1.874-1.185 2.447A3.124 3.124 0 0 1 40 16.005zM38.667 3.123c0-.974-.78-1.768-1.74-1.768H3.072c-.959 0-1.739.794-1.739 1.768v7.989c0 .976.78 1.768 1.739 1.768h33.856c.959 0 1.739-.794 1.739-1.768V3.123zm0 12.882c0-.976-.78-1.768-1.74-1.768H3.072c-.959 0-1.739.792-1.739 1.768v7.989c0 .975.78 1.768 1.739 1.767h33.856c.959 0 1.739-.793 1.739-1.768v-7.988zm0 12.881c0-.975-.78-1.768-1.74-1.768H3.072c-.959 0-1.739.793-1.739 1.768v7.989c0 .975.78 1.768 1.739 1.767h33.856c.959 0 1.739-.792 1.739-1.768v-7.988zm-4 5.69a.673.673 0 0 1-.667-.679c0-.374.298-.678.667-.678.368 0 .666.304.666.678a.672.672 0 0 1-.666.679zm-1.334-2.034a.672.672 0 0 1-.666-.678c0-.375.298-.679.666-.679.368 0 .667.304.667.679a.673.673 0 0 1-.667.678zM32 34.576a.673.673 0 0 1-.667-.679c0-.374.299-.678.667-.678.368 0 .667.304.667.678a.673.673 0 0 1-.667.679zm-1.333-2.034a.672.672 0 0 1-.667-.678c0-.375.298-.679.667-.679.368 0 .666.304.666.679a.672.672 0 0 1-.666.678zm-1.334 2.034a.673.673 0 0 1-.667-.679c0-.374.299-.678.667-.678.368 0 .667.304.667.678a.673.673 0 0 1-.667.679zM28 32.542a.673.673 0 0 1-.667-.678c0-.375.299-.679.667-.679.368 0 .666.304.666.679a.672.672 0 0 1-.666.678zm-1.333 2.034a.673.673 0 0 1-.667-.679c0-.374.298-.678.667-.678.368 0 .666.304.666.678a.672.672 0 0 1-.666.679zm-1.334-2.034a.672.672 0 0 1-.666-.678c0-.375.298-.679.666-.679.368 0 .667.304.667.679a.673.673 0 0 1-.667.678zM24 34.576a.673.673 0 0 1-.667-.679c0-.374.299-.678.667-.678.368 0 .667.304.667.678a.673.673 0 0 1-.667.679zm-1.333-2.034a.672.672 0 0 1-.667-.678c0-.375.298-.679.667-.679.368 0 .666.304.666.679a.672.672 0 0 1-.666.678zM7 35.931c-1.654 0-3-1.369-3-3.051 0-1.682 1.346-3.05 3-3.05s3 1.368 3 3.05c0 1.682-1.346 3.051-3 3.051zm0-4.746c-.919 0-1.667.761-1.667 1.695 0 .935.748 1.696 1.667 1.696s1.667-.761 1.667-1.696c0-.934-.748-1.695-1.667-1.695zm27.667-9.491a.672.672 0 0 1-.667-.678c0-.374.298-.678.667-.678.368 0 .666.304.666.678a.672.672 0 0 1-.666.678zm-1.334-2.034a.672.672 0 0 1-.666-.678c0-.374.298-.678.666-.678.368 0 .667.304.667.678a.672.672 0 0 1-.667.678zM32 21.694a.672.672 0 0 1-.667-.678c0-.374.299-.678.667-.678.368 0 .667.304.667.678a.672.672 0 0 1-.667.678zm-1.333-2.034a.672.672 0 0 1-.667-.678c0-.374.298-.678.667-.678.368 0 .666.304.666.678a.672.672 0 0 1-.666.678zm-1.334 2.034a.672.672 0 0 1-.667-.678c0-.374.299-.678.667-.678.368 0 .667.304.667.678a.672.672 0 0 1-.667.678zM28 19.66a.672.672 0 0 1-.667-.678c0-.374.299-.678.667-.678.368 0 .666.304.666.678a.672.672 0 0 1-.666.678zm-1.333 2.034a.672.672 0 0 1-.667-.678c0-.374.298-.678.667-.678.368 0 .666.304.666.678a.672.672 0 0 1-.666.678zm-1.334-2.034a.672.672 0 0 1-.666-.678c0-.374.298-.678.666-.678.368 0 .667.304.667.678a.672.672 0 0 1-.667.678zM24 21.694a.672.672 0 0 1-.667-.678c0-.374.299-.678.667-.678.368 0 .667.304.667.678a.672.672 0 0 1-.667.678zm-1.333-2.034a.672.672 0 0 1-.667-.678c0-.374.298-.678.667-.678.368 0 .666.304.666.678a.672.672 0 0 1-.666.678zM7 23.05c-1.654 0-3-1.369-3-3.051 0-1.682 1.346-3.051 3-3.051s3 1.369 3 3.051c0 1.682-1.346 3.051-3 3.051zm0-4.746c-.919 0-1.667.76-1.667 1.695S6.081 21.694 7 21.694s1.667-.76 1.667-1.695S7.919 18.304 7 18.304zm27.667-9.491A.672.672 0 0 1 34 8.135c0-.375.298-.678.667-.678.368 0 .666.303.666.678a.672.672 0 0 1-.666.678zm-1.334-2.034a.672.672 0 0 1-.666-.678c0-.374.298-.678.666-.678.368 0 .667.304.667.678a.673.673 0 0 1-.667.678zM32 8.813a.673.673 0 0 1-.667-.678c0-.375.299-.678.667-.678.368 0 .667.303.667.678a.673.673 0 0 1-.667.678zm-1.333-2.034A.672.672 0 0 1 30 6.101c0-.374.298-.678.667-.678.368 0 .666.304.666.678a.672.672 0 0 1-.666.678zm-1.334 2.034a.673.673 0 0 1-.667-.678c0-.375.299-.678.667-.678.368 0 .667.303.667.678a.673.673 0 0 1-.667.678zM28 6.779a.673.673 0 0 1-.667-.678c0-.374.299-.678.667-.678.368 0 .666.304.666.678a.672.672 0 0 1-.666.678zm-1.333 2.034A.672.672 0 0 1 26 8.135c0-.375.298-.678.667-.678.368 0 .666.303.666.678a.672.672 0 0 1-.666.678zm-1.334-2.034a.672.672 0 0 1-.666-.678c0-.374.298-.678.666-.678.368 0 .667.304.667.678a.673.673 0 0 1-.667.678zM24 8.813a.673.673 0 0 1-.667-.678c0-.375.299-.678.667-.678.368 0 .667.303.667.678a.673.673 0 0 1-.667.678zm-1.333-2.034A.672.672 0 0 1 22 6.101c0-.374.298-.678.667-.678.368 0 .666.304.666.678a.672.672 0 0 1-.666.678zM7 10.169c-1.654 0-3-1.369-3-3.051 0-1.682 1.346-3.051 3-3.051s3 1.369 3 3.051c0 1.682-1.346 3.051-3 3.051zm0-4.746c-.919 0-1.667.76-1.667 1.695S6.081 8.813 7 8.813s1.667-.76 1.667-1.695S7.919 5.423 7 5.423z"></path></svg><svg viewBox="0 0 481.6 481.6" width="481.6" height="481.6" id="share" y="7530"><path d="M381.6 309.4c-27.7 0-52.4 13.2-68.2 33.6l-132.3-73.9c3.1-8.9 4.8-18.5 4.8-28.4 0-10-1.7-19.5-4.9-28.5l132.2-73.8c15.7 20.5 40.5 33.8 68.3 33.8 47.4 0 86.1-38.6 86.1-86.1S429 0 381.5 0s-86.1 38.6-86.1 86.1c0 10 1.7 19.6 4.9 28.5l-132.1 73.8c-15.7-20.6-40.5-33.8-68.3-33.8-47.4 0-86.1 38.6-86.1 86.1s38.7 86.1 86.2 86.1c27.8 0 52.6-13.3 68.4-33.9l132.2 73.9c-3.2 9-5 18.7-5 28.7 0 47.4 38.6 86.1 86.1 86.1s86.1-38.6 86.1-86.1-38.7-86.1-86.2-86.1zm0-282.3c32.6 0 59.1 26.5 59.1 59.1s-26.5 59.1-59.1 59.1-59.1-26.5-59.1-59.1 26.6-59.1 59.1-59.1zM100 299.8c-32.6 0-59.1-26.5-59.1-59.1s26.5-59.1 59.1-59.1 59.1 26.5 59.1 59.1-26.6 59.1-59.1 59.1zm281.6 154.7c-32.6 0-59.1-26.5-59.1-59.1s26.5-59.1 59.1-59.1 59.1 26.5 59.1 59.1-26.5 59.1-59.1 59.1z"></path></svg><svg width="43" height="43" viewBox="0 0 43 43" id="smile-good" y="8012"><defs><path id="a" d="M928 1166c0 5.34-2.08 10.36-5.86 14.14A19.87 19.87 0 0 1 908 1186a19.87 19.87 0 0 1-14.14-5.86A19.87 19.87 0 0 1 888 1166c0-5.34 2.08-10.37 5.86-14.14A19.87 19.87 0 0 1 908 1146c5.34 0 10.36 2.08 14.14 5.86A19.87 19.87 0 0 1 928 1166zm-2.47 0c0-9.66-7.87-17.53-17.53-17.53a17.55 17.55 0 0 0-17.53 17.53c0 9.66 7.87 17.52 17.53 17.52s17.53-7.86 17.53-17.52zm-14.15-3.8a2.89 2.89 0 1 1 5.78.01 2.89 2.89 0 0 1-5.78 0zm-12.54 0a2.89 2.89 0 1 1 5.78.01 2.89 2.89 0 0 1-5.78 0zm17.87 7l2.32.86a11.8 11.8 0 0 1-11.03 7.7c-4.9 0-9.33-3.1-11.03-7.7l2.32-.86a9.32 9.32 0 0 0 8.71 6.08 9.32 9.32 0 0 0 8.71-6.08z"></path></defs><use xlink:href="#a" transform="translate(-886 -1144)"></use></svg><svg viewBox="0 0 512 512" width="512" height="512" id="soc-facebook" y="8055"><path d="M134.941 272.691h56.123v231.051a8.256 8.256 0 0 0 8.258 8.258h95.159a8.256 8.256 0 0 0 8.258-8.258V273.78h64.519a8.26 8.26 0 0 0 8.204-7.315l9.799-85.061a8.259 8.259 0 0 0-8.202-9.203h-74.316V118.88c0-16.073 8.654-24.224 25.726-24.224h48.59a8.258 8.258 0 0 0 8.258-8.258V8.319a8.256 8.256 0 0 0-8.258-8.258h-66.965A65.863 65.863 0 0 0 307.027 0c-11.619 0-52.006 2.281-83.909 31.63-35.348 32.524-30.434 71.465-29.26 78.217v62.352H134.94a8.256 8.256 0 0 0-8.258 8.258v83.975a8.26 8.26 0 0 0 8.259 8.259z"></path></svg><svg viewBox="0 0 112.196 112.196" width="112.196" height="112.196" id="soc-fb--color" y="8567"><circle cx="56.098" cy="56.098" r="56.098" fill="#3b5998"></circle><path d="M70.201 58.294h-10.01v36.672H45.025V58.294h-7.213V45.406h7.213v-8.34c0-5.964 2.833-15.303 15.301-15.303l11.234.047v12.51h-8.151c-1.337 0-3.217.668-3.217 3.513v7.585h11.334l-1.325 12.876z" fill="#fff"></path></svg><svg width="96.669" height="96.669" viewBox="0 0 96.669 96.669" id="soc-google" y="8680"><path d="M50.91 55.189l-4.533-3.522c-1.38-1.144-3.27-2.656-3.27-5.422 0-2.778 1.889-4.544 3.527-6.18 5.279-4.157 10.557-8.581 10.557-17.903 0-9.586-6.031-14.629-8.923-17.022h7.795L64.244 0H39.459C32.658 0 22.856 1.608 15.68 7.533c-5.408 4.666-8.046 11.099-8.046 16.892 0 9.831 7.548 19.798 20.88 19.798 1.259 0 2.636-.124 4.022-.252-.623 1.515-1.252 2.777-1.252 4.917 0 3.905 2.006 6.299 3.774 8.567-5.663.39-16.237 1.018-24.033 5.809-7.424 4.415-9.684 10.84-9.684 15.377 0 9.334 8.8 18.028 27.045 18.028 21.636 0 33.089-11.971 33.089-23.823.002-8.707-5.028-12.992-10.565-17.657zM34.431 40.691c-10.824 0-15.727-13.992-15.727-22.434 0-3.288.623-6.682 2.763-9.333C23.486 6.4 27 4.762 30.281 4.762c10.434 0 15.846 14.118 15.846 23.197 0 2.271-.251 6.296-3.144 9.207-2.023 2.021-5.409 3.525-8.552 3.525zm.124 50.696c-13.46 0-22.139-6.438-22.139-15.392 0-8.949 8.048-11.978 10.816-12.979 5.281-1.777 12.076-2.024 13.21-2.024 1.258 0 1.887 0 2.889.126 9.568 6.81 13.721 10.203 13.721 16.65.001 7.805-6.417 13.619-18.497 13.619zm48.124-50.888V27.894h-6.224v12.605H63.869v6.294h12.586v12.684h6.224V46.793h12.649v-6.294z"></path></svg><svg width="430.117" height="430.117" viewBox="0 0 430.117 430.117" id="soc-in" y="8777"><path d="M430.117 261.543V420.56h-92.188V272.193c0-37.271-13.334-62.707-46.703-62.707-25.473 0-40.632 17.142-47.301 33.724-2.432 5.928-3.058 14.179-3.058 22.477V420.56h-92.219s1.242-251.285 0-277.32h92.21v39.309c-.187.294-.43.611-.606.896h.606v-.896c12.251-18.869 34.13-45.824 83.102-45.824 60.673-.001 106.157 39.636 106.157 124.818zM52.183 9.558C20.635 9.558 0 30.251 0 57.463c0 26.619 20.038 47.94 50.959 47.94h.616c32.159 0 52.159-21.317 52.159-47.94-.606-27.212-20-47.905-51.551-47.905zM5.477 420.56h92.184V143.24H5.477v277.32z"></path></svg><svg width="438.536" height="438.536" viewBox="0 0 438.536 438.536" id="soc-instagram" y="9208"><path d="M421.981 16.562C410.941 5.519 397.711 0 382.298 0H56.248C40.83 0 27.604 5.521 16.561 16.562 5.52 27.6.001 40.828.001 56.243V382.29c0 15.413 5.518 28.644 16.56 39.683 11.043 11.04 24.272 16.563 39.687 16.563h326.046c15.41 0 28.644-5.523 39.684-16.563 11.043-11.039 16.557-24.27 16.557-39.683V56.243c-.001-15.418-5.514-28.639-16.554-39.681zM157.462 158.025c17.224-16.652 37.924-24.982 62.097-24.982 24.36 0 45.153 8.33 62.381 24.982 17.228 16.655 25.837 36.785 25.837 60.386 0 23.598-8.609 43.729-25.837 60.379-17.228 16.659-38.014 24.988-62.381 24.988-24.172 0-44.87-8.336-62.097-24.988-17.228-16.652-25.841-36.781-25.841-60.379 0-23.601 8.613-43.73 25.841-60.386zm231.403 212.564c0 4.945-1.718 9.083-5.141 12.416-3.433 3.33-7.519 4.996-12.282 4.996h-305.2c-4.948 0-9.091-1.666-12.419-4.996-3.333-3.326-4.998-7.471-4.998-12.416V185.575H89.08c-3.805 11.993-5.708 24.462-5.708 37.402 0 36.553 13.322 67.715 39.969 93.511 26.65 25.786 58.721 38.685 96.217 38.685 24.744 0 47.583-5.903 68.527-17.703 20.937-11.807 37.486-27.839 49.676-48.112 12.183-20.272 18.274-42.4 18.274-66.38 0-12.94-1.91-25.406-5.715-37.402h38.547V370.59h-.002zm0-254.963c0 5.52-1.903 10.184-5.716 13.99-3.805 3.809-8.466 5.711-13.989 5.711h-49.676c-5.517 0-10.185-1.903-13.99-5.711-3.806-3.806-5.708-8.47-5.708-13.99V68.522c0-5.33 1.902-9.945 5.708-13.848 3.806-3.901 8.474-5.854 13.99-5.854h49.676c5.523 0 10.185 1.952 13.989 5.854 3.812 3.903 5.716 8.518 5.716 13.848v47.104z"></path></svg><svg width="95.481" height="95.481" viewBox="0 0 95.481 95.481" id="soc-ok" y="9647"><path d="M43.041 67.254c-7.402-.772-14.076-2.595-19.79-7.064-.709-.556-1.441-1.092-2.088-1.713-2.501-2.402-2.753-5.153-.774-7.988 1.693-2.426 4.535-3.075 7.489-1.682.572.27 1.117.607 1.639.969 10.649 7.317 25.278 7.519 35.967.329 1.059-.812 2.191-1.474 3.503-1.812 2.551-.655 4.93.282 6.299 2.514 1.564 2.549 1.544 5.037-.383 7.016-2.956 3.034-6.511 5.229-10.461 6.761-3.735 1.448-7.826 2.177-11.875 2.661.611.665.899.992 1.281 1.376 5.498 5.524 11.02 11.025 16.5 16.566 1.867 1.888 2.257 4.229 1.229 6.425-1.124 2.4-3.64 3.979-6.107 3.81-1.563-.108-2.782-.886-3.865-1.977-4.149-4.175-8.376-8.273-12.441-12.527-1.183-1.237-1.752-1.003-2.796.071-4.174 4.297-8.416 8.528-12.683 12.735-1.916 1.889-4.196 2.229-6.418 1.15-2.362-1.145-3.865-3.556-3.749-5.979.08-1.639.886-2.891 2.011-4.014 5.441-5.433 10.867-10.88 16.295-16.322.359-.362.694-.746 1.217-1.305z"></path><path d="M47.55 48.329c-13.205-.045-24.033-10.992-23.956-24.218C23.67 10.739 34.505-.037 47.84 0c13.362.036 24.087 10.967 24.02 24.478-.068 13.199-10.971 23.897-24.31 23.851zm12.001-24.186c-.023-6.567-5.253-11.795-11.807-11.801-6.609-.007-11.886 5.316-11.835 11.943.049 6.542 5.324 11.733 11.896 11.709 6.552-.023 11.768-5.285 11.746-11.851z"></path></svg><svg viewBox="0 0 112.197 112.197" width="112.197" height="112.197" id="soc-tw--color" y="9743"><circle cx="56.099" cy="56.098" r="56.098" fill="#55acee"></circle><path d="M90.461 40.316a26.753 26.753 0 0 1-7.702 2.109 13.445 13.445 0 0 0 5.897-7.417 26.843 26.843 0 0 1-8.515 3.253 13.396 13.396 0 0 0-9.79-4.233c-7.404 0-13.409 6.005-13.409 13.409 0 1.051.119 2.074.349 3.056-11.144-.559-21.025-5.897-27.639-14.012a13.351 13.351 0 0 0-1.816 6.742c0 4.651 2.369 8.757 5.965 11.161a13.314 13.314 0 0 1-6.073-1.679l-.001.17c0 6.497 4.624 11.916 10.757 13.147a13.362 13.362 0 0 1-3.532.471c-.866 0-1.705-.083-2.523-.239 1.706 5.326 6.657 9.203 12.526 9.312a26.904 26.904 0 0 1-16.655 5.74c-1.08 0-2.15-.063-3.197-.188a37.929 37.929 0 0 0 20.553 6.025c24.664 0 38.152-20.432 38.152-38.153 0-.581-.013-1.16-.039-1.734a27.192 27.192 0 0 0 6.692-6.94z" fill="#f1f2f2"></path></svg><svg viewBox="0 0 410.155 410.155" width="410.155" height="410.155" id="soc-twitter" y="9856"><path d="M403.632 74.18a162.414 162.414 0 0 1-28.28 9.537 88.177 88.177 0 0 0 23.275-37.067c1.295-4.051-3.105-7.554-6.763-5.385a163.188 163.188 0 0 1-43.235 17.862 11.02 11.02 0 0 1-2.702.336c-2.766 0-5.455-1.027-7.57-2.891-16.156-14.239-36.935-22.081-58.508-22.081-9.335 0-18.76 1.455-28.014 4.325-28.672 8.893-50.795 32.544-57.736 61.724-2.604 10.945-3.309 21.9-2.097 32.56a3.166 3.166 0 0 1-.797 2.481 3.278 3.278 0 0 1-2.753 1.091c-62.762-5.831-119.358-36.068-159.363-85.14-2.04-2.503-5.952-2.196-7.578.593-7.834 13.44-11.974 28.812-11.974 44.454 0 23.972 9.631 46.563 26.36 63.032a79.24 79.24 0 0 1-20.169-7.808c-3.06-1.7-6.825.485-6.868 3.985-.438 35.612 20.412 67.3 51.646 81.569a79.567 79.567 0 0 1-16.786-1.399c-3.446-.658-6.341 2.611-5.271 5.952 10.138 31.651 37.39 54.981 70.002 60.278-27.066 18.169-58.585 27.753-91.39 27.753l-10.227-.006c-3.151 0-5.816 2.054-6.619 5.106-.791 3.006.666 6.177 3.353 7.74 36.966 21.513 79.131 32.883 121.955 32.883 37.485 0 72.549-7.439 104.219-22.109 29.033-13.449 54.689-32.674 76.255-57.141 20.09-22.792 35.8-49.103 46.692-78.201 10.383-27.737 15.871-57.333 15.871-85.589v-1.346c-.001-4.537 2.051-8.806 5.631-11.712a174.776 174.776 0 0 0 35.16-38.591c2.573-3.849-1.485-8.673-5.719-6.795z"></path></svg><svg viewBox="0 0 512 512" width="512" height="512" id="soc-vk" y="10267"><path d="M440.649 295.361c16.984 16.582 34.909 32.182 50.142 50.436 6.729 8.112 13.099 16.482 17.973 25.896 6.906 13.382.651 28.108-11.348 28.907l-74.59-.034c-19.238 1.596-34.585-6.148-47.489-19.302-10.327-10.519-19.891-21.714-29.821-32.588-4.071-4.444-8.332-8.626-13.422-11.932-10.182-6.609-19.021-4.586-24.84 6.034-5.926 10.802-7.271 22.762-7.853 34.8-.799 17.564-6.108 22.182-23.751 22.986-37.705 1.778-73.489-3.926-106.732-22.947-29.308-16.768-52.034-40.441-71.816-67.24-38.513-52.183-68.008-109.525-94.516-168.473-5.967-13.281-1.603-20.41 13.051-20.663 24.333-.473 48.663-.439 73.025-.034 9.89.145 16.437 5.817 20.256 15.16 13.165 32.371 29.274 63.169 49.494 91.716 5.385 7.6 10.876 15.201 18.694 20.55 8.65 5.923 15.236 3.96 19.305-5.676 2.582-6.11 3.713-12.691 4.295-19.234 1.928-22.513 2.182-44.988-1.199-67.422-2.076-14.001-9.962-23.065-23.933-25.714-7.129-1.351-6.068-4.004-2.616-8.073 5.995-7.018 11.634-11.387 22.875-11.387h84.298c13.271 2.619 16.218 8.581 18.035 21.934l.072 93.637c-.145 5.169 2.582 20.51 11.893 23.931 7.452 2.436 12.364-3.526 16.836-8.251 20.183-21.421 34.588-46.737 47.457-72.951 5.711-11.527 10.622-23.497 15.381-35.458 3.526-8.875 9.059-13.242 19.056-13.049l81.132.072c2.406 0 4.84.035 7.17.434 13.671 2.33 17.418 8.211 13.195 21.561-6.653 20.945-19.598 38.4-32.255 55.935-13.53 18.721-28.001 36.802-41.418 55.634-12.328 17.2-11.349 25.868 3.964 40.805z"></path></svg><svg viewBox="0 0 112.196 112.196" width="112.196" height="112.196" id="soc-vk--color" y="10779"><circle cx="56.098" cy="56.098" r="56.098" fill="#4d76a1"></circle><path d="M53.979 80.702h4.403s1.33-.146 2.009-.878c.625-.672.605-1.934.605-1.934s-.086-5.908 2.656-6.778c2.703-.857 6.174 5.71 9.853 8.235 2.782 1.911 4.896 1.492 4.896 1.492l9.837-.137s5.146-.317 2.706-4.363c-.2-.331-1.421-2.993-7.314-8.463-6.168-5.725-5.342-4.799 2.088-14.702 4.525-6.031 6.334-9.713 5.769-11.29-.539-1.502-3.867-1.105-3.867-1.105l-11.076.069s-.821-.112-1.43.252c-.595.357-.978 1.189-.978 1.189s-1.753 4.667-4.091 8.636c-4.932 8.375-6.904 8.817-7.71 8.297-1.875-1.212-1.407-4.869-1.407-7.467 0-8.116 1.231-11.5-2.397-12.376-1.204-.291-2.09-.483-5.169-.514-3.952-.041-7.297.012-9.191.94-1.26.617-2.232 1.992-1.64 2.071.732.098 2.39.447 3.269 1.644 1.135 1.544 1.095 5.012 1.095 5.012s.652 9.554-1.523 10.741c-1.493.814-3.541-.848-7.938-8.446-2.253-3.892-3.954-8.194-3.954-8.194s-.328-.804-.913-1.234c-.71-.521-1.702-.687-1.702-.687l-10.525.069s-1.58.044-2.16.731c-.516.611-.041 1.875-.041 1.875s8.24 19.278 17.57 28.993c8.555 8.907 18.27 8.322 18.27 8.322z" fill-rule="evenodd" clip-rule="evenodd" fill="#fff"></path></svg><svg preserveAspectRatio="xMidYMid" width="25" height="17" viewBox="0 0 25 17" id="soc-youtube" y="10892"><path d="M24.564 2.737A3.129 3.129 0 0 0 21.862.341c-3.099-.337-6.237-.339-9.36-.337-3.123-.002-6.261 0-9.361.337a3.128 3.128 0 0 0-2.7 2.396C.005 4.583 0 6.598 0 8.5c0 1.901 0 3.917.436 5.763a3.129 3.129 0 0 0 2.701 2.396c3.099.337 6.237.339 9.36.337 3.124.002 6.261 0 9.36-.337a3.132 3.132 0 0 0 2.702-2.396c.435-1.846.437-3.862.437-5.763 0-1.902.004-3.917-.432-5.763zM9.272 12.284V4.221l7.947 4.044-7.947 4.019z" class="cls-1"></path></svg><svg viewBox="0 0 490.727 490.727" width="490.727" height="490.727" id="star" y="10909"><path d="M453.443 160.214l-119.7-8.6c-2.5-.2-4.7-1.7-5.6-4.1l-45.6-111c-6.3-15.3-20.5-24.8-37.1-24.8s-30.7 9.5-37.1 24.9l-45.7 111.1c-1 2.3-3.1 3.9-5.6 4.1l-119.5 8.6c-16.2.9-30 11.5-35.3 27.1-5.4 15.8-.9 32.4 11.9 43.3l92.5 76.4c1.9 1.6 2.8 4.2 2.2 6.6l-28.2 115.4c-3.3 12-1 24.4 6.3 34.1 7.5 9.8 19.2 15.7 31.5 15.7 7.6 0 15-2.3 21.1-6.4l101.1-62.9c2.1-1.3 4.8-1.3 6.9 0l102.1 62.7c6.4 4.3 13.8 6.6 21.3 6.6 11.5 0 22.9-5.5 30.3-14.8 7.7-9.6 10.5-22.1 7.7-34.6l-28.3-115.7c-.6-2.5.3-5.1 2.2-6.7l93.9-76.6c12.6-10.8 17.1-27.4 11.8-43.2-5.2-15.6-19.1-26.3-35.1-27.2zm7.7 51.5l-93.7 76.5c-9.2 7.5-13.4 19.9-10.5 31.5l28.3 115.5c1.5 6.8-1.2 11.5-3 13.7-2.8 3.5-7 5.7-11.2 5.7-2.6 0-5.2-.8-8-2.7l-102.5-63c-4.9-3-10.5-4.6-16.3-4.6s-11.5 1.6-16.4 4.7l-101.5 63.1c-6.5 4.3-15.2 2.4-19.8-3.6-1.9-2.5-3.9-6.8-2.1-13.1l28.3-115.8c2.8-11.5-1.3-23.8-10.4-31.3l-92.3-76.3c-7.3-6.3-5.3-14.4-4.5-16.7s4.1-10 13.7-10.5l119.7-8.6c11.8-.9 22-8.2 26.5-19.2l45.7-111.1c3.7-9 12-9.7 14.4-9.7 2.4 0 10.7.7 14.4 9.7l45.7 111.1c4.5 11 14.7 18.3 26.5 19.2l119.9 8.7c9.4.5 12.7 8.2 13.5 10.5.6 2.1 2.6 10.2-4.4 16.3z"></path></svg><svg width="36" height="37" viewBox="0 0 36 37" id="star-mark" y="11400"><defs><path id="a" d="M396.5 1198.92l1.34 7.96a.47.47 0 0 1-.19.47.46.46 0 0 1-.5.04l-7.04-3.76a2.35 2.35 0 0 0-2.21 0l-7.05 3.76a.46.46 0 0 1-.5-.04.47.47 0 0 1-.19-.47l1.35-7.96a2.43 2.43 0 0 0-.69-2.13l-5.7-5.64a.47.47 0 0 1-.12-.5.47.47 0 0 1 .39-.33l7.87-1.16c.78-.11 1.45-.6 1.8-1.32l3.51-7.24a.46.46 0 0 1 .43-.27c.09 0 .3.03.43.27l3.52 7.24c.34.72 1.01 1.2 1.79 1.32l7.87 1.16c.27.04.36.25.39.33.02.09.07.3-.12.5l-5.7 5.64a2.43 2.43 0 0 0-.69 2.13zm7.7-6.4a2.42 2.42 0 0 0-1.31-4.1l-7.88-1.17a.48.48 0 0 1-.36-.26l-3.52-7.24a2.36 2.36 0 0 0-4.26 0l-3.52 7.24a.48.48 0 0 1-.36.26l-7.88 1.17a2.42 2.42 0 0 0-1.32 4.11l5.7 5.64c.12.1.17.27.14.42l-1.34 7.97c-.15.9.2 1.81.94 2.35.74.55 1.7.62 2.5.19l7.05-3.76c.14-.08.3-.08.44 0l7.05 3.76a2.35 2.35 0 0 0 2.5-.19c.73-.54 1.1-1.44.94-2.35l-1.34-7.97a.49.49 0 0 1 .13-.42z"></path><path id="b" d="M400.1 1179.74a.94.94 0 0 0-1.33.22l-1.01 1.4a.97.97 0 0 0 .21 1.35.94.94 0 0 0 1.33-.21l1-1.4a.97.97 0 0 0-.2-1.36z"></path><path id="c" d="M380.24 1181.36l-1.01-1.4a.94.94 0 0 0-1.33-.22.97.97 0 0 0-.2 1.35l1 1.4a.94.94 0 0 0 1.33.22.97.97 0 0 0 .2-1.35z"></path><path id="d" d="M374.48 1200.03a.95.95 0 0 0-1.2-.62l-1.62.54a.97.97 0 0 0 .29 1.88c.1 0 .2-.02.3-.05l1.62-.54c.5-.16.78-.7.61-1.21z"></path><path id="e" d="M389 1210.73a.96.96 0 0 0-.95.97v1.74c0 .53.43.96.95.96.53 0 .95-.43.95-.96v-1.74a.96.96 0 0 0-.95-.97z"></path><path id="f" d="M406.34 1199.95l-1.63-.54a.95.95 0 0 0-1.2.62.97.97 0 0 0 .62 1.22l1.63.53c.1.04.2.05.29.05.4 0 .77-.26.9-.67a.97.97 0 0 0-.6-1.21z"></path></defs><use xlink:href="#a" transform="translate(-371 -1178)"></use><use xlink:href="#b" transform="translate(-371 -1178)"></use><use xlink:href="#c" transform="translate(-371 -1178)"></use><use xlink:href="#d" transform="translate(-371 -1178)"></use><use xlink:href="#e" transform="translate(-371 -1178)"></use><use xlink:href="#f" transform="translate(-371 -1178)"></use></svg><svg preserveAspectRatio="xMidYMid" width="12" height="13" viewBox="0 0 12 13" id="statistick" y="11437"><path d="M10 13V5h2v8h-2zM5 0h2v13H5V0zM0 3h2v10H0V3z" class="cls-1"></path></svg><svg width="62" height="62" viewBox="0 0 62 62" id="subsc" y="11450"><defs><path id="a" d="M1387 539.98v14.04c0 .52-.42.94-.94.94h-17.1v18.1c0 .52-.42.94-.94.94H1352a.94.94 0 0 1-.94-.94v-5.07h-19.1a.95.95 0 0 1-.9-1.22l3.63-11.81h-6.74a.94.94 0 0 1-.94-.94v-20.04c0-.51.43-.94.94-.94h7.08v-.06a8.97 8.97 0 0 1 8.95-8.96h25.12v-9.08c0-.52.42-.94.94-.94h8.01c.52 0 .94.42.94.94v4c0 .53-.42.95-.94.95h-7.07v4.13h7.07a8.97 8.97 0 0 1 8.96 8.96zm-1.88.12v-7.12c0-3.9-3.17-7.08-7.08-7.08h-7.07v4.22a4.96 4.96 0 1 1-1.88 0v-4.22h-15.63a8.94 8.94 0 0 1 3.48 7.08v20.1h28.18zm-14.15-22.1h6.13v-2.12h-6.13zm-40.35 16.92l12.35 9.88 11.89-9.5a.92.92 0 0 1 .2-.13v-.25zm24.44 18.16v-15.54l-11.5 9.2a.95.95 0 0 1-1.18 0l-13.5-10.8v17.14zm-.33 1.88h-18.08l-3.43 11.15h18.08zm7.34 0h-5.38l-3.79 12.31c.02.07.03.14.03.22v4.63h9.14v-6.95zm.94 8.06c.52 0 .94.42.94.94v8.16h3.13v-17.16h-3.13v9.38c0 .51-.42.93-.94.93s-.94.42-.94-.1v-1.21c0-.52.42-.94.94-.94zm-15.03-37.12h-4a7.09 7.09 0 0 0-7.08 7.08v.06h18.16v-.06c0-3.9-3.18-7.08-7.08-7.08zm22.99 6.16v2.92a.94.94 0 1 1-1.88 0v-2.92a3.07 3.07 0 1 0 1.88 0zm7.01 17.95c0 .52-.42.94-.94.94h-13.03a.94.94 0 1 1 0-1.88h13.03c.52 0 .94.42.94.94z"></path></defs><use xlink:href="#a" transform="translate(-1326 -513)"></use></svg><svg preserveAspectRatio="xMidYMid" width="40" height="38" viewBox="0 0 40 38" id="support" y="11512"><path d="M34.286 14.375C34.286 6.416 27.893-.001 20-.001S5.714 6.416 5.714 14.339v.036C2.536 14.554 0 17.207 0 20.433v.717c0 3.37 2.714 6.095 6.071 6.095h.322l2.536 4.051c1.785 2.867 4.821 4.552 8.178 4.552h.5c.322 1.219 1.429 2.151 2.75 2.151a2.87 2.87 0 0 0 2.857-2.867 2.872 2.872 0 0 0-2.857-2.869c-1.321 0-2.428.933-2.75 2.151h-.5a8.14 8.14 0 0 1-6.964-3.907l-2.072-3.262h.5c.786 0 1.429-.645 1.429-1.435V15.773c0-.789-.643-1.434-1.429-1.434H7.143c0-7.134 5.75-12.905 12.857-12.905 7.107 0 12.857 5.771 12.857 12.905h-1.428c-.786 0-1.429.645-1.429 1.434V25.81c0 .79.643 1.435 1.429 1.435h2.5c3.357 0 6.071-2.725 6.071-6.095v-.717c0-3.226-2.536-5.879-5.714-6.058zM20.357 33.698c.786 0 1.429.645 1.429 1.434 0 .788-.643 1.434-1.429 1.434a1.435 1.435 0 0 1 0-2.868zM8.571 15.773V25.81h-2.5a4.642 4.642 0 0 1-4.642-4.66v-.717a4.642 4.642 0 0 1 4.642-4.66h2.5zm30 5.377a4.642 4.642 0 0 1-4.642 4.66h-2.5V15.773h2.5a4.642 4.642 0 0 1 4.642 4.66v.717z"></path></svg><svg width="29" height="37" viewBox="0 0 29 37" id="tasklist" y="11550"><defs><path id="a" d="M400.72 1087.25c0 .94-.93 1.54-1.86 1.54h-20.88c-.93 0-1.86-.6-1.86-1.54v-24.55c.08-.98.89-1.74 1.86-1.76h3.23v2.19a.9.9 0 0 0 .93.81h12.52c.48.03.9-.33.97-.81v-2.19h3.23c.97.02 1.78.78 1.86 1.76v24.55zm-17.82-28.45h2.34c.4-.05.73-.37.8-.77a2.47 2.47 0 0 1 2.34-1.93c1.1.03 2.05.83 2.29 1.93.07.42.42.74.85.77h2.41v3.43H382.9zm12.73.43v-1.46c0-.47-.5-.69-.97-.69h-2.5a3.8 3.8 0 0 0-3.78-2.57 3.86 3.86 0 0 0-3.78 2.57h-2.46c-.47 0-.93.22-.93.69v1.46h-3.23a3.62 3.62 0 0 0-3.56 3.47v24.55c0 1.89 1.7 3.26 3.56 3.26h20.88c1.86 0 3.56-1.37 3.56-3.26v-24.55a3.62 3.62 0 0 0-3.56-3.47z"></path><path id="b" d="M385.15 1073.67a.84.84 0 0 0-1.19-.05l-2.71 2.62-1.15-1.2a.84.84 0 0 0-1.18-.04.9.9 0 0 0 0 1.24l1.74 1.8c.15.17.36.26.59.26.22 0 .44-.1.6-.26l3.3-3.17a.82.82 0 0 0 0-1.2z"></path><path id="c" d="M397.33 1075.51h-9.76a.85.85 0 0 0-.85.86c0 .47.38.85.85.85h9.76a.85.85 0 1 0 0-1.71z"></path><path id="d" d="M385.15 1066.81a.84.84 0 0 0-1.19-.04l-2.71 2.61-1.15-1.2a.84.84 0 0 0-1.18-.04.9.9 0 0 0 0 1.24l1.74 1.8c.15.17.36.27.59.26.22 0 .44-.1.6-.26l3.3-3.17a.82.82 0 0 0 0-1.2z"></path><path id="e" d="M397.33 1068.65h-9.76a.85.85 0 0 0-.85.86c0 .47.38.86.85.86h9.76c.47 0 .85-.39.85-.86a.85.85 0 0 0-.85-.86z"></path><path id="f" d="M385.15 1080.52a.84.84 0 0 0-1.19-.04l-2.71 2.62-1.15-1.2a.84.84 0 0 0-1.18-.05.9.9 0 0 0 0 1.25l1.74 1.8c.15.17.36.26.59.25.22 0 .44-.1.6-.25l3.3-3.18a.82.82 0 0 0 0-1.2z"></path><path id="g" d="M397.33 1082.37h-9.76a.85.85 0 0 0-.85.85c0 .48.38.86.85.86h9.76c.47 0 .85-.38.85-.86a.85.85 0 0 0-.85-.85z"></path></defs><use xlink:href="#a" transform="translate(-374 -1054)"></use><use xlink:href="#b" transform="translate(-374 -1054)"></use><use xlink:href="#c" transform="translate(-374 -1054)"></use><use xlink:href="#d" transform="translate(-374 -1054)"></use><use xlink:href="#e" transform="translate(-374 -1054)"></use><use xlink:href="#f" transform="translate(-374 -1054)"></use><use xlink:href="#g" transform="translate(-374 -1054)"></use></svg><svg width="13" height="17" viewBox="0 0 13 17" id="triangle-arrow-left" y="11587"><defs><path id="a" d="M1231 3454.99l9.98 6.99V3448z"></path></defs><use xlink:href="#a" transform="translate(-1229 -3446)"></use></svg><svg width="13" height="17" viewBox="0 0 13 17" id="triangle-arrow-right" y="11604"><defs><path id="a" d="M1288 3454.99l-9.99 6.99V3448z"></path></defs><use xlink:href="#a" transform="translate(-1277 -3446)"></use></svg><svg width="31" height="39" viewBox="0 0 31 39" id="worker" y="11621"><defs><path id="a" d="M402.13 1153.28h-3.42v-1.26c0-1.13-.75-2.1-1.78-2.41v-4.36c0-.1-.02-.2-.06-.3l-1.49-3.4a.74.74 0 0 0-.68-.44h-6.07c1.4 0 2.6-.78 3.24-1.92h1.46a8.8 8.8 0 0 1 8.8 8.79zm-19.6-12.17c-.3 0-.57.18-.69.45l-1.48 3.4c-.04.08-.06.19-.06.29v4.36a2.53 2.53 0 0 0-1.79 2.41v1.26h-3.41v-5.3a8.8 8.8 0 0 1 8.8-8.8h1.45a3.72 3.72 0 0 0 3.25 1.93zm6.07 0h.03a5.04 5.04 0 0 1-.03 0zm8.63 12.16h-.3v-1.98c.18.2.3.45.3.73zm-5.79-10.67h2.78l.83 1.9h-3.33zm4 10.67h-3.74v-7.28h3.74zm-8.43-8.76l.27-1.91h2.66l.28 1.9zm3.2 8.76h-3.2v-7.28h3.2zm-4.7-8.76h-3.34l.84-1.91h2.77zm.01 8.76h-3.74v-7.28h3.74zm-5.22 0h-.3v-1.25c0-.28.11-.54.3-.73zm10.55-15.87a2.23 2.23 0 0 1-4.47 0v-.53a7.13 7.13 0 0 0 4.47-.02zm-7.94-7.32v-1.27c.3.08.63.13.97.13h1.45a.83.83 0 0 0 .57 1.43.83.83 0 0 0 .57-1.43h4.28a.83.83 0 0 0 .57 1.43.83.83 0 0 0 .57-1.43h1.45c.31 0 .6-.04.9-.1v1.24a5.66 5.66 0 0 1-11.33 0zm-1.14-4.12h13.68c-.3.87-1.13 1.5-2.1 1.5h-9.47c-.97 0-1.8-.63-2.1-1.5zm6.85-7.7c3.6 0 6.56 2.72 6.93 6.22H381.7a6.98 6.98 0 0 1 6.93-6.23zm-7.2 9.94v1.77a1.04 1.04 0 0 1-.09-2.04l.11.1a.74.74 0 0 0-.02.17zm15.23.74c0 .54-.41.98-.93 1.03v-1.77l-.01-.11.17-.15c.44.12.77.52.77 1zm-3.32 8.76h-1.01l.01-.3v-1.24a7.15 7.15 0 0 0 3.25-4.7h.03a2.53 2.53 0 0 0 1.15-4.76 3.7 3.7 0 0 0 .32-1.48 8.46 8.46 0 0 0-16.92 0c0 .51.1 1 .3 1.45a2.53 2.53 0 0 0 1.1 4.8c.4 2 1.63 3.7 3.34 4.73v1.5h-1a10.3 10.3 0 0 0-10.29 10.28v6.05c0 .4.34.74.75.74h28.51c.41 0 .74-.34.74-.74v-6.05a10.3 10.3 0 0 0-10.28-10.28z"></path><path id="b" d="M390.4 1132.2a.74.74 0 0 0-1.05 0 1.03 1.03 0 0 1-1.47 0 .74.74 0 0 0-1.05 1.05 2.5 2.5 0 0 0 3.57 0 .74.74 0 0 0 0-1.05z"></path><path id="c" d="M394.1 1122.89a5.96 5.96 0 0 0-2.96-3.07.74.74 0 0 0-.63 1.35c1 .47 1.8 1.28 2.23 2.3a.74.74 0 0 0 1.36-.58z"></path><path id="d" d="M388.63 1119.27a.74.74 0 0 0-.75.74c0 .4.34.74.75.74.42 0 .74-.33.75-.74 0-.41-.34-.74-.75-.74z"></path></defs><use xlink:href="#a" transform="translate(-373 -1116)"></use><use xlink:href="#b" transform="translate(-373 -1116)"></use><use xlink:href="#c" transform="translate(-373 -1116)"></use><use xlink:href="#d" transform="translate(-373 -1116)"></use></svg></svg>