<svg xmlns="http://www.w3.org/2000/svg" xmlns:xlink="http://www.w3.org/1999/xlink" width="36" height="37" viewBox="0 0 36 37"><defs><path id="qn5ra" d="M396.5 1198.92l1.34 7.96a.47.47 0 0 1-.19.47.46.46 0 0 1-.5.04l-7.04-3.76a2.35 2.35 0 0 0-2.21 0l-7.05 3.76a.46.46 0 0 1-.5-.04.47.47 0 0 1-.19-.47l1.35-7.96a2.43 2.43 0 0 0-.69-2.13l-5.7-5.64a.47.47 0 0 1-.12-.5.47.47 0 0 1 .39-.33l7.87-1.16c.78-.11 1.45-.6 1.8-1.32l3.51-7.24a.46.46 0 0 1 .43-.27c.09 0 .3.03.43.27l3.52 7.24c.34.72 1.01 1.2 1.79 1.32l7.87 1.16c.27.04.36.25.39.33.02.09.07.3-.12.5l-5.7 5.64a2.43 2.43 0 0 0-.69 2.13zm7.7-6.4a2.42 2.42 0 0 0-1.31-4.1l-7.88-1.17a.48.48 0 0 1-.36-.26l-3.52-7.24a2.36 2.36 0 0 0-4.26 0l-3.52 7.24a.48.48 0 0 1-.36.26l-7.88 1.17a2.42 2.42 0 0 0-1.32 4.11l5.7 5.64c.12.1.17.27.14.42l-1.34 7.97c-.15.9.2 1.81.94 2.35.74.55 1.7.62 2.5.19l7.05-3.76c.14-.08.3-.08.44 0l7.05 3.76a2.35 2.35 0 0 0 2.5-.19c.73-.54 1.1-1.44.94-2.35l-1.34-7.97a.49.49 0 0 1 .13-.42z"/><path id="qn5rc" d="M400.1 1179.74a.94.94 0 0 0-1.33.22l-1.01 1.4a.97.97 0 0 0 .21 1.35.94.94 0 0 0 1.33-.21l1-1.4a.97.97 0 0 0-.2-1.36z"/><path id="qn5re" d="M380.24 1181.36l-1.01-1.4a.94.94 0 0 0-1.33-.22.97.97 0 0 0-.2 1.35l1 1.4a.94.94 0 0 0 1.33.22.97.97 0 0 0 .2-1.35z"/><path id="qn5rg" d="M374.48 1200.03a.95.95 0 0 0-1.2-.62l-1.62.54a.97.97 0 0 0 .29 1.88c.1 0 .2-.02.3-.05l1.62-.54c.5-.16.78-.7.61-1.21z"/><path id="qn5ri" d="M389 1210.73a.96.96 0 0 0-.95.97v1.74c0 .53.43.96.95.96.53 0 .95-.43.95-.96v-1.74a.96.96 0 0 0-.95-.97z"/><path id="qn5rk" d="M406.34 1199.95l-1.63-.54a.95.95 0 0 0-1.2.62.97.97 0 0 0 .62 1.22l1.63.53c.1.04.2.05.29.05.4 0 .77-.26.9-.67a.97.97 0 0 0-.6-1.21z"/><linearGradient id="qn5rb" x1="389" x2="389" y1="1178.4" y2="1209.38" gradientUnits="userSpaceOnUse"><stop offset="0" stop-color="#5077e7"/><stop offset="1" stop-color="#a776dd"/></linearGradient><linearGradient id="qn5rd" x1="399.04" x2="399.04" y1="1179.56" y2="1182.9" gradientUnits="userSpaceOnUse"><stop offset="0" stop-color="#5077e7"/><stop offset="1" stop-color="#a776dd"/></linearGradient><linearGradient id="qn5rf" x1="378.97" x2="378.97" y1="1179.55" y2="1182.89" gradientUnits="userSpaceOnUse"><stop offset="0" stop-color="#5077e7"/><stop offset="1" stop-color="#a776dd"/></linearGradient><linearGradient id="qn5rh" x1="372.77" x2="372.77" y1="1199.36" y2="1201.83" gradientUnits="userSpaceOnUse"><stop offset="0" stop-color="#5077e7"/><stop offset="1" stop-color="#a776dd"/></linearGradient><linearGradient id="qn5rj" x1="389" x2="389" y1="1210.73" y2="1214.4" gradientUnits="userSpaceOnUse"><stop offset="0" stop-color="#5077e7"/><stop offset="1" stop-color="#a776dd"/></linearGradient><linearGradient id="qn5rl" x1="405.24" x2="405.24" y1="1199.36" y2="1201.83" gradientUnits="userSpaceOnUse"><stop offset="0" stop-color="#5077e7"/><stop offset="1" stop-color="#a776dd"/></linearGradient></defs><g><g transform="translate(-371 -1178)"><g><g><g><use xlink:href="#qn5ra"/></g></g></g><g><g><g><use xlink:href="#qn5rc"/></g></g></g><g><g><g><use xlink:href="#qn5re"/></g></g></g><g><g><g><use xlink:href="#qn5rg"/></g></g></g><g><g><g><use xlink:href="#qn5ri"/></g></g></g><g><g><g><use xlink:href="#qn5rk"/></g></g></g></g></g></svg>