<svg xmlns="http://www.w3.org/2000/svg" xmlns:xlink="http://www.w3.org/1999/xlink" width="62" height="62" viewBox="0 0 62 62"><defs><path id="byxua" d="M1387 539.98v14.04c0 .52-.42.94-.94.94h-17.1v18.1c0 .52-.42.94-.94.94H1352a.94.94 0 0 1-.94-.94v-5.07h-19.1a.95.95 0 0 1-.9-1.22l3.63-11.81h-6.74a.94.94 0 0 1-.94-.94v-20.04c0-.51.43-.94.94-.94h7.08v-.06a8.97 8.97 0 0 1 8.95-8.96h25.12v-9.08c0-.52.42-.94.94-.94h8.01c.52 0 .94.42.94.94v4c0 .53-.42.95-.94.95h-7.07v4.13h7.07a8.97 8.97 0 0 1 8.96 8.96zm-1.88.12V532.98c0-3.9-3.17-7.08-7.08-7.08h-7.07v4.22a4.96 4.96 0 1 1-1.88 0v-4.22h-15.63a8.94 8.94 0 0 1 3.48 7.08v20.1h28.18zm-14.15-22.1h6.13v-2.12h-6.13zm-40.35 16.92l12.35 9.88 11.89-9.5a.92.92 0 0 1 .2-.13v-.25zm24.44 18.16v-15.54l-11.5 9.2a.95.95 0 0 1-1.18 0l-13.5-10.8v17.14zm-.33 1.88h-18.08l-3.43 11.15h18.08zm7.34 0h-5.38l-3.79 12.31c.02.07.03.14.03.22v4.63h9.14v-6.95zm.94 8.06c.52 0 .94.42.94.94v8.16h3.13v-17.16h-3.13v9.38c0 .51-.42.93-.94.93s-.94.42-.94-.1v-1.21c0-.52.42-.94.94-.94zm-15.03-37.12h-4a7.09 7.09 0 0 0-7.08 7.08v.06h18.16v-.06c0-3.9-3.18-7.08-7.08-7.08zm22.99 6.16v2.92a.94.94 0 1 1-1.88 0v-2.92a3.07 3.07 0 1 0 1.88 0zm7.01 17.95c0 .52-.42.94-.94.94h-13.03a.94.94 0 1 1 0-1.88h13.03c.52 0 .94.42.94.94z"/></defs><g><g transform="translate(-1326 -513)"><use xlink:href="#byxua"/></g></g></svg>