<svg xmlns="http://www.w3.org/2000/svg" xmlns:xlink="http://www.w3.org/1999/xlink" preserveAspectRatio="xMidYMid" width="40" height="38" viewBox="0 0 40 38">
  <defs>
    
  </defs>
  <path d="M34.286,14.375 C34.286,6.416 27.893,-0.001 20.000,-0.001 C12.107,-0.001 5.714,6.416 5.714,14.339 C5.714,14.339 5.714,14.339 5.714,14.375 C2.536,14.554 -0.000,17.207 -0.000,20.433 L-0.000,21.150 C-0.000,24.520 2.714,27.245 6.071,27.245 L6.393,27.245 L8.929,31.296 C10.714,34.163 13.750,35.848 17.107,35.848 L17.607,35.848 C17.929,37.067 19.036,37.999 20.357,37.999 C21.928,37.999 23.214,36.709 23.214,35.132 C23.214,33.554 21.928,32.263 20.357,32.263 C19.036,32.263 17.929,33.196 17.607,34.414 L17.107,34.414 C14.250,34.414 11.643,32.945 10.143,30.507 L8.071,27.245 L8.571,27.245 C9.357,27.245 10.000,26.600 10.000,25.810 L10.000,15.773 C10.000,14.984 9.357,14.339 8.571,14.339 L7.143,14.339 C7.143,7.205 12.893,1.434 20.000,1.434 C27.107,1.434 32.857,7.205 32.857,14.339 L31.429,14.339 C30.643,14.339 30.000,14.984 30.000,15.773 L30.000,25.810 C30.000,26.600 30.643,27.245 31.429,27.245 L33.929,27.245 C37.286,27.245 40.000,24.520 40.000,21.150 L40.000,20.433 C40.000,17.207 37.464,14.554 34.286,14.375 ZM20.357,33.698 C21.143,33.698 21.786,34.343 21.786,35.132 C21.786,35.920 21.143,36.566 20.357,36.566 C19.571,36.566 18.929,35.920 18.929,35.132 C18.929,34.343 19.571,33.698 20.357,33.698 ZM8.571,15.773 L8.571,25.810 L6.071,25.810 C3.500,25.810 1.429,23.731 1.429,21.150 L1.429,20.433 C1.429,17.852 3.500,15.773 6.071,15.773 L8.571,15.773 ZM38.571,21.150 C38.571,23.731 36.500,25.810 33.929,25.810 L31.429,25.810 L31.429,15.773 L33.929,15.773 C36.500,15.773 38.571,17.852 38.571,20.433 L38.571,21.150 Z" class="cls-1"/>
</svg>
