<svg xmlns="http://www.w3.org/2000/svg" xmlns:xlink="http://www.w3.org/1999/xlink" width="29" height="37" viewBox="0 0 29 37"><defs><path id="wvx4a" d="M400.72 1087.25c0 .94-.93 1.54-1.86 1.54h-20.88c-.93 0-1.86-.6-1.86-1.54v-24.55c.08-.98.89-1.74 1.86-1.76h3.23v2.19a.9.9 0 0 0 .93.81h12.52c.48.03.9-.33.97-.81v-2.19h3.23c.97.02 1.78.78 1.86 1.76v24.55zm-17.82-28.45h2.34c.4-.05.73-.37.8-.77a2.47 2.47 0 0 1 2.34-1.93c1.1.03 2.05.83 2.29 1.93.07.42.42.74.85.77h2.41v3.43H382.9zm12.73.43v-1.46c0-.47-.5-.69-.97-.69h-2.5a3.8 3.8 0 0 0-3.78-2.57 3.86 3.86 0 0 0-3.78 2.57h-2.46c-.47 0-.93.22-.93.69v1.46h-3.23a3.62 3.62 0 0 0-3.56 3.47v24.55c0 1.89 1.7 3.26 3.56 3.26h20.88c1.86 0 3.56-1.37 3.56-3.26v-24.55a3.62 3.62 0 0 0-3.56-3.47z"/><path id="wvx4c" d="M385.15 1073.67a.84.84 0 0 0-1.19-.05l-2.71 2.62-1.15-1.2a.84.84 0 0 0-1.18-.04.9.9 0 0 0 0 1.24l1.74 1.8c.15.17.36.26.59.26.22 0 .44-.1.6-.26l3.3-3.17a.82.82 0 0 0 0-1.2z"/><path id="wvx4e" d="M397.33 1075.51h-9.76a.85.85 0 0 0-.85.86c0 .47.38.85.85.85h9.76a.85.85 0 1 0 0-1.71z"/><path id="wvx4g" d="M385.15 1066.81a.84.84 0 0 0-1.19-.04l-2.71 2.61-1.15-1.2a.84.84 0 0 0-1.18-.04.9.9 0 0 0 0 1.24l1.74 1.8c.15.17.36.27.59.26.22 0 .44-.1.6-.26l3.3-3.17a.82.82 0 0 0 0-1.2z"/><path id="wvx4i" d="M397.33 1068.65h-9.76a.85.85 0 0 0-.85.86c0 .47.38.86.85.86h9.76c.47 0 .85-.39.85-.86a.85.85 0 0 0-.85-.86z"/><path id="wvx4k" d="M385.15 1080.52a.84.84 0 0 0-1.19-.04l-2.71 2.62-1.15-1.2a.84.84 0 0 0-1.18-.05.9.9 0 0 0 0 1.25l1.74 1.8c.15.17.36.26.59.25.22 0 .44-.1.6-.25l3.3-3.18a.82.82 0 0 0 0-1.2z"/><path id="wvx4m" d="M397.33 1082.37h-9.76a.85.85 0 0 0-.85.85c0 .48.38.86.85.86h9.76c.47 0 .85-.38.85-.86a.85.85 0 0 0-.85-.85z"/><linearGradient id="wvx4b" x1="388.42" x2="388.42" y1="1054.51" y2="1090.51" gradientUnits="userSpaceOnUse"><stop offset="0" stop-color="#5077e7"/><stop offset="1" stop-color="#a776dd"/></linearGradient><linearGradient id="wvx4d" x1="382.04" x2="382.04" y1="1073.4" y2="1078.3" gradientUnits="userSpaceOnUse"><stop offset="0" stop-color="#5077e7"/><stop offset="1" stop-color="#a776dd"/></linearGradient><linearGradient id="wvx4f" x1="392.45" x2="392.45" y1="1075.51" y2="1077.23" gradientUnits="userSpaceOnUse"><stop offset="0" stop-color="#5077e7"/><stop offset="1" stop-color="#a776dd"/></linearGradient><linearGradient id="wvx4h" x1="382.04" x2="382.04" y1="1066.54" y2="1071.44" gradientUnits="userSpaceOnUse"><stop offset="0" stop-color="#5077e7"/><stop offset="1" stop-color="#a776dd"/></linearGradient><linearGradient id="wvx4j" x1="392.45" x2="392.45" y1="1068.65" y2="1070.37" gradientUnits="userSpaceOnUse"><stop offset="0" stop-color="#5077e7"/><stop offset="1" stop-color="#a776dd"/></linearGradient><linearGradient id="wvx4l" x1="382.04" x2="382.04" y1="1080.26" y2="1085.15" gradientUnits="userSpaceOnUse"><stop offset="0" stop-color="#5077e7"/><stop offset="1" stop-color="#a776dd"/></linearGradient><linearGradient id="wvx4n" x1="392.45" x2="392.45" y1="1082.37" y2="1084.08" gradientUnits="userSpaceOnUse"><stop offset="0" stop-color="#5077e7"/><stop offset="1" stop-color="#a776dd"/></linearGradient></defs><g><g transform="translate(-374 -1054)"><use xlink:href="#wvx4a"/></g><g transform="translate(-374 -1054)"><use xlink:href="#wvx4c"/></g><g transform="translate(-374 -1054)"><use xlink:href="#wvx4e"/></g><g transform="translate(-374 -1054)"><use xlink:href="#wvx4g"/></g><g transform="translate(-374 -1054)"><use xlink:href="#wvx4i"/></g><g transform="translate(-374 -1054)"><use xlink:href="#wvx4k"/></g><g transform="translate(-374 -1054)"><use xlink:href="#wvx4m"/></g></g></svg>