<?xml version="1.0" standalone="no"?>
<!DOCTYPE svg PUBLIC "-//W3C//DTD SVG 1.1//EN" "http://www.w3.org/Graphics/SVG/1.1/DTD/svg11.dtd">
<!--Generator: Xara Designer (www.xara.com), SVG filter version: 6.5.0.22-->
<svg fill-rule="evenodd" stroke="black" stroke-width="0.501" stroke-linejoin="bevel" stroke-miterlimit="10" font-family="Times New Roman" font-size="16" xmlns:xlink="http://www.w3.org/1999/xlink" xmlns="http://www.w3.org/2000/svg" version="1.1" overflow="visible" width="15.016pt" height="18pt" viewBox="318.754 -3372.74 15.016 18">
 <defs>
	</defs>
 <g id="Layer 1" transform="scale(1 -1)">
  <g id="Group" fill-rule="nonzero" stroke-linejoin="miter" stroke="none" stroke-width="0.035">
   <path d="M 326.148,3364.07 C 327.34,3364.07 328.371,3364.5 329.214,3365.34 C 330.056,3366.18 330.484,3367.21 330.484,3368.41 C 330.484,3369.6 330.057,3370.63 329.214,3371.47 C 328.371,3372.31 327.339,3372.74 326.148,3372.74 C 324.957,3372.74 323.926,3372.31 323.083,3371.47 C 322.24,3370.63 321.813,3369.6 321.813,3368.41 C 321.813,3367.21 322.24,3366.18 323.083,3365.34 C 323.926,3364.5 324.958,3364.07 326.148,3364.07 Z M 323.829,3370.72 C 324.476,3371.37 325.234,3371.68 326.148,3371.68 C 327.062,3371.68 327.821,3371.37 328.468,3370.72 C 329.114,3370.08 329.429,3369.32 329.429,3368.41 C 329.429,3367.49 329.114,3366.73 328.468,3366.09 C 327.821,3365.44 327.062,3365.12 326.148,3365.12 C 325.235,3365.12 324.476,3365.44 323.829,3366.09 C 323.182,3366.73 322.868,3367.49 322.868,3368.41 C 322.868,3369.32 323.182,3370.08 323.829,3370.72 Z" marker-start="none" marker-end="none"/>
   <path d="M 333.734,3358.9 C 333.71,3359.25 333.661,3359.63 333.588,3360.04 C 333.515,3360.44 333.421,3360.83 333.308,3361.18 C 333.192,3361.54 333.034,3361.9 332.838,3362.25 C 332.635,3362.6 332.397,3362.91 332.13,3363.17 C 331.85,3363.44 331.507,3363.65 331.111,3363.81 C 330.717,3363.97 330.279,3364.05 329.811,3364.05 C 329.628,3364.05 329.45,3363.97 329.107,3363.75 C 328.896,3363.61 328.649,3363.45 328.373,3363.27 C 328.137,3363.12 327.818,3362.98 327.423,3362.86 C 327.038,3362.73 326.647,3362.67 326.261,3362.67 C 325.876,3362.67 325.485,3362.73 325.1,3362.86 C 324.706,3362.98 324.386,3363.12 324.151,3363.27 C 323.878,3363.45 323.63,3363.61 323.416,3363.75 C 323.073,3363.97 322.896,3364.05 322.712,3364.05 C 322.244,3364.05 321.807,3363.97 321.412,3363.81 C 321.016,3363.65 320.674,3363.44 320.394,3363.17 C 320.126,3362.91 319.888,3362.6 319.685,3362.25 C 319.49,3361.9 319.331,3361.54 319.215,3361.18 C 319.103,3360.83 319.008,3360.44 318.935,3360.04 C 318.863,3359.63 318.814,3359.25 318.79,3358.9 C 318.766,3358.56 318.754,3358.2 318.754,3357.84 C 318.754,3356.9 319.052,3356.14 319.641,3355.58 C 320.223,3355.02 320.993,3354.74 321.929,3354.74 L 330.595,3354.74 C 331.531,3354.74 332.301,3355.02 332.883,3355.58 C 333.472,3356.14 333.77,3356.9 333.77,3357.84 C 333.77,3358.2 333.758,3358.56 333.734,3358.9 Z M 332.155,3356.34 C 331.771,3355.97 331.261,3355.8 330.595,3355.8 L 321.929,3355.8 C 321.263,3355.8 320.753,3355.97 320.368,3356.34 C 319.992,3356.7 319.808,3357.19 319.808,3357.84 C 319.808,3358.17 319.819,3358.51 319.842,3358.83 C 319.863,3359.14 319.908,3359.48 319.974,3359.85 C 320.039,3360.21 320.121,3360.55 320.219,3360.86 C 320.314,3361.15 320.443,3361.44 320.602,3361.72 C 320.754,3361.99 320.93,3362.22 321.123,3362.41 C 321.304,3362.58 321.532,3362.72 321.8,3362.83 C 322.049,3362.93 322.328,3362.98 322.631,3362.99 C 322.668,3362.97 322.734,3362.93 322.84,3362.86 C 323.057,3362.72 323.307,3362.56 323.583,3362.38 C 323.895,3362.18 324.296,3362.01 324.775,3361.85 C 325.266,3361.69 325.765,3361.61 326.262,3361.61 C 326.758,3361.61 327.258,3361.69 327.748,3361.85 C 328.227,3362.01 328.628,3362.18 328.94,3362.38 C 329.223,3362.57 329.466,3362.72 329.683,3362.86 C 329.789,3362.93 329.855,3362.97 329.892,3362.99 C 330.195,3362.98 330.475,3362.93 330.723,3362.83 C 330.992,3362.72 331.22,3362.58 331.4,3362.41 C 331.594,3362.22 331.769,3361.99 331.921,3361.72 C 332.081,3361.44 332.21,3361.15 332.304,3360.86 C 332.402,3360.55 332.485,3360.21 332.55,3359.85 C 332.616,3359.48 332.66,3359.14 332.682,3358.83 L 332.682,3358.83 C 332.704,3358.51 332.716,3358.17 332.716,3357.84 C 332.716,3357.19 332.532,3356.7 332.155,3356.34 Z" marker-start="none" marker-end="none"/>
  </g>
 </g>
</svg>
