<svg xmlns="http://www.w3.org/2000/svg" xmlns:xlink="http://www.w3.org/1999/xlink" width="31" height="39" viewBox="0 0 31 39"><defs><path id="cegla" d="M402.13 1153.28h-3.42v-1.26c0-1.13-.75-2.1-1.78-2.41v-4.36c0-.1-.02-.2-.06-.3l-1.49-3.4a.74.74 0 0 0-.68-.44h-6.07c1.4 0 2.6-.78 3.24-1.92h1.46a8.8 8.8 0 0 1 8.8 8.79zm-19.6-12.17c-.3 0-.57.18-.69.45l-1.48 3.4c-.04.08-.06.19-.06.29v4.36a2.53 2.53 0 0 0-1.79 2.41v1.26h-3.41v-5.3a8.8 8.8 0 0 1 8.8-8.8h1.45a3.72 3.72 0 0 0 3.25 1.93zm6.07 0h.03a5.04 5.04 0 0 1-.03 0zm8.63 12.16h-.3v-1.98c.18.2.3.45.3.73zm-5.79-10.67h2.78l.83 1.9h-3.33zm4 10.67h-3.74v-7.28h3.74zm-8.43-8.76l.27-1.91h2.66l.28 1.9zm3.2 8.76h-3.2v-7.28h3.2zm-4.7-8.76h-3.34l.84-1.91h2.77zm.01 8.76h-3.74v-7.28h3.74zm-5.22 0h-.3v-1.25c0-.28.11-.54.3-.73zm10.55-15.87a2.23 2.23 0 0 1-4.47 0v-.53a7.13 7.13 0 0 0 4.47-.02zm-7.94-7.32v-1.27c.3.08.63.13.97.13h1.45a.83.83 0 0 0 .57 1.43.83.83 0 0 0 .57-1.43h4.28a.83.83 0 0 0 .57 1.43.83.83 0 0 0 .57-1.43h1.45c.31 0 .6-.04.9-.1v1.24a5.66 5.66 0 0 1-11.33 0zm-1.14-4.12h13.68c-.3.87-1.13 1.5-2.1 1.5h-9.47c-.97 0-1.8-.63-2.1-1.5zm6.85-7.7c3.6 0 6.56 2.72 6.93 6.22H381.7a6.98 6.98 0 0 1 6.93-6.23zm-7.2 9.94v1.77a1.04 1.04 0 0 1-.09-2.04l.11.1a.74.74 0 0 0-.02.17zm15.23.74c0 .54-.41.98-.93 1.03v-1.77l-.01-.11.17-.15c.44.12.77.52.77 1zm-3.32 8.76h-1.01l.01-.3v-1.14-.1a7.15 7.15 0 0 0 3.25-4.7h.03a2.53 2.53 0 0 0 1.15-4.76 3.7 3.7 0 0 0 .32-1.48 8.46 8.46 0 0 0-16.92 0c0 .51.1 1 .3 1.45a2.53 2.53 0 0 0 1.1 4.8c.4 2 1.63 3.7 3.34 4.73v1.5h-1a10.3 10.3 0 0 0-10.29 10.28v6.05c0 .4.34.74.75.74h28.51c.41 0 .74-.34.74-.74v-6.05a10.3 10.3 0 0 0-10.28-10.28z"/><path id="ceglc" d="M390.4 1132.2a.74.74 0 0 0-1.05 0 1.03 1.03 0 0 1-1.47 0 .74.74 0 0 0-1.05 1.05 2.5 2.5 0 0 0 3.57 0 .74.74 0 0 0 0-1.05z"/><path id="cegle" d="M394.1 1122.89a5.96 5.96 0 0 0-2.96-3.07.74.74 0 0 0-.63 1.35c1 .47 1.8 1.28 2.23 2.3a.74.74 0 0 0 1.36-.58z"/><path id="ceglg" d="M388.63 1119.27c-.42 0-.75.33-.75.74 0 .4.34.74.75.74.42 0 .74-.33.75-.74 0-.41-.34-.74-.75-.74z"/><linearGradient id="ceglb" x1="388.61" x2="388.61" y1="1116.77" y2="1154.77" gradientUnits="userSpaceOnUse"><stop offset="0" stop-color="#5077e7"/><stop offset="1" stop-color="#a776dd"/></linearGradient><linearGradient id="cegld" x1="388.61" x2="388.61" y1="1131.98" y2="1133.99" gradientUnits="userSpaceOnUse"><stop offset="0" stop-color="#5077e7"/><stop offset="1" stop-color="#a776dd"/></linearGradient><linearGradient id="ceglf" x1="392.12" x2="392.12" y1="1119.75" y2="1123.92" gradientUnits="userSpaceOnUse"><stop offset="0" stop-color="#5077e7"/><stop offset="1" stop-color="#a776dd"/></linearGradient><linearGradient id="ceglh" x1="388.63" x2="388.63" y1="1119.27" y2="1120.75" gradientUnits="userSpaceOnUse"><stop offset="0" stop-color="#5077e7"/><stop offset="1" stop-color="#a776dd"/></linearGradient></defs><g><g transform="translate(-373 -1116)"><g><g><g><use xlink:href="#cegla"/></g></g></g><g><g><g><use xlink:href="#ceglc"/></g></g></g><g><g><g><use xlink:href="#cegle"/></g></g></g><g><g><g><use xlink:href="#ceglg"/></g></g></g></g></g></svg>