<svg xmlns="http://www.w3.org/2000/svg" xmlns:xlink="http://www.w3.org/1999/xlink" width="56" height="40" viewBox="0 0 56 40"><defs><path id="hryta" d="M802.22 902.1c-3.5 0-8.18-1.42-11.1-5.2a16.75 16.75 0 0 0 2.43-8.82c0-3.7-.97-7.68-2.53-11.28 3.02-6.45 7.5-11 11.2-11 6.23 0 13.83 12.23 13.83 22.18.1 9.76-7.1 14.12-13.83 14.12zm-24.35 0c-6.62 0-13.82-4.36-13.82-14.02 0-9.96 7.6-22.18 13.82-22.18 4 0 8.57 5.02 11.3 11.28v.09a27.4 27.4 0 0 1 2.53 10.9c0 9.57-7.2 13.93-13.83 13.93zm24.35-38.1c-4.67 0-9.35 5.12-12.17 10.62-3.12-6.07-7.89-10.62-12.18-10.62-7.3 0-15.87 13.08-15.87 24.08 0 7.96 5.45 15.92 15.78 15.92 5.45 0 9.54-2.18 12.17-5.5 3.41 3.98 8.47 5.5 12.27 5.5 10.33 0 15.78-8.06 15.78-15.92.1-11-8.47-24.08-15.78-24.08z"/><path id="hrytc" d="M769.3 879.64c-.48-.19-1.07.1-1.26.57-.1.28-2.83 7.2-.59 12.04.2.28.5.47.88.47.1 0 .3 0 .39-.1.49-.18.68-.75.49-1.23-1.95-4.07.58-10.42.68-10.52.2-.47-.1-1.04-.59-1.23z"/><path id="hryte" d="M800.86 869.3c-.4-.47-.98-.47-1.36-.09-.2.2-5.65 5.5-5.56 10.8 0 .48.5.96.98.96.58 0 .97-.48.97-.95-.1-4.46 4.87-9.38 4.97-9.38a.9.9 0 0 0 0-1.33z"/><linearGradient id="hrytb" x1="790" x2="790" y1="864" y2="904" gradientUnits="userSpaceOnUse"><stop offset="0" stop-color="#5077e7"/><stop offset="1" stop-color="#a776dd"/></linearGradient><linearGradient id="hrytd" x1="768.26" x2="768.26" y1="879.58" y2="892.72" gradientUnits="userSpaceOnUse"><stop offset="0" stop-color="#5077e7"/><stop offset="1" stop-color="#a776dd"/></linearGradient><linearGradient id="hrytf" x1="797.55" x2="797.55" y1="868.94" y2="880.97" gradientUnits="userSpaceOnUse"><stop offset="0" stop-color="#5077e7"/><stop offset="1" stop-color="#a776dd"/></linearGradient></defs><g><g transform="translate(-762 -864)"><g><g><g><use fill="url(#hrytb)" xlink:href="#hryta"/></g></g></g><g><g><g><use fill="url(#hrytd)" xlink:href="#hrytc"/></g></g></g><g><g><g><use fill="url(#hrytf)" xlink:href="#hryte"/></g></g></g></g></g></svg>