<svg xmlns="http://www.w3.org/2000/svg" xmlns:xlink="http://www.w3.org/1999/xlink" width="40" height="47" viewBox="0 0 40 47"><defs><path id="bpwia" d="M1194.87 1120.7a7.5 7.5 0 0 1-4.1 2.72c.14-1.67 1-3.31 1.91-4.42a9.17 9.17 0 0 1 4.05-2.76 9.1 9.1 0 0 1-1.86 4.46zm4.72-6.44a1.45 1.45 0 0 0-1.56-1.25c-2.7.19-5.77 1.85-7.62 4.14-2.02 2.48-2.94 5.52-2.46 8.14.12.68.7 1.18 1.39 1.2h.23c2.78 0 5.75-1.55 7.63-4.01a11.11 11.11 0 0 0 2.39-8.22z"/><path id="bpwic" d="M1204.5 1151.2c-1.7 2.64-3.96 5.67-6.34 5.69a5.65 5.65 0 0 1-2.46-.68 10.93 10.93 0 0 0-9.83 0c-.89.4-1.53.63-2.53.69-2.46-.03-4.61-2.87-6.2-5.35-5.09-7.87-5.08-16.42-2.49-20.48 1.92-3 4.92-4.86 7.83-4.86 1.5 0 2.73.45 4.03.92 1.3.47 2.65.96 4.24.96 1.5 0 2.7-.47 3.87-.91 1.24-.48 2.52-.97 4.37-.97 2.1 0 4.3.99 6.07 2.7a10.76 10.76 0 0 0-4.11 9.42c.27 3.9 2.4 7.25 5.67 9.05a27.05 27.05 0 0 1-2.11 3.82zm5.39-5.1a1.47 1.47 0 0 0-.83-.8 8.2 8.2 0 0 1-5.2-7.18 7.94 7.94 0 0 1 4.13-7.65c.38-.2.64-.57.72-1 .09-.41-.02-.85-.28-1.18-2.47-3.14-6-5.01-9.44-5.01-2.4 0-4.07.65-5.43 1.17-1.04.4-1.86.71-2.81.71-1.08 0-2.08-.36-3.24-.78a14.08 14.08 0 0 0-5.03-1.1c-3.9 0-7.84 2.39-10.3 6.22-3.67 5.77-2.62 15.7 2.5 23.63 1.99 3.1 4.77 6.66 8.64 6.7h.07c1.6 0 2.7-.51 3.69-.95 1.02-.47 1.98-.9 3.71-.92 1.65-.05 2.67.43 3.67.9a8.3 8.3 0 0 0 3.72.95c3.76-.03 6.55-3.56 8.78-7.02a33.07 33.07 0 0 0 2.91-5.53c.17-.36.17-.78.02-1.15z"/><linearGradient id="bpwib" x1="1193.75" x2="1193.75" y1="1113" y2="1126.49" gradientUnits="userSpaceOnUse"><stop offset="0" stop-color="#5077e7"/><stop offset="1" stop-color="#a776dd"/></linearGradient><linearGradient id="bpwid" x1="1190" x2="1190" y1="1123.28" y2="1159.82" gradientUnits="userSpaceOnUse"><stop offset="0" stop-color="#5077e7"/><stop offset="1" stop-color="#a776dd"/></linearGradient></defs><g><g transform="translate(-1170 -1113)"><g><g><g><use fill="url(#bpwib)" xlink:href="#bpwia"/></g></g></g><g><g><g><use fill="url(#bpwid)" xlink:href="#bpwic"/></g></g></g></g></g></svg>