<svg xmlns="http://www.w3.org/2000/svg" width="90" height="90" viewBox="0 0 90 90"><defs><linearGradient id="z775a" x1="45" x2="45" y1="90" y2="0" gradientUnits="userSpaceOnUse"><stop offset="0" stop-color="#a776dd"/><stop offset="1" stop-color="#5077e7"/></linearGradient></defs><g><g><path fill="url(#z775a)" d="M90 3v21a3.004 3.004 0 0 1-3 3v60a3.004 3.004 0 0 1-3 3H6a3.004 3.004 0 0 1-3-3V27a3.004 3.004 0 0 1-3-3V3a3.004 3.004 0 0 1 3-3h84a3.004 3.004 0 0 1 3 3zM30 51H12v36h18zm54 36V76.5H37.5a1.5 1.5 0 0 1 0-3v-39a3.004 3.004 0 0 1 3-3H84V27H6v60h3V51a3.004 3.004 0 0 1 3-3h18a3.004 3.004 0 0 1 3 3v36zm-4.5-43.5c0-.398.158-.78.44-1.06L84 38.377V34.5h-5.38l-4.06 4.06a1.502 1.502 0 0 1-2.53-.662 1.5 1.5 0 0 1 .41-1.459l1.939-1.94H66.62l-9.31 9.312a1.499 1.499 0 0 1-2.53-.663 1.499 1.499 0 0 1 .409-1.458l7.189-7.19H56.12l-2.56 2.56a1.5 1.5 0 1 1-2.122-2.12l.44-.44h-11.38v12.878l7.19-7.189a1.5 1.5 0 0 1 2.122 2.121L40.5 51.621V73.5H45v-9.3a4.416 4.416 0 0 1 1.276-3.1 1.29 1.29 0 0 0 .389-.736l.375-2.235a1.474 1.474 0 0 1-.54-1.13A1.5 1.5 0 0 1 48 55.5h6a1.5 1.5 0 0 1 1.5 1.5 1.477 1.477 0 0 1-.54 1.129l.37 2.21c.042.289.18.558.391.76A4.414 4.414 0 0 1 57 64.2v9.3h4.5V58.5a1.5 1.5 0 1 1 0-3H66V45a3.004 3.004 0 0 1 3-3h3a3.004 3.004 0 0 1 3 3v10.5h4.5a1.5 1.5 0 1 1 0 3v15H84V42.62l-1.94 1.94A1.498 1.498 0 0 1 79.5 43.5zm-3 18v-3H75a3.003 3.003 0 0 1-3-3V51h-3v4.5a3.004 3.004 0 0 1-3 3h-1.5v3zm-12 3v9h12v-9zM72 48v-3h-3v3zM54 66v-1.8c0-.367-.144-.72-.401-.98a4.308 4.308 0 0 1-1.233-2.414L51.98 58.5h-1.96l-.391 2.333a4.28 4.28 0 0 1-1.23 2.388 1.4 1.4 0 0 0-.4.979V66zm-6 3v4.5h6V69zM87 24L87 3H3v21zM84 9v9a3.003 3.003 0 0 1-3 3H9a3.003 3.003 0 0 1-3-3V9a3.004 3.004 0 0 1 3-3h72a3.004 3.004 0 0 1 3 3zm-3 0H9v9.002L81 18zm-48 4.5a1.5 1.5 0 0 1 1.5-1.5h30a1.5 1.5 0 0 1 0 3h-30a1.5 1.5 0 0 1-1.5-1.5zm-18 0a1.5 1.5 0 0 1 1.5-1.5H27a1.5 1.5 0 0 1 0 3H16.5a1.5 1.5 0 0 1-1.5-1.5zm55.5 0A1.5 1.5 0 0 1 72 12h1.5a1.5 1.5 0 1 1 0 3H72a1.5 1.5 0 0 1-1.5-1.5zM33 34.5V42a3.004 3.004 0 0 1-3 3H12a3.004 3.004 0 0 1-3-3v-7.5a3.003 3.003 0 0 1 3-3h18a3.004 3.004 0 0 1 3 3zM14.437 42l8.572-7.5h-11.01V42zm15.565 0L30 34.5h-2.437L18.99 42zM18 72v-7.5a3.004 3.004 0 0 1 3-3h3a3.004 3.004 0 0 1 3 3V72a3.004 3.004 0 0 1-3 3h-3a3.004 3.004 0 0 1-3-3zm3 0h3.002L24 64.5h-3zm46.5-3a1.5 1.5 0 0 1 1.5-1.5h3a1.5 1.5 0 0 1 0 3h-3a1.5 1.5 0 0 1-1.5-1.5z"/></g></g></svg>