<svg xmlns="http://www.w3.org/2000/svg" xmlns:xlink="http://www.w3.org/1999/xlink" width="50" height="46" viewBox="0 0 50 46"><defs><path id="hz7oa" d="M1208.4 1132.88c-1.6.27-3.06.5-4.45.67-.62.08-1.2.15-1.79.2h-.01c-.54.06-1.06.1-1.57.14l-.3.02-1.32.07-.26.01c-1.04.04-2.06.04-3.1 0l-.28-.01a50.68 50.68 0 0 1-3.13-.22h-.06l-1.77-.2a101 101 0 0 1-4.48-.68l-6.38-1.1c3.32-3.8 5-8.37 5-13.61v-7.5c.03-4.53 3.24-8.03 6.4-9.5a14.9 14.9 0 0 1 2.92-.98h.03c2.05-.46 4.24-.48 6.32-.06h.03c1.09.23 2.16.57 3.19 1.04a10.58 10.58 0 0 1 6.13 9.5v7.5c0 5.02 1.81 9.7 5.26 13.6zm-11.25 5.29a6.68 6.68 0 0 1-5.35-2.77 51.61 51.61 0 0 0 10.7 0 6.68 6.68 0 0 1-5.35 2.77zm-2.65-40a2.5 2.5 0 0 1 5 0v.15a16.57 16.57 0 0 0-5 .04zm16.69 12.5c.03-5.71-3.81-9.5-7.11-11.01-.95-.43-1.92-.77-2.91-1.01v-.48a4.17 4.17 0 0 0-8.34 0v.55c-.89.24-1.77.55-2.62.95-3.65 1.68-7.34 5.73-7.38 11v7.5c0 5.32-1.88 9.89-5.58 13.57a.83.83 0 0 0 .44 1.41l7.91 1.37c1.47.25 2.83.46 4.12.63a8.4 8.4 0 0 0 7.43 4.68 8.4 8.4 0 0 0 7.43-4.68c1.29-.17 2.64-.38 4.1-.63l7.91-1.37a.83.83 0 0 0 .45-1.4c-3.88-3.87-5.85-8.43-5.85-13.58z"/><path id="hz7oc" d="M1202.35 1103.45a12.73 12.73 0 0 0-10.4 0c-1.82.84-4.93 3.31-4.95 7.21 0 .46.37.84.83.84.46 0 .83-.37.84-.83.02-3.06 2.51-5.03 3.98-5.7a11.03 11.03 0 0 1 9 0 .83.83 0 0 0 .7-1.52z"/><path id="hz7oe" d="M1176 1110.91a.83.83 0 0 0-1.18 0 9.59 9.59 0 0 0-2.82 6.83c0 2.58 1 5 2.82 6.82a.83.83 0 0 0 1.18 0 .83.83 0 0 0 0-1.18 7.93 7.93 0 0 1-2.33-5.64c0-2.14.83-4.15 2.33-5.65a.83.83 0 0 0 0-1.18z"/><path id="hz7og" d="M1178.92 1122.9a.83.83 0 0 0 .59-1.41 5.47 5.47 0 0 1 0-7.73.83.83 0 1 0-1.18-1.18 7.14 7.14 0 0 0 0 10.08c.16.17.38.25.6.25z"/><path id="hz7oi" d="M1219.18 1110.91a.83.83 0 1 0-1.18 1.18 7.93 7.93 0 0 1 2.33 5.65c0 2.13-.83 4.14-2.33 5.64a.83.83 0 1 0 1.18 1.18 9.58 9.58 0 0 0 2.82-6.82c0-2.58-1-5-2.82-6.83z"/><path id="hz7ok" d="M1214.49 1112.58a.83.83 0 0 0 0 1.18 5.47 5.47 0 0 1 0 7.73.83.83 0 1 0 1.18 1.17 7.14 7.14 0 0 0 0-10.08.83.83 0 0 0-1.18 0z"/><linearGradient id="hz7ob" x1="1197.14" x2="1197.14" y1="1094" y2="1139.83" gradientUnits="userSpaceOnUse"><stop offset="0" stop-color="#5077e7"/><stop offset="1" stop-color="#a776dd"/></linearGradient><linearGradient id="hz7od" x1="1194.92" x2="1194.92" y1="1102.34" y2="1111.5" gradientUnits="userSpaceOnUse"><stop offset="0" stop-color="#5077e7"/><stop offset="1" stop-color="#a776dd"/></linearGradient><linearGradient id="hz7of" x1="1174.13" x2="1174.13" y1="1110.67" y2="1124.8" gradientUnits="userSpaceOnUse"><stop offset="0" stop-color="#5077e7"/><stop offset="1" stop-color="#a776dd"/></linearGradient><linearGradient id="hz7oh" x1="1178" x2="1178" y1="1112.33" y2="1122.91" gradientUnits="userSpaceOnUse"><stop offset="0" stop-color="#5077e7"/><stop offset="1" stop-color="#a776dd"/></linearGradient><linearGradient id="hz7oj" x1="1219.88" x2="1219.88" y1="1110.67" y2="1124.8" gradientUnits="userSpaceOnUse"><stop offset="0" stop-color="#5077e7"/><stop offset="1" stop-color="#a776dd"/></linearGradient><linearGradient id="hz7ol" x1="1216" x2="1216" y1="1112.33" y2="1122.91" gradientUnits="userSpaceOnUse"><stop offset="0" stop-color="#5077e7"/><stop offset="1" stop-color="#a776dd"/></linearGradient></defs><g><g transform="translate(-1172 -1094)"><g><use fill="url(#hz7ob)" xlink:href="#hz7oa"/></g><g><use fill="url(#hz7od)" xlink:href="#hz7oc"/></g><g><use fill="url(#hz7of)" xlink:href="#hz7oe"/></g><g><use fill="url(#hz7oh)" xlink:href="#hz7og"/></g><g><use fill="url(#hz7oj)" xlink:href="#hz7oi"/></g><g><use fill="url(#hz7ol)" xlink:href="#hz7ok"/></g></g></g></svg>