<svg xmlns="http://www.w3.org/2000/svg" xmlns:xlink="http://www.w3.org/1999/xlink" width="91" height="109" viewBox="0 0 91 109"><defs><path id="ogwha" d="M530.78 1194.88a2.26 2.26 0 0 0-3.2-.14l-.81.72a2.26 2.26 0 0 0 2.99 3.4l.88-.79c.92-.84.98-2.27.14-3.2z"/><path id="ogwhc" d="M532.3 1193.3a2.25 2.25 0 0 0 3.14-.57c3.73-5.35 4.29-10.64 5.03-20.3a2.26 2.26 0 1 0-4.51-.35c-.7 9.1-1.17 13.67-4.23 18.07a2.26 2.26 0 0 0 .56 3.15z"/><path id="ogwhe" d="M601.44 1168.35a2.26 2.26 0 0 0 4.43-.94l-.3-1.3a2.26 2.26 0 0 0-4.4 1.1l.27 1.14z"/><path id="ogwhg" d="M615.68 1195.42c-6.62-5.5-8.07-10.87-9-21.58a2.26 2.26 0 0 0-4.5.39c1 11.56 2.83 18.2 10.61 24.67a2.25 2.25 0 0 0 3.19-.29c.8-.96.66-2.39-.3-3.19z"/><path id="ogwhi" d="M535.14 1211.45c-.1-.74-.14-1.81-.01-3.02.21-2.02.8-3.05 1.13-3.24 7.58-4.38 11.91-14.87 13.23-32.07a21.99 21.99 0 0 1 21.76-20.28c11.33 0 20.88 8.9 21.76 20.28.63 8.28 1.96 15 4.02 20.23h-8.5a2.26 2.26 0 0 0 0 4.52h10.67a22.23 22.23 0 0 0 3.43 4.53h-22.56a2.26 2.26 0 0 0 0 4.52h27.04a13.36 13.36 0 0 1 .25 4.52zm36.11 11.52a9.28 9.28 0 0 1-8.98-7h17.96a9.28 9.28 0 0 1-8.98 7zm0-81.45a3.4 3.4 0 1 1 0 6.8 3.4 3.4 0 0 1 0-6.8zm39.43 62.13a5.67 5.67 0 0 0-2.18-2.38c-6.1-3.52-9.8-13.11-10.98-28.5a26.62 26.62 0 0 0-19.6-23.58 7.93 7.93 0 1 0-14.59-4.27c0 1.57.46 3.04 1.25 4.27a26.62 26.62 0 0 0-19.6 23.58c-1.18 15.39-4.88 24.98-10.98 28.5-1.77 1.02-2.92 3.19-3.32 6.27-.27 2-.35 6.2 1.23 7.77.42.43 1 .66 1.6.66h24.14a13.8 13.8 0 0 0 13.6 11.53c6.83 0 12.52-5 13.6-11.53h24.14c.6 0 1.18-.23 1.6-.66 1.58-1.58 1.5-5.78 1.23-7.78a11.6 11.6 0 0 0-1.14-3.88z"/><path id="ogwhk" d="M593.87 1241.07h-45.25a2.26 2.26 0 0 0 0 4.53h45.25a2.26 2.26 0 1 0 0-4.53z"/><path id="ogwhm" d="M571.93 1202.4h-1.36a2.26 2.26 0 1 0 0 4.52h1.36a2.26 2.26 0 0 0 0-4.52z"/><linearGradient id="ogwhb" x1="528.69" x2="528.69" y1="1194.15" y2="1199.43" gradientUnits="userSpaceOnUse"><stop offset="0" stop-color="#5077e7"/><stop offset="1" stop-color="#a776dd"/></linearGradient><linearGradient id="ogwhd" x1="535.9" x2="535.9" y1="1169.99" y2="1193.7" gradientUnits="userSpaceOnUse"><stop offset="0" stop-color="#5077e7"/><stop offset="1" stop-color="#a776dd"/></linearGradient><linearGradient id="ogwhf" x1="603.51" x2="603.51" y1="1164.4" y2="1170.15" gradientUnits="userSpaceOnUse"><stop offset="0" stop-color="#5077e7"/><stop offset="1" stop-color="#a776dd"/></linearGradient><linearGradient id="ogwhh" x1="609.34" x2="609.34" y1="1171.77" y2="1199.43" gradientUnits="userSpaceOnUse"><stop offset="0" stop-color="#5077e7"/><stop offset="1" stop-color="#a776dd"/></linearGradient><linearGradient id="ogwhj" x1="571.25" x2="571.25" y1="1137" y2="1227.5" gradientUnits="userSpaceOnUse"><stop offset="0" stop-color="#5077e7"/><stop offset="1" stop-color="#a776dd"/></linearGradient><linearGradient id="ogwhl" x1="571.25" x2="571.25" y1="1241.08" y2="1245.6" gradientUnits="userSpaceOnUse"><stop offset="0" stop-color="#5077e7"/><stop offset="1" stop-color="#a776dd"/></linearGradient><linearGradient id="ogwhn" x1="571.25" x2="571.25" y1="1202.4" y2="1206.93" gradientUnits="userSpaceOnUse"><stop offset="0" stop-color="#5077e7"/><stop offset="1" stop-color="#a776dd"/></linearGradient></defs><g><g transform="translate(-526 -1137)"><g><g><g><use fill="url(#ogwhb)" xlink:href="#ogwha"/></g><g><use fill="url(#ogwhd)" xlink:href="#ogwhc"/></g><g><use fill="url(#ogwhf)" xlink:href="#ogwhe"/></g><g><use fill="url(#ogwhh)" xlink:href="#ogwhg"/></g><g><use fill="url(#ogwhj)" xlink:href="#ogwhi"/></g><g><use fill="url(#ogwhl)" xlink:href="#ogwhk"/></g><g><use fill="url(#ogwhn)" xlink:href="#ogwhm"/></g></g></g></g></g></svg>