<svg xmlns="http://www.w3.org/2000/svg" width="54" height="54" viewBox="0 0 54 54"><g><g><path fill="#fff" d="M47.812 54H6.188A6.193 6.193 0 0 1 0 47.812V10.687A6.192 6.192 0 0 1 6.188 4.5h5.062V1.687a1.688 1.688 0 0 1 3.375 0V4.5h24.75V1.687a1.688 1.688 0 0 1 3.375 0V4.5h5.062A6.192 6.192 0 0 1 54 10.687v37.125A6.193 6.193 0 0 1 47.812 54zm2.813-43.313a2.816 2.816 0 0 0-2.813-2.812H42.75v2.937a1.688 1.688 0 0 1-3.375 0V7.875h-24.75v2.937a1.688 1.688 0 0 1-3.375 0V7.875H6.188a2.816 2.816 0 0 0-2.813 2.812V16h47.25zm0 8.688H3.375v28.437a2.816 2.816 0 0 0 2.813 2.813h41.624a2.816 2.816 0 0 0 2.813-2.813zM21.53 46.305v-3.33h4.65v-11.82l.03-1.44h-.06c-.18.34-.5.74-.96 1.2l-1.71 1.62-2.28-2.4 5.34-5.13h3.39v17.97h4.62v3.33z"/></g></g></svg>