<svg xmlns="http://www.w3.org/2000/svg" width="54" height="54" viewBox="0 0 54 54"><g><g><path fill="#fff" d="M47.812 54H6.188A6.193 6.193 0 0 1 0 47.812V10.687A6.192 6.192 0 0 1 6.188 4.5h5.062V1.687a1.688 1.688 0 0 1 3.375 0V4.5h24.75V1.687a1.688 1.688 0 0 1 3.375 0V4.5h5.062A6.192 6.192 0 0 1 54 10.687v37.125A6.193 6.193 0 0 1 47.812 54zm2.813-43.313a2.816 2.816 0 0 0-2.813-2.812H42.75v2.937a1.688 1.688 0 0 1-3.375 0V7.875h-24.75v2.937a1.688 1.688 0 0 1-3.375 0V7.875H6.188a2.816 2.816 0 0 0-2.813 2.812V16h47.25zm0 8.688H3.375v28.437a2.816 2.816 0 0 0 2.813 2.813h41.624a2.816 2.816 0 0 0 2.813-2.813zM20.15 43.815l1.98-2.97c.6.62 1.335 1.135 2.205 1.544.87.41 1.755.615 2.655.615 1.1 0 2.01-.3 2.73-.9.72-.6 1.08-1.36 1.08-2.28 0-1.08-.425-1.9-1.275-2.46-.85-.56-1.945-.84-3.285-.84h-1.47l-.84-1.98 3.9-4.62c.24-.3.485-.585.735-.855s.445-.465.585-.585l.21-.18v-.06c-.44.06-1.07.09-1.89.09h-6.36v-3.33H34.1v2.43l-5.19 6.03c1.6.22 2.965.876 4.095 1.965 1.13 1.09 1.695 2.505 1.695 4.245 0 1.92-.68 3.566-2.04 4.935-1.36 1.37-3.18 2.055-5.46 2.055-1.3 0-2.575-.245-3.825-.735a9.083 9.083 0 0 1-3.225-2.115z"/></g></g></svg>