<svg xmlns="http://www.w3.org/2000/svg" xmlns:xlink="http://www.w3.org/1999/xlink" width="50" height="48" viewBox="0 0 50 48"><defs><path id="koi0a" d="M1173.06 1155.97v-6.48h45.88v6.48zm4.83-19.54h36.22c.78 2.11 3.7 9.22 4.39 11.04h-45c.69-1.82 3.6-8.93 4.4-11.04zm.3-12.43c0-.18.15-.33.33-.33h3.06v5.37c0 .56.47 1.01 1.04 1.01h8.93c.57 0 1.03-.45 1.03-1.01v-5.37h20.9c.18 0 .33.15.33.33v10.4h-35.62zm7.8-4.81l2.58-1.06 1.95.8v9.1h-6.87v-9.47l1.55.63c.25.1.54.1.79 0zm20.42-.08v2.54h-2.58v-2.54zm-8.87-2.02a.16.16 0 0 1-.15-.16v-4.75c0-.09.07-.15.15-.15h15.15c.1 0 .16.06.16.15v4.75c0 .09-.07.16-.16.16zm23.46 31.4a1 1 0 0 0-.06-.35c-.86-2.38-4.24-10.61-5.07-12.88V1124c0-1.3-1.07-2.35-2.4-2.35h-5v-2.54h4.22a2.2 2.2 0 0 0 2.22-2.18v-4.75c0-1.2-1-2.18-2.22-2.18h-15.15a2.2 2.2 0 0 0-2.21 2.18v4.75c0 1.2 1 2.18 2.21 2.18h4.23v2.54h-9.19v-3.4c0-.4-.25-.78-.63-.93l-2.98-1.22c-.26-.1-.54-.1-.8 0l-2.58 1.06-2.58-1.06c-.32-.13-.68-.1-.97.1a1 1 0 0 0-.46.84v4.6h-3.06a2.37 2.37 0 0 0-2.4 2.36v11.26c-.82 2.27-4.2 10.5-5.06 12.88a1 1 0 0 0-.06.34v8.5c0 .57.46 1.02 1.03 1.02h47.94c.57 0 1.03-.45 1.03-1.01v-8.5z"/><path id="koi0c" d="M1214.93 1144.06l-.23-.57a1.04 1.04 0 0 0-1.34-.57 1 1 0 0 0-.57 1.32l.22.56a1.03 1.03 0 0 0 1.34.57 1 1 0 0 0 .58-1.31z"/><path id="koi0e" d="M1213.15 1139.66l-.23-.57a1.04 1.04 0 0 0-1.34-.56 1 1 0 0 0-.57 1.31l.22.57a1.03 1.03 0 0 0 1.34.56 1 1 0 0 0 .58-1.31z"/><path id="koi0g" d="M1210.3 1143.58a1.03 1.03 0 0 0-1.29-.68c-.54.16-.85.72-.69 1.26l.17.56a1.03 1.03 0 0 0 1.28.68c.55-.16.86-.72.7-1.26z"/><path id="koi0i" d="M1209.13 1139.74l-.17-.56a1.03 1.03 0 0 0-1.28-.68c-.55.16-.86.72-.7 1.26l.18.56a1.03 1.03 0 0 0 1.28.68c.54-.16.85-.72.7-1.26z"/><path id="koi0k" d="M1205.88 1143.67c-.1-.55-.65-.9-1.2-.8-.57.11-.93.64-.82 1.2l.12.56a1.03 1.03 0 0 0 1.2.8c.57-.12.93-.65.82-1.2z"/><path id="koi0m" d="M1204.3 1141.03c.56-.11.92-.65.8-1.2l-.1-.56c-.12-.55-.66-.9-1.22-.8-.56.11-.92.65-.81 1.2l.11.56a1.03 1.03 0 0 0 1.22.8z"/><path id="koi0o" d="M1201.46 1143.77a1.03 1.03 0 0 0-1.13-.91c-.56.05-.98.55-.92 1.1l.06.57a1.02 1.02 0 0 0 1.13.9c.56-.05.98-.54.92-1.1z"/><path id="koi0q" d="M1200.15 1141.04c.57-.05.98-.55.92-1.1l-.05-.57a1.03 1.03 0 0 0-1.13-.9c-.57.05-.98.54-.93 1.1l.06.56a1.02 1.02 0 0 0 1.13.91z"/><path id="koi0s" d="M1196 1142.85c-.57 0-1.03.46-1.03 1.02v.56c0 .56.46 1.01 1.03 1.01.57 0 1.03-.45 1.03-1.01v-.56c0-.56-.46-1.02-1.03-1.02z"/><path id="koi0u" d="M1196 1138.46c-.57 0-1.03.45-1.03 1v.57c0 .56.46 1.02 1.03 1.02.57 0 1.03-.46 1.03-1.02v-.56c0-.56-.46-1.01-1.03-1.01z"/><path id="koi0w" d="M1191.67 1142.86a1.03 1.03 0 0 0-1.13.9l-.06.57a1.02 1.02 0 0 0 1.03 1.11c.52 0 .97-.39 1.02-.91l.06-.56a1.02 1.02 0 0 0-.92-1.11z"/><path id="koi0y" d="M1192.11 1138.46a1.03 1.03 0 0 0-1.13.9l-.05.57a1.02 1.02 0 0 0 1.02 1.12c.53 0 .97-.4 1.03-.92l.06-.56a1.02 1.02 0 0 0-.93-1.11z"/><path id="koi0A" d="M1187.33 1142.87c-.56-.1-1.1.25-1.21.8l-.12.56a1.01 1.01 0 0 0 1.01 1.21c.49 0 .92-.33 1.01-.81l.12-.57a1.01 1.01 0 0 0-.81-1.19z"/><path id="koi0C" d="M1188.22 1138.47c-.56-.1-1.1.25-1.21.8l-.12.57a1.01 1.01 0 0 0 1.01 1.2c.49 0 .92-.33 1.01-.81l.12-.56a1.01 1.01 0 0 0-.81-1.2z"/><path id="koi0E" d="M1182.99 1142.9a1.03 1.03 0 0 0-1.29.68l-.17.56a1.01 1.01 0 0 0 1 1.3c.43 0 .84-.28.98-.72l.17-.56c.16-.54-.15-1.1-.7-1.26z"/><path id="koi0G" d="M1184.32 1138.5a1.03 1.03 0 0 0-1.28.68l-.17.56a1.01 1.01 0 0 0 .99 1.3c.44 0 .85-.28.98-.72l.18-.56c.16-.54-.15-1.1-.7-1.26z"/><path id="koi0I" d="M1178.64 1142.92c-.53-.2-1.13.05-1.34.57l-.23.57a1 1 0 0 0 .58 1.31 1.04 1.04 0 0 0 1.34-.57l.22-.56a1 1 0 0 0-.57-1.32z"/><path id="koi0K" d="M1180.42 1138.53c-.53-.2-1.13.04-1.34.56l-.23.57a1 1 0 0 0 .58 1.31 1.05 1.05 0 0 0 1.34-.56l.22-.57a1 1 0 0 0-.57-1.31z"/><path id="koi0M" d="M1209.69 1130.35h-9.14v-2.63h9.14zm1.03-4.65h-11.2c-.57 0-1.03.45-1.03 1v4.67c0 .56.46 1.01 1.03 1.01h11.2c.57 0 1.03-.45 1.03-1.01v-4.66c0-.56-.46-1.01-1.03-1.01z"/><path id="koi0O" d="M1186.1 1124.05h1.96c.57 0 1.03-.45 1.03-1.01s-.46-1.01-1.03-1.01h-1.96c-.57 0-1.03.45-1.03 1 0 .57.46 1.02 1.03 1.02z"/><linearGradient id="koi0b" x1="1196" x2="1196" y1="1110" y2="1158" gradientUnits="userSpaceOnUse"><stop offset="0" stop-color="#5077e7"/><stop offset="1" stop-color="#a776dd"/></linearGradient><linearGradient id="koi0d" x1="1213.86" x2="1213.86" y1="1142.85" y2="1145.44" gradientUnits="userSpaceOnUse"><stop offset="0" stop-color="#5077e7"/><stop offset="1" stop-color="#a776dd"/></linearGradient><linearGradient id="koi0f" x1="1212.08" x2="1212.08" y1="1138.46" y2="1141.05" gradientUnits="userSpaceOnUse"><stop offset="0" stop-color="#5077e7"/><stop offset="1" stop-color="#a776dd"/></linearGradient><linearGradient id="koi0h" x1="1209.4" x2="1209.4" y1="1142.85" y2="1145.44" gradientUnits="userSpaceOnUse"><stop offset="0" stop-color="#5077e7"/><stop offset="1" stop-color="#a776dd"/></linearGradient><linearGradient id="koi0j" x1="1208.06" x2="1208.06" y1="1138.46" y2="1141.05" gradientUnits="userSpaceOnUse"><stop offset="0" stop-color="#5077e7"/><stop offset="1" stop-color="#a776dd"/></linearGradient><linearGradient id="koi0l" x1="1204.93" x2="1204.93" y1="1142.85" y2="1145.44" gradientUnits="userSpaceOnUse"><stop offset="0" stop-color="#5077e7"/><stop offset="1" stop-color="#a776dd"/></linearGradient><linearGradient id="koi0n" x1="1204.04" x2="1204.04" y1="1138.46" y2="1141.05" gradientUnits="userSpaceOnUse"><stop offset="0" stop-color="#5077e7"/><stop offset="1" stop-color="#a776dd"/></linearGradient><linearGradient id="koi0p" x1="1200.46" x2="1200.46" y1="1142.85" y2="1145.44" gradientUnits="userSpaceOnUse"><stop offset="0" stop-color="#5077e7"/><stop offset="1" stop-color="#a776dd"/></linearGradient><linearGradient id="koi0r" x1="1200.02" x2="1200.02" y1="1138.46" y2="1141.05" gradientUnits="userSpaceOnUse"><stop offset="0" stop-color="#5077e7"/><stop offset="1" stop-color="#a776dd"/></linearGradient><linearGradient id="koi0t" x1="1196" x2="1196" y1="1142.85" y2="1145.44" gradientUnits="userSpaceOnUse"><stop offset="0" stop-color="#5077e7"/><stop offset="1" stop-color="#a776dd"/></linearGradient><linearGradient id="koi0v" x1="1196" x2="1196" y1="1138.46" y2="1141.05" gradientUnits="userSpaceOnUse"><stop offset="0" stop-color="#5077e7"/><stop offset="1" stop-color="#a776dd"/></linearGradient><linearGradient id="koi0x" x1="1191.54" x2="1191.54" y1="1142.85" y2="1145.44" gradientUnits="userSpaceOnUse"><stop offset="0" stop-color="#5077e7"/><stop offset="1" stop-color="#a776dd"/></linearGradient><linearGradient id="koi0z" x1="1191.98" x2="1191.98" y1="1138.46" y2="1141.05" gradientUnits="userSpaceOnUse"><stop offset="0" stop-color="#5077e7"/><stop offset="1" stop-color="#a776dd"/></linearGradient><linearGradient id="koi0B" x1="1187.07" x2="1187.07" y1="1142.85" y2="1145.44" gradientUnits="userSpaceOnUse"><stop offset="0" stop-color="#5077e7"/><stop offset="1" stop-color="#a776dd"/></linearGradient><linearGradient id="koi0D" x1="1187.96" x2="1187.96" y1="1138.46" y2="1141.05" gradientUnits="userSpaceOnUse"><stop offset="0" stop-color="#5077e7"/><stop offset="1" stop-color="#a776dd"/></linearGradient><linearGradient id="koi0F" x1="1182.61" x2="1182.61" y1="1142.85" y2="1145.44" gradientUnits="userSpaceOnUse"><stop offset="0" stop-color="#5077e7"/><stop offset="1" stop-color="#a776dd"/></linearGradient><linearGradient id="koi0H" x1="1183.94" x2="1183.94" y1="1138.46" y2="1141.05" gradientUnits="userSpaceOnUse"><stop offset="0" stop-color="#5077e7"/><stop offset="1" stop-color="#a776dd"/></linearGradient><linearGradient id="koi0J" x1="1178.15" x2="1178.15" y1="1142.85" y2="1145.44" gradientUnits="userSpaceOnUse"><stop offset="0" stop-color="#5077e7"/><stop offset="1" stop-color="#a776dd"/></linearGradient><linearGradient id="koi0L" x1="1179.93" x2="1179.93" y1="1138.46" y2="1141.05" gradientUnits="userSpaceOnUse"><stop offset="0" stop-color="#5077e7"/><stop offset="1" stop-color="#a776dd"/></linearGradient><linearGradient id="koi0N" x1="1205.12" x2="1205.12" y1="1125.7" y2="1132.38" gradientUnits="userSpaceOnUse"><stop offset="0" stop-color="#5077e7"/><stop offset="1" stop-color="#a776dd"/></linearGradient><linearGradient id="koi0P" x1="1187.08" x2="1187.08" y1="1122.03" y2="1124.05" gradientUnits="userSpaceOnUse"><stop offset="0" stop-color="#5077e7"/><stop offset="1" stop-color="#a776dd"/></linearGradient></defs><g><g transform="translate(-1171 -1110)"><g><g><g><use fill="url(#koi0b)" xlink:href="#koi0a"/></g><g><use fill="url(#koi0d)" xlink:href="#koi0c"/></g><g><use fill="url(#koi0f)" xlink:href="#koi0e"/></g><g><use fill="url(#koi0h)" xlink:href="#koi0g"/></g><g><use fill="url(#koi0j)" xlink:href="#koi0i"/></g><g><use fill="url(#koi0l)" xlink:href="#koi0k"/></g><g><use fill="url(#koi0n)" xlink:href="#koi0m"/></g><g><use fill="url(#koi0p)" xlink:href="#koi0o"/></g><g><use fill="url(#koi0r)" xlink:href="#koi0q"/></g><g><use fill="url(#koi0t)" xlink:href="#koi0s"/></g><g><use fill="url(#koi0v)" xlink:href="#koi0u"/></g><g><use fill="url(#koi0x)" xlink:href="#koi0w"/></g><g><use fill="url(#koi0z)" xlink:href="#koi0y"/></g><g><use fill="url(#koi0B)" xlink:href="#koi0A"/></g><g><use fill="url(#koi0D)" xlink:href="#koi0C"/></g><g><use fill="url(#koi0F)" xlink:href="#koi0E"/></g><g><use fill="url(#koi0H)" xlink:href="#koi0G"/></g><g><use fill="url(#koi0J)" xlink:href="#koi0I"/></g><g><use fill="url(#koi0L)" xlink:href="#koi0K"/></g><g><use fill="url(#koi0N)" xlink:href="#koi0M"/></g><g><use fill="url(#koi0P)" xlink:href="#koi0O"/></g></g></g></g></g></svg>