<svg xmlns="http://www.w3.org/2000/svg" xmlns:xlink="http://www.w3.org/1999/xlink" width="54" height="54" viewBox="0 0 54 54"><defs><path id="p06fa" d="M1449.3 871.83l-3.11-1.33 3.11-1.34zm1.4-4.78a.9.9 0 0 0-.85-.08l-6.3 2.7a.9.9 0 0 0 0 1.66l6.3 2.7a.9.9 0 0 0 1.25-.83v-5.4a.9.9 0 0 0-.4-.75z"/><path id="p06fc" d="M1459.2 862.4h-3.5a4.5 4.5 0 0 1 4.4-3.6h3.5a4.5 4.5 0 0 1-4.4 3.6zm5.4-5.4h-4.5a6.3 6.3 0 0 0-6.3 6.3c0 .5.4.9.9.9h4.5a6.3 6.3 0 0 0 6.3-6.3c0-.5-.4-.9-.9-.9z"/><path id="p06fe" d="M1456.5 870.5a.9.9 0 1 1 0-1.8.9.9 0 0 1 0 1.8zm0-3.6a2.7 2.7 0 1 0 0 5.4 2.7 2.7 0 0 0 0-5.4z"/><path id="p06fg" d="M1466.4 910.1v-7.2h1.8v7.2z"/><path id="p06fi" d="M1462.8 911v-1.8h14.4v1.8z"/><path id="p06fk" d="M1471.8 910.1v-7.2h1.8v7.2z"/><path id="p06fm" d="M1467.3 907.4v-1.8h2.7v1.8z"/><path id="p06fo" d="M1472.7 907.4v-1.8h2.7v1.8z"/><path id="p06fq" d="M1449.3 879.05c0 1.24-1 2.25-2.25 2.25v.9l-.02-.9a2.24 2.24 0 0 1-2.23-2.28v-.4c.01-.8.45-1.54 1.13-1.94l3.37-1.93zm1.35-6.63a.9.9 0 0 0-.9 0l-4.72 2.7a4.1 4.1 0 0 0-2.03 3.48v.42a4.02 4.02 0 0 0 4.02 4.08h.03a4.05 4.05 0 0 0 4.05-4.05v-5.85a.9.9 0 0 0-.45-.78z"/><path id="p06fs" d="M1495.14 871.4a6.31 6.31 0 0 1-6.24 5.4v1.8h6.24a6.31 6.31 0 0 1-6.24 5.4h-.9v.9c0 7.7-8.51 17.1-18.45 17.1a18.48 18.48 0 0 1-18.45-18.45v-13.63a5.7 5.7 0 0 1 1.94-4.3 5.68 5.68 0 0 1 4.12-1.42 5.97 5.97 0 0 1 4.93 3.48l7.91 16.61 5.56-11.67a14.84 14.84 0 0 1 13.34-8.42h6.24a6.31 6.31 0 0 1-6.24 5.4v1.8h6.24zm1.86-8.1v-.9h-8.1a16.65 16.65 0 0 0-14.97 9.45l-3.93 8.26-6.28-13.19a7.77 7.77 0 0 0-6.43-4.52 7.46 7.46 0 0 0-5.44 1.87 7.48 7.48 0 0 0-2.55 5.65v13.63a20.29 20.29 0 0 0 20.25 20.25c10.85 0 19.65-9.67 20.22-18.05a8.11 8.11 0 0 0 7.23-8.05v-.9h-3.01a8.09 8.09 0 0 0 3.01-6.3v-.9h-3.01a8.09 8.09 0 0 0 3.01-6.3z"/><path id="p06fu" d="M1472.7 884v1.8h10.58a6.46 6.46 0 0 1-6.13 4.5l-.01 1.8h2.54a6.46 6.46 0 0 1-6.13 4.5H1470c-6.45 0-11.7-5.25-11.7-11.7v-.9h-1.8v.9c0 7.44 6.06 13.5 13.5 13.5h3.54a8.26 8.26 0 0 0 8.15-7.07l.1-.68a8.24 8.24 0 0 0 3.5-5.62l.15-1.03h-12.74z"/><linearGradient id="p06fb" x1="1447.05" x2="1447.05" y1="866.9" y2="874.1" gradientUnits="userSpaceOnUse"><stop offset="0" stop-color="#5077e7"/><stop offset="1" stop-color="#a776dd"/></linearGradient><linearGradient id="p06fd" x1="1459.65" x2="1459.65" y1="857" y2="864.2" gradientUnits="userSpaceOnUse"><stop offset="0" stop-color="#5077e7"/><stop offset="1" stop-color="#a776dd"/></linearGradient><linearGradient id="p06ff" x1="1456.5" x2="1456.5" y1="866.9" y2="872.3" gradientUnits="userSpaceOnUse"><stop offset="0" stop-color="#5077e7"/><stop offset="1" stop-color="#a776dd"/></linearGradient><linearGradient id="p06fh" x1="1467.3" x2="1467.3" y1="902.9" y2="910.1" gradientUnits="userSpaceOnUse"><stop offset="0" stop-color="#5077e7"/><stop offset="1" stop-color="#a776dd"/></linearGradient><linearGradient id="p06fj" x1="1470" x2="1470" y1="909.2" y2="911" gradientUnits="userSpaceOnUse"><stop offset="0" stop-color="#5077e7"/><stop offset="1" stop-color="#a776dd"/></linearGradient><linearGradient id="p06fl" x1="1472.7" x2="1472.7" y1="902.9" y2="910.1" gradientUnits="userSpaceOnUse"><stop offset="0" stop-color="#5077e7"/><stop offset="1" stop-color="#a776dd"/></linearGradient><linearGradient id="p06fn" x1="1468.65" x2="1468.65" y1="905.6" y2="907.4" gradientUnits="userSpaceOnUse"><stop offset="0" stop-color="#5077e7"/><stop offset="1" stop-color="#a776dd"/></linearGradient><linearGradient id="p06fp" x1="1474.05" x2="1474.05" y1="905.6" y2="907.4" gradientUnits="userSpaceOnUse"><stop offset="0" stop-color="#5077e7"/><stop offset="1" stop-color="#a776dd"/></linearGradient><linearGradient id="p06fr" x1="1447.05" x2="1447.05" y1="872.3" y2="883.1" gradientUnits="userSpaceOnUse"><stop offset="0" stop-color="#5077e7"/><stop offset="1" stop-color="#a776dd"/></linearGradient><linearGradient id="p06ft" x1="1473.15" x2="1473.15" y1="862.39" y2="903.8" gradientUnits="userSpaceOnUse"><stop offset="0" stop-color="#5077e7"/><stop offset="1" stop-color="#a776dd"/></linearGradient><linearGradient id="p06fv" x1="1470.97" x2="1470.97" y1="884" y2="898.4" gradientUnits="userSpaceOnUse"><stop offset="0" stop-color="#5077e7"/><stop offset="1" stop-color="#a776dd"/></linearGradient></defs><g><g transform="translate(-1443 -857)"><g><g><g><use fill="url(#p06fb)" xlink:href="#p06fa"/></g></g></g><g><g><g><use fill="url(#p06fd)" xlink:href="#p06fc"/></g></g></g><g><g><g><use fill="url(#p06ff)" xlink:href="#p06fe"/></g></g></g><g><g><g><use fill="url(#p06fh)" xlink:href="#p06fg"/></g></g></g><g><g><g><use fill="url(#p06fj)" xlink:href="#p06fi"/></g></g></g><g><g><g><use fill="url(#p06fl)" xlink:href="#p06fk"/></g></g></g><g><g><g><use fill="url(#p06fn)" xlink:href="#p06fm"/></g></g></g><g><g><g><use fill="url(#p06fp)" xlink:href="#p06fo"/></g></g></g><g><g><g><use fill="url(#p06fr)" xlink:href="#p06fq"/></g></g></g><g><g><g><use fill="url(#p06ft)" xlink:href="#p06fs"/></g></g></g><g><g><g><use fill="url(#p06fv)" xlink:href="#p06fu"/></g></g></g></g></g></svg>