<svg xmlns="http://www.w3.org/2000/svg" xmlns:xlink="http://www.w3.org/1999/xlink" width="46" height="60" viewBox="0 0 46 60"><defs><path id="gxuca" d="M414.19 1494.48h-38.67v-52.96h28.12v10.54h10.55zm-7.03-50.48l4.54 4.55h-4.54zm-1.03-6H372v60h45.7v-48.42z"/><path id="gxucc" d="M408.1 1458.27a8.78 8.78 0 0 0-12.43 0l-9.5 9.5-5.47 5.46a5.27 5.27 0 1 0 7.46 7.46l14.97-14.96-2.49-2.49-14.97 14.97a1.76 1.76 0 0 1-2.48-2.49l14.96-14.96a5.27 5.27 0 1 1 7.46 7.45l-15.82 15.82 2.49 2.49 15.82-15.82a8.8 8.8 0 0 0 0-12.43z"/><linearGradient id="gxucb" x1="394.85" x2="394.85" y1="1438" y2="1498" gradientUnits="userSpaceOnUse"><stop offset="0" stop-color="#5077e7"/><stop offset="1" stop-color="#a776dd"/></linearGradient><linearGradient id="gxucd" x1="394.92" x2="394.92" y1="1455.69" y2="1486.52" gradientUnits="userSpaceOnUse"><stop offset="0" stop-color="#5077e7"/><stop offset="1" stop-color="#a776dd"/></linearGradient></defs><g><g transform="translate(-372 -1438)"><g><g><g><use fill="url(#gxucb)" xlink:href="#gxuca"/></g></g></g><g><g><g><use fill="url(#gxucd)" xlink:href="#gxucc"/></g></g></g></g></g></svg>