<svg xmlns="http://www.w3.org/2000/svg" xmlns:xlink="http://www.w3.org/1999/xlink" width="44" height="50" viewBox="0 0 44 50"><defs><path id="1q60a" d="M702.93 1143.22a.97.97 0 0 0-1.34-.28 19.05 19.05 0 0 1-10.46 3.1 19.25 19.25 0 0 1-19.19-19.26c0-3.85 1.14-7.58 3.28-10.76a.98.98 0 0 0-.27-1.36.97.97 0 0 0-1.35.27c-2.35 3.5-3.6 7.6-3.6 11.85 0 5.67 2.2 11 6.19 15 3.99 4.01 9.3 6.22 14.94 6.22 4.1 0 8.1-1.18 11.52-3.43.45-.3.58-.9.28-1.35z"/><path id="1q60c" d="M706.2 1140.26a.97.97 0 0 0-1.38.01l-.03.04a.98.98 0 0 0 .7 1.66c.24 0 .5-.1.68-.29l.04-.04c.38-.38.37-1-.01-1.38z"/><path id="1q60e" d="M706.38 1107.47l-.46-.47.93-.93a1 1 0 0 1 1.44 0l3.47 3.48c.4.4.4 1.05 0 1.45l-.93.93-.46-.46zm.94 5.68a21.62 21.62 0 0 0-2.61-2.63l.98-.98 2.61 2.62zm-21.15-10.85v-2.35h9.92v2.35zm6.8 3.35zm-1.84-.08c-.62 0-1.24.02-1.85.08v-1.4h3.7v1.4c-.61-.06-1.23-.08-1.85-.08zm19 8.43a.97.97 0 0 0 1.38 0l1.62-1.62a2.99 2.99 0 0 0 0-4.2l-3.47-3.5a2.94 2.94 0 0 0-4.19 0l-1.62 1.63a.98.98 0 0 0 0 1.38l.46.47-1.16 1.17a20.84 20.84 0 0 0-8.23-3.43v-1.65h2.14c.54 0 .98-.44.98-.98v-4.3a.97.97 0 0 0-.98-.97H685.2a.97.97 0 0 0-.98.98v4.3c0 .53.44.97.98.97h2.14v1.66c-2.79.5-5.44 1.57-7.83 3.15-.45.3-.57.9-.27 1.35.3.45.9.58 1.34.28a19.05 19.05 0 0 1 10.55-3.17 19.25 19.25 0 0 1 19.18 19.26c0 3.6-1 7.12-2.88 10.16a.98.98 0 0 0 .83 1.5c.32 0 .64-.17.83-.47a21.23 21.23 0 0 0 3.17-11.19c0-4.37-1.31-8.55-3.75-12.07l1.17-1.17z"/><path id="1q60g" d="M691.13 1112.94a.97.97 0 0 0-.97.98v2.15a.97.97 0 1 0 1.94 0v-2.15a.97.97 0 0 0-.97-.98z"/><path id="1q60i" d="M700.88 1117a.98.98 0 0 0-.7-.3.98.98 0 0 0 0 1.96.98.98 0 0 0 .7-1.67z"/><path id="1q60k" d="M703.94 1125.8h-2.14a.97.97 0 0 0 0 1.96h2.14a.97.97 0 0 0 0-1.95z"/><path id="1q60m" d="M700.88 1135.19a.98.98 0 0 0-.7-.29.98.98 0 0 0 0 1.96.97.97 0 0 0 .7-1.67z"/><path id="1q60o" d="M691.13 1136.52a.97.97 0 0 0-.97.98v2.15a.97.97 0 1 0 1.94 0v-2.15a.97.97 0 0 0-.97-.98z"/><path id="1q60q" d="M682.76 1135.19a.98.98 0 1 0-.69 1.67.97.97 0 0 0 .69-1.67z"/><path id="1q60s" d="M680.46 1125.8h-2.14a.97.97 0 0 0 0 1.96h2.14a.97.97 0 0 0 0-1.95z"/><path id="1q60u" d="M682.76 1117a.98.98 0 1 0-.69 1.67.98.98 0 0 0 .69-1.68z"/><path id="1q60w" d="M693.85 1124.9a3.34 3.34 0 0 0-.85-.85l2.15-1.3zm-1.52 2.52l-.08.13a1.36 1.36 0 0 1-2.48-.77c0-.47.23-.88.6-1.12l.12-.09a1.37 1.37 0 0 1 1.84 1.85zm6.4-8.26a.97.97 0 0 0-1.2-.15l-8.03 4.88-.29.19a3.32 3.32 0 0 0 1.92 6.02 3.3 3.3 0 0 0 2.88-1.69l4.86-8.06a.98.98 0 0 0-.15-1.2z"/><path id="1q60y" d="M691.13 1141.75c-8.22 0-14.9-6.72-14.9-14.97s6.68-14.96 14.9-14.96 14.9 6.71 14.9 14.96-6.68 14.97-14.9 14.97zm0-31.88a16.9 16.9 0 0 0-16.85 16.91 16.9 16.9 0 0 0 16.85 16.92 16.9 16.9 0 0 0 16.85-16.92 16.9 16.9 0 0 0-16.85-16.91z"/><path id="1q60A" d="M677.62 1111.72a.98.98 0 0 0-.68-.29.98.98 0 0 0 0 1.96.98.98 0 0 0 .68-1.67z"/><linearGradient id="1q60b" x1="686.55" x2="686.55" y1="1114.5" y2="1148" gradientUnits="userSpaceOnUse"><stop offset="0" stop-color="#5077e7"/><stop offset="1" stop-color="#a776dd"/></linearGradient><linearGradient id="1q60d" x1="705.5" x2="705.5" y1="1139.98" y2="1141.97" gradientUnits="userSpaceOnUse"><stop offset="0" stop-color="#5077e7"/><stop offset="1" stop-color="#a776dd"/></linearGradient><linearGradient id="1q60f" x1="696.54" x2="696.54" y1="1098" y2="1138.43" gradientUnits="userSpaceOnUse"><stop offset="0" stop-color="#5077e7"/><stop offset="1" stop-color="#a776dd"/></linearGradient><linearGradient id="1q60h" x1="691.14" x2="691.14" y1="1112.94" y2="1117.04" gradientUnits="userSpaceOnUse"><stop offset="0" stop-color="#5077e7"/><stop offset="1" stop-color="#a776dd"/></linearGradient><linearGradient id="1q60j" x1="700.2" x2="700.2" y1="1116.71" y2="1118.66" gradientUnits="userSpaceOnUse"><stop offset="0" stop-color="#5077e7"/><stop offset="1" stop-color="#a776dd"/></linearGradient><linearGradient id="1q60l" x1="702.87" x2="702.87" y1="1125.81" y2="1127.76" gradientUnits="userSpaceOnUse"><stop offset="0" stop-color="#5077e7"/><stop offset="1" stop-color="#a776dd"/></linearGradient><linearGradient id="1q60n" x1="700.2" x2="700.2" y1="1134.9" y2="1136.85" gradientUnits="userSpaceOnUse"><stop offset="0" stop-color="#5077e7"/><stop offset="1" stop-color="#a776dd"/></linearGradient><linearGradient id="1q60p" x1="691.14" x2="691.14" y1="1136.52" y2="1140.62" gradientUnits="userSpaceOnUse"><stop offset="0" stop-color="#5077e7"/><stop offset="1" stop-color="#a776dd"/></linearGradient><linearGradient id="1q60r" x1="682.08" x2="682.08" y1="1134.9" y2="1136.85" gradientUnits="userSpaceOnUse"><stop offset="0" stop-color="#5077e7"/><stop offset="1" stop-color="#a776dd"/></linearGradient><linearGradient id="1q60t" x1="679.39" x2="679.39" y1="1125.81" y2="1127.76" gradientUnits="userSpaceOnUse"><stop offset="0" stop-color="#5077e7"/><stop offset="1" stop-color="#a776dd"/></linearGradient><linearGradient id="1q60v" x1="682.08" x2="682.08" y1="1116.71" y2="1118.66" gradientUnits="userSpaceOnUse"><stop offset="0" stop-color="#5077e7"/><stop offset="1" stop-color="#a776dd"/></linearGradient><linearGradient id="1q60x" x1="693.41" x2="693.41" y1="1118.87" y2="1130.1" gradientUnits="userSpaceOnUse"><stop offset="0" stop-color="#5077e7"/><stop offset="1" stop-color="#a776dd"/></linearGradient><linearGradient id="1q60z" x1="691.13" x2="691.13" y1="1109.87" y2="1143.7" gradientUnits="userSpaceOnUse"><stop offset="0" stop-color="#5077e7"/><stop offset="1" stop-color="#a776dd"/></linearGradient><linearGradient id="1q60B" x1="676.94" x2="676.94" y1="1111.43" y2="1113.38" gradientUnits="userSpaceOnUse"><stop offset="0" stop-color="#5077e7"/><stop offset="1" stop-color="#a776dd"/></linearGradient></defs><g><g transform="translate(-670 -1098)"><g><g><g><use fill="url(#1q60b)" xlink:href="#1q60a"/></g></g></g><g><g><g><use fill="url(#1q60d)" xlink:href="#1q60c"/></g></g></g><g><g><g><use fill="url(#1q60f)" xlink:href="#1q60e"/></g></g></g><g><g><g><use fill="url(#1q60h)" xlink:href="#1q60g"/></g></g></g><g><g><g><use fill="url(#1q60j)" xlink:href="#1q60i"/></g></g></g><g><g><g><use fill="url(#1q60l)" xlink:href="#1q60k"/></g></g></g><g><g><g><use fill="url(#1q60n)" xlink:href="#1q60m"/></g></g></g><g><g><g><use fill="url(#1q60p)" xlink:href="#1q60o"/></g></g></g><g><g><g><use fill="url(#1q60r)" xlink:href="#1q60q"/></g></g></g><g><g><g><use fill="url(#1q60t)" xlink:href="#1q60s"/></g></g></g><g><g><g><use fill="url(#1q60v)" xlink:href="#1q60u"/></g></g></g><g><g><g><use fill="url(#1q60x)" xlink:href="#1q60w"/></g></g></g><g><g><g><use fill="url(#1q60z)" xlink:href="#1q60y"/></g></g></g><g><g><g><use fill="url(#1q60B)" xlink:href="#1q60A"/></g></g></g></g></g></svg>