<svg xmlns="http://www.w3.org/2000/svg" xmlns:xlink="http://www.w3.org/1999/xlink" width="70" height="70" viewBox="0 0 70 70"><defs><path id="y4xra" d="M1029.77 1064.67a13.14 13.14 0 0 0-10.22-11.67 13.13 13.13 0 0 0-26.15-.32h-.08a13.15 13.15 0 0 0-13.08 11.98 13.13 13.13 0 0 0 2.86 25.93v-2.92a10.21 10.21 0 0 1-1.27-20.32c.74-.14 1.28-.8 1.27-1.55 0-5.64 4.58-10.2 10.22-10.2h1.46c.8 0 1.46-.66 1.46-1.47a10.21 10.21 0 0 1 20.44-.06v.16c0 .74.54 1.35 1.27 1.45a10.2 10.2 0 0 1 8.94 10.06v.16c0 .73.55 1.35 1.28 1.45a10.21 10.21 0 0 1-1.28 20.32v2.92a13.13 13.13 0 0 0 2.88-25.92z"/><path id="y4xrc" d="M999.16 1054.13h2.92a4.38 4.38 0 0 1 4.38-4.37v-2.92a7.3 7.3 0 0 0-7.3 7.3z"/><path id="y4xre" d="M1010.84 1080.34c0 4.85-2.62 8.79-5.84 8.79-3.22 0-5.84-3.94-5.84-8.8v-2.66a6 6 0 0 1 11.68 0v2.67zm2.87-3.23a8.94 8.94 0 0 0-17.47.35v2.88c0 6.56 3.85 11.7 8.76 11.7 4.9 0 8.76-5.14 8.76-11.7v-2.88c0-.12-.02-.23-.05-.35z"/><path id="y4xrg" d="M1012.3 1092.04h-.36a2.75 2.75 0 0 1-2.56-2.91h-2.92v.33a5.67 5.67 0 0 0 5.84 5.5 4.38 4.38 0 0 1 4.38 4.38V1111h2.92v-11.66a7.3 7.3 0 0 0-7.3-7.3z"/><path id="y4xri" d="M1003.54 1089.13h-2.92a2.76 2.76 0 0 1-2.92 2.91 7.3 7.3 0 0 0-7.3 7.3V1111h2.92v-11.66a4.38 4.38 0 0 1 4.71-4.38c3.14-.1 5.6-2.7 5.5-5.83z"/><path id="y4xrk" d="M996.24 1111v-10.2h2.92v10.2z"/><path id="y4xrm" d="M1010.84 1111v-10.2h2.92v10.2z"/><path id="y4xro" d="M991.86 1086.21v-10.2h-2.92v10.2a1.34 1.34 0 0 1-1.46 1.46h-1.46v2.92h1.71a4.25 4.25 0 0 0 4.13-4.38z"/><path id="y4xrq" d="M1022.53 1087.67h-.27a1.34 1.34 0 0 1-1.2-1.46v-10.2h-2.92v10.45a4.25 4.25 0 0 0 4.37 4.13h1.46v-2.92z"/><path id="y4xrs" d="M990.4 1074.55a1.46 1.46 0 1 1 0-2.92 1.46 1.46 0 0 1 0 2.92zm0-5.83a4.38 4.38 0 1 0 0 8.75 4.38 4.38 0 0 0 0-8.75z"/><path id="y4xru" d="M1019.6 1074.55a1.46 1.46 0 1 1 0-2.92 1.46 1.46 0 0 1 0 2.92zm0-5.83a4.38 4.38 0 1 0 0 8.75 4.38 4.38 0 0 0 0-8.75z"/><path id="y4xrw" d="M1003.54 1067.26v-4.38h2.92v4.38z"/><path id="y4xry" d="M1005 1061.42a1.46 1.46 0 1 1 0-2.91 1.46 1.46 0 0 1 0 2.91zm0-5.83a4.38 4.38 0 1 0 0 8.76 4.38 4.38 0 0 0 0-8.76z"/><linearGradient id="y4xrb" x1="1005" x2="1005" y1="1041" y2="1090.59" gradientUnits="userSpaceOnUse"><stop offset="0" stop-color="#5077e7"/><stop offset="1" stop-color="#a776dd"/></linearGradient><linearGradient id="y4xrd" x1="1002.81" x2="1002.81" y1="1046.84" y2="1054.13" gradientUnits="userSpaceOnUse"><stop offset="0" stop-color="#5077e7"/><stop offset="1" stop-color="#a776dd"/></linearGradient><linearGradient id="y4xrf" x1="1005" x2="1005" y1="1070.17" y2="1092.04" gradientUnits="userSpaceOnUse"><stop offset="0" stop-color="#5077e7"/><stop offset="1" stop-color="#a776dd"/></linearGradient><linearGradient id="y4xrh" x1="1013.03" x2="1013.03" y1="1089.13" y2="1111" gradientUnits="userSpaceOnUse"><stop offset="0" stop-color="#5077e7"/><stop offset="1" stop-color="#a776dd"/></linearGradient><linearGradient id="y4xrj" x1="996.97" x2="996.97" y1="1089.13" y2="1111" gradientUnits="userSpaceOnUse"><stop offset="0" stop-color="#5077e7"/><stop offset="1" stop-color="#a776dd"/></linearGradient><linearGradient id="y4xrl" x1="997.7" x2="997.7" y1="1100.79" y2="1111" gradientUnits="userSpaceOnUse"><stop offset="0" stop-color="#5077e7"/><stop offset="1" stop-color="#a776dd"/></linearGradient><linearGradient id="y4xrn" x1="1012.3" x2="1012.3" y1="1100.79" y2="1111" gradientUnits="userSpaceOnUse"><stop offset="0" stop-color="#5077e7"/><stop offset="1" stop-color="#a776dd"/></linearGradient><linearGradient id="y4xrp" x1="988.94" x2="988.94" y1="1076.01" y2="1090.59" gradientUnits="userSpaceOnUse"><stop offset="0" stop-color="#5077e7"/><stop offset="1" stop-color="#a776dd"/></linearGradient><linearGradient id="y4xrr" x1="1021.05" x2="1021.05" y1="1076.01" y2="1090.59" gradientUnits="userSpaceOnUse"><stop offset="0" stop-color="#5077e7"/><stop offset="1" stop-color="#a776dd"/></linearGradient><linearGradient id="y4xrt" x1="990.4" x2="990.4" y1="1068.72" y2="1077.47" gradientUnits="userSpaceOnUse"><stop offset="0" stop-color="#5077e7"/><stop offset="1" stop-color="#a776dd"/></linearGradient><linearGradient id="y4xrv" x1="1019.6" x2="1019.6" y1="1068.72" y2="1077.47" gradientUnits="userSpaceOnUse"><stop offset="0" stop-color="#5077e7"/><stop offset="1" stop-color="#a776dd"/></linearGradient><linearGradient id="y4xrx" x1="1005" x2="1005" y1="1062.88" y2="1067.25" gradientUnits="userSpaceOnUse"><stop offset="0" stop-color="#5077e7"/><stop offset="1" stop-color="#a776dd"/></linearGradient><linearGradient id="y4xrz" x1="1005" x2="1005" y1="1055.59" y2="1064.34" gradientUnits="userSpaceOnUse"><stop offset="0" stop-color="#5077e7"/><stop offset="1" stop-color="#a776dd"/></linearGradient></defs><g><g transform="translate(-970 -1041)"><g><g><g><use fill="url(#y4xrb)" xlink:href="#y4xra"/></g></g></g><g><g><g><use fill="url(#y4xrd)" xlink:href="#y4xrc"/></g></g></g><g><g><g><use fill="url(#y4xrf)" xlink:href="#y4xre"/></g></g></g><g><g><g><use fill="url(#y4xrh)" xlink:href="#y4xrg"/></g></g></g><g><g><g><use fill="url(#y4xrj)" xlink:href="#y4xri"/></g></g></g><g><g><g><use fill="url(#y4xrl)" xlink:href="#y4xrk"/></g></g></g><g><g><g><use fill="url(#y4xrn)" xlink:href="#y4xrm"/></g></g></g><g><g><g><use fill="url(#y4xrp)" xlink:href="#y4xro"/></g></g></g><g><g><g><use fill="url(#y4xrr)" xlink:href="#y4xrq"/></g></g></g><g><g><g><use fill="url(#y4xrt)" xlink:href="#y4xrs"/></g></g></g><g><g><g><use fill="url(#y4xrv)" xlink:href="#y4xru"/></g></g></g><g><g><g><use fill="url(#y4xrx)" xlink:href="#y4xrw"/></g></g></g><g><g><g><use fill="url(#y4xrz)" xlink:href="#y4xry"/></g></g></g></g></g></svg>