<svg xmlns="http://www.w3.org/2000/svg" xmlns:xlink="http://www.w3.org/1999/xlink" width="55" height="55" viewBox="0 0 55 55"><defs><path id="ja7fa" d="M797.44 1327.85h-24.3v-2.15h4.47a1.07 1.07 0 1 0 0-2.15h-4.42a7.84 7.84 0 0 1 6.8-6.97l4.54 4.55a1.07 1.07 0 0 0 1.52 0l4.56-4.55a7.84 7.84 0 0 1 6.83 7.76zm-9.8-11.34l-2.35 2.34-2.33-2.34zm-7.09-8.57h7.2a4.4 4.4 0 0 0 2.29-.64v2.32a4.75 4.75 0 0 1-9.49 0zm0-3.58c0-1.85 1.5-3.35 3.36-3.35h6.13v2.5a2.29 2.29 0 0 1-2.29 2.28h-7.2zm9.97 10.04a1.07 1.07 0 0 0-.24-.04 6.86 6.86 0 0 0 1.9-4.74v-5.65-.15-3.89c0-.6-.48-1.07-1.07-1.07h-7.2a5.5 5.5 0 0 0-5.5 5.5v5.26c0 1.84.72 3.5 1.9 4.74-.09 0-.16.02-.24.04a9.99 9.99 0 0 0-9.07 9.94v4.59c0 .59.48 1.07 1.07 1.07h26.44c.6 0 1.08-.48 1.08-1.07v-4.6c0-5.19-4-9.47-9.07-9.93z"/><path id="ja7fc" d="M816.45 1279.65a2.29 2.29 0 0 1-2.29 2.28h-7.2v-1.43c0-1.85 1.5-3.35 3.36-3.35h6.13zm0 6.11a4.75 4.75 0 0 1-9.49 0v-1.68h7.2a4.4 4.4 0 0 0 2.29-.63zm-4.74 9.23l-2.34-2.34h4.67zm5.22-4.44a1.08 1.08 0 0 0-.23-.04 6.86 6.86 0 0 0 1.9-4.75v-5.65c0-.05 0-.1-.02-.15l.02-.31v-3.58c0-.59-.48-1.07-1.08-1.07h-7.2a5.5 5.5 0 0 0-5.5 5.5v5.26c0 1.84.72 3.51 1.9 4.75a9.99 9.99 0 0 0-9.3 9.97v4.59c0 .6.47 1.07 1.07 1.07h8.64a1.07 1.07 0 1 0 0-2.15h-7.57v-3.51a7.84 7.84 0 0 1 6.83-7.76l4.56 4.55a1.07 1.07 0 0 0 1.52 0l4.55-4.55a7.84 7.84 0 0 1 6.83 7.76v3.51h-7.91a1.07 1.07 0 1 0 0 2.15h8.99c.59 0 1.07-.48 1.07-1.07v-4.6c0-5.19-4-9.46-9.07-9.92z"/><path id="ja7fe" d="M812.47 1304.3a1.08 1.08 0 0 0-1.52 0 1.08 1.08 0 0 0 .76 1.84 1.08 1.08 0 0 0 .76-1.83z"/><path id="ja7fg" d="M794.05 1289.72c-.5 0-.94.34-1.05.83a3.2 3.2 0 0 1-3.14 2.5h-13.49a3.23 3.23 0 0 1-3.22-3.23v-9.45a3.23 3.23 0 0 1 3.22-3.22h13.5a3.23 3.23 0 0 1 3.21 3.22v5.61c0 .29.12.56.32.76l2.97 2.98zm5.68.31l-4.5-4.5v-5.16c0-2.96-2.4-5.37-5.37-5.37h-13.49a5.38 5.38 0 0 0-5.37 5.37v9.45c0 2.97 2.4 5.38 5.37 5.38h13.5a5.34 5.34 0 0 0 4.96-3.33h4.14a1.07 1.07 0 0 0 .76-1.84z"/><path id="ja7fi" d="M823.85 1324.63a3.23 3.23 0 0 1-3.22 3.22h-13.5a3.23 3.23 0 0 1-3.21-3.22v-5.61c0-.29-.12-.56-.32-.76l-2.97-2.98h2.32c.5 0 .94-.34 1.05-.83a3.2 3.2 0 0 1 3.14-2.5h13.49a3.23 3.23 0 0 1 3.22 3.23zm-3.22-14.83h-13.5a5.34 5.34 0 0 0-4.96 3.33h-4.14a1.07 1.07 0 0 0-.76 1.84l4.5 4.5v5.16c0 2.96 2.4 5.37 5.37 5.37h13.49c2.96 0 5.37-2.4 5.37-5.37v-9.45c0-2.97-2.41-5.38-5.37-5.38z"/><path id="ja7fk" d="M818.71 1317.04a1.07 1.07 0 0 0-1.52 0l-2.85 2.86-1.33-1.33a1.07 1.07 0 0 0-1.52 1.52l2.09 2.09a1.07 1.07 0 0 0 1.52 0l3.61-3.62c.42-.42.42-1.1 0-1.52z"/><path id="ja7fm" d="M788 1282.12a3.73 3.73 0 0 0-7.44.26 1.07 1.07 0 0 0 2.15 0 1.56 1.56 0 0 1 1.69-1.57 1.58 1.58 0 0 1 .23 3.1 1.8 1.8 0 0 0-1.42 1.78v.57a1.07 1.07 0 1 0 2.15 0v-.31a3.7 3.7 0 0 0 2.64-3.83z"/><path id="ja7fo" d="M785.04 1289.61a1.08 1.08 0 0 0-1.51 0 1.08 1.08 0 0 0 .75 1.84 1.08 1.08 0 0 0 1.08-1.08c0-.28-.12-.56-.32-.76z"/><path id="ja7fq" d="M782.66 1323.87a1.08 1.08 0 0 0-1.52 0 1.08 1.08 0 0 0 0 1.52 1.08 1.08 0 0 0 1.52 0 1.08 1.08 0 0 0 0-1.52z"/><linearGradient id="ja7fb" x1="785.3" x2="785.3" y1="1298.86" y2="1330" gradientUnits="userSpaceOnUse"><stop offset="0" stop-color="#5077e7"/><stop offset="1" stop-color="#a776dd"/></linearGradient><linearGradient id="ja7fd" x1="811.71" x2="811.71" y1="1275" y2="1306.14" gradientUnits="userSpaceOnUse"><stop offset="0" stop-color="#5077e7"/><stop offset="1" stop-color="#a776dd"/></linearGradient><linearGradient id="ja7ff" x1="811.71" x2="811.71" y1="1303.99" y2="1306.14" gradientUnits="userSpaceOnUse"><stop offset="0" stop-color="#5077e7"/><stop offset="1" stop-color="#a776dd"/></linearGradient><linearGradient id="ja7fh" x1="785.52" x2="785.52" y1="1275" y2="1295.2" gradientUnits="userSpaceOnUse"><stop offset="0" stop-color="#5077e7"/><stop offset="1" stop-color="#a776dd"/></linearGradient><linearGradient id="ja7fj" x1="811.48" x2="811.48" y1="1309.8" y2="1330" gradientUnits="userSpaceOnUse"><stop offset="0" stop-color="#5077e7"/><stop offset="1" stop-color="#a776dd"/></linearGradient><linearGradient id="ja7fl" x1="815.11" x2="815.11" y1="1316.73" y2="1322.49" gradientUnits="userSpaceOnUse"><stop offset="0" stop-color="#5077e7"/><stop offset="1" stop-color="#a776dd"/></linearGradient><linearGradient id="ja7fn" x1="784.29" x2="784.29" y1="1278.66" y2="1287.34" gradientUnits="userSpaceOnUse"><stop offset="0" stop-color="#5077e7"/><stop offset="1" stop-color="#a776dd"/></linearGradient><linearGradient id="ja7fp" x1="784.29" x2="784.29" y1="1289.3" y2="1291.45" gradientUnits="userSpaceOnUse"><stop offset="0" stop-color="#5077e7"/><stop offset="1" stop-color="#a776dd"/></linearGradient><linearGradient id="ja7fr" x1="781.91" x2="781.91" y1="1323.55" y2="1325.7" gradientUnits="userSpaceOnUse"><stop offset="0" stop-color="#5077e7"/><stop offset="1" stop-color="#a776dd"/></linearGradient></defs><g><g transform="translate(-771 -1275)"><g><g><g><use fill="url(#ja7fb)" xlink:href="#ja7fa"/></g></g></g><g><g><g><use fill="url(#ja7fd)" xlink:href="#ja7fc"/></g></g></g><g><g><g><use fill="url(#ja7ff)" xlink:href="#ja7fe"/></g></g></g><g><g><g><use fill="url(#ja7fh)" xlink:href="#ja7fg"/></g></g></g><g><g><g><use fill="url(#ja7fj)" xlink:href="#ja7fi"/></g></g></g><g><g><g><use fill="url(#ja7fl)" xlink:href="#ja7fk"/></g></g></g><g><g><g><use fill="url(#ja7fn)" xlink:href="#ja7fm"/></g></g></g><g><g><g><use fill="url(#ja7fp)" xlink:href="#ja7fo"/></g></g></g><g><g><g><use fill="url(#ja7fr)" xlink:href="#ja7fq"/></g></g></g></g></g></svg>