<svg xmlns="http://www.w3.org/2000/svg" xmlns:xlink="http://www.w3.org/1999/xlink" width="70" height="70" viewBox="0 0 70 70"><defs><path id="9b1qa" d="M432.5 1108.27h-9.06v-43.54c0-.52.44-.95.99-.95h7.08c.55 0 1 .43 1 .95zm-22.88 0h-9.07v-23.82c0-.52.45-.94 1-.94h7.08c.54 0 .99.42.99.94zm-22.88 0h-9.07v-12.34c0-.52.45-.94 1-.94h7.07c.55 0 1 .42 1 .94zm51.82 0h-3.17v-43.54a3.79 3.79 0 0 0-3.88-3.68h-7.08a3.79 3.79 0 0 0-3.88 3.68v43.54h-8.04v-23.82a3.79 3.79 0 0 0-3.88-3.67h-7.08a3.79 3.79 0 0 0-3.88 3.67v23.82h-8.05v-12.34a3.79 3.79 0 0 0-3.88-3.67h-7.08a3.79 3.79 0 0 0-3.88 3.67v12.34h-3.34c-.8 0-1.44.6-1.44 1.36 0 .76.65 1.37 1.44 1.37h67.12c.8 0 1.44-.61 1.44-1.37a1.4 1.4 0 0 0-1.44-1.36z"/><path id="9b1qc" d="M435.39 1042.44c.02-.38-.12-.75-.42-1.04-.3-.28-.7-.42-1.1-.4h-8.8c-.8 0-1.45.61-1.45 1.37 0 .75.65 1.36 1.45 1.36h5.39l-14.27 13.52-5.39-5.1c-.27-.25-.64-.4-1.02-.4s-.75.15-1.02.4l-25.96 24.58c-.56.54-.56 1.4 0 1.93.29.27.66.4 1.03.4.36 0 .73-.13 1.02-.4l24.93-23.6 5.38 5.09a1.5 1.5 0 0 0 2.05 0l15.3-14.48v4.62c0 .76.64 1.37 1.44 1.37.8 0 1.44-.61 1.44-1.37v-7.79-.06z"/><path id="9b1qe" d="M377.51 1082.47c0-.76.65-1.37 1.45-1.37.8 0 1.44.61 1.44 1.37a1.4 1.4 0 0 1-1.44 1.37 1.4 1.4 0 0 1-1.45-1.37z"/><linearGradient id="9b1qb" x1="405" x2="405" y1="1061.05" y2="1111" gradientUnits="userSpaceOnUse"><stop offset="0" stop-color="#5077e7"/><stop offset="1" stop-color="#a776dd"/></linearGradient><linearGradient id="9b1qd" x1="408.89" x2="408.89" y1="1041" y2="1079.06" gradientUnits="userSpaceOnUse"><stop offset="0" stop-color="#5077e7"/><stop offset="1" stop-color="#a776dd"/></linearGradient><linearGradient id="9b1qf" x1="378.96" x2="378.96" y1="1081.1" y2="1083.83" gradientUnits="userSpaceOnUse"><stop offset="0" stop-color="#5077e7"/><stop offset="1" stop-color="#a776dd"/></linearGradient></defs><g><g transform="translate(-370 -1041)"><g><g><g><use fill="url(#9b1qb)" xlink:href="#9b1qa"/></g></g></g><g><g><g><use fill="url(#9b1qd)" xlink:href="#9b1qc"/></g></g></g><g><g><g><use fill="url(#9b1qf)" xlink:href="#9b1qe"/></g></g></g></g></g></svg>