<?xml version="1.0" standalone="no"?>
<!DOCTYPE svg PUBLIC "-//W3C//DTD SVG 1.1//EN" "http://www.w3.org/Graphics/SVG/1.1/DTD/svg11.dtd">
<!--Generator: Xara Designer (www.xara.com), SVG filter version: 6.5.0.22-->
<svg fill="none" fill-rule="evenodd" stroke="black" stroke-width="0.501" stroke-linejoin="bevel" stroke-miterlimit="10" font-family="Times New Roman" font-size="16" style="font-variant-ligatures:none" xmlns:xlink="http://www.w3.org/1999/xlink" xmlns="http://www.w3.org/2000/svg" version="1.1" overflow="visible" width="28.596pt" height="34.498pt" viewBox="1081.01 -2219.24 28.596 34.498">
 <defs>
	</defs>
 <g id="Layer 1" transform="scale(1 -1)">
  <g id="Group" fill-rule="nonzero" stroke-linejoin="miter" stroke="none" stroke-width="0.071" fill="#2f7fe6">
   <path d="M 1097.6,2202.65 L 1095.88,2202.65 L 1095.88,2209.52 C 1095.88,2209.83 1095.63,2210.09 1095.31,2210.09 C 1095.16,2210.09 1095.01,2210.03 1094.91,2209.92 L 1092.62,2207.63 C 1092.4,2207.41 1092.41,2207.04 1092.63,2206.82 C 1092.86,2206.61 1093.21,2206.61 1093.43,2206.82 L 1094.74,2208.14 L 1094.74,2202.65 L 1093.02,2202.65 C 1092.71,2202.65 1092.45,2202.4 1092.45,2202.08 C 1092.45,2201.77 1092.71,2201.51 1093.02,2201.51 L 1097.6,2201.51 C 1097.91,2201.51 1098.17,2201.77 1098.17,2202.08 C 1098.17,2202.4 1097.91,2202.65 1097.6,2202.65 Z" marker-start="none" marker-end="none"/>
   <path d="M 1092.79,2213.73 C 1087.93,2212.33 1085.12,2207.26 1086.52,2202.41 C 1086.59,2202.16 1086.81,2201.99 1087.07,2201.99 C 1087.12,2201.99 1087.17,2202 1087.22,2202.01 C 1087.53,2202.1 1087.7,2202.42 1087.62,2202.72 C 1087.2,2204.16 1087.2,2205.68 1087.61,2207.12 C 1088.82,2211.38 1093.25,2213.84 1097.5,2212.64 C 1101.75,2211.43 1104.22,2207 1103.01,2202.74 C 1102.93,2202.44 1103.1,2202.13 1103.41,2202.04 C 1103.71,2201.95 1104.03,2202.13 1104.11,2202.43 C 1104.58,2204.08 1104.58,2205.82 1104.11,2207.46 C 1102.71,2212.32 1097.64,2215.12 1092.79,2213.73 Z" marker-start="none" marker-end="none"/>
   <path d="M 1100.97,2200.09 C 1100.75,2200.31 1100.39,2200.31 1100.16,2200.09 C 1099.94,2199.87 1099.94,2199.5 1100.16,2199.28 L 1100.97,2198.47 C 1101.08,2198.36 1101.23,2198.3 1101.38,2198.3 L 1101.38,2198.3 C 1101.53,2198.3 1101.67,2198.36 1101.78,2198.47 C 1102,2198.69 1102,2199.06 1101.78,2199.28 L 1100.97,2200.09 Z" marker-start="none" marker-end="none"/>
   <path d="M 1103.03,2201.15 L 1102.04,2201.72 C 1101.76,2201.87 1101.42,2201.78 1101.26,2201.51 C 1101.1,2201.24 1101.19,2200.89 1101.46,2200.73 L 1102.45,2200.16 C 1102.54,2200.11 1102.64,2200.08 1102.74,2200.08 C 1102.94,2200.08 1103.13,2200.19 1103.24,2200.37 C 1103.39,2200.64 1103.3,2200.99 1103.03,2201.15 Z" marker-start="none" marker-end="none"/>
   <path d="M 1090.46,2200.09 C 1090.24,2200.31 1089.87,2200.31 1089.65,2200.09 L 1088.84,2199.28 C 1088.73,2199.17 1088.67,2199.03 1088.67,2198.88 C 1088.67,2198.56 1088.93,2198.3 1089.25,2198.3 C 1089.4,2198.3 1089.54,2198.36 1089.65,2198.47 L 1090.46,2199.28 C 1090.68,2199.5 1090.68,2199.87 1090.46,2200.09 Z" marker-start="none" marker-end="none"/>
   <path d="M 1089.17,2200.73 C 1089.44,2200.89 1089.53,2201.24 1089.37,2201.51 C 1089.21,2201.79 1088.86,2201.88 1088.59,2201.72 L 1087.6,2201.15 C 1087.42,2201.05 1087.31,2200.86 1087.31,2200.65 C 1087.31,2200.34 1087.57,2200.08 1087.88,2200.08 L 1087.88,2200.08 C 1087.98,2200.08 1088.08,2200.11 1088.17,2200.16 L 1089.16,2200.73 C 1089.16,2200.73 1089.16,2200.73 1089.17,2200.73 Z" marker-start="none" marker-end="none"/>
   <path d="M 1109.46,2205.32 L 1109.46,2205.32 L 1106.98,2208.07 L 1107.76,2211.69 C 1107.82,2211.97 1107.65,2212.26 1107.38,2212.35 L 1103.85,2213.48 L 1102.72,2217.01 C 1102.63,2217.28 1102.34,2217.45 1102.06,2217.39 L 1098.44,2216.61 L 1095.69,2219.09 C 1095.48,2219.29 1095.15,2219.29 1094.93,2219.09 L 1092.18,2216.61 L 1088.57,2217.39 C 1088.28,2217.45 1087.99,2217.28 1087.9,2217.01 L 1086.77,2213.48 L 1083.25,2212.35 C 1082.97,2212.26 1082.8,2211.97 1082.86,2211.69 L 1083.64,2208.07 L 1081.16,2205.32 C 1080.96,2205.11 1080.96,2204.78 1081.16,2204.56 L 1083.64,2201.81 L 1082.86,2198.2 C 1082.8,2197.91 1082.97,2197.62 1083.25,2197.53 L 1085.91,2196.67 C 1085.85,2196.63 1085.79,2196.57 1085.75,2196.5 L 1081.44,2189.03 C 1081.28,2188.76 1081.37,2188.41 1081.65,2188.25 C 1081.78,2188.17 1081.94,2188.15 1082.08,2188.19 L 1086.21,2189.3 L 1087.32,2185.17 C 1087.38,2184.94 1087.57,2184.78 1087.8,2184.75 C 1087.83,2184.74 1087.85,2184.74 1087.88,2184.74 C 1088.08,2184.74 1088.27,2184.85 1088.37,2185.03 L 1092.67,2192.47 C 1092.72,2192.56 1092.74,2192.67 1092.73,2192.77 L 1094.93,2190.79 C 1095.15,2190.6 1095.48,2190.6 1095.69,2190.79 L 1097.89,2192.77 C 1097.88,2192.67 1097.91,2192.56 1097.95,2192.47 L 1102.25,2185.03 C 1102.35,2184.85 1102.54,2184.74 1102.75,2184.74 C 1102.77,2184.74 1102.8,2184.74 1102.82,2184.75 C 1103.05,2184.78 1103.24,2184.94 1103.3,2185.17 L 1104.41,2189.3 L 1108.54,2188.19 C 1108.84,2188.11 1109.16,2188.29 1109.24,2188.6 C 1109.28,2188.74 1109.26,2188.9 1109.18,2189.03 L 1104.87,2196.5 C 1104.83,2196.57 1104.78,2196.63 1104.71,2196.68 L 1107.38,2197.53 C 1107.65,2197.62 1107.82,2197.91 1107.76,2198.2 L 1106.98,2201.81 L 1109.46,2204.56 C 1109.66,2204.78 1109.66,2205.11 1109.46,2205.32 Z M 1091.68,2193.04 L 1088.07,2186.8 L 1087.17,2190.15 C 1087.09,2190.46 1086.78,2190.64 1086.47,2190.56 C 1086.47,2190.56 1086.47,2190.55 1086.47,2190.55 L 1083.12,2189.66 L 1086.74,2195.93 C 1086.8,2196.04 1086.82,2196.16 1086.8,2196.29 L 1087.9,2192.88 C 1087.99,2192.6 1088.28,2192.43 1088.57,2192.49 L 1091.81,2193.19 C 1091.76,2193.15 1091.71,2193.1 1091.68,2193.04 Z M 1107.5,2189.65 L 1104.15,2190.55 C 1103.85,2190.64 1103.53,2190.46 1103.45,2190.15 C 1103.45,2190.15 1103.45,2190.15 1103.45,2190.15 L 1102.55,2186.8 L 1098.95,2193.04 C 1098.91,2193.1 1098.87,2193.15 1098.82,2193.19 L 1102.06,2192.49 C 1102.34,2192.43 1102.63,2192.6 1102.72,2192.88 L 1103.82,2196.29 C 1103.8,2196.16 1103.82,2196.04 1103.88,2195.93 L 1107.5,2189.65 Z M 1105.94,2202.36 C 1105.82,2202.22 1105.77,2202.04 1105.8,2201.86 L 1106.53,2198.46 L 1103.22,2197.4 C 1103.05,2197.34 1102.91,2197.2 1102.85,2197.03 L 1101.79,2193.72 L 1098.39,2194.45 C 1098.21,2194.49 1098.03,2194.44 1097.89,2194.32 L 1095.31,2191.99 L 1092.73,2194.32 C 1092.63,2194.41 1092.49,2194.46 1092.35,2194.46 C 1092.31,2194.46 1092.27,2194.46 1092.23,2194.45 L 1088.83,2193.72 L 1087.77,2197.03 C 1087.71,2197.2 1087.57,2197.34 1087.4,2197.4 L 1084.09,2198.46 L 1084.82,2201.86 C 1084.86,2202.04 1084.81,2202.22 1084.68,2202.36 L 1082.36,2204.94 L 1084.68,2207.52 C 1084.81,2207.66 1084.86,2207.84 1084.82,2208.02 L 1084.09,2211.42 L 1087.4,2212.49 C 1087.57,2212.54 1087.71,2212.68 1087.77,2212.85 L 1088.83,2216.16 L 1092.23,2215.43 C 1092.41,2215.39 1092.6,2215.44 1092.73,2215.57 L 1095.31,2217.9 L 1097.89,2215.57 C 1098.03,2215.44 1098.21,2215.39 1098.39,2215.43 L 1101.79,2216.16 L 1102.85,2212.85 C 1102.91,2212.68 1103.05,2212.54 1103.22,2212.48 L 1106.53,2211.42 L 1105.8,2208.02 C 1105.77,2207.84 1105.82,2207.66 1105.94,2207.52 L 1108.27,2204.94 L 1105.94,2202.36 Z" marker-start="none" marker-end="none"/>
   <path d="M 1098.08,2196.8 L 1097.79,2197.91 C 1097.7,2198.21 1097.39,2198.39 1097.09,2198.31 C 1096.78,2198.22 1096.6,2197.91 1096.68,2197.61 L 1096.98,2196.51 C 1097.05,2196.26 1097.27,2196.08 1097.53,2196.08 C 1097.58,2196.08 1097.63,2196.09 1097.68,2196.1 C 1097.98,2196.18 1098.17,2196.5 1098.08,2196.8 C 1098.08,2196.8 1098.08,2196.8 1098.08,2196.8 Z" marker-start="none" marker-end="none"/>
   <path d="M 1099.52,2198.79 C 1099.37,2199.06 1099.02,2199.16 1098.74,2199 C 1098.47,2198.85 1098.37,2198.5 1098.53,2198.22 C 1098.53,2198.22 1098.53,2198.22 1098.53,2198.22 L 1099.11,2197.23 C 1099.27,2196.95 1099.62,2196.86 1099.89,2197.02 C 1100.16,2197.18 1100.25,2197.53 1100.1,2197.8 L 1099.52,2198.79 Z" marker-start="none" marker-end="none"/>
   <path d="M 1093.54,2198.31 C 1093.23,2198.39 1092.92,2198.21 1092.84,2197.91 C 1092.84,2197.91 1092.84,2197.91 1092.84,2197.91 L 1092.54,2196.8 C 1092.46,2196.5 1092.64,2196.18 1092.95,2196.1 C 1092.95,2196.1 1092.95,2196.1 1092.95,2196.1 C 1092.99,2196.09 1093.04,2196.08 1093.09,2196.08 C 1093.35,2196.08 1093.58,2196.26 1093.65,2196.51 L 1093.94,2197.61 C 1094.02,2197.92 1093.84,2198.23 1093.54,2198.31 Z" marker-start="none" marker-end="none"/>
   <path d="M 1091.88,2199 C 1091.61,2199.16 1091.26,2199.06 1091.1,2198.79 L 1090.53,2197.8 C 1090.37,2197.53 1090.46,2197.18 1090.73,2197.01 C 1091,2196.86 1091.35,2196.95 1091.51,2197.22 C 1091.51,2197.22 1091.52,2197.22 1091.52,2197.23 L 1092.09,2198.22 C 1092.25,2198.49 1092.15,2198.84 1091.88,2199 Z" marker-start="none" marker-end="none"/>
   <path d="M 1095.31,2198.08 C 1095,2198.08 1094.74,2197.82 1094.74,2197.51 L 1094.74,2196.36 C 1094.74,2196.05 1095,2195.79 1095.31,2195.79 C 1095.63,2195.79 1095.88,2196.05 1095.88,2196.36 L 1095.88,2197.51 C 1095.88,2197.82 1095.63,2198.08 1095.31,2198.08 Z" marker-start="none" marker-end="none"/>
  </g>
 </g>
</svg>
