<?xml version="1.0" standalone="no"?>
<!DOCTYPE svg PUBLIC "-//W3C//DTD SVG 1.1//EN" "http://www.w3.org/Graphics/SVG/1.1/DTD/svg11.dtd">
<!--Generator: Xara Designer (www.xara.com), SVG filter version: 6.5.0.22-->
<svg fill="none" fill-rule="evenodd" stroke="black" stroke-width="0.501" stroke-linejoin="bevel" stroke-miterlimit="10" font-family="Times New Roman" font-size="16" style="font-variant-ligatures:none" xmlns:xlink="http://www.w3.org/1999/xlink" xmlns="http://www.w3.org/2000/svg" version="1.1" overflow="visible" width="34.5pt" height="34.5pt" viewBox="928.061 -2191.49 34.5 34.5">
 <defs>
	</defs>
 <g id="Layer 1" transform="scale(1 -1)">
  <g id="Group" fill-rule="nonzero" stroke-linejoin="miter" stroke="none" stroke-width="0.556" fill="#2f7fe6">
   <path d="M 959.571,2163.8 C 960.372,2164.41 960.892,2165.37 960.892,2166.45 C 960.892,2168.1 959.686,2169.47 958.11,2169.74 L 958.11,2170.35 C 958.11,2171.88 956.861,2173.13 955.327,2173.13 L 945.867,2173.13 L 945.867,2175.16 C 946.168,2174.93 946.529,2174.8 946.913,2174.8 C 947.85,2174.8 948.611,2175.54 948.644,2176.47 C 949.552,2176.5 950.281,2177.23 950.313,2178.14 C 951.221,2178.17 951.95,2178.9 951.982,2179.81 C 952.911,2179.84 953.658,2180.61 953.658,2181.54 C 953.658,2182.01 953.477,2182.44 953.149,2182.77 L 953.034,2182.89 C 953.798,2183.82 954.214,2184.99 954.214,2186.21 C 954.214,2189.12 951.847,2191.49 948.936,2191.49 C 947.575,2191.49 946.295,2190.97 945.311,2190.04 C 944.327,2190.97 943.047,2191.49 941.686,2191.49 C 938.775,2191.49 936.408,2189.12 936.408,2186.21 C 936.408,2184.85 936.928,2183.56 937.868,2182.57 C 937.646,2182.28 937.521,2181.92 937.521,2181.54 C 937.521,2180.6 938.267,2179.84 939.196,2179.81 C 939.228,2178.9 939.957,2178.17 940.865,2178.14 C 940.898,2177.23 941.627,2176.5 942.535,2176.47 C 942.568,2175.54 943.329,2174.8 944.265,2174.8 C 944.435,2174.8 944.597,2174.83 944.755,2174.87 L 944.755,2173.13 L 935.295,2173.13 C 933.761,2173.13 932.512,2171.88 932.512,2170.35 L 932.512,2169.74 C 930.936,2169.47 929.73,2168.1 929.73,2166.45 C 929.73,2165.37 930.25,2164.41 931.051,2163.8 C 929.293,2163.02 928.061,2161.26 928.061,2159.22 L 928.061,2156.99 L 938.077,2156.99 L 938.077,2159.22 C 938.077,2161.26 936.845,2163.02 935.087,2163.8 C 935.887,2164.41 936.408,2165.37 936.408,2166.45 C 936.408,2168.1 935.202,2169.47 933.625,2169.74 L 933.625,2170.35 C 933.625,2171.26 934.374,2172.01 935.295,2172.01 L 944.755,2172.01 L 944.755,2169.74 C 943.178,2169.47 941.972,2168.1 941.972,2166.45 C 941.972,2165.37 942.493,2164.41 943.293,2163.8 C 941.535,2163.02 940.303,2161.26 940.303,2159.22 L 940.303,2156.99 L 950.319,2156.99 L 950.319,2159.22 C 950.319,2161.26 949.087,2163.02 947.329,2163.8 C 948.129,2164.41 948.65,2165.37 948.65,2166.45 C 948.65,2168.1 947.444,2169.47 945.867,2169.74 L 945.867,2172.01 L 955.327,2172.01 C 956.248,2172.01 956.997,2171.26 956.997,2170.35 L 956.997,2169.74 C 955.42,2169.47 954.214,2168.1 954.214,2166.45 C 954.214,2165.37 954.735,2164.41 955.535,2163.8 C 953.777,2163.02 952.545,2161.26 952.545,2159.22 L 952.545,2156.99 L 962.561,2156.99 L 962.561,2159.22 C 962.561,2161.26 961.329,2163.02 959.571,2163.8 Z M 948.936,2190.38 C 951.233,2190.38 953.101,2188.51 953.101,2186.21 C 953.101,2185.28 952.796,2184.4 952.239,2183.68 L 949.68,2186.24 C 949.846,2186.36 950.007,2186.5 950.157,2186.65 L 949.37,2187.43 C 948.756,2186.82 947.942,2186.48 947.075,2186.48 L 946.193,2186.48 L 945.244,2185.53 C 945.138,2185.43 944.998,2185.37 944.85,2185.37 L 942.759,2185.37 C 942.632,2185.37 942.529,2185.47 942.529,2185.6 C 942.529,2185.66 942.553,2185.72 942.596,2185.76 L 945.991,2189.16 C 946.778,2189.94 947.823,2190.38 948.936,2190.38 Z M 941.686,2190.38 C 942.747,2190.38 943.746,2189.98 944.519,2189.26 L 941.809,2186.55 C 941.555,2186.3 941.416,2185.96 941.416,2185.6 C 941.416,2184.86 942.018,2184.26 942.759,2184.26 L 944.85,2184.26 C 945.295,2184.26 945.715,2184.43 946.03,2184.74 L 946.654,2185.37 L 947.076,2185.37 C 947.631,2185.37 948.17,2185.47 948.672,2185.67 L 952.362,2181.98 C 952.48,2181.87 952.545,2181.71 952.545,2181.54 C 952.545,2181.2 952.265,2180.92 951.921,2180.92 C 951.754,2180.92 951.598,2180.98 951.48,2181.1 L 950.156,2182.42 L 949.369,2181.64 L 950.693,2180.31 C 950.81,2180.2 950.876,2180.04 950.876,2179.87 C 950.876,2179.53 950.596,2179.25 950.252,2179.25 C 950.085,2179.25 949.928,2179.31 949.811,2179.43 L 948.487,2180.75 L 947.7,2179.97 L 949.024,2178.64 C 949.141,2178.53 949.206,2178.37 949.206,2178.2 C 949.206,2177.86 948.926,2177.58 948.582,2177.58 C 948.415,2177.58 948.259,2177.64 948.141,2177.76 L 946.817,2179.09 L 946.03,2178.3 L 947.354,2176.97 C 947.472,2176.86 947.537,2176.7 947.537,2176.53 C 947.537,2176.19 947.257,2175.91 946.913,2175.91 C 946.746,2175.91 946.59,2175.97 946.472,2176.09 L 946.286,2176.28 C 946.376,2176.49 946.424,2176.72 946.424,2176.95 C 946.424,2177.89 945.677,2178.65 944.748,2178.68 C 944.716,2179.59 943.987,2180.32 943.079,2180.36 C 943.047,2181.26 942.318,2181.99 941.41,2182.02 C 941.377,2182.95 940.616,2183.7 939.679,2183.7 C 939.305,2183.7 938.952,2183.58 938.656,2183.36 C 937.925,2184.14 937.521,2185.14 937.521,2186.21 C 937.521,2188.51 939.389,2190.38 941.686,2190.38 Z M 938.634,2181.54 C 938.634,2181.71 938.699,2181.87 938.816,2181.98 L 939.238,2182.4 C 939.356,2182.52 939.512,2182.59 939.679,2182.59 C 940.023,2182.59 940.303,2182.31 940.303,2181.96 C 940.303,2181.8 940.238,2181.64 940.12,2181.52 L 939.699,2181.1 C 939.581,2180.98 939.424,2180.92 939.257,2180.92 C 938.913,2180.92 938.634,2181.2 938.634,2181.54 Z M 940.303,2179.87 C 940.303,2180.04 940.368,2180.2 940.485,2180.31 L 940.907,2180.74 C 941.025,2180.85 941.181,2180.92 941.348,2180.92 C 941.692,2180.92 941.972,2180.64 941.972,2180.29 C 941.972,2180.13 941.907,2179.97 941.79,2179.85 L 941.368,2179.43 C 941.25,2179.31 941.094,2179.25 940.927,2179.25 C 940.583,2179.25 940.303,2179.53 940.303,2179.87 Z M 941.972,2178.2 C 941.972,2178.37 942.037,2178.53 942.155,2178.64 L 942.576,2179.07 C 942.694,2179.18 942.851,2179.25 943.018,2179.25 C 943.362,2179.25 943.642,2178.97 943.642,2178.62 C 943.642,2178.46 943.576,2178.3 943.459,2178.18 L 943.037,2177.76 C 942.919,2177.64 942.763,2177.58 942.596,2177.58 C 942.252,2177.58 941.972,2177.86 941.972,2178.2 Z M 944.265,2175.91 C 943.922,2175.91 943.642,2176.19 943.642,2176.53 C 943.642,2176.7 943.707,2176.86 943.824,2176.97 L 944.246,2177.4 C 944.364,2177.51 944.52,2177.58 944.687,2177.58 C 945.031,2177.58 945.311,2177.3 945.311,2176.95 C 945.311,2176.79 945.246,2176.63 945.128,2176.51 L 944.707,2176.09 C 944.589,2175.97 944.432,2175.91 944.265,2175.91 Z M 936.964,2159.22 L 936.964,2158.1 L 935.851,2158.1 L 935.851,2160.33 L 934.738,2160.33 L 934.738,2158.1 L 931.4,2158.1 L 931.4,2160.33 L 930.287,2160.33 L 930.287,2158.1 L 929.174,2158.1 L 929.174,2159.22 C 929.174,2161.36 930.921,2163.11 933.069,2163.11 C 935.217,2163.11 936.964,2161.36 936.964,2159.22 Z M 935.295,2166.45 C 935.295,2165.22 934.296,2164.22 933.069,2164.22 C 931.841,2164.22 930.843,2165.22 930.843,2166.45 C 930.843,2167.68 931.841,2168.68 933.069,2168.68 C 934.296,2168.68 935.295,2167.68 935.295,2166.45 Z M 949.206,2159.22 L 949.206,2158.1 L 948.093,2158.1 L 948.093,2160.33 L 946.98,2160.33 L 946.98,2158.1 L 943.642,2158.1 L 943.642,2160.33 L 942.529,2160.33 L 942.529,2158.1 L 941.416,2158.1 L 941.416,2159.22 C 941.416,2161.36 943.163,2163.11 945.311,2163.11 C 947.459,2163.11 949.206,2161.36 949.206,2159.22 Z M 947.537,2166.45 C 947.537,2165.22 946.539,2164.22 945.311,2164.22 C 944.083,2164.22 943.085,2165.22 943.085,2166.45 C 943.085,2167.68 944.083,2168.68 945.311,2168.68 C 946.539,2168.68 947.537,2167.68 947.537,2166.45 Z M 955.327,2166.45 C 955.327,2167.68 956.326,2168.68 957.553,2168.68 C 958.781,2168.68 959.779,2167.68 959.779,2166.45 C 959.779,2165.22 958.781,2164.22 957.553,2164.22 C 956.326,2164.22 955.327,2165.22 955.327,2166.45 Z M 961.448,2158.1 L 960.335,2158.1 L 960.335,2160.33 L 959.222,2160.33 L 959.222,2158.1 L 955.884,2158.1 L 955.884,2160.33 L 954.771,2160.33 L 954.771,2158.1 L 953.658,2158.1 L 953.658,2159.22 C 953.658,2161.36 955.405,2163.11 957.553,2163.11 C 959.701,2163.11 961.448,2161.36 961.448,2159.22 Z" marker-start="none" marker-end="none"/>
   <path d="M 948.65,2170.9 L 949.763,2170.9 L 949.763,2169.79 L 948.65,2169.79 Z" marker-start="none" marker-end="none"/>
   <path d="M 950.876,2170.9 L 951.988,2170.9 L 951.988,2169.79 L 950.876,2169.79 Z" marker-start="none" marker-end="none"/>
   <path d="M 953.101,2170.9 L 954.214,2170.9 L 954.214,2169.79 L 953.101,2169.79 Z" marker-start="none" marker-end="none"/>
   <path d="M 936.408,2170.9 L 937.521,2170.9 L 937.521,2169.79 L 936.408,2169.79 Z" marker-start="none" marker-end="none"/>
   <path d="M 938.634,2170.9 L 939.746,2170.9 L 939.746,2169.79 L 938.634,2169.79 Z" marker-start="none" marker-end="none"/>
   <path d="M 940.859,2170.9 L 941.972,2170.9 L 941.972,2169.79 L 940.859,2169.79 Z" marker-start="none" marker-end="none"/>
  </g>
 </g>
</svg>
