<svg xmlns="http://www.w3.org/2000/svg" xmlns:xlink="http://www.w3.org/1999/xlink" width="55" height="55" viewBox="0 0 55 55"><defs><path id="xu43a" d="M1221.38 1068.86a2.24 2.24 0 1 1 0-4.48 2.24 2.24 0 0 1 0 4.48zm0-6.86a4.61 4.61 0 1 0-.01 9.22 4.61 4.61 0 0 0 .01-9.22z"/><path id="xu43c" d="M1175.62 1095.18a2.24 2.24 0 1 1 0-4.5 2.24 2.24 0 0 1 0 4.5zm0-6.87a4.61 4.61 0 1 0-.02 9.22 4.61 4.61 0 0 0 .02-9.22z"/><path id="xu43e" d="M1189.34 1081.45a2.24 2.24 0 1 1 0-4.48 2.24 2.24 0 0 1 0 4.48zm0-6.86a4.61 4.61 0 1 0-.01 9.22 4.61 4.61 0 0 0 0-9.22z"/><path id="xu43g" d="M1199.07 1091.18a2.24 2.24 0 1 1 0-4.49 2.24 2.24 0 0 1 0 4.49zm0-6.86a4.61 4.61 0 1 0-.02 9.22 4.61 4.61 0 0 0 .02-9.22z"/><path id="xu43i" d="M1202.34 1087.34l-1.68-1.68 17.44-17.48 1.68 1.68z"/><path id="xu43k" d="M1195.82 1087.34l-4.88-4.87 1.67-1.68 4.89 4.87z"/><path id="xu43m" d="M1178.9 1091.33l-1.69-1.67 8.87-8.87 1.68 1.68z"/><path id="xu43o" d="M1171.04 1117v-2.37h54.92v2.37z"/><path id="xu43q" d="M1220.2 1115.81v-34.32h2.37v34.32z"/><path id="xu43s" d="M1198.46 1115.81v-17.15h2.38v17.15z"/><path id="xu43u" d="M1174.43 1115.81v-13.72h2.37v13.72z"/><path id="xu43w" d="M1188.15 1115.81v-24.03h2.38v24.03z"/><linearGradient id="xu43b" x1="1221.39" x2="1221.39" y1="1062" y2="1071.23" gradientUnits="userSpaceOnUse"><stop offset="0" stop-color="#5077e7"/><stop offset="1" stop-color="#a776dd"/></linearGradient><linearGradient id="xu43d" x1="1175.62" x2="1175.62" y1="1088.31" y2="1097.54" gradientUnits="userSpaceOnUse"><stop offset="0" stop-color="#5077e7"/><stop offset="1" stop-color="#a776dd"/></linearGradient><linearGradient id="xu43f" x1="1189.34" x2="1189.34" y1="1074.59" y2="1083.82" gradientUnits="userSpaceOnUse"><stop offset="0" stop-color="#5077e7"/><stop offset="1" stop-color="#a776dd"/></linearGradient><linearGradient id="xu43h" x1="1199.07" x2="1199.07" y1="1084.32" y2="1093.55" gradientUnits="userSpaceOnUse"><stop offset="0" stop-color="#5077e7"/><stop offset="1" stop-color="#a776dd"/></linearGradient><linearGradient id="xu43j" x1="1209.38" x2="1211.06" y1="1076.92" y2="1078.6" gradientUnits="userSpaceOnUse"><stop offset="0" stop-color="#5077e7"/><stop offset="1" stop-color="#a776dd"/></linearGradient><linearGradient id="xu43l" x1="1191.77" x2="1196.65" y1="1081.64" y2="1086.5" gradientUnits="userSpaceOnUse"><stop offset="0" stop-color="#5077e7"/><stop offset="1" stop-color="#a776dd"/></linearGradient><linearGradient id="xu43n" x1="1181.64" x2="1183.33" y1="1085.22" y2="1086.9" gradientUnits="userSpaceOnUse"><stop offset="0" stop-color="#5077e7"/><stop offset="1" stop-color="#a776dd"/></linearGradient><linearGradient id="xu43p" x1="1198.51" x2="1198.51" y1="1114.63" y2="1117" gradientUnits="userSpaceOnUse"><stop offset="0" stop-color="#5077e7"/><stop offset="1" stop-color="#a776dd"/></linearGradient><linearGradient id="xu43r" x1="1221.39" x2="1221.39" y1="1081.49" y2="1115.81" gradientUnits="userSpaceOnUse"><stop offset="0" stop-color="#5077e7"/><stop offset="1" stop-color="#a776dd"/></linearGradient><linearGradient id="xu43t" x1="1199.65" x2="1199.65" y1="1098.66" y2="1115.81" gradientUnits="userSpaceOnUse"><stop offset="0" stop-color="#5077e7"/><stop offset="1" stop-color="#a776dd"/></linearGradient><linearGradient id="xu43v" x1="1175.62" x2="1175.62" y1="1102.09" y2="1115.81" gradientUnits="userSpaceOnUse"><stop offset="0" stop-color="#5077e7"/><stop offset="1" stop-color="#a776dd"/></linearGradient><linearGradient id="xu43x" x1="1189.34" x2="1189.34" y1="1091.78" y2="1115.81" gradientUnits="userSpaceOnUse"><stop offset="0" stop-color="#5077e7"/><stop offset="1" stop-color="#a776dd"/></linearGradient></defs><g><g transform="translate(-1171 -1062)"><g><g><g><use fill="url(#xu43b)" xlink:href="#xu43a"/></g></g></g><g><g><g><use fill="url(#xu43d)" xlink:href="#xu43c"/></g></g></g><g><g><g><use fill="url(#xu43f)" xlink:href="#xu43e"/></g></g></g><g><g><g><use fill="url(#xu43h)" xlink:href="#xu43g"/></g></g></g><g><g><g><use fill="url(#xu43j)" xlink:href="#xu43i"/></g></g></g><g><g><g><use fill="url(#xu43l)" xlink:href="#xu43k"/></g></g></g><g><g><g><use fill="url(#xu43n)" xlink:href="#xu43m"/></g></g></g><g><g><g><use fill="url(#xu43p)" xlink:href="#xu43o"/></g></g></g><g><g><g><use fill="url(#xu43r)" xlink:href="#xu43q"/></g></g></g><g><g><g><use fill="url(#xu43t)" xlink:href="#xu43s"/></g></g></g><g><g><g><use fill="url(#xu43v)" xlink:href="#xu43u"/></g></g></g><g><g><g><use fill="url(#xu43x)" xlink:href="#xu43w"/></g></g></g></g></g></svg>