<svg xmlns="http://www.w3.org/2000/svg" xmlns:xlink="http://www.w3.org/1999/xlink" width="54" height="40" viewBox="0 0 54 40"><defs><path id="5vdoa" d="M1305.74 893.75a16.6 16.6 0 0 1-6.68 5.9h-14.42a16.6 16.6 0 0 1-9.35-14.91 16.6 16.6 0 0 1 5.03-11.9h23.06a16.6 16.6 0 0 1 2.36 20.91zm-3.05-25.04v1.85H1281v-1.85zm-23.76-3.44c0-.54.44-.98.98-.98h23.87c.55 0 .99.44.99.98v.17c0 .54-.44.98-.99.98h-23.87a.98.98 0 0 1-.98-.98zm26.05 5.94v-2.73a3.27 3.27 0 0 0 2.08-3.04v-.17c0-1.8-1.47-3.27-3.27-3.27h-23.88a3.27 3.27 0 0 0-3.27 3.27v.17c0 1.38.87 2.56 2.08 3.04v2.73a18.9 18.9 0 0 0-2.68 23.79 18.88 18.88 0 0 0 7.86 6.83c.15.07.31.1.48.1h14.94c.17 0 .33-.03.48-.1a18.88 18.88 0 0 0 10.9-17.1 18.9 18.9 0 0 0-5.72-13.52z"/><path id="5vdoc" d="M1296.17 884.97h-3.37l-.02-.04-1.66-2.87 1.68-2.92h3.37l1.68 2.92zm0 8.12h-3.37l-1.68-2.91.84-1.46.84-1.46h3.37l1.68 2.92zm-6.2-5.51l-.83 1.45h-3.37l-1.68-2.91 1.68-2.92h3.37l1.68 2.92zm10.2 2.03l-2.02-3.5 2.01-3.48c.2-.35.2-.79 0-1.14l-2.34-4.06c-.2-.36-.58-.57-1-.57h-4.68c-.4 0-.78.21-.99.57l-2.01 3.49h-4.03c-.4 0-.79.21-.99.57l-2.34 4.06c-.2.35-.2.79 0 1.14l2.34 4.06c.2.35.58.57 1 .57h4.02l2.01 3.49c.2.35.58.57 1 .57h4.68c.4 0 .78-.22.99-.57l2.34-4.06c.2-.35.2-.8 0-1.14z"/><path id="5vdoe" d="M1315.73 870.8a.76.76 0 0 1 0-1.5h8.22a.76.76 0 0 1 0 1.5zm0 3.81a.76.76 0 0 1 0-1.52h8.22a.76.76 0 0 1 0 1.52h-8.22zm6.89 3.8h-5.56a.76.76 0 0 1 0-1.51h5.56a.76.76 0 0 1 0 1.51zm-1.45 18.5c.06.4-.06.78-.32 1.08-.25.3-.61.46-1 .46-.4 0-.76-.17-1.02-.46-.26-.3-.37-.68-.32-1.07l1.33-9.29zm-4.1-31.42h5.55a.76.76 0 0 1 0 1.51h-5.56a.76.76 0 0 1 0-1.51zm9.93 4.56c0-1.14-.63-2.14-1.56-2.66a3.05 3.05 0 0 0-2.82-4.2h-5.56a3.05 3.05 0 0 0-2.82 4.2 3.05 3.05 0 0 0-.89 4.56 3.03 3.03 0 0 0 .9 4.56 3.05 3.05 0 0 0 2.82 4.2h1.45l-2.27 15.88a3.63 3.63 0 1 0 7.18 0l-2.27-15.89h1.46a3.05 3.05 0 0 0 2.82-4.2 3.05 3.05 0 0 0 .9-4.55c.4-.52.66-1.18.66-1.9z"/><linearGradient id="5vdob" x1="1291.85" x2="1291.85" y1="862" y2="901.94" gradientUnits="userSpaceOnUse"><stop offset="0" stop-color="#5077e7"/><stop offset="1" stop-color="#a776dd"/></linearGradient><linearGradient id="5vdod" x1="1290.97" x2="1290.97" y1="876.86" y2="895.38" gradientUnits="userSpaceOnUse"><stop offset="0" stop-color="#5077e7"/><stop offset="1" stop-color="#a776dd"/></linearGradient><linearGradient id="5vdof" x1="1319.84" x2="1319.84" y1="863.2" y2="900.74" gradientUnits="userSpaceOnUse"><stop offset="0" stop-color="#5077e7"/><stop offset="1" stop-color="#a776dd"/></linearGradient></defs><g><g transform="translate(-1273 -862)"><g><g><g><use fill="url(#5vdob)" xlink:href="#5vdoa"/></g></g></g><g><g><g><use fill="url(#5vdod)" xlink:href="#5vdoc"/></g></g></g><g><g><g><use fill="url(#5vdof)" xlink:href="#5vdoe"/></g></g></g></g></g></svg>