<svg xmlns="http://www.w3.org/2000/svg" width="90" height="90" viewBox="0 0 90 90"><defs><linearGradient id="v59ea" x1="45" x2="45" y1="89.99" y2="0" gradientUnits="userSpaceOnUse"><stop offset="0" stop-color="#a776dd"/><stop offset="1" stop-color="#5077e7"/></linearGradient></defs><g><g><path fill="url(#v59ea)" d="M.439 89.555a1.5 1.5 0 0 1-.44-1.061v-34.5a1.498 1.498 0 0 1 .962-1.4l19.5-7.5c.346-.13.73-.13 1.076 0l19.5 7.5a1.498 1.498 0 0 1 .961 1.4v34.5a1.5 1.5 0 0 1-1.5 1.5H1.5a1.5 1.5 0 0 1-1.06-.44zm2.56-28.745l17.461-6.717c.347-.132.73-.132 1.077 0l17.461 6.717v-5.785l-18-6.924L3 55.025zm0 26.184h36v-22.97l-18-6.923-18 6.924zm31.242-13.757a6 6 0 1 1-8.485-8.483 6 6 0 0 1 8.485 8.483zm-2.121-2.121a3 3 0 1 0-4.242-4.243 3 3 0 0 0 4.242 4.243zm-7.243 4.757A3 3 0 0 1 27 74.994h6a3 3 0 0 1 3 3v4.5a1.5 1.5 0 0 1-1.5 1.5h-9a1.5 1.5 0 0 1-1.5-1.5v-4.5a3 3 0 0 1 .878-2.121zM27 77.994v3h6v-3zm-6.44-11.56a1.5 1.5 0 0 1 .44 1.06v9a1.5 1.5 0 0 1-1.5 1.5h-2.58l1.035 4.137a1.5 1.5 0 0 1-1.455 1.863h-6a1.505 1.505 0 0 1-1.467-1.188 1.5 1.5 0 0 1 .012-.675l1.035-4.137h-2.58a1.498 1.498 0 0 1-1.5-1.5v-9a1.5 1.5 0 0 1 1.5-1.5h12c.398 0 .78.158 1.06.44zm-5.982 14.56l-.75-3h-.657l-.75 3zm3.422-12h-9v6h9zm62.56-2.56a1.5 1.5 0 0 1 .439 1.06v9a1.5 1.5 0 0 1-1.5 1.5h-2.58l1.035 4.137a1.5 1.5 0 0 1-1.455 1.863h-6a1.504 1.504 0 0 1-1.467-1.188 1.503 1.503 0 0 1 .012-.675l1.035-4.137h-2.58a1.497 1.497 0 0 1-1.5-1.5v-9a1.498 1.498 0 0 1 1.5-1.5h12c.398 0 .78.158 1.06.44zm-5.983 14.56l-.75-3h-.657l-.75 3zm3.421-12h-9v6h9zm-44.66-64.16A16.519 16.519 0 0 1 44.998-.004a16.5 16.5 0 1 1-16.5 16.5 16.52 16.52 0 0 1 4.839-11.662zm2.95 1.359a13.56 13.56 0 0 0-3.378 4.303h4.222a26.008 26.008 0 0 1 3.958-6.921 13.561 13.561 0 0 0-4.803 2.618zm-4.439 13.302h4.45a15.374 15.374 0 0 1 0-6h-4.45c-.229.984-.346 1.99-.35 3 .004 1.01.121 2.017.35 3zm4.438 7.303a13.562 13.562 0 0 0 4.803 2.618 26.012 26.012 0 0 1-3.958-6.92h-4.222a13.559 13.559 0 0 0 3.377 4.302zm7.212-4.303h-3.121a24.27 24.27 0 0 0 3.121 5.112zm0-9h-4.135a12.526 12.526 0 0 0 0 6h4.135zm0-8.111a24.265 24.265 0 0 0-3.121 5.112h3.121zM53.71 26.798a13.563 13.563 0 0 0 3.378-4.303h-4.222a26.015 26.015 0 0 1-3.959 6.921 13.56 13.56 0 0 0 4.803-2.618zm4.434-13.302h-4.446c.394 1.98.394 4.019 0 6h4.45c.23-.984.346-1.99.35-3a13.5 13.5 0 0 0-.354-3zM53.71 6.193a13.56 13.56 0 0 0-4.803-2.618 26.012 26.012 0 0 1 3.959 6.92h4.222a13.564 13.564 0 0 0-3.378-4.302zm-7.212 4.303h3.122a24.27 24.27 0 0 0-3.122-5.112zm0 9h4.136a12.52 12.52 0 0 0 0-6h-4.136zm0 8.111a24.276 24.276 0 0 0 3.122-5.112h-3.122zm43.06 8.827c.282.282.44.663.44 1.061v50.999a1.498 1.498 0 0 1-1.5 1.5h-42a1.499 1.499 0 0 1-1.5-1.5v-24a1.5 1.5 0 0 1 1.5-1.5h10.5V37.496a1.5 1.5 0 0 1 1.5-1.5h30a1.5 1.5 0 0 1 1.06.44zm-32.56 29.56h-9v21h9zm30-26.999h-27v47.999h27zm-33 33h-3v-3h3zm0 5.999h-3v-3h3zm0 6h-3v-3h3zm9.44-33.438a1.501 1.501 0 0 1-.44-1.061v-6a1.5 1.5 0 0 1 1.5-1.5h6a1.5 1.5 0 0 1 1.5 1.5v6a1.5 1.5 0 0 1-1.5 1.5h-6a1.5 1.5 0 0 1-1.06-.44zm2.56-2.561h3v-3h-3zm9.439 2.56a1.501 1.501 0 0 1-.44-1.06v-6a1.5 1.5 0 0 1 1.5-1.5h6a1.5 1.5 0 0 1 1.5 1.5v6a1.5 1.5 0 0 1-1.5 1.5h-6a1.5 1.5 0 0 1-1.06-.44zm2.56-2.56h3v-3h-3zm-14.56 14.56a1.5 1.5 0 0 1-.44-1.06v-6a1.5 1.5 0 0 1 1.501-1.5h6a1.498 1.498 0 0 1 1.5 1.5v6a1.5 1.5 0 0 1-1.5 1.5h-6a1.5 1.5 0 0 1-1.06-.44zm2.56-2.56h3v-3h-3zm9.44 2.56a1.5 1.5 0 0 1-.44-1.06v-6a1.5 1.5 0 0 1 1.5-1.5h6a1.498 1.498 0 0 1 1.5 1.5v6a1.5 1.5 0 0 1-1.5 1.5h-6a1.5 1.5 0 0 1-1.06-.44zm2.56-2.56h3v-3h-3zm-3.439-44.56a1.5 1.5 0 0 1 .44 1.06v11.38l1.938-1.94 2.12 2.12-4.5 4.5a1.5 1.5 0 0 1-2.12 0l-4.5-4.5 2.12-2.12 1.942 1.94v-9.88h-7.5v-3h9a1.5 1.5 0 0 1 1.06.44zm-54.62 0a1.5 1.5 0 0 1 1.06-.44h4.5v3h-3v24h-3v-25.5c0-.397.159-.78.44-1.06z"/></g></g></svg>