<svg xmlns="http://www.w3.org/2000/svg" xmlns:xlink="http://www.w3.org/1999/xlink" width="55" height="45" viewBox="0 0 55 45"><defs><path id="t6vla" d="M390.52 1128.28h10.26a2.9 2.9 0 0 1 2.85 2.93 2.9 2.9 0 0 1-2.85 2.94h-10.26a2.9 2.9 0 0 1-2.85-2.94 2.9 2.9 0 0 1 2.85-2.93zm0 8.22h10.26a5.22 5.22 0 0 0 5.13-5.29c0-2.91-2.3-5.29-5.13-5.29h-10.26a5.22 5.22 0 0 0-5.13 5.3c0 2.9 2.3 5.28 5.13 5.28z"/><path id="t6vlc" d="M422.6 1128.44l-1.27 2.26-4.44-2.64 1.27-2.27a.87.87 0 0 1 1.2-.33l2.92 1.73c.42.25.56.81.32 1.25zm-3.55 6.33l-4.44-2.64 1.14-2.04 4.44 2.64zm-12.62 7.25l-1.31 2.35H383.1v-2.35zm3.39 7.47l-2.93 1.7-.03-3.46 1.48.88zm-2.56-4.24l6.2-11.09 4.45 2.64-6.21 11.1zm11.76 11.4zm-46.74 0v-35.6h46.74v1.94a3.15 3.15 0 0 0-2.84 1.63l-8.43 15.05h-25.78c-.63 0-1.14.53-1.14 1.18v4.7c0 .65.51 1.17 1.14 1.17h22.6l.06 6.48c0 .42.22.8.57 1a1.11 1.11 0 0 0 1.13.01l6.35-3.69a1.15 1.15 0 0 0 .42-.43l5.92-10.56v17.12zm0-40.3h46.74v2.35h-46.74zm52.61 10.79a3.23 3.23 0 0 0-1.47-1.98l-2.12-1.26v-8.73c0-.64-.51-1.17-1.14-1.17h-49.02c-.63 0-1.14.53-1.14 1.17v42.65c0 .65.51 1.18 1.14 1.18h49.02c.63 0 1.14-.53 1.14-1.18v-22.36l3.27-5.85c.43-.75.54-1.63.32-2.47z"/><path id="t6vle" d="M391.83 1149.42h-9.63c-.63 0-1.14.53-1.14 1.18 0 .65.5 1.17 1.14 1.17h9.63c.63 0 1.14-.52 1.14-1.17 0-.65-.5-1.18-1.14-1.18z"/><path id="t6vlg" d="M396.4 1149.42h-.12c-.63 0-1.14.53-1.14 1.18 0 .65.5 1.17 1.14 1.17h.11c.63 0 1.14-.52 1.14-1.17 0-.65-.5-1.18-1.14-1.18z"/><linearGradient id="t6vlb" x1="395.65" x2="395.65" y1="1125.93" y2="1136.5" gradientUnits="userSpaceOnUse"><stop offset="0" stop-color="#5077e7"/><stop offset="1" stop-color="#a776dd"/></linearGradient><linearGradient id="t6vld" x1="397.5" x2="397.5" y1="1114" y2="1159" gradientUnits="userSpaceOnUse"><stop offset="0" stop-color="#5077e7"/><stop offset="1" stop-color="#a776dd"/></linearGradient><linearGradient id="t6vlf" x1="387.02" x2="387.02" y1="1149.42" y2="1151.77" gradientUnits="userSpaceOnUse"><stop offset="0" stop-color="#5077e7"/><stop offset="1" stop-color="#a776dd"/></linearGradient><linearGradient id="t6vlh" x1="396.34" x2="396.34" y1="1149.42" y2="1151.77" gradientUnits="userSpaceOnUse"><stop offset="0" stop-color="#5077e7"/><stop offset="1" stop-color="#a776dd"/></linearGradient></defs><g><g transform="translate(-370 -1114)"><g><g><g><use fill="url(#t6vlb)" xlink:href="#t6vla"/></g><g><use fill="url(#t6vld)" xlink:href="#t6vlc"/></g><g><use fill="url(#t6vlf)" xlink:href="#t6vle"/></g><g><use fill="url(#t6vlh)" xlink:href="#t6vlg"/></g></g></g></g></g></svg>