<svg xmlns="http://www.w3.org/2000/svg" xmlns:xlink="http://www.w3.org/1999/xlink" width="35" height="35" viewBox="0 0 35 35"><defs><path id="q9pja" d="M395.32 977.42a1.34 1.34 0 1 1 0-2.7 1.34 1.34 0 0 1 0 2.7zm0-4.03a2.68 2.68 0 1 0 0 5.37 2.68 2.68 0 0 0 0-5.37z"/><path id="q9pjc" d="M388.61 992.18c-1.32 0-2.6-.17-3.82-.48l.7-2.43c.05-.16.07-.33.07-.5 0-.3-.07-.6-.2-.88a1.91 1.91 0 0 0-.58-.74l-.87-.65a.22.22 0 0 1-.08-.18c0-.05.01-.1.04-.13l2.38-3.17a.32.32 0 0 1 .25-.12c.06 0 .11.02.15.04l.79.5c.04.02.1.08.15.17.05.1.08.2.07.29v.1l-.36 1.16c-.04.15-.06.3-.06.43a1.34 1.34 0 0 0 1.29 1.36l1.96.15h.14c.36 0 .7-.08 1.03-.22.32-.14.62-.33.86-.6l.88-.99c.41.5.74.87.92 1.08l1 1.1 1-1.1c.96-1.07 5.71-6.54 5.71-9.85 0-.65-.1-1.28-.27-1.88h.06a2.6 2.6 0 0 1 1 .22l1.43.8.02.86c0 8.64-7.02 15.66-15.66 15.66zm12.08-15.66c0 2.97-5.37 8.95-5.37 8.95s-5.37-5.98-5.37-8.95a5.37 5.37 0 1 1 10.74 0zM384.2 988.9l-.7 2.42c-3.24-1.13-6-3.28-7.89-6.08l.2-.24c.26-.33.8-.9 1.14-1.2l.54-.5c.27-.23.48-.52.66-.84.18-.31.33-.64.4-.99l.12-.58a2.68 2.68 0 0 0-.6-2.12l-.61-.64-.03-.03.04-.03 1.08-.64a.81.81 0 0 1 .4-.09c.17 0 .35.06.42.1l1.08.7c.38.24.8.33 1.2.33.35 0 .7-.06 1.02-.23l1.33-.7c.34-.19.6-.45.83-.74.23-.3.41-.63.5-1l.22-.94a4.2 4.2 0 0 0-.22-2.1l-.76-1.66-.02-.1c0-.08.05-.16.13-.2l1.8-.83c.35-.17.63-.42.86-.72.23-.3.41-.63.49-1.02l.26-1.44a3.28 3.28 0 0 0-.47-2.12l-1.02-1.44a.83.83 0 0 1-.12-.45c0-.14.04-.28.07-.34l.85-1.52a15.68 15.68 0 0 1 16.67 13.1l-.6-.33a3.9 3.9 0 0 0-2.1-.35l-.13.02a6.72 6.72 0 0 0-12.63 3.16c0 2.26 2.22 5.53 3.93 7.72l-1.02 1.15c-.06.07-.22.18-.4.26-.17.07-.37.12-.49.11h-.04l-1.96-.15h-.05v-.06l.36-1.16a1.97 1.97 0 0 0-.15-1.39 1.8 1.8 0 0 0-.64-.7l-.79-.5a1.66 1.66 0 0 0-2.19.4l-2.37 3.18a1.56 1.56 0 0 0 .31 2.2l.87.65c.05.03.12.11.16.22.05.1.08.23.08.33 0 .05 0 .09-.02.12zm-11.25-12.38c0-2.1.42-4.1 1.18-5.93a34.88 34.88 0 0 0 2.31 2.81l.99 1.08.99-1.08c.8-.87 4.82-5.38 4.82-8.17 0-1.12-.33-2.17-.9-3.05 1.08-.47 2.22-.83 3.4-1.05l-.36.65c-.17.32-.24.66-.24 1 0 .43.1.85.37 1.23l1.02 1.43a1.99 1.99 0 0 1 .24 1.1l-.26 1.45c-.02.1-.1.28-.23.44-.12.16-.28.29-.37.32l-1.8.83a1.57 1.57 0 0 0-.76 2.08l.76 1.65a2.85 2.85 0 0 1 .13 1.26l-.01.03-.21.9c-.02.1-.12.31-.25.48-.13.17-.3.32-.4.37l-1.33.7a.87.87 0 0 1-.38.08c-.2 0-.4-.06-.48-.11l-1.09-.7a2.15 2.15 0 0 0-1.15-.32c-.36 0-.73.08-1.07.28l-1.09.64c-.2.12-.38.3-.5.5-.13.2-.2.44-.2.67 0 .36.15.71.4.97l.62.64c.05.05.13.18.19.33.05.15.08.32.08.45l-.01.14-.12.58c-.03.14-.13.38-.25.6-.13.21-.29.42-.4.51l-.54.5c-.37.32-.84.82-1.18 1.21a15.6 15.6 0 0 1-1.92-7.5zm0-11.3c0-2.4 2-4.36 4.48-4.36a4.42 4.42 0 0 1 4.47 4.37c0 2.4-4.47 7.27-4.47 7.27s-4.48-4.87-4.48-7.27zm15.66-5.7c-2.56 0-4.98.58-7.16 1.6a5.85 5.85 0 0 0-9.84 4.1c0 1.19.73 2.68 1.62 4.07a17 17 0 1 0 15.38-9.77z"/><path id="q9pje" d="M377.54 965.78a.9.9 0 1 1 0-1.79.9.9 0 0 1 0 1.8zm0-3.13a2.24 2.24 0 1 0 0 4.47 2.24 2.24 0 0 0 0-4.47z"/><linearGradient id="q9pjb" x1="395.33" x2="395.33" y1="973.39" y2="978.76" gradientUnits="userSpaceOnUse"><stop offset="0" stop-color="#5077e7"/><stop offset="1" stop-color="#a776dd"/></linearGradient><linearGradient id="q9pjd" x1="388.61" x2="388.61" y1="959.52" y2="993.52" gradientUnits="userSpaceOnUse"><stop offset="0" stop-color="#5077e7"/><stop offset="1" stop-color="#a776dd"/></linearGradient><linearGradient id="q9pjf" x1="377.54" x2="377.54" y1="962.65" y2="967.12" gradientUnits="userSpaceOnUse"><stop offset="0" stop-color="#5077e7"/><stop offset="1" stop-color="#a776dd"/></linearGradient></defs><g><g transform="translate(-371 -959)"><use fill="url(#q9pjb)" xlink:href="#q9pja"/></g><g transform="translate(-371 -959)"><use fill="url(#q9pjd)" xlink:href="#q9pjc"/></g><g transform="translate(-371 -959)"><use fill="url(#q9pjf)" xlink:href="#q9pje"/></g></g></svg>