<?xml version="1.0" encoding="UTF-8"?>
<!DOCTYPE svg PUBLIC "-//W3C//DTD SVG 1.1//EN" "http://www.w3.org/Graphics/SVG/1.1/DTD/svg11.dtd">
<!-- Creator: CorelDRAW X7 -->
<svg xmlns="http://www.w3.org/2000/svg" xml:space="preserve" width="94.627mm" height="31.4436mm" version="1.1" style="shape-rendering:geometricPrecision; text-rendering:geometricPrecision; image-rendering:optimizeQuality; fill-rule:evenodd; clip-rule:evenodd"
viewBox="0 0 8596 2856"
 xmlns:xlink="http://www.w3.org/1999/xlink">
 <defs>
  <style type="text/css">
   <![CDATA[
    .fil1 {fill:black}
    .fil2 {fill:#F2D649}
    .fil0 {fill:#FEFEFE}
    .fil4 {fill:white}
    .fil3 {fill:white;fill-rule:nonzero}
   ]]>
  </style>
 </defs>
 <g id="Слой_x0020_1">
  <metadata id="CorelCorpID_0Corel-Layer"/>
  <g id="_801977520">
   <path class="fil0" d="M1428 7c-542,0 -851,286 -1091,732 -108,200 -233,446 -233,690 0,237 -39,461 64,658 20,38 41,74 65,111 253,392 693,651 1195,651 784,0 1421,-636 1421,-1420 0,-786 -637,-1422 -1421,-1422z"/>
   <path class="fil1" d="M2291 2576c-29,-49 -197,-206 -234,-224 -110,-53 -594,94 -869,-457 -242,-487 -48,-1064 283,-1282 473,-312 976,-28 1141,355 91,213 114,507 46,749 -100,350 -529,550 -176,669 133,-104 289,-416 338,-639 176,-789 -328,-1582 -1149,-1725 -640,-111 -1127,217 -1377,540 -249,322 -388,895 -221,1343 23,61 51,119 86,175 199,77 390,-1 441,-212 13,-51 21,-106 21,-159l0 -1155c0,-20 16,-36 35,-36l203 0c19,0 35,16 35,36l0 1155c0,386 -191,583 -560,630 133,230 557,452 870,501 206,32 425,17 618,-39 224,-64 308,-144 469,-225l0 0z"/>
   <path class="fil2" d="M2291 2576c65,-66 141,-120 191,-190 -143,-56 -176,-118 -77,-249 60,-78 174,-142 253,-420 68,-242 45,-536 -46,-749 -165,-383 -668,-667 -1141,-355 -331,218 -525,795 -283,1282 275,551 759,404 869,457 83,118 168,202 234,224l0 0z"/>
   <path class="fil1" d="M2454 1408c0,-386 -248,-698 -554,-698 -307,0 -555,312 -555,698 0,385 248,698 555,698 306,0 554,-313 554,-698z"/>
   <path class="fil3" d="M3424 2266l125 0 9 -133 395 0 0 133 116 0 18 -258 -75 0 0 -505 -460 0 0 74c0,215 -22,322 -69,431l-59 0 0 258 0 0zm449 -638l0 380 -244 0c36,-87 57,-183 57,-316l0 -64 187 0 0 0z"/>
   <polygon id="_1" class="fil3" points="4682,2133 4682,1966 4764,1876 4943,2133 5109,2133 4859,1776 5100,1503 4935,1503 4682,1798 4682,1503 4544,1503 4544,1798 4291,1503 4125,1503 4366,1776 4117,2133 4282,2133 4460,1876 4544,1966 4544,2133 "/>
   <polygon id="_2" class="fil3" points="5193,2133 5673,2133 5673,2010 5331,2010 5331,1878 5628,1878 5628,1755 5331,1755 5331,1626 5669,1626 5669,1503 5193,1503 "/>
   <path id="_3" class="fil3" d="M6340 1503l-129 0 -277 413 0 -413 -137 0 0 630 131 0 275 -413 0 413 137 0 0 -630zm-270 -48c84,0 139,-51 153,-137l-81 -14c-12,36 -33,60 -72,60 -37,0 -59,-24 -70,-60l-81 14c13,86 69,137 151,137z"/>
   <polygon id="_4" class="fil3" points="6491,2133 6630,2133 6630,1941 6704,1865 6899,2133 7065,2133 6798,1771 7054,1503 6887,1503 6630,1779 6630,1503 6491,1503 "/>
   <path id="_5" class="fil3" d="M7150 2133l264 0c147,0 239,-82 239,-211 0,-123 -84,-205 -231,-205l-134 0 0 -214 -138 0 0 630zm261 -297c70,0 104,31 104,84 0,59 -34,88 -103,88l-124 0 0 -172 123 0z"/>
   <path id="_6" class="fil3" d="M8288 2144c181,0 308,-144 308,-326 0,-183 -126,-326 -306,-326 -160,0 -278,112 -304,263l-87 0 0 -252 -139 0 0 630 139 0 0 -254 86 0c25,153 141,265 303,265l0 0zm2 -125c-99,0 -166,-89 -166,-201 0,-113 67,-199 164,-199 97,0 165,89 165,199 0,114 -66,201 -163,201z"/>
   <path class="fil4" d="M3686 1012c94,0 154,-33 209,-89l-39 -41c-50,48 -97,76 -169,76 -115,0 -202,-95 -202,-216 0,-122 86,-216 202,-216 71,0 120,30 164,72l39 -42c-52,-49 -107,-84 -202,-84 -154,0 -264,122 -264,270 0,152 111,270 262,270zm245 88l47 0 11 -97 312 0 0 97 47 0 9 -147 -58 0 0 -336 -275 0 0 68c0,129 -20,210 -51,268l-42 0 0 147zm103 -147c27,-50 46,-136 46,-231l0 -54 162 0 0 285 -208 0zm571 59c73,0 120,-29 159,-72l-36 -32c-31,33 -68,54 -121,54 -68,0 -128,-47 -136,-128l306 0c1,-9 1,-15 1,-20 0,-114 -66,-205 -180,-205 -107,0 -185,90 -185,202 0,120 86,201 192,201zm-134 -224c8,-75 59,-130 125,-130 76,0 117,59 123,130l-248 0zm389 221c73,0 127,-31 127,-332l0 -9 161 0 0 335 58 0 0 -386 -273 0 0 33c0,289 -39,309 -85,309 -7,0 -20,-3 -28,-5l-7 49c12,3 34,6 47,6zm589 3c68,0 112,-32 139,-66l0 57 57 0 0 -236c0,-49 -14,-86 -40,-113 -28,-28 -71,-43 -125,-43 -57,0 -98,14 -140,33l17 47c36,-16 71,-27 117,-27 72,0 114,36 114,104l0 12c-34,-10 -69,-16 -118,-16 -98,0 -165,43 -165,126 0,80 72,122 144,122zm11 -47c-52,0 -97,-28 -97,-77 0,-47 41,-79 113,-79 47,0 84,8 113,17l0 36c0,61 -58,103 -129,103zm306 38l58 0 0 -168 222 0 0 168 58 0 0 -386 -58 0 0 167 -222 0 0 -167 -58 0 0 386zm642 9c117,0 203,-92 203,-201 0,-111 -85,-202 -201,-202 -117,0 -202,93 -202,202 0,110 85,201 200,201zm2 -51c-82,0 -143,-67 -143,-150 0,-83 58,-151 141,-151 82,0 144,68 144,151 0,83 -59,150 -142,150zm528 42l194 0c85,0 140,-40 140,-105 0,-54 -39,-83 -85,-95 32,-14 64,-39 64,-89 0,-58 -49,-97 -126,-97l-187 0 0 386zm58 -49l0 -125 121 0c62,0 96,23 96,60 0,40 -34,65 -89,65l-128 0zm0 -171l0 -116 120 0c50,0 77,22 77,54 0,40 -32,62 -79,62l-118 0z"/>
  </g>
 </g>
</svg>
