<?xml version="1.0" encoding="UTF-8"?>
<!DOCTYPE svg PUBLIC "-//W3C//DTD SVG 1.1//EN" "http://www.w3.org/Graphics/SVG/1.1/DTD/svg11.dtd">
<!-- Creator: CorelDRAW X7 -->
<svg xmlns="http://www.w3.org/2000/svg" xml:space="preserve" width="83.5624mm" height="24.091mm" version="1.1" style="shape-rendering:geometricPrecision; text-rendering:geometricPrecision; image-rendering:optimizeQuality; fill-rule:evenodd; clip-rule:evenodd"
viewBox="0 0 6275 1809"
 xmlns:xlink="http://www.w3.org/1999/xlink">
 <defs>
  <style type="text/css">
   <![CDATA[
    .str0 {stroke:#66B9E8;stroke-width:6.62301}
    .fil1 {fill:#E5494C;fill-rule:nonzero}
    .fil2 {fill:#66B9E8;fill-rule:nonzero}
    .fil0 {fill:url(#id0)}
   ]]>
  </style>
  <linearGradient id="id0" gradientUnits="userSpaceOnUse" x1="1355.11" y1="1563.89" x2="381.364" y2="176.186">
   <stop offset="0" style="stop-opacity:1; stop-color:#66B9E8"/>
   <stop offset="0.639216" style="stop-opacity:1; stop-color:#BCDFF3"/>
   <stop offset="1" style="stop-opacity:1; stop-color:#BCDFF3"/>
  </linearGradient>
 </defs>
 <g id="Слой_x0020_1">
  <metadata id="CorelCorpID_0Corel-Layer"/>
  <path class="fil0" d="M1191 1399l0 273 -201 -199 -245 246c-14,14 -32,21 -51,21l-120 0c-24,0 -43,-20 -43,-44l0 -340 -379 -1c-10,0 -20,-4 -27,-11l-76 -77c-22,-22 -19,-46 3,-70l216 -215 -230 -230c-26,-25 -38,-46 -38,-82l0 -107c0,-23 22,-41 44,-41l327 0 1 -333c0,-32 8,-56 29,-77 0,0 73,-74 79,-78 12,-11 41,-12 51,-3 7,6 239,237 239,237l238 -237 1 -1 0 0 0 -1 1 0 0 -1 1 0 0 -1 1 0 0 -1 1 0 0 -1 1 0 0 0 1 -1 1 0 0 -1 1 0 0 0 1 -1 0 0 1 -1 0 0 1 0 1 -1 0 0 1 -1 0 0 1 0 0 -1 1 0 1 0 0 -1 1 0 1 0 0 -1 1 0 0 0 1 -1 0 0 1 -1 1 0 1 0 0 0 1 -1 0 0 1 0 0 0 1 -1 1 0 1 -1 0 0 1 0 0 0 1 -1 0 0 1 0 1 0 1 -1 0 0 1 0 0 0 1 -1 1 0 0 0 1 0 1 -1 0 0 1 0 1 0 0 0 1 -1 0 0 1 0 1 0 0 -1 1 0 1 0 0 0 1 0 0 0 1 -1 0 0 1 0 0 0 1 0 1 0 1 -1 0 0 1 0 0 0 1 0 0 0 1 -1 0 0 1 0 0 0 1 0 0 0 1 0 1 0 0 -1 1 0 0 0 1 0 0 0 1 0 0 0 1 0 0 0 1 0 0 0 1 0 0 -1 1 0 0 0 1 0 0 0 0 0 1 0 0 0 1 0 0 0 0 0 1 0 0 0 113 0 1 0 0 0 1 0 1 0 1 0 0 0 1 0 0 0 1 1 1 0 0 0 1 0 2 1 0 0 1 0 1 0 0 0 1 0 0 0 1 1 0 0 1 0 0 0 1 0 0 0 1 1 0 0 0 0 0 0 1 1 0 0 1 0 0 0 0 0 1 1 0 0 1 0 0 0 1 1 0 0 0 0 1 0 1 1 0 0 0 1 1 0 0 0 1 1 0 0 0 0 1 1 0 0 0 0 1 1 0 0 1 1 0 0 0 1 0 0 1 0 0 1 0 0 1 1 0 0 1 1 0 1 0 0 0 0 1 1 0 0 0 1 0 0 1 1 0 0 0 1 0 0 1 1 0 0 0 1 0 0 0 1 1 0 0 1 0 1 0 0 1 1 0 0 0 1 0 0 0 1 0 1 0 0 1 1 0 0 0 1 0 0 0 1 0 1 0 0 0 1 1 1 0 0 0 1 0 0 0 1 0 1 0 1 0 0 0 1 0 0 0 1 0 0 0 2 0 0 0 1 0 0 1 1 0 1 0 1 0 0 0 1 0 323 332 0c32,2 57,12 76,30l77 76c17,17 16,44 -6,66l-226 226 252 259 -266 0 -232 -232c0,0 -28,-25 -3,-49l182 -183 -332 0c-31,0 -47,-1 -47,-38l0 -255 -227 227c-36,36 -44,38 -76,6l-171 -171 0 332c-4,25 -15,42 -36,46l-255 1 240 241c19,16 21,33 2,53l-170 170 324 0c34,-3 52,10 54,39l0 250 240 -239c18,-16 37,-16 56,-1l172 172z"/>
  <path class="fil1" d="M3105 1635l0 -300c0,-48 -15,-84 -45,-110 -31,-25 -79,-38 -144,-38 -37,0 -69,3 -97,9 -29,6 -55,14 -78,23l0 416 111 0 0 -349c7,-2 17,-5 28,-7 12,-2 24,-3 37,-3 26,0 45,6 58,18 13,13 19,30 19,52l0 289 111 0 0 0zm-738 -243c1,-41 11,-72 29,-93 18,-21 42,-31 71,-31 26,0 46,8 61,24 15,17 22,42 22,75l-183 25 0 0zm278 -87c-8,-24 -21,-45 -37,-63 -16,-17 -35,-31 -58,-40 -24,-10 -50,-15 -81,-15 -32,0 -60,6 -85,17 -26,11 -47,27 -64,47 -17,20 -31,44 -40,72 -9,28 -14,59 -14,92 0,34 5,65 15,93 9,28 23,52 42,73 18,20 41,36 69,47 27,11 59,16 95,16 32,0 62,-3 91,-9 29,-6 52,-13 71,-22l-32 -83c-16,8 -34,15 -56,20 -22,5 -44,7 -66,7 -32,0 -59,-7 -81,-23 -22,-16 -35,-40 -40,-72l282 -38c1,-7 2,-13 2,-19l0 -19c0,-30 -5,-57 -13,-81l0 0zm-565 166c-4,17 -10,32 -19,44 -9,13 -20,22 -33,29 -13,7 -28,11 -46,11 -9,0 -19,-1 -30,-2 -10,-2 -17,-4 -22,-6l0 -265c5,-2 12,-5 22,-6 9,-2 19,-3 29,-3 35,0 61,13 79,37 18,25 27,59 27,104 0,20 -2,39 -7,57l0 0zm62 -224c-37,-40 -91,-60 -162,-60 -33,0 -64,3 -93,10 -28,6 -51,13 -67,22l0 590 110 0 0 -179c7,2 17,5 28,7 12,1 24,2 36,2 33,0 63,-5 88,-16 26,-11 47,-26 64,-46 18,-19 31,-43 39,-71 9,-28 13,-59 13,-92 0,-72 -19,-127 -56,-167l0 0zm-538 270c-15,25 -36,37 -66,37 -29,0 -51,-12 -65,-37 -15,-24 -22,-59 -22,-102 0,-44 7,-79 22,-104 14,-24 36,-37 65,-37 30,0 51,13 66,37 15,25 22,60 22,104 0,43 -7,78 -22,102l0 0zm119 -192c-8,-28 -21,-52 -38,-72 -17,-21 -37,-37 -62,-48 -25,-12 -53,-18 -85,-18 -32,0 -60,6 -85,18 -24,11 -45,27 -62,48 -16,20 -29,44 -38,72 -8,28 -13,58 -13,90 0,33 5,63 13,91 9,28 22,53 38,73 17,20 38,36 62,48 25,11 53,17 85,17 32,0 60,-6 85,-17 25,-12 45,-28 62,-48 17,-20 30,-45 38,-73 9,-28 13,-58 13,-91 0,-32 -4,-62 -13,-90l0 0z"/>
  <path class="fil2" d="M5509 1408c2,-41 11,-72 29,-93 19,-21 42,-31 72,-31 26,0 46,8 61,24 15,17 22,42 22,75l-184 25 0 0zm279 -87c-8,-24 -20,-45 -36,-63 -16,-18 -36,-31 -59,-41 -24,-9 -51,-14 -81,-14 -32,0 -61,6 -86,17 -25,11 -46,27 -64,47 -17,20 -31,44 -40,72 -9,28 -14,59 -14,93 0,33 5,64 15,93 9,28 23,52 42,73 19,20 42,36 69,47 28,11 60,16 96,16 32,0 62,-3 91,-8 29,-6 53,-14 71,-23l-32 -83c-15,8 -34,14 -56,20 -22,5 -44,7 -66,7 -33,0 -60,-8 -81,-23 -22,-16 -35,-40 -40,-73l282 -38c1,-7 2,-13 2,-19l0 -19c0,-29 -4,-57 -13,-81l0 0zm-457 227c-17,13 -39,20 -65,20 -13,0 -26,-3 -38,-9 -12,-5 -22,-14 -31,-25 -9,-12 -16,-26 -21,-43 -5,-17 -8,-37 -8,-60 0,-46 10,-80 29,-103 19,-22 42,-34 69,-34 27,0 48,6 65,19l35 -80c-14,-9 -30,-16 -49,-22 -19,-5 -41,-8 -67,-8 -26,0 -50,5 -74,14 -24,9 -45,23 -63,42 -18,18 -33,42 -43,71 -11,29 -17,63 -17,102 0,39 6,73 17,102 10,28 25,52 43,71 18,19 39,33 63,43 24,9 48,13 74,13 26,0 48,-2 67,-8 19,-5 35,-12 49,-22l-35 -83 0 0zm-363 -335l-111 0 0 439 111 0 0 -439zm-11 -173c-12,-11 -27,-17 -45,-17 -17,0 -32,6 -44,17 -13,11 -19,26 -19,42 0,17 6,32 19,43 12,12 27,18 44,18 18,0 33,-6 45,-18 13,-11 19,-26 19,-43 0,-16 -6,-31 -19,-42l0 0zm-164 173l-125 0 -80 273c-3,9 -6,17 -8,26 -2,8 -4,15 -5,22 -2,9 -3,16 -4,23l-1 0c-2,-7 -4,-14 -5,-23 -2,-7 -4,-14 -5,-22 -2,-9 -4,-17 -7,-26l-80 -273 -126 0 159 439 129 0 158 -439 0 0zm-477 -6c-7,-1 -16,-2 -25,-3 -10,-1 -20,-1 -32,-1 -35,0 -69,3 -99,9 -30,6 -57,14 -80,23l0 417 111 0 0 -351c7,-2 15,-4 25,-6 10,-2 20,-2 30,-2 19,0 35,2 50,6l20 -92 0 0zm-611 201c1,-41 10,-72 29,-93 18,-21 42,-31 71,-31 26,0 46,8 61,24 15,17 23,42 23,75l-184 25 0 0zm279 -87c-9,-24 -21,-45 -37,-63 -16,-18 -36,-31 -59,-41 -23,-9 -50,-14 -81,-14 -32,0 -60,6 -86,17 -25,11 -46,27 -64,47 -17,20 -30,44 -39,72 -10,28 -14,59 -14,93 0,33 4,64 14,93 10,28 24,52 42,73 19,20 42,36 70,47 27,11 59,16 95,16 32,0 63,-3 92,-8 28,-6 52,-14 70,-23l-31 -83c-16,8 -35,14 -57,20 -21,5 -43,7 -66,7 -32,0 -59,-8 -81,-23 -22,-16 -35,-40 -40,-73l283 -38c1,-7 1,-13 1,-19l0 -19c0,-29 -4,-57 -12,-81l0 0zm-458 149c-8,-15 -18,-27 -31,-37 -12,-10 -26,-18 -41,-24 -15,-7 -30,-13 -45,-18 -19,-7 -35,-15 -48,-23 -12,-8 -19,-20 -19,-37 0,-13 6,-24 17,-33 10,-8 26,-13 45,-13 15,0 31,3 48,8 17,6 30,11 39,17l35 -75c-17,-9 -37,-17 -60,-23 -22,-6 -47,-9 -76,-9 -51,0 -91,12 -119,35 -28,24 -42,55 -42,94 0,22 4,40 12,55 8,15 18,27 30,37 12,9 26,18 40,24 15,7 29,12 44,17 19,7 35,15 48,23 13,9 19,21 19,37 0,15 -6,27 -18,35 -12,9 -28,13 -48,13 -8,0 -17,0 -26,-2 -10,-2 -19,-4 -29,-6 -9,-3 -18,-6 -27,-10 -8,-3 -15,-7 -20,-10l-36 85c16,8 37,16 62,22 25,6 52,9 79,9 60,0 104,-12 134,-37 30,-24 45,-57 45,-99 0,-22 -4,-40 -12,-55l0 0z"/>
  <path class="fil1" d="M6059 1059c-13,0 -24,-2 -34,-6 -10,-5 -17,-10 -22,-17 -5,-7 -8,-16 -10,-27 -1,-8 -2,-25 -2,-49l0 -116 -32 0 0 -55 32 0 0 -52 69 -41 0 93 48 0 0 55 -48 0 0 107c0,22 1,34 2,38 1,3 3,6 6,9 3,2 7,3 12,3 6,0 16,-2 28,-7l6 55c-16,6 -35,10 -55,10zm216 -181l0 -3c-1,-167 -137,-302 -303,-302 -168,0 -304,136 -304,304 0,167 136,303 304,303 166,0 302,-135 303,-302zm-359 -124l-69 0 0 -65 69 0 0 65zm0 298l-69 0 0 -263 69 0 0 263z"/>
  <path class="fil2 str0" d="M1958 903c-3,-10 -8,-18 -15,-26 -7,-7 -14,-12 -23,-16 -10,-4 -20,-6 -31,-6 -5,0 -10,1 -16,2 -6,1 -10,2 -14,4l0 -82 -43 0 0 241c7,4 16,7 26,9 11,2 22,4 34,4 28,0 49,-8 65,-23 15,-15 23,-39 23,-71 0,-13 -2,-25 -6,-36zm-49 82c-7,9 -18,14 -30,14 -4,0 -8,-1 -12,-1 -3,-1 -6,-2 -8,-3l0 -102c3,-1 6,-2 10,-3 4,-1 8,-2 12,-2 12,0 22,5 29,14 7,10 10,23 10,40 0,19 -4,33 -11,43zm230 -85c-4,-10 -8,-18 -14,-25 -7,-7 -14,-12 -24,-16 -9,-3 -19,-5 -31,-5 -12,0 -24,2 -33,6 -10,5 -19,11 -26,19 -6,7 -12,17 -15,28 -4,11 -5,23 -5,36 0,13 1,25 5,36 4,11 9,21 17,29 7,8 16,14 27,18 10,4 23,7 37,7 12,0 24,-2 36,-4 11,-2 20,-5 27,-9l-12 -32c-6,3 -14,6 -22,8 -9,2 -17,3 -26,3 -13,0 -23,-3 -32,-10 -8,-6 -13,-15 -15,-28l110 -15c0,-2 1,-5 1,-7l0 -7c0,-12 -2,-23 -5,-32zm-109 34c0,-16 4,-28 11,-37 7,-8 17,-12 28,-12 10,0 18,3 24,10 6,6 9,16 9,29l-72 10zm369 -27c-3,-10 -8,-20 -15,-28 -6,-8 -14,-14 -24,-19 -10,-4 -21,-6 -33,-6 -13,0 -24,2 -33,6 -10,5 -18,11 -25,19 -6,8 -11,18 -15,28 -3,12 -5,23 -5,36 0,13 2,25 5,36 4,11 9,20 15,28 7,8 15,14 25,19 9,4 20,7 33,7 12,0 23,-3 33,-7 10,-5 18,-11 24,-19 7,-8 12,-17 15,-28 4,-11 5,-23 5,-36 0,-13 -1,-24 -5,-36zm-46 76c-6,10 -15,14 -26,14 -12,0 -20,-4 -26,-14 -6,-10 -9,-23 -9,-40 0,-17 3,-31 9,-41 6,-9 14,-14 26,-14 11,0 20,5 26,14 5,10 8,24 8,41 0,17 -3,30 -8,40zm210 -106c-14,-16 -36,-23 -63,-23 -13,0 -25,1 -36,3 -12,3 -21,6 -27,9l0 231 43 0 0 -70c3,1 7,2 11,3 5,0 9,1 14,1 13,0 25,-2 35,-7 10,-4 18,-10 25,-18 7,-7 12,-17 15,-28 4,-10 5,-23 5,-36 0,-28 -7,-49 -22,-65zm-24 88c-1,6 -4,12 -7,17 -4,5 -8,9 -13,12 -6,2 -12,4 -18,4 -4,0 -8,-1 -12,-1 -4,-1 -7,-1 -9,-2l0 -104c2,-1 5,-2 9,-3 3,0 7,-1 11,-1 14,0 24,5 31,15 7,10 11,23 11,40 0,8 -1,16 -3,23zm221 -65c-3,-10 -8,-18 -14,-25 -6,-7 -14,-12 -23,-16 -9,-3 -20,-5 -32,-5 -12,0 -23,2 -33,6 -10,5 -18,11 -25,19 -7,7 -12,17 -16,28 -3,11 -5,23 -5,36 0,13 2,25 6,36 3,11 9,21 16,29 8,8 16,14 27,18 11,4 23,7 37,7 13,0 25,-2 36,-4 11,-2 20,-5 28,-9l-13 -32c-6,3 -13,6 -22,8 -8,2 -17,3 -25,3 -13,0 -24,-3 -32,-10 -9,-6 -14,-15 -16,-28l111 -15c0,-2 0,-5 0,-7l0 -7c0,-12 -1,-23 -5,-32zm-109 34c1,-16 5,-28 12,-37 7,-8 16,-12 27,-12 11,0 19,3 25,10 5,6 8,16 8,29l-72 10zm290 95l0 -117c0,-19 -6,-33 -18,-43 -12,-10 -31,-15 -57,-15 -14,0 -26,1 -38,3 -11,2 -21,6 -30,9l0 163 43 0 0 -136c3,-1 7,-2 12,-3 4,-1 9,-2 14,-2 10,0 17,3 22,8 6,4 8,11 8,20l0 113 44 0z"/>
 </g>
</svg>
