<svg xmlns="http://www.w3.org/2000/svg" xmlns:xlink="http://www.w3.org/1999/xlink" width="55" height="53" viewBox="0 0 55 53"><defs><path id="73aia" d="M1200.54 889.2c3.95-.27 6.82-2.1 6.82-4.49v-1.83c4.01.84 16.66 4.12 17.51 12h-24.33zm-6.83-4.48v-3.61c1.73.8 3.62 1.2 5.52 1.17h.52c1.91.04 3.8-.36 5.53-1.17v3.61c0 1-2.26 2.43-5.79 2.43-3.52 0-5.78-1.43-5.78-2.43zm4.74 10.12h-24.33c.82-7.86 13.53-11.15 17.5-12v1.88c0 2.38 2.88 4.19 6.83 4.5zm4.17-19.89a.93.93 0 0 1-1.85 0c0-.51.4-.93.92-.93.51 0 .93.42.93.93zm-13.46-6h.04c0-.25-.1-.5-.26-.7-1.43-1.64-2.08-3.14-1.9-4.37.08-.69.42-1.32.94-1.77 1.38 0 6.25-.26 9.37-2.97a23.37 23.37 0 0 0 11.55 3.14c.7 0 1.41 0 2.15-.12.5.44.84 1.05.94 1.72.17 1.21-.48 2.73-1.9 4.37-.18.2-.27.45-.27.7v.55l-6.06 3.27a2.99 2.99 0 0 0-4.24.11 3.03 3.03 0 0 0 .12 4.26 2.99 2.99 0 0 0 5.06-2.19v-.28l4.78-2.57a11.54 11.54 0 0 1-2.8 5.52 9.25 9.25 0 0 1-6.9 2.6h-.51a9.27 9.27 0 0 1-6.9-2.59c-3.28-3.3-3.21-8.63-3.21-8.68zm21.14-8.79c-4.37.26-8.7-.84-12.44-3.14-.42-.3-1-.24-1.35.14-2.08 2.25-5.88 2.77-7.72 2.89.57-7.4 5.02-9.02 8.77-9.02.6 0 1.2.05 1.78.15.14.03.28.03.41 0 .6-.1 1.19-.15 1.78-.15 3.72 0 8.2 1.66 8.72 9.12zm-23.68 8.59a4.52 4.52 0 0 1-2.2-1.63l.04.01c-1.04-1.52-1.13-3.84-.2-6.9l.75-.5c.32-.22.5-.6.46-.98-.17-3.13.84-6.2 2.83-8.62 2.36-2.68 6.14-4.02 11.2-4.04 5.05-.02 8.83 1.36 11.23 4.04 2 2.41 3 5.5 2.83 8.62-.04.38.14.76.46.97l.76.52c.92 3.04.86 5.37-.21 6.9a4.54 4.54 0 0 1-2.22 1.62 7 7 0 0 0 1.7-5.24 4.9 4.9 0 0 0-1.68-2.93c-.45-10.47-7.74-11.64-10.89-11.64-.66 0-1.33.05-1.99.15-.65-.1-1.32-.15-1.98-.15-3.13 0-10.41 1.15-10.9 11.64a4.9 4.9 0 0 0-1.69 2.92c-.17 1.9.44 3.8 1.7 5.24zm20.74 11.03a10 10 0 0 0 .78-.71c2-2.22 3.26-5 3.6-7.98a6.99 6.99 0 0 0 4.52-2.7c1.51-2.15 1.65-5.23.39-9.1a1.05 1.05 0 0 0-.42-.55l-.57-.39c.08-3.5-1.12-6.9-3.37-9.56-2.8-3.17-7.1-4.77-12.8-4.79-5.68 0-9.99 1.62-12.79 4.75a14.24 14.24 0 0 0-3.37 9.56l-.57.39c-.2.13-.35.32-.42.54-1.26 3.9-1.12 6.96.38 9.1a7 7 0 0 0 4.52 2.74c.35 2.98 1.6 5.77 3.61 7.99.25.25.51.49.79.71v.96c-4 .78-19.9 4.54-19.64 15.21 0 .58.47 1.05 1.04 1.05h52.92c.57 0 1.04-.47 1.04-1.05.27-10.67-15.65-14.43-19.64-15.2z"/><linearGradient id="73aib" x1="1199.5" x2="1199.5" y1="844" y2="897" gradientUnits="userSpaceOnUse"><stop offset="0" stop-color="#5077e7"/><stop offset="1" stop-color="#a776dd"/></linearGradient></defs><g><g transform="translate(-1172 -844)"><g><g><use fill="url(#73aib)" xlink:href="#73aia"/></g></g></g></g></svg>