<svg xmlns="http://www.w3.org/2000/svg" xmlns:xlink="http://www.w3.org/1999/xlink" width="46" height="53" viewBox="0 0 46 53"><defs><path id="r5h2a" d="M413.93 1287.87h-12.26v-3.07h7.66a1.53 1.53 0 0 0 0-3.07h-7.66v-3.06h7.66a1.53 1.53 0 0 0 0-3.07h-7.66v-3.07h7.66a1.53 1.53 0 0 0 0-3.06h-7.66v-3.07h7.66a1.53 1.53 0 0 0 0-3.07h-7.66v-4.6-.03a1.53 1.53 0 0 0-.6-1.17s0-.02-.02-.02l-8.58-6.44h21.46zm-15.33 9.4h-24.53v-37h24.53zm-9.2-44.67l6.13 4.6h-6.13zm26.07-4.6h-27.6a1.53 1.53 0 0 0-1.53 1.5v7.7h-13.8c-.85 0-1.54.69-1.54 1.53v40.07c0 .85.69 1.54 1.53 1.54h27.6c.85 0 1.54-.69 1.54-1.54v-7.87h13.8c.84 0 1.53-.68 1.53-1.53v-39.87c0-.84-.69-1.53-1.53-1.53z"/><path id="r5h2c" d="M383.27 1272.53a3.07 3.07 0 0 1 6.13 0zm10.73 0h-1.53a6.14 6.14 0 0 0-4.6-5.94v-1.72a1.53 1.53 0 0 0-3.07 0v1.72a6.14 6.14 0 0 0-4.6 5.94h-1.53a1.53 1.53 0 0 0 0 3.07H394a1.53 1.53 0 0 0 0-3.07z"/><path id="r5h2e" d="M394 1281.73h-15.33a1.53 1.53 0 0 0 0 3.07H394a1.53 1.53 0 0 0 0-3.07z"/><path id="r5h2g" d="M394 1287.87h-15.33a1.53 1.53 0 0 0 0 3.06H394a1.53 1.53 0 0 0 0-3.06z"/><linearGradient id="r5h2b" x1="394" x2="394" y1="1248" y2="1300.34" gradientUnits="userSpaceOnUse"><stop offset="0" stop-color="#5077e7"/><stop offset="1" stop-color="#a776dd"/></linearGradient><linearGradient id="r5h2d" x1="386.33" x2="386.33" y1="1263.33" y2="1275.6" gradientUnits="userSpaceOnUse"><stop offset="0" stop-color="#5077e7"/><stop offset="1" stop-color="#a776dd"/></linearGradient><linearGradient id="r5h2f" x1="386.33" x2="386.33" y1="1281.73" y2="1284.8" gradientUnits="userSpaceOnUse"><stop offset="0" stop-color="#5077e7"/><stop offset="1" stop-color="#a776dd"/></linearGradient><linearGradient id="r5h2h" x1="386.33" x2="386.33" y1="1287.87" y2="1290.94" gradientUnits="userSpaceOnUse"><stop offset="0" stop-color="#5077e7"/><stop offset="1" stop-color="#a776dd"/></linearGradient></defs><g><g transform="translate(-371 -1248)"><g><g><g><use fill="url(#r5h2b)" xlink:href="#r5h2a"/></g></g></g><g><g><g><use fill="url(#r5h2d)" xlink:href="#r5h2c"/></g></g></g><g><g><g><use fill="url(#r5h2f)" xlink:href="#r5h2e"/></g></g></g><g><g><g><use fill="url(#r5h2h)" xlink:href="#r5h2g"/></g></g></g></g></g></svg>