<svg xmlns="http://www.w3.org/2000/svg" width="90" height="90" viewBox="0 0 90 90"><defs><linearGradient id="2fsya" x1="45" x2="45" y1="90" y2="0" gradientUnits="userSpaceOnUse"><stop offset="0" stop-color="#a776dd"/><stop offset="1" stop-color="#5077e7"/></linearGradient></defs><g><g><path fill="url(#2fsya)" d="M81.29 26.129v14.632c4.915.709 8.71 4.937 8.71 10.045 0 5.604-4.56 10.162-10.161 10.162-.3 0-.596-.02-.889-.045l-2.224 9.448c1.841.974 3.113 2.889 3.113 5.113a5.812 5.812 0 0 1-5.807 5.806 5.812 5.812 0 0 1-5.806-5.806c0-.726.15-1.414.393-2.054l-4.228-2.996-1.349 2.697c1.352.739 2.28 2.158 2.28 3.804V90H27.582V76.935c0-1.527.792-2.867 1.984-3.643l-4.597-6.13-.03-.045-11.631 11.629a7.208 7.208 0 0 1 1.209 3.996c0 4.002-3.256 7.258-7.258 7.258C3.256 90 0 86.744 0 82.742c0-4.002 3.256-7.258 7.258-7.258 1.476 0 2.848.448 3.995 1.209l12.141-12.14a16.063 16.063 0 0 1-1.62-6.972v-5.323H8.71V26.129H0V-.001h90v26.13zM11.613 82.742a4.36 4.36 0 0 0-4.355-4.355 4.36 4.36 0 0 0-4.355 4.355 4.36 4.36 0 0 0 4.355 4.355 4.36 4.36 0 0 0 4.355-4.355zM8.71 23.226V11.613H5.806V8.71h78.388v2.903H81.29v11.613h5.807V2.903H2.903v20.323zm69.677 8.856a7.281 7.281 0 0 0-5.66 5.66h5.66zm0 17.273v-2.903h-45v2.903zM26.129 33.387c2.969 0 5.519 1.796 6.643 4.355h3.075c-4.113-2.892-6.815-7.665-6.815-13.065 0-5.4 2.702-10.173 6.815-13.064h-15.64a10.168 10.168 0 0 1-8.594 8.593v8.942c4.44.64 7.953 4.153 8.593 8.594h1.568a4.36 4.36 0 0 1 4.355-4.355zM11.613 11.613v5.66a7.281 7.281 0 0 0 5.66-5.66zm0 26.129h5.66a7.281 7.281 0 0 0-5.66-5.66zm0 5.806h10.161v-2.903H11.613zm20.322-18.87c0 7.202 5.86 13.064 13.065 13.064 7.204 0 13.064-5.862 13.064-13.065 0-7.203-5.86-13.064-13.064-13.064s-13.065 5.861-13.065 13.064zm46.452 15.967h-45v2.903h45zm0-20.439a10.168 10.168 0 0 1-8.593-8.593H54.152c4.114 2.891 6.816 7.664 6.816 13.064s-2.702 10.173-6.816 13.065h15.642a10.168 10.168 0 0 1 8.593-8.594zm0-8.593h-5.66a7.281 7.281 0 0 0 5.66 5.66zM21.774 49.355v-2.903H11.613v2.903zm5.516 16.063l5.371 7.162h27.41l3.873-7.745a13.123 13.123 0 0 0 1.379-5.843v-6.734H36.116a7.23 7.23 0 0 1 1.626 4.56v2.698h-2.903v-2.699c0-1.46-.725-2.814-1.94-3.624l-2.415-1.61V40.645a4.36 4.36 0 0 0-4.355-4.355c-.801 0-1.452.652-1.452 1.452V57.58c0 2.807.93 5.592 2.613 7.837zm35.13 11.517c0-.8-.651-1.451-1.452-1.451H31.935c-.8 0-1.451.652-1.451 1.451v10.162h31.935zm14.515-1.451a2.906 2.906 0 0 0-2.903-2.904 2.906 2.906 0 0 0-2.903 2.904 2.906 2.906 0 0 0 2.903 2.903 2.906 2.906 0 0 0 2.903-2.903zm-.811-15.23a10.18 10.18 0 0 1-6.33-7.996h-1.568v6.735c0 2.465-.582 4.934-1.686 7.14l-.836 1.673 4.603 3.26a5.746 5.746 0 0 1 3.596-1.376zm5.166-16.56v8.564h-8.563c.675 3.308 3.608 5.806 7.112 5.806 4.002 0 7.258-3.256 7.258-7.258 0-3.504-2.498-6.436-5.807-7.111zM42.538 28.09v1.2h4.6v1.777h-4.6v1.927h-3.471v-1.927H37V29.29h2.066V18.004h6.452c3.983 0 6.474 1.692 6.474 5.054 0 3.34-2.491 5.032-6.474 5.032zm2.96-7.26h-2.96v4.54h2.96c1.917 0 3.003-.813 3.003-2.29 0-1.457-1.086-2.25-3.003-2.25z"/></g></g></svg>