<svg xmlns="http://www.w3.org/2000/svg" xmlns:xlink="http://www.w3.org/1999/xlink" width="60" height="38" viewBox="0 0 60 38"><defs><path id="9j1za" d="M466 866h-23.14a15.07 15.07 0 0 0-13.55 8.57l-3.5 7.38A5.33 5.33 0 0 1 421 885a1 1 0 0 0-1 1v5c0 .5.37.92.86.99l12.8 1.83c.2.03.34.2.34.39V903a1 1 0 0 0 1 1h4a1 1 0 0 0 .98-.8l1.64-8.21c.04-.22.26-.36.56-.28A27.05 27.05 0 0 0 453 897c10.3 0 14.53-4.12 14.7-4.3l-1.4-1.41c-.04.04-3.91 3.71-13.3 3.71a25.02 25.02 0 0 1-10.02-2.13 2.4 2.4 0 0 0-3.32 1.72l-1.48 7.41H436v-7.8c0-1.17-.89-2.2-2.06-2.36l-11.94-1.7v-3.2a7.34 7.34 0 0 0 5.61-4.14l3.5-7.37a13.06 13.06 0 0 1 11.75-7.43H466c6.62 0 12 5.38 12 12h2c0-7.72-6.28-14-14-14z"/><path id="9j1zc" d="M432.31 870.73l1.38-1.45a8.36 8.36 0 0 0-5.3-2.28H424a1 1 0 0 0-1 1c0 2.43.4 5.4 3.57 6.9l.13.06 3.21 1 .6-1.91-3.14-.98c-1.49-.73-2.19-1.91-2.34-4.07h3.3c1.49.09 2.9.7 3.98 1.73z"/><path id="9j1ze" d="M431 885v-2h2v2z"/><path id="9j1zg" d="M445 875.56c-2.09 2-6.18 2.36-8.52.85l2.35-2.39c1.29-1.28 3-2 4.81-2.02l-.02-2a8.88 8.88 0 0 0-6.2 2.6l-3.13 3.19a1 1 0 0 0 .02 1.43c.2.19.4.37.63.54a8.35 8.35 0 0 0 5.1 1.58 9.3 9.3 0 0 0 6.34-2.34z"/><path id="9j1zi" d="M478 880a1 1 0 0 1-2 0v-2a3 3 0 0 0-6 0v1h2v-1a1 1 0 0 1 2 0v2a3 3 0 0 0 6 0z"/><path id="9j1zk" d="M478.83 888a25.6 25.6 0 0 0 1.17-7.46V880h-2v.53a23.68 23.68 0 0 1-1.08 6.9 10.97 10.97 0 0 0 .89 8.51l-4.33 6.06h-2.76l3.15-5.5a1 1 0 0 0-.16-1.2l-.8-.8a20.81 20.81 0 0 0-4.43-3.27 6.5 6.5 0 0 1-3.48-5.3l-2 .14a8.48 8.48 0 0 0 4.54 6.93c1.45.8 2.79 1.78 3.97 2.93l.24.24-2.77 4.85a2 2 0 0 0 1.74 2.98H474a1 1 0 0 0 .81-.42l5-7a1 1 0 0 0 .03-1.12 8.97 8.97 0 0 1-1-7.45z"/><linearGradient id="9j1zb" x1="450" x2="450" y1="866" y2="904" gradientUnits="userSpaceOnUse"><stop offset="0" stop-color="#5077e7"/><stop offset="1" stop-color="#a776dd"/></linearGradient><linearGradient id="9j1zd" x1="428.35" x2="428.35" y1="867" y2="875.96" gradientUnits="userSpaceOnUse"><stop offset="0" stop-color="#5077e7"/><stop offset="1" stop-color="#a776dd"/></linearGradient><linearGradient id="9j1zf" x1="432" x2="432" y1="883" y2="885" gradientUnits="userSpaceOnUse"><stop offset="0" stop-color="#5077e7"/><stop offset="1" stop-color="#a776dd"/></linearGradient><linearGradient id="9j1zh" x1="440.19" x2="440.19" y1="870" y2="879.34" gradientUnits="userSpaceOnUse"><stop offset="0" stop-color="#5077e7"/><stop offset="1" stop-color="#a776dd"/></linearGradient><linearGradient id="9j1zj" x1="475" x2="475" y1="875" y2="883" gradientUnits="userSpaceOnUse"><stop offset="0" stop-color="#5077e7"/><stop offset="1" stop-color="#a776dd"/></linearGradient><linearGradient id="9j1zl" x1="471.5" x2="471.5" y1="880" y2="904" gradientUnits="userSpaceOnUse"><stop offset="0" stop-color="#5077e7"/><stop offset="1" stop-color="#a776dd"/></linearGradient></defs><g><g transform="translate(-420 -866)"><g><g><g><use fill="url(#9j1zb)" xlink:href="#9j1za"/></g></g></g><g><g><g><use fill="url(#9j1zd)" xlink:href="#9j1zc"/></g></g></g><g><g><g><use fill="url(#9j1zf)" xlink:href="#9j1ze"/></g></g></g><g><g><g><use fill="url(#9j1zh)" xlink:href="#9j1zg"/></g></g></g><g><g><g><use fill="url(#9j1zj)" xlink:href="#9j1zi"/></g></g></g><g><g><g><use fill="url(#9j1zl)" xlink:href="#9j1zk"/></g></g></g></g></g></svg>