<svg xmlns="http://www.w3.org/2000/svg" xmlns:xlink="http://www.w3.org/1999/xlink" width="38" height="40" viewBox="0 0 38 40"><defs><path id="7chaa" d="M1258.77 1139.99l-27.5 15.17c-.82.46-1.8.45-2.62-.03a2.23 2.23 0 0 1-1.15-1.95v-30.36c0-.8.42-1.51 1.15-1.95a2.64 2.64 0 0 1 2.62-.04l27.5 15.19a2.26 2.26 0 0 1 1.22 1.98c0 .82-.45 1.56-1.22 1.99zm1.21-6.16l-27.5-15.18a5.1 5.1 0 0 0-5.1.07 4.74 4.74 0 0 0-2.38 4.1v30.36c0 1.69.9 3.22 2.38 4.1a5.12 5.12 0 0 0 5.1.07l27.5-15.18a4.73 4.73 0 0 0 0-8.34z"/><path id="7chac" d="M1254.35 1143.4l-26.1-24.07a1.25 1.25 0 1 0-1.7 1.84l26.1 24.07a1.24 1.24 0 0 0 1.77-.07c.47-.5.44-1.3-.07-1.76z"/><path id="7chae" d="M1252.96 1130.02a1.25 1.25 0 0 0-1.77 0l-24.74 24.74a1.25 1.25 0 0 0 1.77 1.77l24.74-24.74c.49-.49.49-1.28 0-1.77z"/><linearGradient id="7chab" x1="1243.75" x2="1243.75" y1="1118" y2="1158" gradientUnits="userSpaceOnUse"><stop offset="0" stop-color="#5077e7"/><stop offset="1" stop-color="#a776dd"/></linearGradient><linearGradient id="7chad" x1="1240.46" x2="1240.46" y1="1119.01" y2="1145.58" gradientUnits="userSpaceOnUse"><stop offset="0" stop-color="#5077e7"/><stop offset="1" stop-color="#a776dd"/></linearGradient><linearGradient id="7chaf" x1="1239.7" x2="1239.7" y1="1129.66" y2="1156.9" gradientUnits="userSpaceOnUse"><stop offset="0" stop-color="#5077e7"/><stop offset="1" stop-color="#a776dd"/></linearGradient></defs><g><g transform="translate(-1225 -1118)"><g><g><g><use fill="url(#7chab)" xlink:href="#7chaa"/></g></g></g><g><g><g><use fill="url(#7chad)" xlink:href="#7chac"/></g></g></g><g><g><g><use fill="url(#7chaf)" xlink:href="#7chae"/></g></g></g></g></g></svg>