<?xml version="1.0" standalone="no"?>
<!DOCTYPE svg PUBLIC "-//W3C//DTD SVG 1.1//EN" "http://www.w3.org/Graphics/SVG/1.1/DTD/svg11.dtd">
<!--Generator: Xara Designer (www.xara.com), SVG filter version: 6.5.0.22-->
<svg fill="none" fill-rule="evenodd" stroke="black" stroke-width="0.501" stroke-linejoin="bevel" stroke-miterlimit="10" font-family="Times New Roman" font-size="16" style="font-variant-ligatures:none" xmlns:xlink="http://www.w3.org/1999/xlink" xmlns="http://www.w3.org/2000/svg" version="1.1" overflow="visible" width="45.006pt" height="45.002pt" viewBox="923.458 -3198.73 45.006 45.002">
 <defs>
	</defs>
 <g id="Layer 1" transform="scale(1 -1)">
  <path d="M 967.805,3155.05 L 966.907,3155.05 L 966.907,3180.38 C 966.907,3180.74 966.612,3181.04 966.249,3181.04 C 965.885,3181.04 965.59,3180.74 965.59,3180.38 L 965.59,3155.05 L 958.095,3155.05 L 958.095,3186.98 L 965.59,3186.98 L 965.59,3183.18 C 965.59,3182.82 965.885,3182.53 966.249,3182.53 C 966.612,3182.53 966.907,3182.82 966.907,3183.18 L 966.907,3187.02 C 966.907,3187.73 966.333,3188.3 965.628,3188.3 L 958.056,3188.3 C 957.351,3188.3 956.777,3187.73 956.777,3187.02 L 956.777,3184.4 L 954.753,3184.4 C 954.824,3184.54 954.893,3184.68 954.958,3184.82 C 956.049,3187.21 956.147,3189.87 955.233,3192.33 C 954.319,3194.79 952.503,3196.74 950.119,3197.84 C 947.735,3198.93 945.068,3199.03 942.61,3198.11 C 940.611,3197.37 938.944,3196.03 937.79,3194.24 C 936.674,3192.52 936.119,3190.44 936.226,3188.4 C 936.244,3188.05 936.533,3187.78 936.883,3187.78 C 936.895,3187.78 936.907,3187.78 936.92,3187.78 C 937.277,3187.78 937.565,3188.08 937.565,3188.43 C 937.565,3188.5 937.554,3188.57 937.534,3188.63 C 937.479,3190.35 937.96,3192.08 938.896,3193.53 C 939.895,3195.08 941.338,3196.23 943.069,3196.88 C 945.197,3197.67 947.506,3197.58 949.57,3196.64 C 951.635,3195.69 953.207,3194 953.999,3191.87 C 954.79,3189.74 954.705,3187.43 953.76,3185.37 C 952.815,3183.31 951.122,3181.73 948.994,3180.94 C 947.663,3180.45 946.22,3180.29 944.823,3180.49 C 944.463,3180.55 944.129,3180.3 944.077,3179.94 C 944.025,3179.58 944.275,3179.24 944.635,3179.19 C 945.095,3179.12 945.559,3179.09 946.023,3179.09 C 946.674,3179.09 947.325,3179.16 947.965,3179.29 L 947.965,3177.53 L 941.305,3177.53 C 940.6,3177.53 940.026,3176.95 940.026,3176.25 L 940.026,3172.32 L 936.693,3172.32 L 938.096,3176.22 C 938.299,3176.78 938.214,3177.41 937.869,3177.9 C 937.525,3178.39 936.961,3178.68 936.362,3178.68 L 935.493,3178.68 L 936.408,3179.72 L 941.224,3179.72 C 942.326,3179.72 943.222,3180.61 943.222,3181.71 C 943.222,3182.82 942.326,3183.71 941.224,3183.71 L 939.178,3183.71 C 939.204,3183.85 939.219,3184 939.219,3184.15 C 939.219,3185.42 938.182,3186.46 936.906,3186.46 C 935.86,3186.46 934.974,3185.76 934.689,3184.8 L 934.424,3184.8 C 933.701,3184.8 933,3184.5 932.501,3183.98 L 930.106,3181.46 C 929.164,3180.47 928.645,3179.17 928.645,3177.8 L 928.645,3175.85 L 925.12,3167.62 C 924.989,3167.31 925.02,3166.97 925.203,3166.69 C 925.31,3166.53 925.461,3166.4 925.634,3166.33 C 925.634,3166.31 925.632,3166.3 925.632,3166.28 L 925.632,3155.05 L 924.117,3155.05 C 923.753,3155.05 923.458,3154.75 923.458,3154.39 C 923.458,3154.03 923.753,3153.73 924.117,3153.73 L 967.805,3153.73 C 968.169,3153.73 968.464,3154.03 968.464,3154.39 C 968.464,3154.75 968.169,3155.05 967.805,3155.05 Z M 948.838,3176.21 L 948.838,3172.42 C 948.838,3172.05 949.133,3171.76 949.497,3171.76 C 949.861,3171.76 950.156,3172.05 950.156,3172.42 L 950.156,3176.25 C 950.156,3176.81 949.789,3177.29 949.282,3177.46 L 949.282,3179.65 C 949.339,3179.67 949.397,3179.69 949.453,3179.71 C 951.273,3180.39 952.816,3181.56 953.938,3183.09 L 956.777,3183.09 L 956.777,3155.05 L 950.156,3155.05 L 950.156,3169.61 C 950.156,3169.98 949.861,3170.27 949.497,3170.27 C 949.133,3170.27 948.839,3169.98 948.839,3169.61 L 948.839,3155.05 L 942.586,3155.05 L 942.586,3171.04 C 942.586,3171.73 942.031,3172.3 941.343,3172.32 L 941.343,3176.21 Z M 936.906,3185.14 C 937.455,3185.14 937.902,3184.7 937.902,3184.15 C 937.902,3183.6 937.455,3183.15 936.906,3183.15 C 936.357,3183.15 935.911,3183.6 935.911,3184.15 C 935.911,3184.7 936.357,3185.14 936.906,3185.14 Z M 929.909,3175.45 C 929.944,3175.53 929.962,3175.62 929.962,3175.71 L 929.962,3177.8 C 929.962,3178.83 930.352,3179.81 931.061,3180.55 L 933.456,3183.07 C 933.707,3183.34 934.06,3183.49 934.424,3183.49 L 934.689,3183.49 C 934.974,3182.53 935.86,3181.83 936.906,3181.83 C 937.483,3181.83 938.01,3182.05 938.415,3182.4 L 941.224,3182.4 C 941.599,3182.4 941.905,3182.09 941.905,3181.71 C 941.905,3181.34 941.6,3181.03 941.224,3181.03 L 936.376,3181.03 C 936.02,3181.03 935.68,3180.88 935.444,3180.61 L 934.061,3179.06 C 933.796,3178.76 933.731,3178.33 933.894,3177.97 C 934.058,3177.6 934.421,3177.37 934.82,3177.37 L 936.362,3177.37 C 936.535,3177.37 936.692,3177.29 936.792,3177.14 C 936.892,3177 936.915,3176.83 936.856,3176.66 L 935.294,3172.32 L 934.351,3172.32 L 935.092,3174.69 C 935.201,3175.04 935.137,3175.42 934.921,3175.71 C 934.705,3176.01 934.359,3176.18 933.994,3176.18 L 932.666,3176.18 C 932.225,3176.18 931.83,3175.94 931.635,3175.54 L 927.687,3167.56 L 926.911,3167.56 L 926.528,3167.56 Z M 929.156,3167.56 L 932.769,3174.87 L 933.767,3174.87 L 932.96,3172.28 C 932.933,3172.2 932.92,3172.11 932.917,3172.02 C 932.636,3171.78 932.456,3171.43 932.456,3171.04 L 932.456,3167.56 Z M 926.949,3166.24 L 934.445,3166.24 L 934.445,3162.64 C 934.445,3162.28 934.739,3161.98 935.103,3161.98 C 935.467,3161.98 935.762,3162.28 935.762,3162.64 L 935.762,3166.28 C 935.762,3166.99 935.188,3167.56 934.483,3167.56 L 933.773,3167.56 L 933.773,3171 L 941.269,3171 L 941.269,3155.05 L 935.762,3155.05 L 935.762,3159.83 C 935.762,3160.2 935.467,3160.49 935.103,3160.49 C 934.739,3160.49 934.445,3160.2 934.445,3159.83 L 934.445,3155.05 L 926.949,3155.05 Z" stroke="none" fill="#2f7fe6" stroke-width="0.088" fill-rule="nonzero" stroke-linejoin="miter" marker-start="none" marker-end="none"/>
 </g>
</svg>
