<svg xmlns="http://www.w3.org/2000/svg" xmlns:xlink="http://www.w3.org/1999/xlink" width="55" height="36" viewBox="0 0 55 36"><defs><path id="c676a" d="M824.17 1137.3c0 .5-.41.9-.92.9h-49.5a.9.9 0 0 1-.92-.9v-30.6c0-.5.41-.9.92-.9h49.5c.5 0 .92.4.92.9zm-.92-33.3h-49.5a2.73 2.73 0 0 0-2.75 2.7v30.6c0 1.5 1.23 2.7 2.75 2.7h49.5c1.52 0 2.75-1.2 2.75-2.7v-30.6c0-1.5-1.23-2.7-2.75-2.7z"/><path id="c676c" d="M807.67 1125.6H776.5v-16.2h31.17zm.91-18h-33a.9.9 0 0 0-.91.9v18c0 .5.4.9.91.9h33c.51 0 .92-.4.92-.9v-18a.9.9 0 0 0-.92-.9z"/><path id="c676e" d="M820.5 1116.6h-7.33v-7.2h7.33zm.92-9h-9.17a.9.9 0 0 0-.92.9v9c0 .5.41.9.92.9h9.17c.5 0 .91-.4.91-.9v-9a.9.9 0 0 0-.91-.9z"/><path id="c676g" d="M820.5 1134.6h-7.33v-7.2h7.33zm.92-9h-9.17a.9.9 0 0 0-.92.9v9c0 .5.41.9.92.9h9.17c.5 0 .91-.4.91-.9v-9a.9.9 0 0 0-.91-.9z"/><path id="c676i" d="M792.08 1134.6c-1 0-1.83-.8-1.83-1.8s.82-1.8 1.83-1.8c1.02 0 1.84.8 1.84 1.8s-.82 1.8-1.84 1.8zm0-5.4a3.63 3.63 0 0 0-3.66 3.6c0 1.99 1.64 3.6 3.66 3.6a3.63 3.63 0 0 0 3.67-3.6c0-1.99-1.64-3.6-3.67-3.6z"/><path id="c676k" d="M801.25 1134.6c-1.01 0-1.83-.8-1.83-1.8s.82-1.8 1.83-1.8c1.01 0 1.83.8 1.83 1.8s-.82 1.8-1.83 1.8zm0-5.4a3.63 3.63 0 0 0-3.67 3.6c0 1.99 1.64 3.6 3.67 3.6a3.63 3.63 0 0 0 3.67-3.6c0-1.99-1.64-3.6-3.67-3.6z"/><path id="c676m" d="M782.92 1134.6c-1.02 0-1.84-.8-1.84-1.8s.82-1.8 1.84-1.8c1 0 1.83.8 1.83 1.8s-.82 1.8-1.83 1.8zm0-5.4a3.63 3.63 0 0 0-3.67 3.6c0 1.99 1.64 3.6 3.67 3.6a3.63 3.63 0 0 0 3.66-3.6c0-1.99-1.64-3.6-3.66-3.6z"/><path id="c676o" d="M778.33 1115.7v-1.8h8.25v1.8z"/><path id="c676q" d="M788.42 1115.7v-1.8h8.25v1.8z"/><path id="c676s" d="M798.5 1115.7v-1.8h7.33v1.8z"/><path id="c676u" d="M778.33 1118.4v-1.8h27.5v1.8z"/><path id="c676w" d="M778.33 1121.1v-1.8h12.84v1.8z"/><path id="c676y" d="M793 1121.1v-1.8h12.83v1.8z"/><path id="c676A" d="M816.83 1113.9a.9.9 0 0 1-.91-.9c0-.5.4-.9.91-.9s.92.4.92.9-.41.9-.92.9zm0-3.6a2.73 2.73 0 0 0-2.75 2.7c0 1.5 1.23 2.7 2.75 2.7s2.75-1.2 2.75-2.7c0-1.5-1.23-2.7-2.75-2.7z"/><path id="c676C" d="M816.83 1131.9a.9.9 0 0 1-.91-.9c0-.5.4-.9.91-.9s.92.4.92.9-.41.9-.92.9zm0-3.6a2.73 2.73 0 0 0-2.75 2.7c0 1.5 1.23 2.7 2.75 2.7s2.75-1.2 2.75-2.7c0-1.5-1.23-2.7-2.75-2.7z"/><path id="c676E" d="M811.33 1122.9v-1.8H815v1.8z"/><path id="c676G" d="M816.83 1122.9v-1.8h5.5v1.8z"/><linearGradient id="c676b" x1="798.5" x2="798.5" y1="1104" y2="1140" gradientUnits="userSpaceOnUse"><stop offset="0" stop-color="#5077e7"/><stop offset="1" stop-color="#a776dd"/></linearGradient><linearGradient id="c676d" x1="792.09" x2="792.09" y1="1107.6" y2="1127.4" gradientUnits="userSpaceOnUse"><stop offset="0" stop-color="#5077e7"/><stop offset="1" stop-color="#a776dd"/></linearGradient><linearGradient id="c676f" x1="816.83" x2="816.83" y1="1107.6" y2="1118.4" gradientUnits="userSpaceOnUse"><stop offset="0" stop-color="#5077e7"/><stop offset="1" stop-color="#a776dd"/></linearGradient><linearGradient id="c676h" x1="816.83" x2="816.83" y1="1125.6" y2="1136.4" gradientUnits="userSpaceOnUse"><stop offset="0" stop-color="#5077e7"/><stop offset="1" stop-color="#a776dd"/></linearGradient><linearGradient id="c676j" x1="792.09" x2="792.09" y1="1129.2" y2="1136.4" gradientUnits="userSpaceOnUse"><stop offset="0" stop-color="#5077e7"/><stop offset="1" stop-color="#a776dd"/></linearGradient><linearGradient id="c676l" x1="801.25" x2="801.25" y1="1129.2" y2="1136.4" gradientUnits="userSpaceOnUse"><stop offset="0" stop-color="#5077e7"/><stop offset="1" stop-color="#a776dd"/></linearGradient><linearGradient id="c676n" x1="782.92" x2="782.92" y1="1129.2" y2="1136.4" gradientUnits="userSpaceOnUse"><stop offset="0" stop-color="#5077e7"/><stop offset="1" stop-color="#a776dd"/></linearGradient><linearGradient id="c676p" x1="782.46" x2="782.46" y1="1113.9" y2="1115.7" gradientUnits="userSpaceOnUse"><stop offset="0" stop-color="#5077e7"/><stop offset="1" stop-color="#a776dd"/></linearGradient><linearGradient id="c676r" x1="792.55" x2="792.55" y1="1113.9" y2="1115.7" gradientUnits="userSpaceOnUse"><stop offset="0" stop-color="#5077e7"/><stop offset="1" stop-color="#a776dd"/></linearGradient><linearGradient id="c676t" x1="802.17" x2="802.17" y1="1113.9" y2="1115.7" gradientUnits="userSpaceOnUse"><stop offset="0" stop-color="#5077e7"/><stop offset="1" stop-color="#a776dd"/></linearGradient><linearGradient id="c676v" x1="792.08" x2="792.08" y1="1116.6" y2="1118.4" gradientUnits="userSpaceOnUse"><stop offset="0" stop-color="#5077e7"/><stop offset="1" stop-color="#a776dd"/></linearGradient><linearGradient id="c676x" x1="784.75" x2="784.75" y1="1119.3" y2="1121.1" gradientUnits="userSpaceOnUse"><stop offset="0" stop-color="#5077e7"/><stop offset="1" stop-color="#a776dd"/></linearGradient><linearGradient id="c676z" x1="799.42" x2="799.42" y1="1119.3" y2="1121.1" gradientUnits="userSpaceOnUse"><stop offset="0" stop-color="#5077e7"/><stop offset="1" stop-color="#a776dd"/></linearGradient><linearGradient id="c676B" x1="816.83" x2="816.83" y1="1110.3" y2="1115.7" gradientUnits="userSpaceOnUse"><stop offset="0" stop-color="#5077e7"/><stop offset="1" stop-color="#a776dd"/></linearGradient><linearGradient id="c676D" x1="816.83" x2="816.83" y1="1128.3" y2="1133.7" gradientUnits="userSpaceOnUse"><stop offset="0" stop-color="#5077e7"/><stop offset="1" stop-color="#a776dd"/></linearGradient><linearGradient id="c676F" x1="813.17" x2="813.17" y1="1121.1" y2="1122.9" gradientUnits="userSpaceOnUse"><stop offset="0" stop-color="#5077e7"/><stop offset="1" stop-color="#a776dd"/></linearGradient><linearGradient id="c676H" x1="819.58" x2="819.58" y1="1121.1" y2="1122.9" gradientUnits="userSpaceOnUse"><stop offset="0" stop-color="#5077e7"/><stop offset="1" stop-color="#a776dd"/></linearGradient></defs><g><g transform="translate(-771 -1104)"><g><g><g><use fill="url(#c676b)" xlink:href="#c676a"/></g></g></g><g><g><g><use fill="url(#c676d)" xlink:href="#c676c"/></g></g></g><g><g><g><use fill="url(#c676f)" xlink:href="#c676e"/></g></g></g><g><g><g><use fill="url(#c676h)" xlink:href="#c676g"/></g></g></g><g><g><g><use fill="url(#c676j)" xlink:href="#c676i"/></g></g></g><g><g><g><use fill="url(#c676l)" xlink:href="#c676k"/></g></g></g><g><g><g><use fill="url(#c676n)" xlink:href="#c676m"/></g></g></g><g><g><g><use fill="url(#c676p)" xlink:href="#c676o"/></g></g></g><g><g><g><use fill="url(#c676r)" xlink:href="#c676q"/></g></g></g><g><g><g><use fill="url(#c676t)" xlink:href="#c676s"/></g></g></g><g><g><g><use fill="url(#c676v)" xlink:href="#c676u"/></g></g></g><g><g><g><use fill="url(#c676x)" xlink:href="#c676w"/></g></g></g><g><g><g><use fill="url(#c676z)" xlink:href="#c676y"/></g></g></g><g><g><g><use fill="url(#c676B)" xlink:href="#c676A"/></g></g></g><g><g><g><use fill="url(#c676D)" xlink:href="#c676C"/></g></g></g><g><g><g><use fill="url(#c676F)" xlink:href="#c676E"/></g></g></g><g><g><g><use fill="url(#c676H)" xlink:href="#c676G"/></g></g></g></g></g></svg>