<svg xmlns="http://www.w3.org/2000/svg" xmlns:xlink="http://www.w3.org/1999/xlink" width="37" height="50" viewBox="0 0 37 50"><defs><path id="gvvka" d="M1288.55 1127.66a6.12 6.12 0 0 1-.73-12.18v5.86c0 .51.42.94.93.94h5.87a6.12 6.12 0 0 1-6.07 5.38zm.73-12.18c2.75.33 5 2.5 5.34 5.33h-5.34zm-.73-1.51a7.59 7.59 0 1 0 .02 15.17 7.59 7.59 0 0 0-.02-15.17z"/><path id="gvvkc" d="M1297.96 1131.15h-15.54a.73.73 0 1 0 0 1.47h15.54a.73.73 0 1 0 0-1.47z"/><path id="gvvke" d="M1297.96 1134.61h-15.54a.73.73 0 1 0 0 1.47h15.54a.73.73 0 1 0 0-1.47z"/><path id="gvvkg" d="M1297.96 1138.08h-15.54a.73.73 0 1 0 0 1.46h15.54a.73.73 0 1 0 0-1.46z"/><path id="gvvki" d="M1279.33 1131.17a.73.73 0 1 0 0 0z"/><path id="gvvkk" d="M1279.33 1134.63a.73.73 0 1 0 0 0z"/><path id="gvvkm" d="M1279.33 1138.09a.73.73 0 1 0-.15 1.45.73.73 0 0 0 .15-1.45z"/><path id="gvvko" d="M1281.05 1103c0-.23.2-.43.44-.43h14.11c.24 0 .44.2.44.44v2.31c0 .25-.2.45-.44.45h-14.1a.45.45 0 0 1-.45-.45zm6.34-3.54h2.31c.25 0 .45.2.45.45v1.2h-3.2v-1.2c0-.24.2-.45.44-.45zm6.47 9.08h-10.63v-1.3h10.63zm0 2.62c0 .08-.06.15-.15.15h-10.33a.15.15 0 0 1-.15-.15V1110h10.63zm12.5 14.72c-.4 0-.73.33-.73.73v18c0 1.06-.86 1.93-1.92 1.93h-30.33a1.92 1.92 0 0 1-1.92-1.92v-37.78c0-1.06.87-1.92 1.92-1.92h6.2V1105.33c0 1.05.86 1.9 1.91 1.9h.28v1.31h-6.59c-.68 0-1.24.56-1.24 1.24v33.02c0 .68.56 1.24 1.24 1.24h11.73a.73.73 0 1 0 0-1.46h-11.5V1110h6.36v1.16c0 .89.72 1.61 1.61 1.61h10.33c.9 0 1.62-.72 1.62-1.61V1110h6.36v32.57h-11.36a.73.73 0 1 0 0 1.47h11.59c.68 0 1.24-.56 1.24-1.24v-33.02c0-.68-.56-1.24-1.24-1.24h-6.6v-1.3h.28a1.9 1.9 0 0 0 1.9-1.91v-.41h6.21c1.06 0 1.92.86 1.92 1.92v16.35a.73.73 0 0 0 1.47 0v-16.35a3.39 3.39 0 0 0-3.39-3.39h-6.2v-.44a1.9 1.9 0 0 0-1.9-1.9h-4v-1.2c0-1.05-.85-1.91-1.9-1.91h-2.32c-1.05 0-1.9.86-1.9 1.91v1.2h-4a1.9 1.9 0 0 0-1.9 1.9v.44h-6.2a3.39 3.39 0 0 0-3.39 3.39v37.78a3.39 3.39 0 0 0 3.38 3.38h30.33a3.39 3.39 0 0 0 3.39-3.38v-18c0-.41-.33-.74-.73-.74z"/><linearGradient id="gvvkb" x1="1288.55" x2="1288.55" y1="1113.97" y2="1129.12" gradientUnits="userSpaceOnUse"><stop offset="0" stop-color="#5077e7"/><stop offset="1" stop-color="#a776dd"/></linearGradient><linearGradient id="gvvkd" x1="1290.2" x2="1290.2" y1="1131.15" y2="1132.61" gradientUnits="userSpaceOnUse"><stop offset="0" stop-color="#5077e7"/><stop offset="1" stop-color="#a776dd"/></linearGradient><linearGradient id="gvvkf" x1="1290.2" x2="1290.2" y1="1134.61" y2="1136.07" gradientUnits="userSpaceOnUse"><stop offset="0" stop-color="#5077e7"/><stop offset="1" stop-color="#a776dd"/></linearGradient><linearGradient id="gvvkh" x1="1290.2" x2="1290.2" y1="1138.08" y2="1139.54" gradientUnits="userSpaceOnUse"><stop offset="0" stop-color="#5077e7"/><stop offset="1" stop-color="#a776dd"/></linearGradient><linearGradient id="gvvkj" x1="1279.18" x2="1279.18" y1="1131.15" y2="1132.61" gradientUnits="userSpaceOnUse"><stop offset="0" stop-color="#5077e7"/><stop offset="1" stop-color="#a776dd"/></linearGradient><linearGradient id="gvvkl" x1="1279.18" x2="1279.18" y1="1134.61" y2="1136.07" gradientUnits="userSpaceOnUse"><stop offset="0" stop-color="#5077e7"/><stop offset="1" stop-color="#a776dd"/></linearGradient><linearGradient id="gvvkn" x1="1279.18" x2="1279.18" y1="1138.08" y2="1139.55" gradientUnits="userSpaceOnUse"><stop offset="0" stop-color="#5077e7"/><stop offset="1" stop-color="#a776dd"/></linearGradient><linearGradient id="gvvkp" x1="1288.55" x2="1288.55" y1="1098" y2="1148" gradientUnits="userSpaceOnUse"><stop offset="0" stop-color="#5077e7"/><stop offset="1" stop-color="#a776dd"/></linearGradient></defs><g><g transform="translate(-1270 -1098)"><g><g><g><use fill="url(#gvvkb)" xlink:href="#gvvka"/></g></g></g><g><g><g><use fill="url(#gvvkd)" xlink:href="#gvvkc"/></g></g></g><g><g><g><use fill="url(#gvvkf)" xlink:href="#gvvke"/></g></g></g><g><g><g><use fill="url(#gvvkh)" xlink:href="#gvvkg"/></g></g></g><g><g><g><use fill="url(#gvvkj)" xlink:href="#gvvki"/></g></g></g><g><g><g><use fill="url(#gvvkl)" xlink:href="#gvvkk"/></g></g></g><g><g><g><use fill="url(#gvvkn)" xlink:href="#gvvkm"/></g></g></g><g><g><g><use fill="url(#gvvkp)" xlink:href="#gvvko"/></g></g></g></g></g></svg>