<svg xmlns="http://www.w3.org/2000/svg" xmlns:xlink="http://www.w3.org/1999/xlink" width="60" height="60" viewBox="0 0 60 60"><defs><path id="duy0a" d="M1325 963.35a25.38 25.38 0 0 1-25.35-25.35 25.38 25.38 0 0 1 25.35-25.35 25.38 25.38 0 0 1 25.35 25.35 25.38 25.38 0 0 1-25.35 25.35zm0-55.35c-16.54 0-30 13.46-30 30s13.46 30 30 30 30-13.46 30-30-13.46-30-30-30z"/><path id="duy0c" d="M1338.76 927.57a2.32 2.32 0 0 0-3.28.15l-14.17 15.61-6.85-6.96a2.32 2.32 0 1 0-3.31 3.26l8.57 8.71c.44.45 1.03.7 1.65.7h.05a2.33 2.33 0 0 0 1.67-.76l15.83-17.43c.86-.95.8-2.42-.16-3.28z"/><linearGradient id="duy0b" x1="1325" x2="1325" y1="908" y2="968" gradientUnits="userSpaceOnUse"><stop offset="0" stop-color="#5077e7"/><stop offset="1" stop-color="#a776dd"/></linearGradient><linearGradient id="duy0d" x1="1325.01" x2="1325.01" y1="926.96" y2="949.04" gradientUnits="userSpaceOnUse"><stop offset="0" stop-color="#5077e7"/><stop offset="1" stop-color="#a776dd"/></linearGradient></defs><g><g transform="translate(-1295 -908)"><g><g><g><use fill="url(#duy0b)" xlink:href="#duy0a"/></g></g></g><g><g><g><use fill="url(#duy0d)" xlink:href="#duy0c"/></g></g></g></g></g></svg>