<svg xmlns="http://www.w3.org/2000/svg" width="90" height="90" viewBox="0 0 90 90"><defs><linearGradient id="jwf8a" x1="45" x2="45" y1="90" y2="0" gradientUnits="userSpaceOnUse"><stop offset="0" stop-color="#a776dd"/><stop offset="1" stop-color="#5077e7"/></linearGradient></defs><g><g><path fill="url(#jwf8a)" d="M87.049 61.039a18.742 18.742 0 0 1 2.95 10.09c0 4.288-1.477 8.486-4.16 11.823l-2.262-1.82a15.796 15.796 0 0 0 3.52-10.003c0-8.804-7.164-15.968-15.968-15.968S55.161 62.325 55.161 71.13s7.164 15.968 15.968 15.968c3.83 0 7.534-1.376 10.43-3.876l1.897 2.198a18.874 18.874 0 0 1-12.327 4.58c-3.71 0-7.165-1.09-10.086-2.947A44.805 44.805 0 0 1 45 90C20.188 90 0 69.814 0 45c0-9.658 3.02-18.832 8.71-26.584V0h8.71v5.806h5.502A44.867 44.867 0 0 1 45 0c24.812 0 45 20.188 45 45 0 5.529-.999 10.92-2.951 16.039zm-63.823-26.2h2.903V14.516h-2.903zm-5.807 0h2.904V8.709h-2.904zm-5.806 0h2.903V2.903h-2.903zm31.935 11.613H2.94C3.693 68.51 21.49 86.307 43.55 87.06zm0-43.498a41.917 41.917 0 0 0-20.322 6.034v2.625h5.806v5.806h5.807v5.807h5.806v14.516H8.71V23.709c-3.55 6.02-5.512 12.773-5.749 19.84h40.587zM31.935 34.839V20.323h-2.903v14.516zm5.807 0v-8.71h-2.903v8.71zm47.566-1.966L74.633 43.548H87.06a41.876 41.876 0 0 0-1.752-10.675zm-9.553-16.576l-27.25 27.251h8.958l3.93-3.93 2.053 2.053-1.877 1.877h8.959l13.726-13.726a42.03 42.03 0 0 0-2.919-6.04l-15.75 15.75-2.052-2.053 16.213-16.213a42.618 42.618 0 0 0-3.99-4.969zm-29.303-.93L57.127 4.69A41.88 41.88 0 0 0 46.452 2.94zm0 26.129l27.25-27.251a42.417 42.417 0 0 0-4.968-3.99l-2.802 2.8-2.052-2.052 2.338-2.338a41.738 41.738 0 0 0-6.04-2.92L46.452 19.472v8.96l15.588-15.59 2.053 2.053-17.641 17.641zm38.49 16.82a41.883 41.883 0 0 0 2.121-11.864H46.452v40.611a41.84 41.84 0 0 0 11.868-2.116c-3.718-3.45-6.062-8.359-6.062-13.818 0-10.405 8.466-18.871 18.871-18.871 5.457 0 10.365 2.341 13.814 6.057zM17.852 70.101l17.42-17.42 2.052 2.054-17.42 17.42zm19.89-1.876a4.36 4.36 0 0 1-4.354 4.354 4.36 4.36 0 0 1-4.355-4.354 4.36 4.36 0 0 1 4.355-4.355 4.36 4.36 0 0 1 4.355 4.355zm-2.902 0a1.453 1.453 0 0 0-2.903 0c0 .801.651 1.451 1.451 1.451s1.452-.65 1.452-1.451zm-8.71-11.613a4.36 4.36 0 0 1-4.355 4.355 4.36 4.36 0 0 1-4.355-4.355 4.36 4.36 0 0 1 4.355-4.355 4.36 4.36 0 0 1 4.355 4.355zm-2.903 0c0-.801-.652-1.452-1.452-1.452-.8 0-1.451.65-1.451 1.452 0 .801.651 1.451 1.451 1.451s1.452-.65 1.452-1.451zM68.96 74.216v1.344h5.184v1.992H68.96v2.16h-3.913v-2.16H62.72V75.56h2.328V62.91h7.273c4.488 0 7.297 1.897 7.297 5.665 0 3.745-2.809 5.64-7.297 5.64zm3.336-8.137H68.96v5.089h3.336c2.16 0 3.384-.913 3.384-2.569 0-1.632-1.224-2.52-3.384-2.52z"/></g></g></svg>