<?xml version="1.0" standalone="no"?>
<!DOCTYPE svg PUBLIC "-//W3C//DTD SVG 1.1//EN" "http://www.w3.org/Graphics/SVG/1.1/DTD/svg11.dtd">
<!--Generator: Xara Designer (www.xara.com), SVG filter version: 6.5.0.22-->
<svg fill="none" fill-rule="evenodd" stroke="black" stroke-width="0.501" stroke-linejoin="bevel" stroke-miterlimit="10" font-family="Times New Roman" font-size="16" style="font-variant-ligatures:none" xmlns:xlink="http://www.w3.org/1999/xlink" xmlns="http://www.w3.org/2000/svg" version="1.1" overflow="visible" width="37.132pt" height="45pt" viewBox="776.436 -3198.73 37.132 45">
 <defs>
	</defs>
 <g id="Layer 1" transform="scale(1 -1)">
  <g id="Group" fill-rule="nonzero" stroke-linejoin="miter" stroke="none" stroke-width="0.088" fill="#2f7fe6">
   <path d="M 809.797,3183.5 L 811.41,3185.27 C 811.684,3185.57 811.824,3185.96 811.806,3186.36 C 811.787,3186.77 811.611,3187.15 811.311,3187.42 L 808.724,3189.78 C 808.423,3190.05 808.033,3190.19 807.628,3190.18 C 807.221,3190.16 806.847,3189.98 806.573,3189.68 L 804.989,3187.94 C 802.948,3189.25 800.636,3190.17 798.158,3190.59 L 798.158,3192.36 L 798.581,3192.36 C 799.574,3192.36 800.383,3193.17 800.383,3194.16 L 800.383,3196.93 C 800.383,3197.92 799.574,3198.73 798.581,3198.73 L 791.511,3198.73 C 790.518,3198.73 789.709,3197.92 789.709,3196.93 L 789.709,3194.16 C 789.709,3193.17 790.518,3192.36 791.511,3192.36 L 791.846,3192.36 L 791.846,3190.59 C 789.368,3190.17 787.056,3189.25 785.015,3187.94 L 783.431,3189.68 C 783.157,3189.98 782.783,3190.16 782.376,3190.18 C 781.97,3190.19 781.581,3190.05 781.28,3189.78 L 778.693,3187.42 C 778.073,3186.85 778.029,3185.89 778.594,3185.27 L 780.207,3183.5 C 777.841,3180.38 776.436,3176.5 776.436,3172.3 C 776.436,3168.25 777.718,3164.4 780.143,3161.16 C 780.362,3160.87 780.775,3160.81 781.065,3161.03 C 781.356,3161.25 781.415,3161.66 781.197,3161.95 C 778.944,3164.96 777.753,3168.53 777.753,3172.3 C 777.753,3181.81 785.491,3189.55 795.002,3189.55 C 804.513,3189.55 812.251,3181.81 812.251,3172.3 C 812.251,3162.79 804.513,3155.05 795.002,3155.05 C 790.492,3155.05 786.226,3156.78 782.99,3159.92 C 782.729,3160.17 782.312,3160.17 782.059,3159.91 C 781.805,3159.65 781.811,3159.23 782.072,3158.97 C 785.556,3155.59 790.148,3153.73 795.002,3153.73 C 805.24,3153.73 813.568,3162.06 813.568,3172.3 C 813.569,3176.5 812.163,3180.38 809.797,3183.5 Z M 793.948,3193.68 L 793.948,3197.41 L 796.144,3197.41 L 796.144,3193.68 Z M 799.065,3196.93 L 799.065,3194.16 C 799.065,3193.9 798.848,3193.68 798.581,3193.68 L 797.461,3193.68 L 797.461,3197.41 L 798.581,3197.41 C 798.848,3197.41 799.065,3197.2 799.065,3196.93 Z M 791.026,3194.16 L 791.026,3196.93 C 791.026,3197.2 791.244,3197.41 791.511,3197.41 L 792.631,3197.41 L 792.631,3193.68 L 791.511,3193.68 C 791.244,3193.68 791.026,3193.9 791.026,3194.16 Z M 781.049,3184.53 L 779.568,3186.16 C 779.52,3186.21 779.513,3186.26 779.514,3186.3 C 779.516,3186.34 779.529,3186.4 779.581,3186.45 L 782.168,3188.81 C 782.22,3188.85 782.277,3188.86 782.316,3188.86 C 782.348,3188.86 782.408,3188.85 782.458,3188.79 L 783.922,3187.19 C 782.874,3186.4 781.911,3185.51 781.049,3184.53 Z M 793.163,3190.77 L 793.163,3192.36 L 796.841,3192.36 L 796.841,3190.77 C 796.236,3190.83 795.623,3190.86 795.002,3190.86 C 794.382,3190.86 793.768,3190.83 793.163,3190.77 Z M 806.082,3187.19 L 807.546,3188.79 C 807.596,3188.85 807.657,3188.86 807.688,3188.86 C 807.728,3188.86 807.784,3188.85 807.836,3188.81 L 810.423,3186.45 C 810.478,3186.4 810.488,3186.34 810.49,3186.3 C 810.492,3186.26 810.484,3186.21 810.436,3186.16 L 808.955,3184.53 C 808.093,3185.51 807.13,3186.4 806.082,3187.19 Z" marker-start="none" marker-end="none"/>
   <path d="M 804.977,3181.49 C 805.224,3181.22 805.641,3181.2 805.908,3181.45 C 806.176,3181.69 806.193,3182.11 805.946,3182.38 C 803.135,3185.43 799.146,3187.18 795.002,3187.18 C 786.797,3187.18 780.122,3180.5 780.122,3172.3 C 780.122,3164.09 786.797,3157.42 795.002,3157.42 C 803.207,3157.42 809.882,3164.09 809.882,3172.3 C 809.882,3175.03 809.133,3177.71 807.715,3180.03 C 807.525,3180.35 807.12,3180.44 806.809,3180.25 C 806.499,3180.06 806.401,3179.66 806.59,3179.35 C 807.882,3177.23 808.565,3174.79 808.565,3172.3 C 808.565,3168.8 807.23,3165.6 805.042,3163.19 L 798.41,3169.82 C 798.917,3170.52 799.217,3171.37 799.217,3172.3 C 799.217,3174.4 797.673,3176.14 795.66,3176.46 L 795.66,3185.84 C 799.199,3185.67 802.565,3184.1 804.977,3181.49 Z M 790.786,3172.3 C 790.786,3169.97 792.678,3168.08 795.002,3168.08 C 795.927,3168.08 796.783,3168.38 797.479,3168.89 L 804.111,3162.26 C 801.854,3160.21 798.905,3158.91 795.661,3158.75 L 795.661,3159.43 C 795.661,3159.79 795.366,3160.09 795.002,3160.09 C 794.638,3160.09 794.343,3159.79 794.343,3159.43 L 794.343,3158.75 C 791.099,3158.91 788.15,3160.21 785.893,3162.26 L 786.366,3162.73 C 786.623,3162.99 786.623,3163.4 786.366,3163.66 C 786.109,3163.92 785.692,3163.92 785.435,3163.66 L 784.962,3163.19 C 782.912,3165.45 781.611,3168.4 781.455,3171.64 L 782.131,3171.64 C 782.494,3171.64 782.789,3171.93 782.789,3172.3 C 782.789,3172.66 782.494,3172.96 782.131,3172.96 L 781.455,3172.96 C 781.611,3176.2 782.912,3179.15 784.962,3181.41 L 785.435,3180.93 C 785.563,3180.8 785.732,3180.74 785.901,3180.74 C 786.069,3180.74 786.238,3180.8 786.366,3180.93 C 786.623,3181.19 786.623,3181.61 786.366,3181.86 L 785.893,3182.34 C 788.15,3184.39 791.099,3185.69 794.343,3185.84 L 794.343,3176.46 C 792.331,3176.14 790.786,3174.4 790.786,3172.3 Z M 797.901,3172.3 C 797.901,3170.7 796.6,3169.4 795.002,3169.4 C 793.404,3169.4 792.104,3170.7 792.104,3172.3 C 792.104,3173.9 793.404,3175.2 795.002,3175.2 C 796.6,3175.2 797.901,3173.9 797.901,3172.3 Z" marker-start="none" marker-end="none"/>
  </g>
 </g>
</svg>
