<svg xmlns="http://www.w3.org/2000/svg" xmlns:xlink="http://www.w3.org/1999/xlink" width="50" height="47" viewBox="0 0 50 47"><defs><path id="he5ba" d="M1018.04 1120.58a5.92 5.92 0 0 1 5.96-5.86 5.92 5.92 0 0 1 5.96 5.86zm5.96-14.65a3.02 3.02 0 0 1 3.03 2.93 3.02 3.02 0 0 1-3.03 2.93 3.02 3.02 0 0 1-3.03-2.93 3.02 3.02 0 0 1 3.03-2.93zm4.3 6.97a5.75 5.75 0 0 0 1.66-4.04 5.94 5.94 0 0 0-5.96-5.86 5.94 5.94 0 0 0-5.96 5.86c0 1.51.6 2.94 1.66 4.04a8.78 8.78 0 0 0-4.59 7.68v1.46c0 .81.66 1.47 1.47 1.47h14.84c.81 0 1.47-.66 1.47-1.47v-1.46c0-3.3-1.86-6.17-4.6-7.68z"/><path id="he5bc" d="M1034.35 1146.95a5.87 5.87 0 0 1 11.72 0zm5.86-14.65a2.93 2.93 0 1 1 0 5.86 2.93 2.93 0 0 1 0-5.86zm4.25 6.95a5.87 5.87 0 1 0-8.5 0 8.8 8.8 0 0 0-4.54 7.7v1.46c0 .8.66 1.47 1.47 1.47h14.65c.8 0 1.46-.66 1.46-1.47v-1.46a8.8 8.8 0 0 0-4.54-7.7z"/><path id="he5be" d="M1001.93 1146.95a5.87 5.87 0 0 1 11.72 0zm5.86-14.65a2.93 2.93 0 1 1 0 5.86 2.93 2.93 0 0 1 0-5.86zm4.25 6.95a5.84 5.84 0 0 0-4.25-9.88 5.87 5.87 0 0 0-4.25 9.88 8.8 8.8 0 0 0-4.54 7.7v1.46c0 .8.66 1.47 1.46 1.47h14.65c.81 0 1.47-.66 1.47-1.47v-1.46a8.8 8.8 0 0 0-4.54-7.7z"/><path id="he5bg" d="M1030.98 1138.58l-5.52-5.43v-5.25a1.46 1.46 0 0 0-2.92 0v5.25l-5.52 5.43a1.46 1.46 0 0 0 2.05 2.09l4.93-4.85 4.93 4.85a1.46 1.46 0 0 0 2.05-2.1z"/><linearGradient id="he5bb" x1="1024" x2="1024" y1="1103" y2="1123.51" gradientUnits="userSpaceOnUse"><stop offset="0" stop-color="#5077e7"/><stop offset="1" stop-color="#a776dd"/></linearGradient><linearGradient id="he5bd" x1="1040.21" x2="1040.21" y1="1129.37" y2="1149.88" gradientUnits="userSpaceOnUse"><stop offset="0" stop-color="#5077e7"/><stop offset="1" stop-color="#a776dd"/></linearGradient><linearGradient id="he5bf" x1="1007.79" x2="1007.79" y1="1129.37" y2="1149.88" gradientUnits="userSpaceOnUse"><stop offset="0" stop-color="#5077e7"/><stop offset="1" stop-color="#a776dd"/></linearGradient><linearGradient id="he5bh" x1="1024" x2="1024" y1="1126.44" y2="1141.09" gradientUnits="userSpaceOnUse"><stop offset="0" stop-color="#5077e7"/><stop offset="1" stop-color="#a776dd"/></linearGradient></defs><g><g transform="translate(-999 -1103)"><g><g><g><use fill="url(#he5bb)" xlink:href="#he5ba"/></g></g></g><g><g><g><use fill="url(#he5bd)" xlink:href="#he5bc"/></g></g></g><g><g><g><use fill="url(#he5bf)" xlink:href="#he5be"/></g></g></g><g><g><g><use fill="url(#he5bh)" xlink:href="#he5bg"/></g></g></g></g></g></svg>