<svg xmlns="http://www.w3.org/2000/svg" xmlns:xlink="http://www.w3.org/1999/xlink" width="42" height="50" viewBox="0 0 42 50"><defs><path id="sdn7a" d="M984.14 1063.11l.01-.08c.34-7.43 5.54-8.22 7.77-8.22h.13c2.76.06 7.45 1.2 7.77 8.22v.08c.02.07.73 7.11-2.52 10.82-1.29 1.47-3 2.2-5.26 2.22h-.11c-2.25-.02-3.97-.75-5.25-2.22-3.24-3.69-2.55-10.76-2.54-10.82zm7.68 15.83h.33c3-.05 5.42-1.12 7.2-3.16 3.94-4.49 3.29-12.2 3.22-12.93-.26-5.52-2.83-8.16-4.96-9.39a11.26 11.26 0 0 0-5.5-1.46h-.18c-1.13 0-3.36.19-5.5 1.42s-4.76 3.87-5.02 9.43c-.07.74-.72 8.44 3.21 12.93 1.78 2.04 4.2 3.11 7.2 3.16z"/><path id="sdn7c" d="M1013 1091.72v-.03l-.01-.26c-.06-2.05-.2-6.85-4.63-8.38-.04 0-.08-.02-.1-.03a29.35 29.35 0 0 1-8.5-3.91 1.37 1.37 0 0 0-1.92.34 1.4 1.4 0 0 0 .34 1.95c.17.12 4.24 2.99 9.34 4.31 2.38.86 2.64 3.44 2.72 5.8v.26c.02.93-.04 2.37-.2 3.2-1.66.95-8.16 4.24-18.03 4.24-9.84 0-16.38-3.3-18.04-4.25-.17-.83-.24-2.27-.22-3.2l.01-.26c.08-2.36.34-4.94 2.72-5.8 5.1-1.32 9.17-4.2 9.34-4.32a1.4 1.4 0 0 0 .34-1.94 1.37 1.37 0 0 0-1.93-.34 29.03 29.03 0 0 1-8.58 3.94c-4.44 1.54-4.58 6.34-4.64 8.38V1091.7c-.02.54-.03 3.3.51 4.69.1.27.3.5.54.65.3.2 7.65 4.95 19.96 4.95 12.3 0 19.65-4.75 19.95-4.95.24-.15.43-.38.54-.65.5-1.38.5-4.14.49-4.68z"/><linearGradient id="sdn7b" x1="991.99" x2="991.99" y1="1052" y2="1078.94" gradientUnits="userSpaceOnUse"><stop offset="0" stop-color="#5077e7"/><stop offset="1" stop-color="#a776dd"/></linearGradient><linearGradient id="sdn7d" x1="992" x2="992" y1="1078.84" y2="1102" gradientUnits="userSpaceOnUse"><stop offset="0" stop-color="#5077e7"/><stop offset="1" stop-color="#a776dd"/></linearGradient></defs><g><g transform="translate(-971 -1052)"><g><g><use fill="url(#sdn7b)" xlink:href="#sdn7a"/></g><g><use fill="url(#sdn7d)" xlink:href="#sdn7c"/></g></g></g></g></svg>