<svg xmlns="http://www.w3.org/2000/svg" width="80" height="80" viewBox="0 0 80 80"><defs><linearGradient id="z23ga" x1="40" x2="40" y1="80" y2="0" gradientUnits="userSpaceOnUse"><stop offset="0" stop-color="#a776dd"/><stop offset="1" stop-color="#5077e7"/></linearGradient></defs><g><g><path fill="url(#z23ga)" d="M80 40c0 10.642-4.172 20.675-11.749 28.251C60.675 75.828 50.641 80 40 80 17.944 80 0 62.056 0 40S17.944 0 40 0s40 17.944 40 40zM62.31 64.064c0-7.118-5.718-12.909-12.748-12.909H30.438c-7.03 0-12.749 5.791-12.749 12.909v5.202l.32.24a37.013 37.013 0 0 0 4.886 3.083l1.169.616v-9.141c0-.88.715-1.594 1.593-1.594.88 0 1.594.715 1.594 1.594v10.474l.532.188A36.62 36.62 0 0 0 40 76.813a36.62 36.62 0 0 0 12.217-2.087l.532-.188V64.064c0-.88.715-1.594 1.594-1.594.878 0 1.593.715 1.593 1.594v9.141l1.169-.616a37.039 37.039 0 0 0 4.886-3.084l.32-.239zM31.22 44.469a12.64 12.64 0 0 0 8.773 3.499c.23 0 .462-.006.695-.018 3.158-.166 6.145-1.621 8.409-4.098a13.996 13.996 0 0 0 3.645-9.005V34.796a12.68 12.68 0 0 0-3.872-8.726 12.679 12.679 0 0 0-8.87-3.6c-7.03 0-12.75 5.72-12.75 12.749 0 3.536 1.41 6.821 3.97 9.25zM76.813 40C76.813 19.702 60.299 3.188 40 3.188 19.701 3.187 3.187 19.701 3.187 40c0 9.355 3.529 18.279 9.936 25.128l1.379 1.473v-2.018c0-9.708 7.05-15.648 14.012-16.497l1.668-.204-1.212-1.162a15.798 15.798 0 0 1-4.906-11.501c0-8.787 7.149-15.936 15.936-15.936 8.273 0 15.252 6.456 15.888 14.697l.015.1c.022.108.033.217.033.327a17.24 17.24 0 0 1-4.273 11.379c-.273.311-.564.619-.865.913l-1.204 1.18 1.676.182c7.07.764 14.228 6.685 14.228 16.522v2.018l1.379-1.473c6.407-6.849 9.936-15.773 9.936-25.128z"/></g></g></svg>