<svg xmlns="http://www.w3.org/2000/svg" xmlns:xlink="http://www.w3.org/1999/xlink" width="50" height="56" viewBox="0 0 50 56"><defs><path id="and2a" d="M396 1134.07a.74.74 0 1 1 0-1.47.74.74 0 0 1 0 1.47zm5.1-5.85a1.24 1.24 0 0 0-1.75 0l-2.32 2.33a2.95 2.95 0 0 0-2.06 0l-4.78-4.8a1.24 1.24 0 1 0-1.75 1.76l4.78 4.8a2.96 2.96 0 1 0 5.56 0l2.33-2.34c.48-.48.48-1.27 0-1.75z"/><path id="and2c" d="M396 1154.71a21.38 21.38 0 0 1 0-42.75 21.38 21.38 0 0 1 0 42.75zm-21.96-41.07a6.53 6.53 0 0 1 5.93-9.16c1.65 0 3.3.63 4.53 1.83zm33.47-7.33a6.5 6.5 0 0 1 10.45 7.33zm3.11 8.2l1.4-2 5.63 3.95a1.24 1.24 0 0 0 1.73-.3 8.98 8.98 0 1 0-14.71-10.32c-.4.55-.26 1.33.3 1.72l5.03 3.53-1.4 2a23.64 23.64 0 0 0-12.6-3.61c-4.62 0-8.94 1.32-12.6 3.62l-1.4-2.01 5.03-3.53c.56-.4.7-1.17.3-1.73a8.98 8.98 0 1 0-14.7 10.32 1.24 1.24 0 0 0 1.72.3l5.62-3.94 1.4 2a23.85 23.85 0 0 0 1.52 38.73l-1.96 2.8a1.24 1.24 0 0 0 2.03 1.43l2.07-2.97a23.63 23.63 0 0 0 21.94 0l2.07 2.97a1.24 1.24 0 1 0 2.03-1.42l-1.96-2.8a23.87 23.87 0 0 0 1.51-38.73z"/><path id="and2e" d="M407.64 1143.24l-.84-.84a1.24 1.24 0 1 0-1.75 1.76l.84.84a15.2 15.2 0 0 1-8.65 3.6v-1.2a1.24 1.24 0 1 0-2.48 0v1.2a15.2 15.2 0 0 1-8.65-3.6l.84-.84a1.24 1.24 0 0 0-1.75-1.76l-.84.84a15.26 15.26 0 0 1-3.6-8.66h1.2a1.24 1.24 0 0 0 0-2.49h-1.2c.27-3.29 1.58-6.29 3.6-8.66l.84.83a1.23 1.23 0 0 0 1.75 0c.48-.48.48-1.27 0-1.75l-.84-.84a15.2 15.2 0 0 1 8.65-3.6v1.2a1.24 1.24 0 1 0 2.48 0v-1.2a15.2 15.2 0 0 1 8.65 3.6l-.84.84a1.24 1.24 0 0 0 1.75 1.75l.84-.83a15.26 15.26 0 0 1 3.6 8.66h-1.2a1.24 1.24 0 0 0 0 2.49h1.2c-.27 3.29-1.58 6.29-3.6 8.66zM396 1115.8a17.55 17.55 0 0 0 0 35.1 17.55 17.55 0 0 0 0-35.1z"/><linearGradient id="and2b" x1="394.78" x2="394.78" y1="1125.4" y2="1136.31" gradientUnits="userSpaceOnUse"><stop offset="0" stop-color="#5077e7"/><stop offset="1" stop-color="#a776dd"/></linearGradient><linearGradient id="and2d" x1="396" x2="396" y1="1102" y2="1158" gradientUnits="userSpaceOnUse"><stop offset="0" stop-color="#5077e7"/><stop offset="1" stop-color="#a776dd"/></linearGradient><linearGradient id="and2f" x1="396.01" x2="396.01" y1="1115.79" y2="1150.88" gradientUnits="userSpaceOnUse"><stop offset="0" stop-color="#5077e7"/><stop offset="1" stop-color="#a776dd"/></linearGradient></defs><g><g transform="translate(-371 -1102)"><g><g><g><use fill="url(#and2b)" xlink:href="#and2a"/></g></g></g><g><g><g><use fill="url(#and2d)" xlink:href="#and2c"/></g></g></g><g><g><g><use fill="url(#and2f)" xlink:href="#and2e"/></g></g></g></g></g></svg>