<svg xmlns="http://www.w3.org/2000/svg" xmlns:xlink="http://www.w3.org/1999/xlink" width="60" height="46" viewBox="0 0 60 46"><defs><path id="2u1ia" d="M1218.24 1087.58c-.07 0-.13 0-.2.02l-.19-.02h-2.72a14.95 14.95 0 0 0-29.88 0h-1.62a8.12 8.12 0 0 1-8.12-8.1 8.12 8.12 0 0 1 8.49-8.1c.75 0 1.45-.49 1.68-1.25a13.65 13.65 0 0 1 4.83-6.9 13.47 13.47 0 0 1 8.16-2.72c5.07 0 9.68 2.78 12.04 7.27a1.76 1.76 0 0 0 2.37.74l.06-.04.17-.08a10.27 10.27 0 0 1 15.18 8.96c0 5.64-4.6 10.22-10.25 10.22zm-18.05 11.91c-6.3 0-11.44-5.12-11.44-11.4a11.43 11.43 0 0 1 22.87 0c0 6.28-5.13 11.4-11.43 11.4zm18.05-35.86c-1.82 0-3.62.37-5.29 1.06a17.05 17.05 0 0 0-14.28-7.69c-3.74 0-7.3 1.19-10.28 3.43a17.22 17.22 0 0 0-5.66 7.48c-6 .46-10.73 5.47-10.73 11.57 0 6.4 5.22 11.61 11.63 11.61h1.91a14.97 14.97 0 0 0 29.3 0h3.01l.2-.01.19.01c7.59 0 13.76-6.16 13.76-13.73s-6.17-13.73-13.76-13.73z"/><path id="2u1ic" d="M1204.8 1084.97l-3.37-3.37a1.76 1.76 0 0 0-.13-.11l-.06-.05-.08-.05-.07-.05-.07-.04-.08-.04-.08-.04c-.03 0-.05-.02-.08-.03l-.08-.02-.08-.02-.09-.03-.1-.01-.07-.01a1.78 1.78 0 0 0-.35 0l-.07.01-.1.01-.08.03c-.03 0-.06 0-.08.02l-.08.02-.09.03-.07.04-.08.04-.07.04-.08.05-.07.05-.07.05-.12.1v.01l-3.38 3.37a1.75 1.75 0 0 0 1.25 3c.45 0 .9-.18 1.24-.52l.37-.37v6.55a1.76 1.76 0 0 0 3.51 0v-6.55l.38.37a1.75 1.75 0 0 0 2.48-2.48z"/><linearGradient id="2u1ib" x1="1202" x2="1202" y1="1057" y2="1103" gradientUnits="userSpaceOnUse"><stop offset="0" stop-color="#5077e7"/><stop offset="1" stop-color="#a776dd"/></linearGradient><linearGradient id="2u1id" x1="1200.19" x2="1200.19" y1="1081.09" y2="1095.39" gradientUnits="userSpaceOnUse"><stop offset="0" stop-color="#5077e7"/><stop offset="1" stop-color="#a776dd"/></linearGradient></defs><g><g transform="translate(-1172 -1057)"><g><g><g><use fill="url(#2u1ib)" xlink:href="#2u1ia"/></g></g></g><g><g><g><use fill="url(#2u1id)" xlink:href="#2u1ic"/></g></g></g></g></g></svg>