<svg xmlns="http://www.w3.org/2000/svg" xmlns:xlink="http://www.w3.org/1999/xlink" width="46" height="55" viewBox="0 0 46 55"><defs><path id="c2a2a" d="M396.06 1100.7h-2.29v-2.28h2.3zm-8.03-19.47h13.77c-1.5 6.36-4.3 10.31-6.88 10.31-2.6 0-5.38-3.95-6.9-10.31zm-2.35 0c.9 4.07 2.33 7.42 4.1 9.64a20.68 20.68 0 0 1-12.7-9.64zm-11.39-10.31c0-2.85.58-5.56 1.63-8.02h9.32a49.8 49.8 0 0 0 0 16.04h-9.32a20.51 20.51 0 0 1-1.63-8.02zm15.5-19.96c-1.78 2.22-3.2 5.57-4.1 9.64h-8.6a20.68 20.68 0 0 1 12.7-9.64zm5.13-.67c2.58 0 5.37 3.95 6.88 10.31h-13.77c1.51-6.36 4.3-10.3 6.89-10.3zm17.83 10.31h-8.6c-.9-4.07-2.33-7.42-4.1-9.64a20.68 20.68 0 0 1 12.7 9.64zm2.8 10.32c0 2.84-.59 5.55-1.63 8.02h-9.33a49.8 49.8 0 0 0 0-16.04h9.33a20.51 20.51 0 0 1 1.62 8.02zm-13.28 8.02h-14.7a47 47 0 0 1-.67-8.02c0-2.91.24-5.6.66-8.02h14.71a47 47 0 0 1 .67 8.02 47 47 0 0 1-.67 8.02zm-2.22 11.93c1.77-2.22 3.2-5.57 4.1-9.64h8.6a20.68 20.68 0 0 1-12.7 9.64zm-1.7 7.55v-1.15c0-.63-.5-1.15-1.14-1.15h-1.15v-2.34a22.93 22.93 0 0 0 21.77-22.86 22.94 22.94 0 0 0-22.91-22.92 22.94 22.94 0 0 0-22.92 22.92 22.93 22.93 0 0 0 21.77 22.86v2.34h-1.15c-.63 0-1.14.52-1.14 1.15v1.15h-16.04a1.15 1.15 0 1 0 0 2.29h16.04v1.14c0 .64.51 1.15 1.14 1.15h4.59c.63 0 1.14-.51 1.14-1.15v-1.14h16.05a1.15 1.15 0 1 0 0-2.3z"/><linearGradient id="c2a2b" x1="394.92" x2="394.92" y1="1048" y2="1103" gradientUnits="userSpaceOnUse"><stop offset="0" stop-color="#5077e7"/><stop offset="1" stop-color="#a776dd"/></linearGradient></defs><g><g transform="translate(-372 -1048)"><g><g><use fill="url(#c2a2b)" xlink:href="#c2a2a"/></g></g></g></g></svg>