<svg xmlns="http://www.w3.org/2000/svg" xmlns:xlink="http://www.w3.org/1999/xlink" width="46" height="47" viewBox="0 0 46 47"><defs><path id="65kba" d="M979 1567.38a5 5 0 1 0-8-4 1 1 0 0 0 2 0 3 3 0 1 1 3 3h-2a1 1 0 0 0 0 2h2a3 3 0 1 1-3 3 1 1 0 0 0-2 0 5 5 0 1 0 8-4z"/><path id="65kbc" d="M992 1568.38h-4a1 1 0 0 0 0 2h3v1a3 3 0 0 1-6 0v-8a3 3 0 0 1 6 0 1 1 0 0 0 2 0 5 5 0 0 0-10 0v8a5 5 0 0 0 10 0v-2a1 1 0 0 0-1-1z"/><path id="65kbe" d="M991 1601.8c0 .32-.26.58-.57.58h-4.86a.57.57 0 0 1-.57-.58v-10.43c0-1.02.4-1.98 1.12-2.7l3.9-3.9a.54.54 0 0 1 .4-.18c.1 0 .18.03.23.05.1.05.35.19.35.53zm.41-19a2.56 2.56 0 0 0-2.8.55l-3.9 3.9a5.78 5.78 0 0 0-1.71 4.12v10.43a2.58 2.58 0 0 0 2.57 2.58h4.86a2.58 2.58 0 0 0 2.57-2.58v-16.63c0-1.05-.62-1.98-1.59-2.38z"/><path id="65kbg" d="M979 1601.8c0 .32-.26.58-.57.58h-4.64a.55.55 0 0 1-.52-.36.55.55 0 0 1 .12-.62l4.63-4.64a.54.54 0 0 1 .4-.17c.1 0 .18.03.23.05.1.05.35.19.35.53zm.41-7a2.56 2.56 0 0 0-2.8.55l-4.63 4.64a2.56 2.56 0 0 0 1.81 4.39h4.64a2.57 2.57 0 0 0 2.57-2.57v-4.64c0-1.04-.62-1.97-1.59-2.37z"/><path id="65kbi" d="M1015 1601.8c0 .32-.26.58-.57.58h-4.86a.57.57 0 0 1-.57-.58v-34.43c0-1.02.4-1.98 1.12-2.7l3.9-3.9a.54.54 0 0 1 .4-.18c.1 0 .18.03.23.05.1.05.35.19.35.53zm.41-43a2.56 2.56 0 0 0-2.8.55l-3.9 3.9a5.78 5.78 0 0 0-1.71 4.12v34.43a2.58 2.58 0 0 0 2.57 2.58h4.86a2.57 2.57 0 0 0 2.57-2.58v-40.63c0-1.05-.62-1.98-1.59-2.38z"/><path id="65kbk" d="M1003 1601.8c0 .32-.26.58-.57.58h-4.86a.57.57 0 0 1-.57-.58v-22.43c0-1.02.4-1.98 1.12-2.7l3.9-3.9a.54.54 0 0 1 .4-.18c.1 0 .18.03.23.05.1.05.35.19.35.53zm.41-31a2.56 2.56 0 0 0-2.8.55l-3.9 3.9a5.78 5.78 0 0 0-1.71 4.12v22.43a2.58 2.58 0 0 0 2.57 2.58h4.86a2.57 2.57 0 0 0 2.57-2.58v-28.63c0-1.05-.62-1.98-1.59-2.38z"/><linearGradient id="65kbb" x1="976" x2="976" y1="1558.38" y2="1576.38" gradientUnits="userSpaceOnUse"><stop offset="0" stop-color="#5077e7"/><stop offset="1" stop-color="#a776dd"/></linearGradient><linearGradient id="65kbd" x1="988" x2="988" y1="1558.38" y2="1576.38" gradientUnits="userSpaceOnUse"><stop offset="0" stop-color="#5077e7"/><stop offset="1" stop-color="#a776dd"/></linearGradient><linearGradient id="65kbf" x1="988" x2="988" y1="1582.6" y2="1604.38" gradientUnits="userSpaceOnUse"><stop offset="0" stop-color="#5077e7"/><stop offset="1" stop-color="#a776dd"/></linearGradient><linearGradient id="65kbh" x1="976.11" x2="976.11" y1="1594.6" y2="1604.38" gradientUnits="userSpaceOnUse"><stop offset="0" stop-color="#5077e7"/><stop offset="1" stop-color="#a776dd"/></linearGradient><linearGradient id="65kbj" x1="1012" x2="1012" y1="1558.59" y2="1604.37" gradientUnits="userSpaceOnUse"><stop offset="0" stop-color="#5077e7"/><stop offset="1" stop-color="#a776dd"/></linearGradient><linearGradient id="65kbl" x1="1000" x2="1000" y1="1570.6" y2="1604.38" gradientUnits="userSpaceOnUse"><stop offset="0" stop-color="#5077e7"/><stop offset="1" stop-color="#a776dd"/></linearGradient></defs><g><g transform="translate(-971 -1558)"><g><g><g><use fill="url(#65kbb)" xlink:href="#65kba"/></g></g></g><g><g><g><use fill="url(#65kbd)" xlink:href="#65kbc"/></g></g></g><g><g><g><use fill="url(#65kbf)" xlink:href="#65kbe"/></g></g></g><g><g><g><use fill="url(#65kbh)" xlink:href="#65kbg"/></g></g></g><g><g><g><use fill="url(#65kbj)" xlink:href="#65kbi"/></g></g></g><g><g><g><use fill="url(#65kbl)" xlink:href="#65kbk"/></g></g></g></g></g></svg>