<svg xmlns="http://www.w3.org/2000/svg" xmlns:xlink="http://www.w3.org/1999/xlink" width="55" height="55" viewBox="0 0 55 55"><defs><path id="exi9a" d="M798.88 1114.18v-5.43h-2.75v5.43a24.74 24.74 0 0 1-23.31-23.3h5.43v-2.76h-5.43a24.74 24.74 0 0 1 23.3-23.3v5.43h2.75v-5.43a24.74 24.74 0 0 1 23.31 23.3h-5.43v2.76h5.43a24.74 24.74 0 0 1-23.3 23.3zM797.5 1062a27.5 27.5 0 1 0 0 55 27.5 27.5 0 0 0 0-55z"/><path id="exi9c" d="M807.19 1101.3H787.8c-1.73 0-2.31-.13-2.31-.93 0-.61.43-.85 3.45-2.25.48-.22 3.65-1.76 4.98-2.4 1.1.6 2.3.96 3.57.96 1.24 0 2.42-.34 3.5-.92l5.06 2.36c3.01 1.4 3.44 1.64 3.44 2.25 0 .8-.58.93-2.31.93zm-15.76-15.46c0-4.49 2.72-8.14 6.07-8.14s6.07 3.65 6.07 8.14c0 4.5-2.72 8.15-6.07 8.15s-6.07-3.66-6.07-8.15zm15.76 9.84c-.23-.1-2.24-1.11-3.79-1.89a12.04 12.04 0 0 0 2.86-7.95c0-5.97-3.93-10.83-8.76-10.83s-8.76 4.86-8.76 10.83c0 3.16 1.12 5.97 2.86 7.96l-3.8 1.89c-3.43 1.59-4.99 2.31-4.99 4.68 0 3.62 3.76 3.62 5 3.62h19.38c1.24 0 5 0 5-3.62 0-2.37-1.56-3.1-5-4.69z"/><linearGradient id="exi9b" x1="797.5" x2="797.5" y1="1062" y2="1117" gradientUnits="userSpaceOnUse"><stop offset="0" stop-color="#5077e7"/><stop offset="1" stop-color="#a776dd"/></linearGradient><linearGradient id="exi9d" x1="797.5" x2="797.5" y1="1075.01" y2="1103.99" gradientUnits="userSpaceOnUse"><stop offset="0" stop-color="#5077e7"/><stop offset="1" stop-color="#a776dd"/></linearGradient></defs><g><g transform="translate(-770 -1062)"><g><g><g><use fill="url(#exi9b)" xlink:href="#exi9a"/></g></g></g><g><g><g><use fill="url(#exi9d)" xlink:href="#exi9c"/></g></g></g></g></g></svg>