<svg xmlns="http://www.w3.org/2000/svg" xmlns:xlink="http://www.w3.org/1999/xlink" width="29" height="32" viewBox="0 0 29 32"><defs><path id="f1kaa" d="M401.38 915.05h-25.54a4.63 4.63 0 0 1 0-1.06c.08-.7.28-1.06.4-1.13 2.68-1.53 4.21-5.2 4.68-11.22a7.74 7.74 0 0 1 7.7-7.1c4 0 7.38 3.12 7.69 7.1.22 2.9.7 5.25 1.42 7.08h-3a.8.8 0 0 0-.8.79c0 .44.35.8.8.8h3.77c.36.6.76 1.13 1.21 1.57h-7.98a.8.8 0 0 0-.8.8c0 .43.36.79.8.79h9.56a4.63 4.63 0 0 1 .09 1.58zm-12.77 4.03a3.27 3.27 0 0 1-3.17-2.45h6.35a3.27 3.27 0 0 1-3.18 2.45zm0-28.5a1.2 1.2 0 0 1 0 2.38 1.2 1.2 0 0 1-1.2-1.19c0-.65.54-1.19 1.2-1.19zm13.95 21.74a2 2 0 0 0-.77-.83c-2.16-1.23-3.47-4.59-3.89-9.97a9.34 9.34 0 0 0-6.93-8.25 2.79 2.79 0 0 0-2.36-4.27 2.79 2.79 0 0 0-2.8 2.77c0 .55.17 1.06.45 1.5a9.34 9.34 0 0 0-6.94 8.25c-.41 5.38-1.72 8.74-3.88 9.97-.62.36-1.03 1.11-1.17 2.2-.1.7-.13 2.16.43 2.71a.8.8 0 0 0 .57.23h8.53a4.87 4.87 0 0 0 4.81 4.04 4.87 4.87 0 0 0 4.81-4.04h8.54a.8.8 0 0 0 .56-.23c.56-.55.53-2.02.44-2.72-.07-.53-.2-.99-.4-1.36z"/><linearGradient id="f1kab" x1="388.61" x2="388.61" y1="889" y2="920.67" gradientUnits="userSpaceOnUse"><stop offset="0" stop-color="#5077e7"/><stop offset="1" stop-color="#a776dd"/></linearGradient></defs><g><g transform="translate(-374 -889)"><use fill="url(#f1kab)" xlink:href="#f1kaa"/></g></g></svg>