<svg xmlns="http://www.w3.org/2000/svg" width="90" height="90" viewBox="0 0 90 90"><defs><linearGradient id="paoga" x1="45" x2="45" y1="90" y2="0" gradientUnits="userSpaceOnUse"><stop offset="0" stop-color="#a776dd"/><stop offset="1" stop-color="#5077e7"/></linearGradient></defs><g><g><path fill="url(#paoga)" d="M90 82.5V87a3.003 3.003 0 0 1-3 3H3a3.003 3.003 0 0 1-3-3v-4.5A4.505 4.505 0 0 1 4.5 78H6V33.825a7.812 7.812 0 0 1-4.5-7.08v-6.159a4.48 4.48 0 0 1 .324-1.651l.02-.042c.17-.43.405-.83.698-1.187L9 9.956V4.5A4.505 4.505 0 0 1 13.5 0h63A4.506 4.506 0 0 1 81 4.5v5.457l6.457 7.749c.293.357.528.758.699 1.187l.02.043c.211.525.32 1.085.324 1.65v6.159a7.811 7.811 0 0 1-4.5 7.08V78h1.5a4.505 4.505 0 0 1 4.5 4.5zM12 9h66V4.5A1.503 1.503 0 0 0 76.5 3h-63A1.503 1.503 0 0 0 12 4.5zM8.555 31.479a4.444 4.444 0 0 0 3.472-1.15A4.512 4.512 0 0 0 13.5 27v-1.5a1.5 1.5 0 0 1 3 0V27a4.5 4.5 0 0 0 9 0v-1.5a1.5 1.5 0 0 1 3 0V27a4.5 4.5 0 0 0 9 0v-1.5a1.5 1.5 0 0 1 3 0V27a4.5 4.5 0 0 0 9 0v-1.5a1.5 1.5 0 0 1 3 0V27a4.5 4.5 0 0 0 9 0v-1.5a1.5 1.5 0 0 1 3 0V27a4.5 4.5 0 0 0 9 0v-1.5a1.5 1.5 0 0 1 3 0V27a4.514 4.514 0 0 0 1.473 3.331 4.46 4.46 0 0 0 3.472 1.148 4.674 4.674 0 0 0 4.055-4.734V21H75a1.5 1.5 0 1 1 0-3h8.797l-5-6H11.203l-5 6H69a1.5 1.5 0 0 1 0 3H4.5v5.745a4.674 4.674 0 0 0 4.055 4.734zm67.945 9.02V78H81V34.459a7.359 7.359 0 0 1-6.002-2.962A7.49 7.49 0 0 1 63 31.496a7.492 7.492 0 0 1-12 0 7.493 7.493 0 0 1-12 0 7.494 7.494 0 0 1-12 0 7.493 7.493 0 0 1-11.998.001A7.356 7.356 0 0 1 9 34.457V78h43.5V40.5a3.003 3.003 0 0 1 3-3h18a3.003 3.003 0 0 1 3 3zm-21 0V78h18V40.5zM87.002 87L87 82.5a1.502 1.502 0 0 0-1.5-1.5h-81c-.828 0-1.499.672-1.5 1.5V87zM46.5 40.5V60a3.003 3.003 0 0 1-3 3h-27a3.002 3.002 0 0 1-3-3V40.5a3.003 3.003 0 0 1 3-3h27a3.004 3.004 0 0 1 3 3zM43.502 60L43.5 45.44l-.71.66a1.5 1.5 0 0 1-2.042-2.2l2.752-2.555V40.5h-6.91L26.52 49.849a1.5 1.5 0 1 1-2.042-2.199l7.7-7.15H16.5v14.56l3.479-3.23a1.5 1.5 0 1 1 2.042 2.198l-5.52 5.126V60h6.91l13.07-12.135a1.501 1.501 0 0 1 2.04 2.199L27.82 60zM58.5 52.5v-6a3.004 3.004 0 0 1 3-3h6a3.004 3.004 0 0 1 3 3v6a3.003 3.003 0 0 1-3 3h-6a3.003 3.003 0 0 1-3-3zm3 .002l6-.002v-6h-6zM58.5 60a1.5 1.5 0 0 1 1.5-1.5h1.5a1.5 1.5 0 0 1 0 3H60a1.5 1.5 0 0 1-1.5-1.5z"/></g></g></svg>