<svg xmlns="http://www.w3.org/2000/svg" xmlns:xlink="http://www.w3.org/1999/xlink" width="42" height="60" viewBox="0 0 42 60"><defs><path id="nnsea" d="M733.06 964.38h-34.44v-52.76h34.44zm1.8-56.38h-38.05c-1 0-1.81.8-1.81 1.8v56.4c0 1 .8 1.8 1.8 1.8h38.07c1 0 1.8-.8 1.8-1.8v-56.4c0-1-.8-1.8-1.8-1.8z"/><path id="nnsec" d="M708.25 934.32h-2.37a1.8 1.8 0 0 0 0 3.61h2.37a1.8 1.8 0 0 0 0-3.61z"/><path id="nnsee" d="M714.46 937.93h2.36a1.8 1.8 0 0 0 0-3.61h-2.36a1.8 1.8 0 1 0 0 3.61z"/><path id="nnseg" d="M725.4 934.32h-2.37a1.8 1.8 0 0 0 0 3.61h2.37a1.8 1.8 0 1 0 0-3.61z"/><path id="nnsei" d="M708.25 940.23h-2.37a1.8 1.8 0 0 0 0 3.62h2.37a1.8 1.8 0 0 0 0-3.62z"/><path id="nnsek" d="M714.46 943.85h2.36a1.8 1.8 0 0 0 0-3.62h-2.36a1.8 1.8 0 1 0 0 3.62z"/><path id="nnsem" d="M725.4 940.23h-2.37a1.8 1.8 0 0 0 0 3.62h2.37a1.8 1.8 0 1 0 0-3.62z"/><path id="nnseo" d="M708.25 946.15h-2.37a1.8 1.8 0 0 0 0 3.62h2.37a1.8 1.8 0 0 0 0-3.62z"/><path id="nnseq" d="M714.46 949.77h2.36a1.8 1.8 0 0 0 0-3.62h-2.36a1.8 1.8 0 1 0 0 3.62z"/><path id="nnses" d="M725.4 946.15h-2.37a1.8 1.8 0 0 0 0 3.62h2.37a1.8 1.8 0 1 0 0-3.62z"/><path id="nnseu" d="M708.25 952.07h-2.37a1.8 1.8 0 0 0 0 3.61h2.37a1.8 1.8 0 0 0 0-3.61z"/><path id="nnsew" d="M725.4 952.07h-10.94a1.8 1.8 0 0 0 0 3.61h10.94a1.8 1.8 0 0 0 0-3.61z"/><path id="nnsey" d="M704.9 924.13h20.5a1.8 1.8 0 1 0 0-3.61h-20.5a1.8 1.8 0 1 0 0 3.61z"/><linearGradient id="nnseb" x1="715.84" x2="715.84" y1="908" y2="968" gradientUnits="userSpaceOnUse"><stop offset="0" stop-color="#5077e7"/><stop offset="1" stop-color="#a776dd"/></linearGradient><linearGradient id="nnsed" x1="707.06" x2="707.06" y1="934.32" y2="937.93" gradientUnits="userSpaceOnUse"><stop offset="0" stop-color="#5077e7"/><stop offset="1" stop-color="#a776dd"/></linearGradient><linearGradient id="nnsef" x1="715.64" x2="715.64" y1="934.32" y2="937.93" gradientUnits="userSpaceOnUse"><stop offset="0" stop-color="#5077e7"/><stop offset="1" stop-color="#a776dd"/></linearGradient><linearGradient id="nnseh" x1="724.22" x2="724.22" y1="934.32" y2="937.93" gradientUnits="userSpaceOnUse"><stop offset="0" stop-color="#5077e7"/><stop offset="1" stop-color="#a776dd"/></linearGradient><linearGradient id="nnsej" x1="707.06" x2="707.06" y1="940.23" y2="943.85" gradientUnits="userSpaceOnUse"><stop offset="0" stop-color="#5077e7"/><stop offset="1" stop-color="#a776dd"/></linearGradient><linearGradient id="nnsel" x1="715.64" x2="715.64" y1="940.23" y2="943.85" gradientUnits="userSpaceOnUse"><stop offset="0" stop-color="#5077e7"/><stop offset="1" stop-color="#a776dd"/></linearGradient><linearGradient id="nnsen" x1="724.22" x2="724.22" y1="940.23" y2="943.85" gradientUnits="userSpaceOnUse"><stop offset="0" stop-color="#5077e7"/><stop offset="1" stop-color="#a776dd"/></linearGradient><linearGradient id="nnsep" x1="707.06" x2="707.06" y1="946.15" y2="949.77" gradientUnits="userSpaceOnUse"><stop offset="0" stop-color="#5077e7"/><stop offset="1" stop-color="#a776dd"/></linearGradient><linearGradient id="nnser" x1="715.64" x2="715.64" y1="946.15" y2="949.77" gradientUnits="userSpaceOnUse"><stop offset="0" stop-color="#5077e7"/><stop offset="1" stop-color="#a776dd"/></linearGradient><linearGradient id="nnset" x1="724.22" x2="724.22" y1="946.15" y2="949.77" gradientUnits="userSpaceOnUse"><stop offset="0" stop-color="#5077e7"/><stop offset="1" stop-color="#a776dd"/></linearGradient><linearGradient id="nnsev" x1="707.06" x2="707.06" y1="952.07" y2="955.68" gradientUnits="userSpaceOnUse"><stop offset="0" stop-color="#5077e7"/><stop offset="1" stop-color="#a776dd"/></linearGradient><linearGradient id="nnsex" x1="719.93" x2="719.93" y1="952.07" y2="955.68" gradientUnits="userSpaceOnUse"><stop offset="0" stop-color="#5077e7"/><stop offset="1" stop-color="#a776dd"/></linearGradient><linearGradient id="nnsez" x1="715.15" x2="715.15" y1="920.52" y2="924.13" gradientUnits="userSpaceOnUse"><stop offset="0" stop-color="#5077e7"/><stop offset="1" stop-color="#a776dd"/></linearGradient></defs><g><g transform="translate(-695 -908)"><g><use fill="url(#nnseb)" xlink:href="#nnsea"/></g><g><use fill="url(#nnsed)" xlink:href="#nnsec"/></g><g><use fill="url(#nnsef)" xlink:href="#nnsee"/></g><g><use fill="url(#nnseh)" xlink:href="#nnseg"/></g><g><use fill="url(#nnsej)" xlink:href="#nnsei"/></g><g><use fill="url(#nnsel)" xlink:href="#nnsek"/></g><g><use fill="url(#nnsen)" xlink:href="#nnsem"/></g><g><use fill="url(#nnsep)" xlink:href="#nnseo"/></g><g><use fill="url(#nnser)" xlink:href="#nnseq"/></g><g><use fill="url(#nnset)" xlink:href="#nnses"/></g><g><use fill="url(#nnsev)" xlink:href="#nnseu"/></g><g><use fill="url(#nnsex)" xlink:href="#nnsew"/></g><g><use fill="url(#nnsez)" xlink:href="#nnsey"/></g></g></g></svg>