<svg xmlns="http://www.w3.org/2000/svg" width="54" height="54" viewBox="0 0 54 54"><g><g><path fill="#fff" d="M47.812 54H6.188A6.193 6.193 0 0 1 0 47.812V10.687A6.192 6.192 0 0 1 6.188 4.5h5.062V1.687a1.688 1.688 0 0 1 3.375 0V4.5h24.75V1.687a1.688 1.688 0 0 1 3.375 0V4.5h5.062A6.192 6.192 0 0 1 54 10.687v37.125A6.193 6.193 0 0 1 47.812 54zm2.813-43.313a2.816 2.816 0 0 0-2.813-2.812H42.75v2.937a1.688 1.688 0 0 1-3.375 0V7.875h-24.75v2.937a1.688 1.688 0 0 1-3.375 0V7.875H6.188a2.816 2.816 0 0 0-2.813 2.812V16h47.25zm0 8.688H3.375v28.437a2.816 2.816 0 0 0 2.813 2.813h41.624a2.816 2.816 0 0 0 2.813-2.813zM12.71 46.305v-3.33h4.65v-11.82l.03-1.44h-.06c-.18.34-.5.74-.96 1.2l-1.71 1.62-2.28-2.4 5.34-5.13h3.39v17.97h4.62v3.33zm15.72 0c-.12-.68-.18-1.31-.18-1.89 0-1.04.185-2.01.555-2.91.37-.9.845-1.676 1.425-2.326.58-.65 1.225-1.254 1.935-1.815.71-.56 1.42-1.08 2.13-1.56s1.355-.95 1.935-1.41a7.095 7.095 0 0 0 1.425-1.485c.37-.53.555-1.074.555-1.635 0-.9-.31-1.62-.93-2.16-.62-.54-1.39-.81-2.31-.81-.78 0-1.51.24-2.19.72-.68.48-1.23 1.08-1.65 1.8l-2.88-1.92a8.607 8.607 0 0 1 2.82-3.06c1.2-.8 2.61-1.2 4.23-1.2 1.94 0 3.58.565 4.92 1.695 1.34 1.13 2.01 2.666 2.01 4.605 0 .92-.175 1.785-.525 2.595a6.917 6.917 0 0 1-1.365 2.085c-.56.58-1.185 1.13-1.875 1.65s-1.375 1-2.055 1.44c-.68.44-1.31.876-1.89 1.306-.58.43-1.055.895-1.425 1.394-.37.5-.565 1.02-.585 1.56h10.05v3.33z"/></g></g></svg>