<svg xmlns="http://www.w3.org/2000/svg" xmlns:xlink="http://www.w3.org/1999/xlink" width="60" height="42" viewBox="0 0 60 42"><defs><path id="iytea" d="M598 870.9v-1.94h2v1.95z"/><path id="iytec" d="M649.93 881.99a.94.94 0 0 0 .07-.37v-10.71a6.92 6.92 0 0 0-7-6.82h-32v1.95h32c2.76 0 5 2.18 5 4.87v10.52l-1.34 3.23a4.73 4.73 0 0 0 0 3.65l1.28 3.1-3.68 11.64h-2.08l1.8-10.55a.96.96 0 0 0-.27-.85l-5.25-5.1a4.84 4.84 0 0 1-1.46-3.46v-1.47h-2v1.47c0 1.8.75 3.56 2.05 4.83l4.88 4.75-1.92 11.2c-.05.28.04.57.23.79a1 1 0 0 0 .76.34h4a1 1 0 0 0 .96-.69l4-12.66a.94.94 0 0 0-.03-.65l-1.41-3.42c-.3-.7-.3-1.48 0-2.2z"/><path id="iytee" d="M648 873.83v1.95c0 1.07-.9 1.95-2 1.95s-2-.88-2-1.95v-.98c0-2.14-1.8-3.9-4-3.9h-3v1.96h3c1.1 0 2 .87 2 1.94v.98c0 2.15 1.8 3.9 4 3.9s4-1.75 4-3.9v-1.95z"/><path id="iyteg" d="M593.93 863.12H591c-.55 0-1 .43-1 .97 0 1.84.29 4.1 2.57 5.3l1 .45.86-1.76-.96-.44c-.87-.45-1.3-1.2-1.43-2.58h1.9c.9-.05 1.72.36 2.3 1l1.51-1.28a5.08 5.08 0 0 0-3.82-1.66z"/><path id="iytei" d="M617.68 888.44a3.01 3.01 0 0 0-3 2.32l-2.5 12.3H610v-13.93c0-.67-.24-1.32-.67-1.84l-7.07-8.48a3.02 3.02 0 0 0-2.33-1.08h-5.77a2.15 2.15 0 0 1-2.16-2.1c0-.38.1-.74.28-1.06l4.56-8a3.75 3.75 0 0 1 3.84-1.56l3 .98c.33.1.68.04.95-.17a3.96 3.96 0 0 1 3.9-.54l1.74.66c-.83 1.62-1.7 1.96-2.34 2.05H606v1.94h2.12c1.96-.24 3.4-1.6 4.42-4.18.1-.24.1-.51-.02-.75a.99.99 0 0 0-.55-.51l-2.71-1.02a6 6 0 0 0-5.43.51l-2.6-.84a5.82 5.82 0 0 0-6.1 2.43l-4.6 8.05c-.34.6-.53 1.3-.53 2a4.13 4.13 0 0 0 4.16 4.05h5.77a1 1 0 0 1 .77.37l7.07 8.48c.15.17.23.4.23.61v14.9c0 .53.45.97 1 .97h4a1 1 0 0 0 .98-.79l2.66-13.05a1 1 0 0 1 1.02-.77H640v-1.95z"/><linearGradient id="iyteb" x1="599" x2="599" y1="868.96" y2="870.91" gradientUnits="userSpaceOnUse"><stop offset="0" stop-color="#5077e7"/><stop offset="1" stop-color="#a776dd"/></linearGradient><linearGradient id="iyted" x1="630.5" x2="630.5" y1="864.09" y2="905" gradientUnits="userSpaceOnUse"><stop offset="0" stop-color="#5077e7"/><stop offset="1" stop-color="#a776dd"/></linearGradient><linearGradient id="iytef" x1="643.5" x2="643.5" y1="870.91" y2="879.68" gradientUnits="userSpaceOnUse"><stop offset="0" stop-color="#5077e7"/><stop offset="1" stop-color="#a776dd"/></linearGradient><linearGradient id="iyteh" x1="593.88" x2="593.88" y1="863.12" y2="869.85" gradientUnits="userSpaceOnUse"><stop offset="0" stop-color="#5077e7"/><stop offset="1" stop-color="#a776dd"/></linearGradient><linearGradient id="iytej" x1="615" x2="615" y1="863" y2="905" gradientUnits="userSpaceOnUse"><stop offset="0" stop-color="#5077e7"/><stop offset="1" stop-color="#a776dd"/></linearGradient></defs><g><g transform="translate(-590 -863)"><g><g><g><use fill="url(#iyteb)" xlink:href="#iytea"/></g></g></g><g><g><g><use fill="url(#iyted)" xlink:href="#iytec"/></g></g></g><g><g><g><use fill="url(#iytef)" xlink:href="#iytee"/></g></g></g><g><g><g><use fill="url(#iyteh)" xlink:href="#iyteg"/></g></g></g><g><g><g><use fill="url(#iytej)" xlink:href="#iytei"/></g></g></g></g></g></svg>