<svg xmlns="http://www.w3.org/2000/svg" xmlns:xlink="http://www.w3.org/1999/xlink" width="45" height="40" viewBox="0 0 45 40"><defs><path id="9huda" d="M1009.53 1132.56a1.2 1.2 0 0 0-1.29-1.12c-.66.05-1.16.63-1.11 1.3a17.5 17.5 0 0 1-17.34 18.83A17.5 17.5 0 0 1 972.4 1134a17.5 17.5 0 0 1 17.39-17.57c3.8 0 7.4 1.21 10.42 3.51.53.4 1.29.3 1.69-.24.4-.54.29-1.3-.24-1.7-3.45-2.62-7.55-4-11.87-4a19.92 19.92 0 0 0-19.79 20c0 11.03 8.88 20 19.79 20a19.92 19.92 0 0 0 19.74-21.44z"/><path id="9hudc" d="M1011.93 1121.73l-21.76 22a.7.7 0 0 1-1 0l-10.57-10.7c-.9-.9-.9-2.36 0-3.26a2.27 2.27 0 0 1 3.23 0l6.32 6.38a2.13 2.13 0 0 0 3.05 0l17.5-17.69c.89-.9 2.34-.9 3.23 0 .89.9.89 2.37 0 3.27zm1.7-4.98a4.66 4.66 0 0 0-6.63 0l-17.33 17.5-6.14-6.2a4.66 4.66 0 0 0-6.63 0 4.78 4.78 0 0 0 0 6.7l10.57 10.7a3.08 3.08 0 0 0 4.4 0l21.76-22a4.78 4.78 0 0 0 0-6.7z"/><linearGradient id="9hudb" x1="989.79" x2="989.79" y1="1114" y2="1154" gradientUnits="userSpaceOnUse"><stop offset="0" stop-color="#5077e7"/><stop offset="1" stop-color="#a776dd"/></linearGradient><linearGradient id="9hudd" x1="995.26" x2="995.26" y1="1115.36" y2="1146.36" gradientUnits="userSpaceOnUse"><stop offset="0" stop-color="#5077e7"/><stop offset="1" stop-color="#a776dd"/></linearGradient></defs><g><g transform="translate(-970 -1114)"><g><g><g><use fill="url(#9hudb)" xlink:href="#9huda"/></g></g></g><g><g><g><use fill="url(#9hudd)" xlink:href="#9hudc"/></g></g></g></g></g></svg>