<svg xmlns="http://www.w3.org/2000/svg" xmlns:xlink="http://www.w3.org/1999/xlink" width="50" height="52" viewBox="0 0 50 52"><defs><path id="5mbda" d="M818.07 1137.91a4.08 4.08 0 0 0-5.41-1.96l-4.55 2.11a4.04 4.04 0 1 0 3.44 7.34l4.55-2.11a4.03 4.03 0 0 0 1.97-5.38zm-31.13 2.47a4.03 4.03 0 0 0-2.1-2.28l-7.17-3.33c-.28-.13-.6-.14-.9-.04-.3.11-.53.32-.66.6l-2.45 5.23c-.27.58-.02 1.28.57 1.55l7.17 3.33a4.06 4.06 0 0 0 5.4-1.96 4 4 0 0 0 .14-3.1zm33.66 1.5a6.55 6.55 0 0 1-3.42 3.71l-4.55 2.11a6.6 6.6 0 0 1-8.15-2.08l-5.02 2.33 16.45 7.63a1.27 1.27 0 0 1-.54 2.42c-.18 0-.36-.04-.54-.12l-18.39-8.53-18.32 8.5c-.64.3-1.4.02-1.7-.62-.3-.63-.02-1.39.62-1.68l16.38-7.6-4.95-2.3a6.6 6.6 0 0 1-8.15 2.09l-7.17-3.33a3.7 3.7 0 0 1-1.8-4.93l2.45-5.22a3.72 3.72 0 0 1 4.95-1.8l7.17 3.34a6.55 6.55 0 0 1 3.63 7.55l6.89 3.2 6.96-3.24c-.74-2.99.72-6.2 3.63-7.55l4.55-2.1a6.64 6.64 0 0 1 8.8 3.18c.74 1.59.82 3.38.21 5.03zm-36.5-3.02a1.27 1.27 0 0 1-.54 2.42c-.18 0-.37-.03-.54-.12l-5.66-2.62a1.27 1.27 0 0 1-.62-1.69c.3-.63 1.06-.91 1.7-.61l5.66 2.62zm32.2-.25c.64.28.93 1.03.65 1.67a4.26 4.26 0 0 1-2.1 2.2l-3.12 1.44a4.1 4.1 0 0 1-1.73.38c-.42 0-.85-.06-1.29-.18a1.27 1.27 0 1 1 .7-2.44c.46.13.88.1 1.24-.06l3.12-1.45c.37-.17.65-.47.84-.91a1.28 1.28 0 0 1 1.69-.65zm-35.82-17.71a7.48 7.48 0 0 1-7.49-7.45c0-4.1 3.36-7.45 7.49-7.45h31.04a7.48 7.48 0 0 1 7.49 7.45c0 4.1-3.36 7.45-7.49 7.45h-.25v9.02a1.27 1.27 0 1 1-2.55 0v-9.02h-3.4a1.27 1.27 0 1 1 0-2.54h6.2c2.72 0 4.94-2.2 4.94-4.91 0-2.7-2.22-4.91-4.94-4.91h-18.2a4.89 4.89 0 0 0-4.94 4.83c0 .7-.57 1.27-1.28 1.27-.7 0-1.27-.57-1.27-1.27 0-1.84.69-3.54 1.83-4.83h-7.18a4.93 4.93 0 0 0-4.94 4.9c0 2.71 2.22 4.92 4.94 4.92H796c2.72 0 4.93-2.2 4.93-4.91 0-.7.57-1.27 1.28-1.27.7 0 1.27.57 1.27 1.27 0 4.1-3.35 7.45-7.48 7.45h-12.72v9.02c0 .7-.57 1.27-1.28 1.27-.7 0-1.28-.57-1.28-1.27v-9.02h-.24zm2.73 22.86a1.28 1.28 0 0 1-1.7.62l-5.66-2.63a1.27 1.27 0 0 1-.61-1.69c.3-.63 1.05-.9 1.7-.61l5.65 2.63c.64.3.92 1.05.62 1.68z"/><linearGradient id="5mbdb" x1="796" x2="796" y1="1106" y2="1158" gradientUnits="userSpaceOnUse"><stop offset="0" stop-color="#5077e7"/><stop offset="1" stop-color="#a776dd"/></linearGradient></defs><g><g transform="translate(-771 -1106)"><use fill="url(#5mbdb)" xlink:href="#5mbda"/></g></g></svg>