<svg xmlns="http://www.w3.org/2000/svg" xmlns:xlink="http://www.w3.org/1999/xlink" width="55" height="41" viewBox="0 0 55 41"><defs><path id="1x6ta" d="M824.28 886.69a1.9 1.9 0 0 1-1.9 1.89h-36.8v-36.86h36.8c1.05 0 1.9.85 1.9 1.9zm-40.42 1.89h-9.24a1.9 1.9 0 0 1-1.9-1.9v-33.06c0-1.05.85-1.9 1.9-1.9h9.24zM774.62 850c-2 0-3.62 1.62-3.62 3.62v33.07c0 1.99 1.62 3.61 3.62 3.61h47.76c2 0 3.62-1.62 3.62-3.61v-33.07c0-2-1.62-3.62-3.62-3.62z"/><path id="1x6tc" d="M792.07 853.67h-3.67a.86.86 0 0 0 0 1.73h3.67a.86.86 0 0 0 0-1.73z"/><path id="1x6te" d="M781.05 853.67h-5.51a.86.86 0 0 0 0 1.73h5.5a.86.86 0 0 0 0-1.73z"/><path id="1x6tg" d="M781.05 862.86h-5.51a.86.86 0 0 0 0 1.72h5.5a.86.86 0 0 0 0-1.72z"/><path id="1x6ti" d="M781.05 870.2h-5.51a.86.86 0 0 0 0 1.73h5.5a.86.86 0 0 0 0-1.72z"/><path id="1x6tk" d="M781.05 877.56h-5.51a.86.86 0 0 0 0 1.72h5.5a.86.86 0 0 0 0-1.72z"/><path id="1x6tm" d="M781.05 866.53h-5.51a.86.86 0 0 0 0 1.73h5.5a.86.86 0 0 0 0-1.73z"/><path id="1x6to" d="M781.05 873.88h-5.51a.86.86 0 0 0 0 1.73h5.5a.86.86 0 0 0 0-1.73z"/><path id="1x6tq" d="M779.21 883.07h-3.67a.86.86 0 0 0 0 1.72h3.67a.86.86 0 0 0 0-1.72z"/><path id="1x6ts" d="M779.21 857.35h-3.67a.86.86 0 0 0 0 1.72h3.67a.86.86 0 0 0 0-1.72z"/><path id="1x6tu" d="M799.42 853.67h-3.68a.86.86 0 0 0 0 1.73h3.68a.86.86 0 0 0 0-1.73z"/><path id="1x6tw" d="M806.77 853.67h-3.68a.86.86 0 0 0 0 1.73h3.68a.86.86 0 0 0 0-1.73z"/><path id="1x6ty" d="M814.12 853.67h-3.68a.86.86 0 0 0 0 1.73h3.68a.86.86 0 0 0 0-1.73z"/><path id="1x6tA" d="M821.46 853.67h-3.67a.86.86 0 0 0 0 1.73h3.67a.86.86 0 0 0 0-1.73z"/><path id="1x6tC" d="M798.1 873.14a.86.86 0 0 0-1.2.17 3.74 3.74 0 1 1 0-4.48.86.86 0 1 0 1.37-1.03 5.46 5.46 0 1 0 0 6.54.86.86 0 0 0-.17-1.2z"/><path id="1x6tE" d="M802.12 871.13v-3.8h3.73a1.9 1.9 0 0 1 0 3.8h-3.73zm4.47 1.64a3.62 3.62 0 0 0-.74-7.15h-4.6a.86.86 0 0 0-.86.86v9.18a.86.86 0 0 0 1.73 0v-2.81h2.38l2.5 3.33a.86.86 0 1 0 1.37-1.03z"/><path id="1x6tG" d="M821.4 875.58l-.92-9.19a.86.86 0 0 0-1.65-.23l-2.88 7.18-2.87-7.18a.86.86 0 0 0-1.66.23l-.92 9.19a.86.86 0 0 0 1.72.17l.57-5.69 2.36 5.92a.86.86 0 0 0 1.6 0l2.37-5.92.57 5.69a.86.86 0 0 0 1.71-.17z"/><linearGradient id="1x6tb" x1="798.5" x2="798.5" y1="850" y2="890.3" gradientUnits="userSpaceOnUse"><stop offset="0" stop-color="#5077e7"/><stop offset="1" stop-color="#a776dd"/></linearGradient><linearGradient id="1x6td" x1="790.23" x2="790.23" y1="853.67" y2="855.39" gradientUnits="userSpaceOnUse"><stop offset="0" stop-color="#5077e7"/><stop offset="1" stop-color="#a776dd"/></linearGradient><linearGradient id="1x6tf" x1="778.29" x2="778.29" y1="853.67" y2="855.39" gradientUnits="userSpaceOnUse"><stop offset="0" stop-color="#5077e7"/><stop offset="1" stop-color="#a776dd"/></linearGradient><linearGradient id="1x6th" x1="778.29" x2="778.29" y1="862.86" y2="864.58" gradientUnits="userSpaceOnUse"><stop offset="0" stop-color="#5077e7"/><stop offset="1" stop-color="#a776dd"/></linearGradient><linearGradient id="1x6tj" x1="778.29" x2="778.29" y1="870.21" y2="871.93" gradientUnits="userSpaceOnUse"><stop offset="0" stop-color="#5077e7"/><stop offset="1" stop-color="#a776dd"/></linearGradient><linearGradient id="1x6tl" x1="778.29" x2="778.29" y1="877.56" y2="879.28" gradientUnits="userSpaceOnUse"><stop offset="0" stop-color="#5077e7"/><stop offset="1" stop-color="#a776dd"/></linearGradient><linearGradient id="1x6tn" x1="778.29" x2="778.29" y1="866.53" y2="868.25" gradientUnits="userSpaceOnUse"><stop offset="0" stop-color="#5077e7"/><stop offset="1" stop-color="#a776dd"/></linearGradient><linearGradient id="1x6tp" x1="778.29" x2="778.29" y1="873.88" y2="875.6" gradientUnits="userSpaceOnUse"><stop offset="0" stop-color="#5077e7"/><stop offset="1" stop-color="#a776dd"/></linearGradient><linearGradient id="1x6tr" x1="777.37" x2="777.37" y1="883.07" y2="884.79" gradientUnits="userSpaceOnUse"><stop offset="0" stop-color="#5077e7"/><stop offset="1" stop-color="#a776dd"/></linearGradient><linearGradient id="1x6tt" x1="777.37" x2="777.37" y1="857.35" y2="859.07" gradientUnits="userSpaceOnUse"><stop offset="0" stop-color="#5077e7"/><stop offset="1" stop-color="#a776dd"/></linearGradient><linearGradient id="1x6tv" x1="797.58" x2="797.58" y1="853.67" y2="855.39" gradientUnits="userSpaceOnUse"><stop offset="0" stop-color="#5077e7"/><stop offset="1" stop-color="#a776dd"/></linearGradient><linearGradient id="1x6tx" x1="804.93" x2="804.93" y1="853.67" y2="855.39" gradientUnits="userSpaceOnUse"><stop offset="0" stop-color="#5077e7"/><stop offset="1" stop-color="#a776dd"/></linearGradient><linearGradient id="1x6tz" x1="812.28" x2="812.28" y1="853.67" y2="855.39" gradientUnits="userSpaceOnUse"><stop offset="0" stop-color="#5077e7"/><stop offset="1" stop-color="#a776dd"/></linearGradient><linearGradient id="1x6tB" x1="819.63" x2="819.63" y1="853.67" y2="855.39" gradientUnits="userSpaceOnUse"><stop offset="0" stop-color="#5077e7"/><stop offset="1" stop-color="#a776dd"/></linearGradient><linearGradient id="1x6tD" x1="793.45" x2="793.45" y1="865.62" y2="876.53" gradientUnits="userSpaceOnUse"><stop offset="0" stop-color="#5077e7"/><stop offset="1" stop-color="#a776dd"/></linearGradient><linearGradient id="1x6tF" x1="804.93" x2="804.93" y1="865.62" y2="876.53" gradientUnits="userSpaceOnUse"><stop offset="0" stop-color="#5077e7"/><stop offset="1" stop-color="#a776dd"/></linearGradient><linearGradient id="1x6tH" x1="815.96" x2="815.96" y1="865.62" y2="876.53" gradientUnits="userSpaceOnUse"><stop offset="0" stop-color="#5077e7"/><stop offset="1" stop-color="#a776dd"/></linearGradient></defs><g><g transform="translate(-771 -850)"><g><g><g><use fill="url(#1x6tb)" xlink:href="#1x6ta"/></g></g></g><g><g><g><use fill="url(#1x6td)" xlink:href="#1x6tc"/></g></g></g><g><g><g><use fill="url(#1x6tf)" xlink:href="#1x6te"/></g></g></g><g><g><g><use fill="url(#1x6th)" xlink:href="#1x6tg"/></g></g></g><g><g><g><use fill="url(#1x6tj)" xlink:href="#1x6ti"/></g></g></g><g><g><g><use fill="url(#1x6tl)" xlink:href="#1x6tk"/></g></g></g><g><g><g><use fill="url(#1x6tn)" xlink:href="#1x6tm"/></g></g></g><g><g><g><use fill="url(#1x6tp)" xlink:href="#1x6to"/></g></g></g><g><g><g><use fill="url(#1x6tr)" xlink:href="#1x6tq"/></g></g></g><g><g><g><use fill="url(#1x6tt)" xlink:href="#1x6ts"/></g></g></g><g><g><g><use fill="url(#1x6tv)" xlink:href="#1x6tu"/></g></g></g><g><g><g><use fill="url(#1x6tx)" xlink:href="#1x6tw"/></g></g></g><g><g><g><use fill="url(#1x6tz)" xlink:href="#1x6ty"/></g></g></g><g><g><g><use fill="url(#1x6tB)" xlink:href="#1x6tA"/></g></g></g><g><g><g><use fill="url(#1x6tD)" xlink:href="#1x6tC"/></g></g></g><g><g><g><use fill="url(#1x6tF)" xlink:href="#1x6tE"/></g></g></g><g><g><g><use fill="url(#1x6tH)" xlink:href="#1x6tG"/></g></g></g></g></g></svg>