<svg xmlns="http://www.w3.org/2000/svg" xmlns:xlink="http://www.w3.org/1999/xlink" width="50" height="40" viewBox="0 0 50 40"><defs><path id="qysya" d="M1046.07 1208.22a6 6 0 0 1-4.36-4.35h3.32c.57 0 1.04.47 1.04 1.05zm0 17.78c0 .58-.47 1.05-1.04 1.05h-3.27a6 6 0 0 1 4.3-4.33zm-7.3 1.05h-29.53a8.94 8.94 0 0 0-7.3-7.34v-8.5a8.94 8.94 0 0 0 7.3-7.34h29.48a8.94 8.94 0 0 0 7.35 7.35v8.49a8.94 8.94 0 0 0-7.3 7.34zm-35.8 0c-.57 0-1.04-.47-1.04-1.05v-3.28a6 6 0 0 1 4.31 4.33h-3.27zm-1.04-22.13c0-.58.47-1.05 1.04-1.05h3.29a6 6 0 0 1-4.33 4.34v-3.3zm3.8-5.84c0-.35.28-.63.63-.63h35.28c.35 0 .63.28.63.63v1.84h-36.54zm4.02-5.5c0-.35.28-.63.63-.63h27.17c.35 0 .63.28.63.63v1.84h-28.43zm35.45 7.34v-1.84c0-1.97-1.6-3.58-3.56-3.58h-.52v-1.92c0-1.97-1.6-3.58-3.57-3.58h-27.17a3.58 3.58 0 0 0-3.56 3.58v1.92h-.46a3.58 3.58 0 0 0-3.56 3.58v1.84a4 4 0 0 0-3.8 4V1226c0 2.2 1.78 4 3.97 4h42.06c2.19 0 3.97-1.8 3.97-4v-21.08a4 4 0 0 0-3.8-4z"/><path id="qysyc" d="M1027.83 1215.92a2.77 2.77 0 0 0-1.06-1.04 13.46 13.46 0 0 0-2.77-.98c-.43-.1-.8-.23-1.09-.4-.29-.18-.43-.4-.43-.68 0-.27.14-.51.43-.74.26-.2.61-.3 1.06-.33h.21c.5 0 1.05.1 1.63.3.58.21.93.31 1.06.31.33 0 .6-.18.82-.55.22-.37.33-.7.33-.97 0-.44-.4-.82-1.19-1.13a6.52 6.52 0 0 0-1.36-.37v-1.84a1.47 1.47 0 0 0-2.93 0v1.91c-.73.18-1.3.49-1.73.93-.7.74-1.05 1.61-1.05 2.63 0 .73.2 1.33.6 1.8.4.47.89.8 1.46 1 .57.2 1.13.37 1.7.52a6 6 0 0 1 1.43.55c.4.22.6.52.6.9 0 .7-.6 1.03-1.8 1.03a4.4 4.4 0 0 1-1.58-.25c-.45-.18-.8-.34-1.08-.5a1.4 1.4 0 0 0-.68-.25c-.28 0-.53.16-.74.47-.21.32-.32.63-.32.93 0 .55.43 1.04 1.3 1.47.55.27 1.18.46 1.88.56v1.9a1.47 1.47 0 0 0 2.93 0v-2.01a4.06 4.06 0 0 0 1.62-.79 3.28 3.28 0 0 0 1.18-2.67c0-.67-.14-1.24-.43-1.71z"/><path id="qysye" d="M1012.67 1215.37a1.75 1.75 0 0 0-.1-.42 1.6 1.6 0 0 0-.32-.48 1.47 1.47 0 0 0-2.17.1 1.42 1.42 0 0 0-.27.51 1.7 1.7 0 0 0-.06.43 1.45 1.45 0 0 0 .17.7 1.58 1.58 0 0 0 .36.44 1.59 1.59 0 0 0 .5.27 1.66 1.66 0 0 0 .43.07 1.42 1.42 0 0 0 .93-.34 1.47 1.47 0 0 0 .53-1.28z"/><path id="qysyg" d="M1038.66 1215.37a1.75 1.75 0 0 0-.1-.42 1.6 1.6 0 0 0-.33-.48 1.42 1.42 0 0 0-.6-.37 1.18 1.18 0 0 0-.29-.05 1.47 1.47 0 1 0 1.15 2.16 1.58 1.58 0 0 0 .17-.55 1.45 1.45 0 0 0 0-.3z"/><linearGradient id="qysyb" x1="1024" x2="1024" y1="1190" y2="1230" gradientUnits="userSpaceOnUse"><stop offset="0" stop-color="#5077e7"/><stop offset="1" stop-color="#a776dd"/></linearGradient><linearGradient id="qysyd" x1="1023.81" x2="1023.81" y1="1206.03" y2="1224.58" gradientUnits="userSpaceOnUse"><stop offset="0" stop-color="#5077e7"/><stop offset="1" stop-color="#a776dd"/></linearGradient><linearGradient id="qysyf" x1="1011.22" x2="1011.22" y1="1214.04" y2="1216.99" gradientUnits="userSpaceOnUse"><stop offset="0" stop-color="#5077e7"/><stop offset="1" stop-color="#a776dd"/></linearGradient><linearGradient id="qysyh" x1="1037.2" x2="1037.2" y1="1214.04" y2="1216.99" gradientUnits="userSpaceOnUse"><stop offset="0" stop-color="#5077e7"/><stop offset="1" stop-color="#a776dd"/></linearGradient></defs><g><g transform="translate(-999 -1190)"><g><g><g><use fill="url(#qysyb)" xlink:href="#qysya"/></g></g></g><g><g><g><use fill="url(#qysyd)" xlink:href="#qysyc"/></g></g></g><g><g><g><use fill="url(#qysyf)" xlink:href="#qysye"/></g></g></g><g><g><g><use fill="url(#qysyh)" xlink:href="#qysyg"/></g></g></g></g></g></svg>