<svg xmlns="http://www.w3.org/2000/svg" xmlns:xlink="http://www.w3.org/1999/xlink" width="60" height="45" viewBox="0 0 60 45"><defs><path id="6f82a" d="M973.68 891.83a10.94 10.94 0 0 1-9.33 5.17h-16.7c-3.82 0-7.3-1.93-9.33-5.17l-6.14-9.83 6.14-9.83a10.94 10.94 0 0 1 9.33-5.17h16.7c3.82 0 7.3 1.93 9.33 5.17l6.14 9.83zm8.17-10.36l-6.47-10.36a12.92 12.92 0 0 0-11.02-6.1h-16.71c-4.52 0-8.64 2.28-11.03 6.1l-6.47 10.36a1 1 0 0 0 0 1.06l6.47 10.36c2.4 3.83 6.51 6.11 11.03 6.11h16.7c4.51 0 8.64-2.28 11.03-6.11l6.47-10.36a1 1 0 0 0 0-1.06z"/><path id="6f82c" d="M944 883a1 1 0 1 1 0-2 1 1 0 0 1 0 2zm0-4a3 3 0 1 0 0 6 3 3 0 0 0 0-6z"/><path id="6f82e" d="M940.83 888.95l-7-10.5-1.66 1.1 7 10.5a.8.8 0 0 1-.23 1.12.8.8 0 0 1-1.1-.22l-.84.55.04-.02-.93.47a1.16 1.16 0 0 0 .06.11 2.78 2.78 0 0 0 3.89.77 2.78 2.78 0 0 0 .77-3.88z"/><path id="6f82g" d="M988 889.88a4.1 4.1 0 0 1-2.58-1.98l-3.28-5.9 3.28-5.9a4.1 4.1 0 0 1 2.58-1.98zm1-17.88a6.1 6.1 0 0 0-5.33 3.13l-3.54 6.38a1 1 0 0 0 0 .98l3.54 6.38A6.1 6.1 0 0 0 989 892a1 1 0 0 0 1-1v-18a1 1 0 0 0-1-1z"/><path id="6f82i" d="M981 883v-2h8v2z"/><path id="6f82k" d="M983 879v-2h6v2z"/><path id="6f82m" d="M983 887v-2h6v2z"/><path id="6f82o" d="M965.47 865h-17.6l1.18-1.78a4.99 4.99 0 0 1 4.16-2.22h14.92zm5.41-5.47a1 1 0 0 0-.88-.53h-16.78a6.98 6.98 0 0 0-5.83 3.12l-2.22 3.33A1 1 0 0 0 946 867h20a1 1 0 0 0 .83-.45l4-6a1 1 0 0 0 .05-1.02z"/><path id="6f82q" d="M951.83 866.55l-1.66-1.1 4-6 1.66 1.1z"/><path id="6f82s" d="M956.83 866.55l-1.66-1.1 4-6 1.66 1.1z"/><path id="6f82u" d="M961.83 866.55l-1.66-1.1 4-6 1.66 1.1z"/><path id="6f82w" d="M957 898v3.2l-6.47-4.05-1.06 1.7 8 5A1 1 0 0 0 959 903v-5h-2z"/><path id="6f82y" d="M952.95 877.05l-4.75-4.76-1.42 1.42 4.75 4.76a5 5 0 0 1 0 7.06l-4.75 4.76 1.42 1.42 4.75-4.76a7.01 7.01 0 0 0 0-9.9z"/><path id="6f82A" d="M958 883v-2h18v2z"/><path id="6f82C" d="M960.27 890.7L959 889h4.24zm7.7-2.96a1 1 0 0 0-.97-.74h-10a1 1 0 0 0-.8 1.6l3 4a1 1 0 0 0 1.3.27l7-4a1 1 0 0 0 .47-1.13z"/><path id="6f82E" d="M981.9 889.55a1 1 0 0 0-.9-.55h-5v2h3l-3.17 4.22a4.47 4.47 0 0 1-3.55 1.78h-7.93v2h7.93c2.02 0 3.94-.97 5.15-2.58l4.37-5.82a1 1 0 0 0 .1-1.05z"/><path id="6f82G" d="M973 895v-2h5v2z"/><path id="6f82I" d="M958 874v-2h2v2z"/><path id="6f82K" d="M963 874v-2h2v2z"/><path id="6f82M" d="M968 874v-2h2v2z"/><path id="6f82O" d="M961 878v-2h2v2z"/><path id="6f82Q" d="M966 878v-2h2v2z"/><path id="6f82S" d="M971 878v-2h2v2z"/><linearGradient id="6f82b" x1="956" x2="956" y1="865" y2="899" gradientUnits="userSpaceOnUse"><stop offset="0" stop-color="#5077e7"/><stop offset="1" stop-color="#a776dd"/></linearGradient><linearGradient id="6f82d" x1="944" x2="944" y1="879" y2="885" gradientUnits="userSpaceOnUse"><stop offset="0" stop-color="#5077e7"/><stop offset="1" stop-color="#a776dd"/></linearGradient><linearGradient id="6f82f" x1="936.74" x2="936.74" y1="878.45" y2="893.31" gradientUnits="userSpaceOnUse"><stop offset="0" stop-color="#5077e7"/><stop offset="1" stop-color="#a776dd"/></linearGradient><linearGradient id="6f82h" x1="985" x2="985" y1="872" y2="892" gradientUnits="userSpaceOnUse"><stop offset="0" stop-color="#5077e7"/><stop offset="1" stop-color="#a776dd"/></linearGradient><linearGradient id="6f82j" x1="985" x2="985" y1="881" y2="883" gradientUnits="userSpaceOnUse"><stop offset="0" stop-color="#5077e7"/><stop offset="1" stop-color="#a776dd"/></linearGradient><linearGradient id="6f82l" x1="986" x2="986" y1="877" y2="879" gradientUnits="userSpaceOnUse"><stop offset="0" stop-color="#5077e7"/><stop offset="1" stop-color="#a776dd"/></linearGradient><linearGradient id="6f82n" x1="986" x2="986" y1="885" y2="887" gradientUnits="userSpaceOnUse"><stop offset="0" stop-color="#5077e7"/><stop offset="1" stop-color="#a776dd"/></linearGradient><linearGradient id="6f82p" x1="958" x2="958" y1="859" y2="867" gradientUnits="userSpaceOnUse"><stop offset="0" stop-color="#5077e7"/><stop offset="1" stop-color="#a776dd"/></linearGradient><linearGradient id="6f82r" x1="952.18" x2="953.84" y1="862.44" y2="863.55" gradientUnits="userSpaceOnUse"><stop offset="0" stop-color="#5077e7"/><stop offset="1" stop-color="#a776dd"/></linearGradient><linearGradient id="6f82t" x1="957.18" x2="958.84" y1="862.44" y2="863.55" gradientUnits="userSpaceOnUse"><stop offset="0" stop-color="#5077e7"/><stop offset="1" stop-color="#a776dd"/></linearGradient><linearGradient id="6f82v" x1="962.18" x2="963.84" y1="862.44" y2="863.55" gradientUnits="userSpaceOnUse"><stop offset="0" stop-color="#5077e7"/><stop offset="1" stop-color="#a776dd"/></linearGradient><linearGradient id="6f82x" x1="954.23" x2="954.23" y1="897.15" y2="904" gradientUnits="userSpaceOnUse"><stop offset="0" stop-color="#5077e7"/><stop offset="1" stop-color="#a776dd"/></linearGradient><linearGradient id="6f82z" x1="950.89" x2="950.89" y1="872.29" y2="891.7" gradientUnits="userSpaceOnUse"><stop offset="0" stop-color="#5077e7"/><stop offset="1" stop-color="#a776dd"/></linearGradient><linearGradient id="6f82B" x1="967" x2="967" y1="881" y2="883" gradientUnits="userSpaceOnUse"><stop offset="0" stop-color="#5077e7"/><stop offset="1" stop-color="#a776dd"/></linearGradient><linearGradient id="6f82D" x1="962" x2="962" y1="887" y2="893" gradientUnits="userSpaceOnUse"><stop offset="0" stop-color="#5077e7"/><stop offset="1" stop-color="#a776dd"/></linearGradient><linearGradient id="6f82F" x1="973.17" x2="973.17" y1="889" y2="899" gradientUnits="userSpaceOnUse"><stop offset="0" stop-color="#5077e7"/><stop offset="1" stop-color="#a776dd"/></linearGradient><linearGradient id="6f82H" x1="975.5" x2="975.5" y1="893" y2="895" gradientUnits="userSpaceOnUse"><stop offset="0" stop-color="#5077e7"/><stop offset="1" stop-color="#a776dd"/></linearGradient><linearGradient id="6f82J" x1="959" x2="959" y1="872" y2="874" gradientUnits="userSpaceOnUse"><stop offset="0" stop-color="#5077e7"/><stop offset="1" stop-color="#a776dd"/></linearGradient><linearGradient id="6f82L" x1="964" x2="964" y1="872" y2="874" gradientUnits="userSpaceOnUse"><stop offset="0" stop-color="#5077e7"/><stop offset="1" stop-color="#a776dd"/></linearGradient><linearGradient id="6f82N" x1="969" x2="969" y1="872" y2="874" gradientUnits="userSpaceOnUse"><stop offset="0" stop-color="#5077e7"/><stop offset="1" stop-color="#a776dd"/></linearGradient><linearGradient id="6f82P" x1="962" x2="962" y1="876" y2="878" gradientUnits="userSpaceOnUse"><stop offset="0" stop-color="#5077e7"/><stop offset="1" stop-color="#a776dd"/></linearGradient><linearGradient id="6f82R" x1="967" x2="967" y1="876" y2="878" gradientUnits="userSpaceOnUse"><stop offset="0" stop-color="#5077e7"/><stop offset="1" stop-color="#a776dd"/></linearGradient><linearGradient id="6f82T" x1="972" x2="972" y1="876" y2="878" gradientUnits="userSpaceOnUse"><stop offset="0" stop-color="#5077e7"/><stop offset="1" stop-color="#a776dd"/></linearGradient></defs><g><g transform="translate(-930 -859)"><g><g><g><use fill="url(#6f82b)" xlink:href="#6f82a"/></g></g></g><g><g><g><use fill="url(#6f82d)" xlink:href="#6f82c"/></g></g></g><g><g><g><use fill="url(#6f82f)" xlink:href="#6f82e"/></g></g></g><g><g><g><use fill="url(#6f82h)" xlink:href="#6f82g"/></g></g></g><g><g><g><use fill="url(#6f82j)" xlink:href="#6f82i"/></g></g></g><g><g><g><use fill="url(#6f82l)" xlink:href="#6f82k"/></g></g></g><g><g><g><use fill="url(#6f82n)" xlink:href="#6f82m"/></g></g></g><g><g><g><use fill="url(#6f82p)" xlink:href="#6f82o"/></g></g></g><g><g><g><use fill="url(#6f82r)" xlink:href="#6f82q"/></g></g></g><g><g><g><use fill="url(#6f82t)" xlink:href="#6f82s"/></g></g></g><g><g><g><use fill="url(#6f82v)" xlink:href="#6f82u"/></g></g></g><g><g><g><use fill="url(#6f82x)" xlink:href="#6f82w"/></g></g></g><g><g><g><use fill="url(#6f82z)" xlink:href="#6f82y"/></g></g></g><g><g><g><use fill="url(#6f82B)" xlink:href="#6f82A"/></g></g></g><g><g><g><use fill="url(#6f82D)" xlink:href="#6f82C"/></g></g></g><g><g><g><use fill="url(#6f82F)" xlink:href="#6f82E"/></g></g></g><g><g><g><use fill="url(#6f82H)" xlink:href="#6f82G"/></g></g></g><g><g><g><use fill="url(#6f82J)" xlink:href="#6f82I"/></g></g></g><g><g><g><use fill="url(#6f82L)" xlink:href="#6f82K"/></g></g></g><g><g><g><use fill="url(#6f82N)" xlink:href="#6f82M"/></g></g></g><g><g><g><use fill="url(#6f82P)" xlink:href="#6f82O"/></g></g></g><g><g><g><use fill="url(#6f82R)" xlink:href="#6f82Q"/></g></g></g><g><g><g><use fill="url(#6f82T)" xlink:href="#6f82S"/></g></g></g></g></g></svg>