<svg xmlns="http://www.w3.org/2000/svg" xmlns:xlink="http://www.w3.org/1999/xlink" width="60" height="60" viewBox="0 0 60 60"><defs><path id="q1bra" d="M428.25 1300h-52.5v-8h52.5zm0 44h-52.5v-40h52.5zm1.88-56h-56.25c-1.04 0-1.88.9-1.88 2v56c0 1.1.84 2 1.88 2h56.25c1.03 0 1.87-.9 1.87-2v-56c0-1.1-.84-2-1.88-2z"/><path id="q1brc" d="M377.63 1298v-4h3.75v4z"/><path id="q1bre" d="M383.25 1298v-4H387v4z"/><path id="q1brg" d="M422.63 1298v-4h3.75v4z"/><path id="q1bri" d="M388.88 1318h-3.76v-4h3.76zm1.87-8h-7.5c-1.04 0-1.87.9-1.87 2v8c0 1.1.83 2 1.87 2h7.5c1.04 0 1.88-.9 1.88-2v-8c0-1.1-.84-2-1.88-2z"/><path id="q1brk" d="M388.88 1334h-3.76v-4h3.76zm1.87-8h-7.5c-1.04 0-1.87.9-1.87 2v8c0 1.1.83 2 1.87 2h7.5c1.04 0 1.88-.9 1.88-2v-8c0-1.1-.84-2-1.88-2z"/><path id="q1brm" d="M396.38 1314v-4h11.25v4z"/><path id="q1bro" d="M396.38 1322v-4h26.25v4z"/><path id="q1brq" d="M396.38 1330v-4h11.25v4z"/><path id="q1brs" d="M396.38 1338v-4h26.25v4z"/><linearGradient id="q1brb" x1="402" x2="402" y1="1288" y2="1348" gradientUnits="userSpaceOnUse"><stop offset="0" stop-color="#5077e7"/><stop offset="1" stop-color="#a776dd"/></linearGradient><linearGradient id="q1brd" x1="379.51" x2="379.51" y1="1294" y2="1298" gradientUnits="userSpaceOnUse"><stop offset="0" stop-color="#5077e7"/><stop offset="1" stop-color="#a776dd"/></linearGradient><linearGradient id="q1brf" x1="385.13" x2="385.13" y1="1294" y2="1298" gradientUnits="userSpaceOnUse"><stop offset="0" stop-color="#5077e7"/><stop offset="1" stop-color="#a776dd"/></linearGradient><linearGradient id="q1brh" x1="424.51" x2="424.51" y1="1294" y2="1298" gradientUnits="userSpaceOnUse"><stop offset="0" stop-color="#5077e7"/><stop offset="1" stop-color="#a776dd"/></linearGradient><linearGradient id="q1brj" x1="387.01" x2="387.01" y1="1310" y2="1322" gradientUnits="userSpaceOnUse"><stop offset="0" stop-color="#5077e7"/><stop offset="1" stop-color="#a776dd"/></linearGradient><linearGradient id="q1brl" x1="387.01" x2="387.01" y1="1326" y2="1338" gradientUnits="userSpaceOnUse"><stop offset="0" stop-color="#5077e7"/><stop offset="1" stop-color="#a776dd"/></linearGradient><linearGradient id="q1brn" x1="402.01" x2="402.01" y1="1310" y2="1314" gradientUnits="userSpaceOnUse"><stop offset="0" stop-color="#5077e7"/><stop offset="1" stop-color="#a776dd"/></linearGradient><linearGradient id="q1brp" x1="409.51" x2="409.51" y1="1318" y2="1322" gradientUnits="userSpaceOnUse"><stop offset="0" stop-color="#5077e7"/><stop offset="1" stop-color="#a776dd"/></linearGradient><linearGradient id="q1brr" x1="402.01" x2="402.01" y1="1326" y2="1330" gradientUnits="userSpaceOnUse"><stop offset="0" stop-color="#5077e7"/><stop offset="1" stop-color="#a776dd"/></linearGradient><linearGradient id="q1brt" x1="409.51" x2="409.51" y1="1334" y2="1338" gradientUnits="userSpaceOnUse"><stop offset="0" stop-color="#5077e7"/><stop offset="1" stop-color="#a776dd"/></linearGradient></defs><g><g transform="translate(-372 -1288)"><g><g><g><use fill="url(#q1brb)" xlink:href="#q1bra"/></g></g></g><g><g><g><use fill="url(#q1brd)" xlink:href="#q1brc"/></g></g></g><g><g><g><use fill="url(#q1brf)" xlink:href="#q1bre"/></g></g></g><g><g><g><use fill="url(#q1brh)" xlink:href="#q1brg"/></g></g></g><g><g><g><use fill="url(#q1brj)" xlink:href="#q1bri"/></g></g></g><g><g><g><use fill="url(#q1brl)" xlink:href="#q1brk"/></g></g></g><g><g><g><use fill="url(#q1brn)" xlink:href="#q1brm"/></g></g></g><g><g><g><use fill="url(#q1brp)" xlink:href="#q1bro"/></g></g></g><g><g><g><use fill="url(#q1brr)" xlink:href="#q1brq"/></g></g></g><g><g><g><use fill="url(#q1brt)" xlink:href="#q1brs"/></g></g></g></g></g></svg>