<svg xmlns="http://www.w3.org/2000/svg" xmlns:xlink="http://www.w3.org/1999/xlink" width="50" height="50" viewBox="0 0 50 50"><defs><path id="rztva" d="M1013.85 1103.27h-17.6a.98.98 0 0 0 0 1.96h17.6a.98.98 0 0 0 0-1.96z"/><path id="rztvc" d="M1014.54 1108.25a.98.98 0 0 0-1.38 0 .98.98 0 0 0 0 1.38.98.98 0 0 0 1.38 0 .98.98 0 0 0 0-1.38z"/><path id="rztve" d="M1009.68 1107.96h-13.44a.98.98 0 0 0 0 1.95h13.44a.98.98 0 0 0 0-1.95z"/><path id="rztvg" d="M1013.85 1112.65h-13.5a.98.98 0 0 0 0 1.95h13.5a.98.98 0 0 0 0-1.95z"/><path id="rztvi" d="M996.3 1112.65h-.07a.98.98 0 0 0 0 1.95h.07a.98.98 0 0 0 0-1.95z"/><path id="rztvk" d="M1018.05 1142.13h-9.74v-3.12c0-1.8-.93-3.43-2.41-4.36l1.73-.57a5.44 5.44 0 0 0 5.02 0l4 1.33a2.02 2.02 0 0 1 1.4 1.92zm-14.25 3.92v-3.42a.98.98 0 0 0-1.96 0v3.42h-13.68v-3.42a.98.98 0 0 0-1.96 0v3.42h-2.53V1139c0-1.38.88-2.6 2.19-3.03l3.8-1.26 4.66 4.65a.97.97 0 0 0 1.38 0l4.66-4.65 3.8 1.26a3.18 3.18 0 0 1 2.2 3.03v7.04zm-22.08-7.04v3.12h-9.77v-4.8c0-.87.56-1.65 1.4-1.92l4-1.33a5.44 5.44 0 0 0 5.02 0l1.75.58a5.13 5.13 0 0 0-2.4 4.35zm-5.39-10.97a3.53 3.53 0 0 1 7.06 0v1.17a3.53 3.53 0 0 1-7.06 0zm21.66 6.28l-2.98 2.98-2.97-2.98a7.18 7.18 0 0 0 5.95 0zm-8.25-6.9a6.97 6.97 0 0 0 3.83-1.82 6.99 6.99 0 0 0 6.71 1.63v.52a5.27 5.27 0 0 1-10.54 0zm5.27-6.57c2.6 0 4.75 1.88 5.19 4.35a5.1 5.1 0 0 1-5.86-1.64.98.98 0 0 0-1.54 0 5.06 5.06 0 0 1-3.01 1.87 5.28 5.28 0 0 1 5.22-4.58zm11.6 7.19a3.53 3.53 0 0 1 7.06 0v1.17a3.53 3.53 0 0 1-3.53 3.53 3.5 3.5 0 0 1-1.96-.6 3.53 3.53 0 0 1-1.57-2.93v-1.17zm10.66 5.51l-2.84-.94a5.45 5.45 0 0 0 1.19-3.4v-1.17a5.49 5.49 0 0 0-10.96 0v1.17c0 1.29.45 2.47 1.19 3.4l-2.82.94-2.72-.9a7.2 7.2 0 0 0 1.92-4.9v-1.63-.41l-.01-.02a7.23 7.23 0 0 0-14.43.43v1.63a7.2 7.2 0 0 0 1.92 4.9l-2.73.9-2.83-.94a5.45 5.45 0 0 0 1.19-3.4v-1.17a5.49 5.49 0 0 0-10.96 0v1.17c0 1.29.45 2.47 1.19 3.4l-2.84.94a3.97 3.97 0 0 0-2.73 3.78v5.78c0 .54.44.98.98.98h10.74v2.93c0 .54.43.98.97.98h24.64c.54 0 .98-.44.98-.98v-2.93h10.71c.54 0 .98-.44.98-.98v-5.78c0-1.72-1.1-3.23-2.73-3.78z"/><path id="rztvm" d="M1015.12 1098h-40.24a4.89 4.89 0 0 0-4.88 4.88v13.09c0 2.69 2.19 4.88 4.88 4.88h9.98a.98.98 0 0 0 0-1.95h-9.98a2.93 2.93 0 0 1-2.93-2.93v-13.09a2.93 2.93 0 0 1 2.93-2.93h40.24a2.93 2.93 0 0 1 2.93 2.93v13.09a2.93 2.93 0 0 1-2.93 2.93h-7.3c-.2 0-.4.06-.57.18l-2.17 1.57v-.78a.98.98 0 0 0-.98-.97h-2.17a.98.98 0 0 0 0 1.95h1.2v1.71a.98.98 0 0 0 1.54.8l3.47-2.51h6.98c2.69 0 4.88-2.2 4.88-4.88v-13.09c0-2.69-2.19-4.88-4.88-4.88z"/><path id="rztvo" d="M989.24 1113.43c0 .43-.35.78-.78.78h-10.94a.78.78 0 0 1-.78-.78v-8c0-.44.35-.8.78-.8h10.94c.43 0 .78.36.78.8zm-.78-10.74h-10.94a2.74 2.74 0 0 0-2.73 2.73v8c0 1.52 1.22 2.74 2.73 2.74h10.94c1.5 0 2.73-1.22 2.73-2.73v-8c0-1.52-1.23-2.74-2.73-2.74z"/><path id="rztvq" d="M984.52 1109.54l-2.3 1.33c-.02.01-.07.04-.14 0-.06-.04-.06-.1-.06-.11v-2.67c0-.02 0-.07.06-.11a.13.13 0 0 1 .07-.02l.07.02 2.3 1.33c.02.01.07.04.07.11 0 .08-.05.1-.07.12zm.98-1.92l-2.3-1.33a2.06 2.06 0 0 0-2.1 0 2.06 2.06 0 0 0-1.03 1.8v2.67a2.08 2.08 0 0 0 3.13 1.8l2.3-1.33a2.06 2.06 0 0 0 1.04-1.8c0-.76-.39-1.43-1.04-1.81z"/><path id="rztvs" d="M995.69 1141.74a.98.98 0 0 0-1.38 0 .98.98 0 0 0 0 1.38.98.98 0 0 0 1.38 0 .98.98 0 0 0 0-1.38z"/><linearGradient id="rztvb" x1="1005.05" x2="1005.05" y1="1103.27" y2="1105.22" gradientUnits="userSpaceOnUse"><stop offset="0" stop-color="#5077e7"/><stop offset="1" stop-color="#a776dd"/></linearGradient><linearGradient id="rztvd" x1="1013.85" x2="1013.85" y1="1107.96" y2="1109.91" gradientUnits="userSpaceOnUse"><stop offset="0" stop-color="#5077e7"/><stop offset="1" stop-color="#a776dd"/></linearGradient><linearGradient id="rztvf" x1="1002.97" x2="1002.97" y1="1107.96" y2="1109.91" gradientUnits="userSpaceOnUse"><stop offset="0" stop-color="#5077e7"/><stop offset="1" stop-color="#a776dd"/></linearGradient><linearGradient id="rztvh" x1="1007.11" x2="1007.11" y1="1112.65" y2="1114.6" gradientUnits="userSpaceOnUse"><stop offset="0" stop-color="#5077e7"/><stop offset="1" stop-color="#a776dd"/></linearGradient><linearGradient id="rztvj" x1="996.26" x2="996.26" y1="1112.65" y2="1114.6" gradientUnits="userSpaceOnUse"><stop offset="0" stop-color="#5077e7"/><stop offset="1" stop-color="#a776dd"/></linearGradient><linearGradient id="rztvl" x1="995" x2="995" y1="1118.9" y2="1148" gradientUnits="userSpaceOnUse"><stop offset="0" stop-color="#5077e7"/><stop offset="1" stop-color="#a776dd"/></linearGradient><linearGradient id="rztvn" x1="995" x2="995" y1="1098" y2="1123.54" gradientUnits="userSpaceOnUse"><stop offset="0" stop-color="#5077e7"/><stop offset="1" stop-color="#a776dd"/></linearGradient><linearGradient id="rztvp" x1="982.99" x2="982.99" y1="1102.69" y2="1116.17" gradientUnits="userSpaceOnUse"><stop offset="0" stop-color="#5077e7"/><stop offset="1" stop-color="#a776dd"/></linearGradient><linearGradient id="rztvr" x1="983.31" x2="983.31" y1="1106" y2="1112.84" gradientUnits="userSpaceOnUse"><stop offset="0" stop-color="#5077e7"/><stop offset="1" stop-color="#a776dd"/></linearGradient><linearGradient id="rztvt" x1="995" x2="995" y1="1141.46" y2="1143.41" gradientUnits="userSpaceOnUse"><stop offset="0" stop-color="#5077e7"/><stop offset="1" stop-color="#a776dd"/></linearGradient></defs><g><g transform="translate(-970 -1098)"><g><g><g><use fill="url(#rztvb)" xlink:href="#rztva"/></g></g></g><g><g><g><use fill="url(#rztvd)" xlink:href="#rztvc"/></g></g></g><g><g><g><use fill="url(#rztvf)" xlink:href="#rztve"/></g></g></g><g><g><g><use fill="url(#rztvh)" xlink:href="#rztvg"/></g></g></g><g><g><g><use fill="url(#rztvj)" xlink:href="#rztvi"/></g></g></g><g><g><g><use fill="url(#rztvl)" xlink:href="#rztvk"/></g></g></g><g><g><g><use fill="url(#rztvn)" xlink:href="#rztvm"/></g></g></g><g><g><g><use fill="url(#rztvp)" xlink:href="#rztvo"/></g></g></g><g><g><g><use fill="url(#rztvr)" xlink:href="#rztvq"/></g></g></g><g><g><g><use fill="url(#rztvt)" xlink:href="#rztvs"/></g></g></g></g></g></svg>