<svg xmlns="http://www.w3.org/2000/svg" xmlns:xlink="http://www.w3.org/1999/xlink" width="45" height="55" viewBox="0 0 45 55"><defs><path id="21nga" d="M775.36 1131.13a1.07 1.07 0 1 0 0 2.15 1.07 1.07 0 0 0 0-2.15z"/><path id="21ngc" d="M812.86 1133.4c0 6.3-1.99 12.3-5.74 17.36-4.01 5.41-9.2 9.32-14.62 11.04-5.42-1.72-10.6-5.63-14.62-11.04a28.92 28.92 0 0 1-5.74-17.35v-13.04a29.9 29.9 0 0 0 15.04-4.65 32.37 32.37 0 0 0 5.33-4.17 28.97 28.97 0 0 0 20.35 8.82zm1.07-15.16c-11.68 0-17.95-6.26-20.01-8.31a5.47 5.47 0 0 0-.86-.77 1.07 1.07 0 0 0-1.12 0c-.16.1-.28.22-.58.5-.76.76-2.55 2.5-5.31 4.24a27.8 27.8 0 0 1-14.98 4.34c-.59 0-1.07.48-1.07 1.07v14.1c0 6.76 2.13 13.2 6.16 18.63 4.36 5.89 10.06 10.12 16.03 11.91a1.07 1.07 0 0 0 .62 0c5.97-1.8 11.67-6.02 16.03-11.9a31.06 31.06 0 0 0 6.16-18.64v-14.1c0-.6-.48-1.07-1.07-1.07z"/><path id="21nge" d="M809.76 1122.3c-5.9-.65-11.5-3.04-16.63-7.1-.38-.3-.92-.31-1.31-.01-5.1 3.9-10.98 6.42-16.59 7.1-.54.06-.94.52-.94 1.06v4.56a1.07 1.07 0 1 0 2.14 0v-3.62a36.26 36.26 0 0 0 16.03-6.9c5 3.8 10.41 6.13 16.11 6.93v9.09c0 5.36-1.69 10.48-4.88 14.78-3.07 4.13-6.93 7.15-11.19 8.75-4.26-1.6-8.12-4.62-11.18-8.74a24.76 24.76 0 0 1-4.72-11.83 1.07 1.07 0 1 0-2.13.25 26.91 26.91 0 0 0 5.13 12.86c3.4 4.58 7.74 7.9 12.54 9.62a1.07 1.07 0 0 0 .72 0c4.8-1.71 9.14-5.04 12.54-9.62a26.77 26.77 0 0 0 5.31-16.07v-10.03c0-.55-.4-1.01-.95-1.07z"/><path id="21ngg" d="M796.54 1136.83c-.25.25-.37.6-.3.95l.76 4.52-4.04-2.13a1.07 1.07 0 0 0-1 0l-4.05 2.13.77-4.52c.06-.35-.05-.7-.3-.95l-3.28-3.2 4.53-.66c.35-.05.65-.27.8-.59l2.03-4.1 2.02 4.1c.16.32.46.54.8.6l4.53.65zm6.6-4.28a1.07 1.07 0 0 0-.87-.73l-6.12-.9-2.73-5.55a1.07 1.07 0 0 0-1.92 0l-2.74 5.56-6.12.89a1.07 1.07 0 0 0-.59 1.83l4.43 4.33-1.05 6.1a1.08 1.08 0 0 0 1.56 1.14l5.47-2.89 5.47 2.89a1.07 1.07 0 0 0 1.55-1.14l-1.04-6.1 4.43-4.33c.29-.29.4-.71.27-1.1z"/><linearGradient id="21ngb" x1="775.36" x2="775.36" y1="1131.13" y2="1133.28" gradientUnits="userSpaceOnUse"><stop offset="0" stop-color="#5077e7"/><stop offset="1" stop-color="#a776dd"/></linearGradient><linearGradient id="21ngd" x1="792.5" x2="792.5" y1="1109" y2="1164" gradientUnits="userSpaceOnUse"><stop offset="0" stop-color="#5077e7"/><stop offset="1" stop-color="#a776dd"/></linearGradient><linearGradient id="21ngf" x1="792.51" x2="792.51" y1="1114.97" y2="1159.16" gradientUnits="userSpaceOnUse"><stop offset="0" stop-color="#5077e7"/><stop offset="1" stop-color="#a776dd"/></linearGradient><linearGradient id="21ngh" x1="792.46" x2="792.46" y1="1124.77" y2="1145.34" gradientUnits="userSpaceOnUse"><stop offset="0" stop-color="#5077e7"/><stop offset="1" stop-color="#a776dd"/></linearGradient></defs><g><g transform="translate(-770 -1109)"><g><g><g><use fill="url(#21ngb)" xlink:href="#21nga"/></g></g></g><g><g><g><use fill="url(#21ngd)" xlink:href="#21ngc"/></g></g></g><g><g><g><use fill="url(#21ngf)" xlink:href="#21nge"/></g></g></g><g><g><g><use fill="url(#21ngh)" xlink:href="#21ngg"/></g></g></g></g></g></svg>