<svg xmlns="http://www.w3.org/2000/svg" width="80" height="82" viewBox="0 0 80 82"><defs><linearGradient id="64vla" x1="40" x2="40" y1="82" y2="0" gradientUnits="userSpaceOnUse"><stop offset="0" stop-color="#a776dd"/><stop offset="1" stop-color="#5077e7"/></linearGradient></defs><g><g><path fill="url(#64vla)" d="M79.962 49.678a4.567 4.567 0 0 1-1.759 3.063l-8.558 6.561a4.546 4.546 0 0 1-2.797.95 4.61 4.61 0 0 1-2.754-.904c-1.15 1.88-2.17 2.885-4.688 4.926.973 1.378 1.33 2.895.983 4.335a4.313 4.313 0 0 1-3.116 3.177 4.596 4.596 0 0 1-2.07.054 4.603 4.603 0 0 1-1.212 2.164c-.857.865-2.07 1.358-3.335 1.358h-.048c-.066 0-.13-.003-.196-.006a4.989 4.989 0 0 1-1.25 2.393 4.139 4.139 0 0 1-2.992 1.286c-.422 0-.862-.065-1.313-.203a5.493 5.493 0 0 1-1.2 1.83A4.502 4.502 0 0 1 40.444 82a4.73 4.73 0 0 1-3.243-1.304l-1.816-1.709c-.92.677-1.876.97-2.775.97a4.219 4.219 0 0 1-3.138-1.418 4.21 4.21 0 0 1-.973-1.841 4.26 4.26 0 0 1-1.213-.214c-1.584-.523-2.822-1.91-3.154-3.536-.01-.046-.015-.092-.023-.138-1.746-.08-3.37-1.288-4.082-3.063a4.65 4.65 0 0 1-.234-.78c-1.764-.06-3.396-1.302-4.087-3.134-.484-1.282-.39-2.61.212-3.716L14.81 60.59a4.667 4.667 0 0 1-1.659.307 4.588 4.588 0 0 1-2.794-.944l-8.555-6.568a4.57 4.57 0 0 1-1.761-3.07 4.578 4.578 0 0 1 .93-3.411l2.221-2.865a1.596 1.596 0 0 1 2.251-.28c.699.55.823 1.564.278 2.267L3.5 48.893c-.225.29-.323.648-.277 1.01.047.365.233.69.524.913l8.553 6.566a1.441 1.441 0 0 0 1.984-.261l13.07-16.859c.224-.289.322-.65.275-1.015a1.356 1.356 0 0 0-.522-.909l-8.557-6.56a1.439 1.439 0 0 0-1.987.258l-3.114 4.018a1.596 1.596 0 0 1-2.251.28 1.622 1.622 0 0 1-.277-2.267l3.115-4.02c1.558-2.006 4.456-2.38 6.46-.837l8.555 6.559a4.57 4.57 0 0 1 1.759 3.063c.038.293.047.585.03.874l8.273 1.274.146-.096c3.27-2.141 6.638-2.391 9.898-2.142a4.572 4.572 0 0 1 1.797-3.617l8.553-6.566a4.568 4.568 0 0 1 2.799-.946c1.446 0 2.78.653 3.66 1.792L79.036 46.26a4.59 4.59 0 0 1 .927 3.417zM25.554 60.936l.103-.093.013-.013.003-.002.942-.855c.378-.344.482-.75.309-1.204-.163-.425-.61-.883-1.209-.883-.408 0-.863.213-1.315.617l-5.403 4.836-.005.005-.005.005c-.391.349-.486.798-.283 1.337.224.592.76 1.056 1.22 1.056.224 0 .463-.113.708-.337zm4.175 4.14c.001 0 .002 0 .003-.002l.007-.006.333-.294c.37-.328.472-.725.302-1.178-.171-.456-.645-.947-1.282-.947-.404 0-.85.206-1.29.595l-.096.087a3573.93 3573.93 0 0 1-4.324 3.93l-.016.016-.002.001c-.078.085-.153.157-.216.218-.097.094-.406.394-.146 1.042.236.589.802 1.05 1.289 1.05.233 0 .465-.106.709-.322zm.076 7.656l1.97-1.79c.008-.007.014-.016.023-.023.022-.021.046-.04.069-.06l2.153-1.956c.806-.734.146-1.524.068-1.612-.554-.624-1.386-.549-2.226.2l-3.506 3.104c-.013.012-.024.025-.038.037l-.535.47c-.427.38-.595.772-.509 1.196.1.487.525.957 1.011 1.117.385.127.72.044 1.055-.26l.376-.342.064-.061.025-.02zm3.923 3.456l.638-.578.017-.015 1.471-1.331c.486-.44.293-.888.134-1.116-.123-.177-.592-.72-1.458-.255l-.02.01a2.513 2.513 0 0 0-.466.328l-2.148 1.952c-.535.517-.208 1.007-.04 1.196.175.195.824.756 1.872-.191zm22.285-10.906L44.73 55.178l-.006-.007-.008-.006-2.44-2.238-4.23 2.111-.063.03a6.179 6.179 0 0 1-2.512.538c-2.032 0-3.946-1.021-4.905-2.807-1.199-2.231-.868-5.668 3.655-8.623l.845-.552-5.582-.86-12.209 15.748.9 1.24 4.095-3.664c1.05-.938 2.24-1.432 3.446-1.432 1.838 0 3.526 1.186 4.201 2.953.247.646.336 1.31.276 1.954a4.684 4.684 0 0 1 3.181 2.892c.151.402.24.81.271 1.216a4.436 4.436 0 0 1 2.833 1.466c1.26 1.417 1.477 3.298.697 4.847a4.265 4.265 0 0 1 1.44 1.31c1.21 1.74.957 3.95-.617 5.372l-.194.176 1.587 1.494c.591.556 1.469.575 1.996.043.362-.364.61-.883.604-1.262-.003-.163-.052-.21-.085-.24l-.01-.011-1.448-1.373a1.623 1.623 0 0 1-.069-2.283 1.596 1.596 0 0 1 2.268-.068l1.895 1.796c.681.645 1.638 1.266 2.318.562.44-.458.583-1.201.353-1.642l-.179-.186a1.608 1.608 0 0 1-.17-.213l-4.198-4.232a1.623 1.623 0 0 1 .001-2.284 1.597 1.597 0 0 1 2.269.001l4.426 4.463c.12.121.229.248.33.378.237.219.576.344.947.347h.017c.42 0 .807-.149 1.066-.41.263-.265.406-.621.405-1.003a1.358 1.358 0 0 0-.377-.946l-.03-.032-6.045-6.016a1.623 1.623 0 0 1-.013-2.284 1.596 1.596 0 0 1 2.268-.014l6.054 6.026c.063.063.123.127.182.192.782.808 1.636 1.186 2.31 1.012.407-.105.697-.4.796-.81.178-.74-.292-1.7-1.26-2.565zm5.866-8.509L50.526 42.124c-3.921-.458-6.787-.32-9.52 1.469l-5.039 3.293c-2.252 1.47-3.24 3.148-2.58 4.377.48.894 1.863 1.473 3.27.864l5.175-2.584a1.594 1.594 0 0 1 1.792.253l3.245 2.974 10.268 9.197c2.907-2.34 3.543-3.027 4.741-5.194zm14.626-8.526L63.437 31.39a1.416 1.416 0 0 0-1.132-.547 1.4 1.4 0 0 0-.856.287l-8.55 6.563a1.36 1.36 0 0 0-.524.913c-.046.363.052.721.276 1.01l13.065 16.859c.27.346.683.546 1.132.546.219 0 .544-.05.851-.287l8.56-6.563c.29-.222.475-.545.522-.908a1.364 1.364 0 0 0-.276-1.016zM21.51 17.448C21.51 7.828 29.274 0 38.817 0c2.585 0 5.073.561 7.394 1.669 6.025 2.869 9.918 9.063 9.918 15.78 0 9.623-7.766 17.452-17.312 17.452-2.863 0-5.707-.723-8.225-2.091-5.603-3.06-9.082-8.945-9.082-15.362zm3.207 0c0 5.23 2.836 10.028 7.4 12.521a14.08 14.08 0 0 0 6.7 1.702c7.778 0 14.105-6.38 14.105-14.223 0-5.474-3.173-10.522-8.084-12.86a13.873 13.873 0 0 0-6.02-1.358c-7.775 0-14.1 6.378-14.1 14.218zM7.067 39.037l.019-.023a1.596 1.596 0 0 1 2.254-.255c.692.556.805 1.572.253 2.27l-.018.022a1.596 1.596 0 0 1-2.254.255 1.623 1.623 0 0 1-.253-2.27zm29.894-18.821v1.344h5.184v1.992h-5.184v2.16h-3.913v-2.16H30.72V21.56h2.328V8.91h7.273c4.488 0 7.296 1.897 7.296 5.665 0 3.745-2.808 5.64-7.296 5.64zm3.336-8.137H36.96v5.088h3.336c2.16 0 3.384-.911 3.384-2.568 0-1.632-1.224-2.52-3.384-2.52z"/></g></g></svg>