<svg xmlns="http://www.w3.org/2000/svg" width="90" height="90" viewBox="0 0 90 90"><defs><linearGradient id="izdya" x1="45" x2="45" y1="90" y2="0" gradientUnits="userSpaceOnUse"><stop offset="0" stop-color="#a776dd"/><stop offset="1" stop-color="#5077e7"/></linearGradient></defs><g><g><path fill="url(#izdya)" d="M89.981 79.495v4.502a5.995 5.995 0 0 1-6 6.003H6c-3.319 0-6-2.683-6-6.003v-4.502c0-.825.675-1.5 1.5-1.5h3V50.984h3v27.01h3v-27.01h3v27.01h22.312c1.594-.018 3.057.901 3.77 2.327.205.412.618.675 1.087.675h8.643c.47 0 .882-.263 1.088-.675.694-1.426 2.175-2.326 3.769-2.326H76.48v-3.001h3v3h3v-3h3v3h3c.825 0 1.5.676 1.5 1.501zm-3.019 4.502v-3.001H54.15c-.45 0-.863.263-1.069.675-.694 1.426-2.175 2.326-3.769 2.326H40.67c-1.594.019-3.057-.9-3.77-2.326a1.209 1.209 0 0 0-1.087-.675H3v3.001a3.01 3.01 0 0 0 3 3.001h77.981c1.65 0 3-1.35 3-3zM12 23.972a4.49 4.49 0 0 0-4.5 4.502v1.5h-3v-1.5a7.5 7.5 0 0 1 7.5-7.503h27v3.001zm1.5 3.002H42v3H10.5a3.01 3.01 0 0 1 3-3zm76.012-4.108c.32.281.488.694.488 1.106 0 .413-.169.826-.488 1.107l-4.406 4.014 1.8 5.684c.131.394.075.825-.131 1.2-.206.357-.563.62-.975.713l-5.813 1.276-1.275 5.815a1.493 1.493 0 0 1-1.913 1.107l-5.68-1.801-4.013 4.408a1.478 1.478 0 0 1-1.106.487c-.413 0-.825-.169-1.106-.487l-4.013-4.408-5.681 1.8a1.493 1.493 0 0 1-1.913-1.106l-1.275-5.815L46.2 36.69a1.495 1.495 0 0 1-1.106-1.913l1.8-5.684-4.407-4.014A1.479 1.479 0 0 1 42 23.972c0-.412.169-.825.487-1.106l4.388-3.996-1.8-5.683a1.504 1.504 0 0 1 .131-1.201 1.52 1.52 0 0 1 .975-.713l5.813-1.275 1.275-5.815a1.494 1.494 0 0 1 1.913-1.107l5.68 1.8L64.875.47c.3-.3.712-.47 1.125-.47.412 0 .806.17 1.106.47l4.013 4.39L76.8 3.057a1.492 1.492 0 0 1 1.912 1.106L79.97 9.98l5.812 1.275a1.495 1.495 0 0 1 1.106 1.913l-1.8 5.685zM86.27 23.99l-3.9-3.545a1.468 1.468 0 0 1-.413-1.557l1.594-5.027-5.156-1.126a1.545 1.545 0 0 1-1.144-1.144l-1.125-5.158L71.1 8.028a1.476 1.476 0 0 1-1.556-.412L66 3.714l-3.544 3.902a1.503 1.503 0 0 1-1.556.412l-5.025-1.594-1.125 5.14a1.545 1.545 0 0 1-1.144 1.144l-5.156 1.125 1.594 5.027a1.478 1.478 0 0 1-.413 1.557l-3.9 3.545 3.9 3.545c.431.395.581.995.413 1.557l-1.594 5.027 5.137 1.126a1.545 1.545 0 0 1 1.144 1.144l1.125 5.159 5.025-1.595a1.478 1.478 0 0 1 1.556.413l3.544 3.902 3.563-3.902a1.503 1.503 0 0 1 1.556-.413l5.025 1.595 1.125-5.14a1.545 1.545 0 0 1 1.144-1.144l5.156-1.126-1.594-5.027a1.478 1.478 0 0 1 .413-1.557zM57.43 30.425l15-15.006 2.119 2.12-15 15.006zm1.05-6.453a4.49 4.49 0 0 1-4.5-4.502 4.49 4.49 0 0 1 4.5-4.501 4.49 4.49 0 0 1 4.5 4.501 4.49 4.49 0 0 1-4.5 4.502zm.019-3c.825 0 1.5-.676 1.5-1.502 0-.825-.675-1.5-1.5-1.5s-1.5.675-1.5 1.5c0 .844.656 1.501 1.5 1.501zm19.481 7.502a4.49 4.49 0 0 1-4.5 4.502 4.49 4.49 0 0 1-4.5-4.502 4.49 4.49 0 0 1 4.5-4.502c2.494 0 4.5 2.026 4.5 4.502zm-3 0c0-.825-.675-1.5-1.5-1.5s-1.5.675-1.5 1.5c0 .826.675 1.5 1.5 1.5.844 0 1.5-.674 1.5-1.5zM40.012 41.08l7.894 22.904c.169.469.094.975-.187 1.369a1.454 1.454 0 0 1-1.22.638h-.018l-16.312-.263 3.112 7.166c.206.469.169.994-.112 1.425a1.53 1.53 0 0 1-1.257.676h-5.906c-.581 0-1.087-.338-1.35-.845l-3.131-6.32a5.73 5.73 0 0 1-4.725-3.884c-.881-2.588.187-5.44 2.55-6.79l3.562-2.12 14.644-14.5a1.501 1.501 0 0 1 1.388-.394c.506.113.9.47 1.068.938zm-18.75 23.616c.77.32 1.632.3 2.382-.075l2.212-1.106-2.625-5.196-2.344 1.388c-1.143.657-1.65 2.045-1.237 3.282a2.84 2.84 0 0 0 1.612 1.707zm8.344 7.297l-2.494-5.758-2.156 1.069c-.112.056-.206.075-.3.112l2.269 4.577zm14.775-9.022L37.97 44.343l-12.3 12.174 3.13 6.19zm2.344-11.593l4.969-1.725.975 2.832-4.95 1.726zm-3.881-9.979l3.3-3.451 2.156 2.082L45 43.48zM51 61.488h4.5v3.001H51zm38.981-9.004v18.008c0 .825-.675 1.5-1.5 1.5h-28.5c-.825 0-1.5-.675-1.5-1.5V52.484c0-.825.675-1.5 1.5-1.5h16.5v-3.002h3v3.002h3V40.479h3v10.505h3c.825 0 1.5.675 1.5 1.5zm-3 1.5h-25.5v15.007h25.5zm-22.5 3.002h6v3.001h-6zm9 0h10.5v3.001h-10.5zm-9 6.002h19.5v3.002h-19.5zM0 46.482V34.477c0-.826.675-1.501 1.5-1.501H24c.825 0 1.5.675 1.5 1.5v12.006c0 .825-.675 1.5-1.5 1.5H1.5c-.825 0-1.5-.675-1.5-1.5zm3-1.5h19.5v-9.005H3zm3-6.004h3v3.002H6zm6 0h7.5v3.002H12z"/></g></g></svg>