<svg xmlns="http://www.w3.org/2000/svg" xmlns:xlink="http://www.w3.org/1999/xlink" width="32" height="38" viewBox="0 0 32 38"><defs><path id="x2r3a" d="M797.8 1863.78l-1.57-7.1c.32-.1 1.33-.54 1.53-.66l3.1 6.62zm-25.23 4.6v-34.77h25.94v6.8a8.72 8.72 0 0 0-10.4.35v-.04h-10.5v1.62h8.93a9.3 9.3 0 0 0-1.65 7.84h-7.28v1.61h7.83a9.03 9.03 0 0 0 2.32 3.12l-2.18 4.73h-7.97v1.61h7.23l-1.08 2.35 6.38 2.26 2-8.92a9.22 9.22 0 0 0 2.5.04l1.97 8.88 1.9-.67v3.2zm17.99-11.83l-1.6 7.22-3.07-1.13 3.2-6.77c.46.27.96.5 1.47.68zm10.31-8.55c0 3-1.65 5.67-4.26 6.88-.94.4-1.96.64-3.07.64a7.47 7.47 0 0 1-7.33-7.52 7.47 7.47 0 0 1 7.33-7.52c4.02 0 7.25 3.32 7.33 7.52zm-1.8 7.09a9.28 9.28 0 0 0 3.3-7.09c0-2.4-.85-4.57-2.28-6.18v-9.01c0-.5-.32-.81-.79-.81h-27.51c-.48 0-.79.33-.79.8v36.4c0 .48.32.8.79.8h27.5a.8.8 0 0 0 .79-.8v-4.56l2.92-1.03z"/><path id="x2r3c" d="M794.32 1846.8l1.73.24-1.26 1.3.33 1.77-1.58-.81-1.57.9.32-1.87-1.28-1.29 1.74-.24.78-1.61zm-2.68-1.54l-4.1.65 3 2.99-.71 4.2 3.7-1.86 3.63 1.94-.7-4.2 2.9-3.07-4.1-.65-1.8-3.8z"/><linearGradient id="x2r3b" x1="787" x2="787" y1="1832" y2="1870" gradientUnits="userSpaceOnUse"><stop offset="0" stop-color="#5077e7"/><stop offset="1" stop-color="#a776dd"/></linearGradient><linearGradient id="x2r3d" x1="793.46" x2="793.46" y1="1841.46" y2="1853.18" gradientUnits="userSpaceOnUse"><stop offset="0" stop-color="#5077e7"/><stop offset="1" stop-color="#a776dd"/></linearGradient></defs><g><g transform="translate(-771 -1832)"><g><g><use fill="url(#x2r3b)" xlink:href="#x2r3a"/></g><g><use fill="url(#x2r3d)" xlink:href="#x2r3c"/></g></g></g></g></svg>