<?xml version="1.0" standalone="no"?>
<!DOCTYPE svg PUBLIC "-//W3C//DTD SVG 1.1//EN" "http://www.w3.org/Graphics/SVG/1.1/DTD/svg11.dtd">
<!--Generator: Xara Designer (www.xara.com), SVG filter version: 6.5.0.22-->
<svg fill="none" fill-rule="evenodd" stroke="black" stroke-width="0.501" stroke-linejoin="bevel" stroke-miterlimit="10" font-family="Times New Roman" font-size="16" style="font-variant-ligatures:none" xmlns:xlink="http://www.w3.org/1999/xlink" xmlns="http://www.w3.org/2000/svg" version="1.1" overflow="visible" width="38.882pt" height="45pt" viewBox="325.561 -3198.73 38.882 45">
 <defs>
	</defs>
 <g id="Layer 1" transform="scale(1 -1)">
  <g id="Group" fill-rule="nonzero" stroke-linejoin="miter" stroke="none" stroke-width="0.088" fill="#2f7fe6">
   <path d="M 326.219,3186.14 C 326.582,3186.14 326.877,3186.44 326.877,3186.8 L 326.877,3197.41 L 349.869,3197.41 L 349.869,3191.56 C 349.869,3190.81 350.473,3190.21 351.215,3190.21 L 357.116,3190.21 L 357.116,3186.93 C 357.116,3186.57 357.411,3186.28 357.774,3186.28 C 358.137,3186.28 358.432,3186.57 358.432,3186.93 L 358.432,3190.62 C 358.432,3190.94 358.307,3191.24 358.081,3191.47 L 351.172,3198.38 C 350.946,3198.61 350.645,3198.73 350.324,3198.73 L 326.76,3198.73 C 326.099,3198.73 325.561,3198.19 325.561,3197.53 L 325.561,3186.8 C 325.561,3186.44 325.855,3186.14 326.219,3186.14 Z M 351.185,3191.56 L 351.185,3196.51 L 356.164,3191.53 L 351.215,3191.53 C 351.199,3191.53 351.185,3191.54 351.185,3191.56 Z" marker-start="none" marker-end="none"/>
   <path d="M 357.774,3168.37 C 357.411,3168.37 357.116,3168.07 357.116,3167.71 L 357.116,3155.05 L 326.877,3155.05 L 326.877,3183.99 C 326.877,3184.36 326.582,3184.65 326.219,3184.65 C 325.855,3184.65 325.561,3184.36 325.561,3183.99 L 325.561,3154.93 C 325.561,3154.27 326.099,3153.73 326.76,3153.73 L 357.233,3153.73 C 357.894,3153.73 358.432,3154.27 358.432,3154.93 L 358.432,3167.71 C 358.432,3168.07 358.138,3168.37 357.774,3168.37 Z" marker-start="none" marker-end="none"/>
   <path d="M 334.801,3190.77 C 334.801,3191.47 334.226,3192.05 333.519,3192.05 L 329.995,3192.05 C 329.289,3192.05 328.714,3191.47 328.714,3190.77 L 328.714,3187.24 C 328.714,3186.54 329.289,3185.96 329.995,3185.96 L 333.519,3185.96 C 334.226,3185.96 334.801,3186.54 334.801,3187.24 Z M 333.485,3187.28 L 330.03,3187.28 L 330.03,3190.73 L 333.485,3190.73 Z" marker-start="none" marker-end="none"/>
   <path d="M 336.433,3189.82 L 346.958,3189.82 C 347.321,3189.82 347.616,3190.12 347.616,3190.48 C 347.616,3190.84 347.321,3191.14 346.958,3191.14 L 336.433,3191.14 C 336.07,3191.14 335.775,3190.84 335.775,3190.48 C 335.775,3190.12 336.07,3189.82 336.433,3189.82 Z" marker-start="none" marker-end="none"/>
   <path d="M 336.433,3186.87 L 346.958,3186.87 C 347.321,3186.87 347.616,3187.17 347.616,3187.53 C 347.616,3187.89 347.321,3188.19 346.958,3188.19 L 336.433,3188.19 C 336.07,3188.19 335.775,3187.89 335.775,3187.53 C 335.775,3187.17 336.07,3186.87 336.433,3186.87 Z" marker-start="none" marker-end="none"/>
   <path d="M 334.801,3182.84 C 334.801,3183.54 334.226,3184.12 333.519,3184.12 L 329.995,3184.12 C 329.289,3184.12 328.714,3183.54 328.714,3182.84 L 328.714,3179.31 C 328.714,3178.61 329.289,3178.03 329.995,3178.03 L 333.519,3178.03 C 334.226,3178.03 334.801,3178.61 334.801,3179.31 Z M 333.485,3179.35 L 330.03,3179.35 L 330.03,3182.8 L 333.485,3182.8 Z" marker-start="none" marker-end="none"/>
   <path d="M 350.527,3183.21 L 336.433,3183.21 C 336.07,3183.21 335.775,3182.91 335.775,3182.55 C 335.775,3182.19 336.07,3181.89 336.433,3181.89 L 350.527,3181.89 C 350.89,3181.89 351.185,3182.19 351.185,3182.55 C 351.185,3182.91 350.891,3183.21 350.527,3183.21 Z" marker-start="none" marker-end="none"/>
   <path d="M 351.185,3179.6 C 351.185,3179.96 350.89,3180.26 350.527,3180.26 L 336.433,3180.26 C 336.07,3180.26 335.775,3179.96 335.775,3179.6 C 335.775,3179.24 336.07,3178.94 336.433,3178.94 L 350.527,3178.94 C 350.891,3178.94 351.185,3179.24 351.185,3179.6 Z" marker-start="none" marker-end="none"/>
   <path d="M 334.801,3174.91 C 334.801,3175.61 334.226,3176.19 333.519,3176.19 L 329.995,3176.19 C 329.289,3176.19 328.714,3175.61 328.714,3174.91 L 328.714,3171.38 C 328.714,3170.68 329.289,3170.1 329.995,3170.1 L 333.519,3170.1 C 334.226,3170.1 334.801,3170.68 334.801,3171.38 Z M 333.485,3171.42 L 330.03,3171.42 L 330.03,3174.87 L 333.485,3174.87 Z" marker-start="none" marker-end="none"/>
   <path d="M 336.433,3173.96 L 349.006,3173.96 C 349.369,3173.96 349.664,3174.26 349.664,3174.62 C 349.664,3174.98 349.369,3175.28 349.006,3175.28 L 336.433,3175.28 C 336.07,3175.28 335.775,3174.98 335.775,3174.62 C 335.775,3174.26 336.07,3173.96 336.433,3173.96 Z" marker-start="none" marker-end="none"/>
   <path d="M 350.567,3171.67 C 350.567,3172.03 350.273,3172.33 349.909,3172.33 L 336.433,3172.33 C 336.07,3172.33 335.775,3172.03 335.775,3171.67 C 335.775,3171.31 336.07,3171.01 336.433,3171.01 L 349.909,3171.01 C 350.273,3171.01 350.567,3171.31 350.567,3171.67 Z" marker-start="none" marker-end="none"/>
   <path d="M 333.519,3168.26 L 329.995,3168.26 C 329.289,3168.26 328.714,3167.68 328.714,3166.98 L 328.714,3163.45 C 328.714,3162.75 329.289,3162.17 329.995,3162.17 L 333.519,3162.17 C 334.226,3162.17 334.801,3162.75 334.801,3163.45 L 334.801,3166.98 C 334.801,3167.68 334.226,3168.26 333.519,3168.26 Z M 333.485,3163.49 L 330.03,3163.49 L 330.03,3166.94 L 333.485,3166.94 Z" marker-start="none" marker-end="none"/>
   <path d="M 348.162,3166.69 C 348.162,3167.05 347.867,3167.35 347.504,3167.35 L 336.433,3167.35 C 336.07,3167.35 335.775,3167.05 335.775,3166.69 C 335.775,3166.33 336.07,3166.03 336.433,3166.03 L 347.504,3166.03 C 347.867,3166.03 348.162,3166.33 348.162,3166.69 Z" marker-start="none" marker-end="none"/>
   <path d="M 336.433,3164.4 C 336.07,3164.4 335.775,3164.1 335.775,3163.74 C 335.775,3163.38 336.07,3163.08 336.433,3163.08 L 345.483,3163.08 C 345.846,3163.08 346.141,3163.38 346.141,3163.74 C 346.141,3164.1 345.846,3164.4 345.483,3164.4 Z" marker-start="none" marker-end="none"/>
   <path d="M 363.457,3187.72 L 362.552,3188.17 C 361.678,3188.6 360.616,3188.24 360.185,3187.36 L 347.156,3160.9 C 347.088,3160.76 347.056,3160.61 347.063,3160.45 L 347.189,3157.65 C 347.205,3157.31 347.401,3157.01 347.701,3156.86 C 347.829,3156.8 347.968,3156.77 348.107,3156.77 C 348.292,3156.77 348.476,3156.83 348.633,3156.93 L 350.935,3158.55 C 351.062,3158.63 351.165,3158.75 351.233,3158.89 L 354.851,3166.24 C 355.011,3166.57 354.877,3166.96 354.551,3167.12 C 354.225,3167.28 353.83,3167.15 353.67,3166.82 L 351.602,3162.62 L 349.887,3163.47 L 358.824,3181.62 L 360.539,3180.77 L 354.911,3169.34 C 354.751,3169.02 354.885,3168.62 355.211,3168.46 C 355.537,3168.3 355.931,3168.43 356.092,3168.76 L 364.262,3185.35 C 364.692,3186.23 364.331,3187.29 363.457,3187.72 Z M 348.471,3158.43 L 348.396,3160.1 L 349.841,3159.39 Z M 351.021,3161.44 L 350.557,3160.5 L 348.842,3161.35 L 349.306,3162.29 Z M 359.405,3182.8 L 359.869,3183.74 L 361.584,3182.89 L 361.12,3181.95 Z M 363.081,3185.93 L 362.165,3184.07 L 360.45,3184.92 L 361.366,3186.78 C 361.476,3187 361.747,3187.1 361.971,3186.99 L 362.875,3186.54 C 363.099,3186.43 363.191,3186.16 363.081,3185.93 Z" marker-start="none" marker-end="none"/>
  </g>
 </g>
</svg>
