<svg xmlns="http://www.w3.org/2000/svg" xmlns:xlink="http://www.w3.org/1999/xlink" width="50" height="42" viewBox="0 0 50 42"><defs><path id="ebcta" d="M1118.3 885.52h-10.75l-.39-3.91h11.54zm-1.36 13.67h-8.02l-1.17-11.72h10.36zM1105 879.66l2.15 21.48h11.56l2.15-21.48z"/><path id="ebctc" d="M1153.04 878.68h-14.67v-3.9h14.67zm0 15.63h-14.67v-13.68h14.67zm0 5.86h-14.67v-3.9h14.67zm-15.23-27.84l-3.63-6.35h15.32l3.43 6.84h-15a.95.95 0 0 0-.12-.49zm-1.4 6.35h-7.83v-3.9h7.83zm0 15.63h-7.83v-13.68h7.83zm0 5.86h-7.83v-3.9h7.83zm-3.95-33.26l3.38 5.9h-7.08zm1.02-4.84h15.65v1.96h-15.65zm21.51 10.75c0-.15-.02-.3-.1-.44l-3.8-7.6v-4.66h-19.57v4.6l-4.75 7.58a.94.94 0 0 0-.13.52h-.01v29.3H1155v-29.3z"/><path id="ebcte" d="M1130.55 884.54v-1.95h3.9v1.95z"/><path id="ebctg" d="M1130.55 888.45v-1.96h3.9v1.96z"/><path id="ebcti" d="M1130.55 892.35v-1.95h3.9v1.95z"/><path id="ebctk" d="M1146.91 889.71c-.28.44-.72.69-1.2.69-.74 0-1.12-.53-1.25-.75-.3-.54-.3-1.17.02-1.7l1.37-2.31 1.16 2.44c.25.53.21 1.14-.1 1.63zm1.86-2.47l-1.94-4.1a.98.98 0 0 0-1.73-.08l-2.3 3.89a3.65 3.65 0 0 0-.04 3.66 3.36 3.36 0 0 0 5.8.15c.68-1.07.76-2.38.21-3.52z"/><linearGradient id="ebctb" x1="1112.93" x2="1112.93" y1="879.66" y2="901.15" gradientUnits="userSpaceOnUse"><stop offset="0" stop-color="#5077e7"/><stop offset="1" stop-color="#a776dd"/></linearGradient><linearGradient id="ebctd" x1="1140.82" x2="1140.82" y1="860.12" y2="902.12" gradientUnits="userSpaceOnUse"><stop offset="0" stop-color="#5077e7"/><stop offset="1" stop-color="#a776dd"/></linearGradient><linearGradient id="ebctf" x1="1132.51" x2="1132.51" y1="882.59" y2="884.54" gradientUnits="userSpaceOnUse"><stop offset="0" stop-color="#5077e7"/><stop offset="1" stop-color="#a776dd"/></linearGradient><linearGradient id="ebcth" x1="1132.51" x2="1132.51" y1="886.49" y2="888.44" gradientUnits="userSpaceOnUse"><stop offset="0" stop-color="#5077e7"/><stop offset="1" stop-color="#a776dd"/></linearGradient><linearGradient id="ebctj" x1="1132.51" x2="1132.51" y1="890.4" y2="892.35" gradientUnits="userSpaceOnUse"><stop offset="0" stop-color="#5077e7"/><stop offset="1" stop-color="#a776dd"/></linearGradient><linearGradient id="ebctl" x1="1145.72" x2="1145.72" y1="882.59" y2="892.36" gradientUnits="userSpaceOnUse"><stop offset="0" stop-color="#5077e7"/><stop offset="1" stop-color="#a776dd"/></linearGradient></defs><g><g transform="translate(-1105 -860)"><g><g><g><use fill="url(#ebctb)" xlink:href="#ebcta"/></g></g></g><g><g><g><use fill="url(#ebctd)" xlink:href="#ebctc"/></g></g></g><g><g><g><use fill="url(#ebctf)" xlink:href="#ebcte"/></g></g></g><g><g><g><use fill="url(#ebcth)" xlink:href="#ebctg"/></g></g></g><g><g><g><use fill="url(#ebctj)" xlink:href="#ebcti"/></g></g></g><g><g><g><use fill="url(#ebctl)" xlink:href="#ebctk"/></g></g></g></g></g></svg>