<?xml version="1.0" standalone="no"?>
<!DOCTYPE svg PUBLIC "-//W3C//DTD SVG 1.1//EN" "http://www.w3.org/Graphics/SVG/1.1/DTD/svg11.dtd">
<!--Generator: Xara Designer (www.xara.com), SVG filter version: 6.5.0.22-->
<svg fill="none" fill-rule="evenodd" stroke="black" stroke-width="0.501" stroke-linejoin="bevel" stroke-miterlimit="10" font-family="Times New Roman" font-size="16" style="font-variant-ligatures:none" xmlns:xlink="http://www.w3.org/1999/xlink" xmlns="http://www.w3.org/2000/svg" version="1.1" overflow="visible" width="45pt" height="44.666pt" viewBox="472.502 -3198.56 45 44.666">
 <defs>
	</defs>
 <g id="Layer 1" transform="scale(1 -1)">
  <g id="Group" fill-rule="nonzero" stroke-linejoin="miter" stroke="none" stroke-width="0.088" fill="#2f7fe6">
   <path d="M 485.826,3162.55 C 485.512,3162.73 485.107,3162.63 484.921,3162.31 C 484.166,3161.03 483.766,3159.57 483.766,3158.08 L 483.766,3154.56 C 483.766,3154.19 484.062,3153.9 484.426,3153.9 C 484.791,3153.9 485.087,3154.19 485.087,3154.56 L 485.087,3158.08 C 485.087,3159.33 485.423,3160.56 486.059,3161.64 C 486.245,3161.95 486.14,3162.36 485.826,3162.55 Z" marker-start="none" marker-end="none"/>
   <path d="M 501.779,3165.41 L 500.181,3166.27 C 501.131,3167.03 501.964,3167.94 502.631,3168.95 L 502.713,3168.9 C 503.023,3168.73 503.414,3168.83 503.6,3169.13 L 504.372,3170.39 C 506.255,3173.44 506.973,3177.08 506.395,3180.62 C 506.336,3180.98 505.997,3181.23 505.637,3181.17 C 505.277,3181.11 505.032,3180.77 505.091,3180.41 C 505.618,3177.18 504.963,3173.86 503.248,3171.08 L 502.808,3170.37 L 502.727,3170.41 C 502.411,3170.59 502.012,3170.48 501.831,3170.17 C 501.103,3168.91 500.09,3167.8 498.901,3166.96 L 497.884,3167.51 L 497.884,3168.27 C 500.363,3169.38 502.096,3171.87 502.096,3174.75 L 502.096,3181.39 C 502.096,3181.88 501.823,3182.31 501.385,3182.53 C 500.946,3182.74 500.434,3182.69 500.049,3182.39 L 499.038,3181.6 C 498.165,3180.92 497.143,3180.44 496.066,3180.21 L 497.731,3182.21 C 497.964,3182.49 497.926,3182.91 497.646,3183.14 C 497.366,3183.37 496.949,3183.33 496.716,3183.05 L 494.208,3180.04 L 491.821,3180.04 L 493.587,3182.21 C 493.817,3182.5 493.774,3182.91 493.491,3183.14 C 493.208,3183.37 492.792,3183.33 492.562,3183.05 L 490.118,3180.04 L 488.878,3180.04 C 488.343,3180.04 487.908,3179.61 487.908,3179.07 L 487.908,3174.75 C 487.908,3171.9 489.6,3169.44 492.032,3168.31 L 492.032,3167.51 L 491.015,3166.96 C 489.826,3167.8 488.813,3168.91 488.085,3170.17 C 487.904,3170.48 487.505,3170.59 487.189,3170.41 L 487.108,3170.37 L 486.668,3171.08 C 483.816,3175.71 483.989,3181.57 487.109,3186.03 C 488.928,3188.62 491.789,3190.11 494.958,3190.11 C 498.127,3190.11 500.988,3188.62 502.807,3186.03 C 503.442,3185.12 503.967,3184.13 504.366,3183.09 C 504.497,3182.75 504.879,3182.58 505.22,3182.71 C 505.56,3182.84 505.73,3183.22 505.6,3183.56 C 505.162,3184.71 504.586,3185.79 503.889,3186.78 C 501.819,3189.74 498.564,3191.43 494.958,3191.43 C 491.352,3191.43 488.097,3189.74 486.028,3186.78 C 482.605,3181.9 482.415,3175.46 485.544,3170.39 L 486.316,3169.13 C 486.502,3168.83 486.894,3168.73 487.203,3168.9 L 487.285,3168.95 C 487.952,3167.94 488.786,3167.03 489.735,3166.27 L 488.137,3165.41 C 487.722,3165.18 487.324,3164.92 486.953,3164.63 C 486.666,3164.41 486.615,3163.99 486.841,3163.7 C 486.971,3163.54 487.165,3163.45 487.361,3163.45 C 487.504,3163.45 487.647,3163.5 487.768,3163.59 C 488.08,3163.84 488.415,3164.06 488.765,3164.25 L 492.046,3166.02 C 492.187,3164.53 493.439,3163.37 494.958,3163.37 C 496.477,3163.37 497.729,3164.53 497.871,3166.02 L 501.152,3164.25 C 503.42,3163.02 504.829,3160.66 504.829,3158.08 L 504.829,3154.56 C 504.829,3154.19 505.125,3153.9 505.49,3153.9 C 505.855,3153.9 506.15,3154.19 506.15,3154.56 L 506.15,3158.08 C 506.15,3161.15 504.475,3163.95 501.779,3165.41 Z M 489.229,3174.75 L 489.229,3178.72 L 494.517,3178.72 C 496.441,3178.72 498.335,3179.37 499.851,3180.56 L 500.775,3181.28 L 500.775,3174.75 C 500.775,3171.57 498.185,3168.98 495.002,3168.98 C 491.819,3168.98 489.229,3171.57 489.229,3174.75 Z M 494.958,3164.69 C 494.073,3164.69 493.353,3165.41 493.353,3166.3 L 493.353,3167.85 C 493.883,3167.72 494.434,3167.66 495.002,3167.66 C 495.538,3167.66 496.06,3167.72 496.563,3167.83 L 496.563,3166.3 C 496.563,3165.41 495.843,3164.69 494.958,3164.69 Z" marker-start="none" marker-end="none"/>
   <path d="M 505.49,3186.6 C 505.646,3186.6 505.803,3186.66 505.929,3186.77 L 508.482,3189.05 C 509.44,3188.21 510.694,3187.69 512.067,3187.69 C 515.064,3187.69 517.502,3190.13 517.502,3193.13 C 517.502,3196.13 515.064,3198.56 512.067,3198.56 C 509.07,3198.56 506.631,3196.13 506.631,3193.13 C 506.631,3191.98 506.991,3190.91 507.603,3190.03 L 505.05,3187.76 C 504.778,3187.51 504.754,3187.1 504.996,3186.83 C 505.127,3186.68 505.308,3186.6 505.49,3186.6 Z M 512.067,3197.24 C 514.335,3197.24 516.181,3195.4 516.181,3193.13 C 516.181,3190.86 514.335,3189.01 512.067,3189.01 C 509.798,3189.01 507.953,3190.86 507.953,3193.13 C 507.953,3195.4 509.798,3197.24 512.067,3197.24 Z" marker-start="none" marker-end="none"/>
   <path d="M 512.067,3168.82 C 510.694,3168.82 509.44,3168.31 508.482,3167.47 L 505.929,3169.74 C 505.657,3169.99 505.239,3169.96 504.996,3169.69 C 504.754,3169.42 504.778,3169 505.05,3168.76 L 507.603,3166.48 C 506.991,3165.6 506.631,3164.54 506.631,3163.39 C 506.631,3160.39 509.07,3157.95 512.067,3157.95 C 515.064,3157.95 517.502,3160.39 517.502,3163.39 C 517.502,3166.38 515.064,3168.82 512.067,3168.82 Z M 512.067,3159.27 C 509.798,3159.27 507.953,3161.12 507.953,3163.39 C 507.953,3165.66 509.798,3167.5 512.067,3167.5 C 514.335,3167.5 516.181,3165.66 516.181,3163.39 C 516.181,3161.12 514.335,3159.27 512.067,3159.27 Z" marker-start="none" marker-end="none"/>
   <path d="M 512.842,3181.59 C 511.233,3181.59 509.886,3180.44 509.579,3178.92 L 508.754,3178.92 C 508.389,3178.92 508.094,3178.62 508.094,3178.26 C 508.094,3177.89 508.389,3177.6 508.754,3177.6 L 509.579,3177.6 C 509.886,3176.08 511.233,3174.93 512.842,3174.93 C 514.678,3174.93 516.172,3176.42 516.172,3178.26 C 516.172,3180.09 514.678,3181.59 512.842,3181.59 Z M 512.842,3176.25 C 511.735,3176.25 510.834,3177.15 510.834,3178.26 C 510.834,3179.37 511.735,3180.27 512.842,3180.27 C 513.95,3180.27 514.85,3179.37 514.85,3178.26 C 514.85,3177.15 513.95,3176.25 512.842,3176.25 Z" marker-start="none" marker-end="none"/>
   <path d="M 477.937,3187.69 C 479.31,3187.69 480.564,3188.21 481.522,3189.05 L 484.075,3186.77 C 484.201,3186.66 484.358,3186.6 484.514,3186.6 C 484.696,3186.6 484.877,3186.68 485.008,3186.83 C 485.25,3187.1 485.227,3187.51 484.954,3187.76 L 482.402,3190.03 C 483.013,3190.91 483.373,3191.98 483.373,3193.13 C 483.373,3193.85 483.232,3194.55 482.956,3195.22 C 482.816,3195.56 482.429,3195.71 482.092,3195.57 C 481.755,3195.43 481.596,3195.05 481.736,3194.71 C 481.946,3194.21 482.051,3193.68 482.051,3193.13 C 482.051,3190.86 480.206,3189.01 477.937,3189.01 C 475.669,3189.01 473.823,3190.86 473.823,3193.13 C 473.823,3195.4 475.669,3197.24 477.937,3197.24 C 478.724,3197.24 479.489,3197.02 480.151,3196.6 C 480.458,3196.4 480.866,3196.49 481.063,3196.8 C 481.26,3197.1 481.17,3197.51 480.863,3197.71 C 479.988,3198.27 478.977,3198.56 477.937,3198.56 C 474.94,3198.56 472.502,3196.13 472.502,3193.13 C 472.502,3190.13 474.94,3187.69 477.937,3187.69 Z" marker-start="none" marker-end="none"/>
   <path d="M 484.954,3168.76 C 485.226,3169 485.25,3169.42 485.008,3169.69 C 484.765,3169.96 484.347,3169.99 484.075,3169.74 L 481.522,3167.47 C 480.564,3168.31 479.31,3168.82 477.937,3168.82 C 474.94,3168.82 472.502,3166.38 472.502,3163.39 C 472.502,3160.39 474.94,3157.95 477.937,3157.95 C 480.934,3157.95 483.373,3160.39 483.373,3163.39 C 483.373,3164.54 483.013,3165.6 482.401,3166.48 Z M 477.937,3159.27 C 475.669,3159.27 473.823,3161.12 473.823,3163.39 C 473.823,3165.66 475.669,3167.5 477.937,3167.5 C 480.206,3167.5 482.051,3165.66 482.051,3163.39 C 482.051,3161.12 480.206,3159.27 477.937,3159.27 Z" marker-start="none" marker-end="none"/>
   <path d="M 480.425,3178.92 C 480.118,3180.44 478.771,3181.59 477.162,3181.59 C 475.326,3181.59 473.832,3180.09 473.832,3178.26 C 473.832,3176.42 475.326,3174.93 477.162,3174.93 C 478.771,3174.93 480.118,3176.08 480.425,3177.6 L 481.25,3177.6 C 481.615,3177.6 481.91,3177.89 481.91,3178.26 C 481.91,3178.62 481.615,3178.92 481.25,3178.92 Z M 477.162,3176.25 C 476.054,3176.25 475.154,3177.15 475.154,3178.26 C 475.154,3179.37 476.054,3180.27 477.162,3180.27 C 478.269,3180.27 479.17,3179.37 479.17,3178.26 C 479.17,3177.15 478.269,3176.25 477.162,3176.25 Z" marker-start="none" marker-end="none"/>
  </g>
 </g>
</svg>
