<?xml version="1.0" standalone="no"?>
<!DOCTYPE svg PUBLIC "-//W3C//DTD SVG 1.1//EN" "http://www.w3.org/Graphics/SVG/1.1/DTD/svg11.dtd">
<!--Generator: Xara Designer (www.xara.com), SVG filter version: 6.5.0.22-->
<svg fill="none" fill-rule="evenodd" stroke="black" stroke-width="0.501" stroke-linejoin="bevel" stroke-miterlimit="10" font-family="Times New Roman" font-size="16" style="font-variant-ligatures:none" xmlns:xlink="http://www.w3.org/1999/xlink" xmlns="http://www.w3.org/2000/svg" version="1.1" overflow="visible" width="43.044pt" height="45pt" viewBox="623.48 -3198.73 43.044 45">
 <defs>
	</defs>
 <g id="Layer 1" transform="scale(1 -1)">
  <g id="Group" fill-rule="nonzero" stroke-linejoin="miter" stroke="none" stroke-width="0.088" fill="#2f7fe6">
   <path d="M 652.049,3158.4 C 651.697,3158.49 651.339,3158.27 651.252,3157.92 C 650.83,3156.23 649.317,3155.05 647.572,3155.05 L 628.588,3155.05 C 626.497,3155.05 624.795,3156.75 624.795,3158.84 L 624.795,3193.62 C 624.795,3195.72 626.497,3197.42 628.588,3197.42 L 631.204,3197.42 L 631.452,3196.25 C 631.691,3195.14 632.692,3194.33 633.833,3194.33 L 637.728,3194.33 C 638.091,3194.33 638.385,3194.62 638.385,3194.99 C 638.385,3195.35 638.091,3195.64 637.728,3195.64 L 633.833,3195.64 C 633.309,3195.64 632.848,3196.02 632.738,3196.53 L 632.549,3197.42 L 643.611,3197.42 L 643.421,3196.53 C 643.312,3196.02 642.851,3195.64 642.326,3195.64 L 640.53,3195.64 C 640.167,3195.64 639.873,3195.35 639.873,3194.99 C 639.873,3194.62 640.167,3194.33 640.53,3194.33 L 642.326,3194.33 C 643.468,3194.33 644.469,3195.14 644.708,3196.25 L 644.956,3197.42 L 647.572,3197.42 C 649.663,3197.42 651.364,3195.72 651.364,3193.62 L 651.364,3182.01 C 651.364,3181.65 651.659,3181.36 652.022,3181.36 C 652.385,3181.36 652.68,3181.65 652.68,3182.01 L 652.68,3193.62 C 652.68,3196.44 650.388,3198.73 647.572,3198.73 L 628.588,3198.73 C 625.771,3198.73 623.48,3196.44 623.48,3193.62 L 623.48,3158.84 C 623.48,3156.02 625.772,3153.73 628.588,3153.73 L 647.572,3153.73 C 649.923,3153.73 651.96,3155.32 652.528,3157.6 C 652.616,3157.95 652.401,3158.31 652.049,3158.4 Z" marker-start="none" marker-end="none"/>
   <path d="M 647.52,3185.87 C 647.883,3185.87 648.177,3186.16 648.177,3186.52 L 648.177,3186.61 C 648.177,3188.13 646.939,3189.37 645.418,3189.37 L 631,3189.37 C 629.478,3189.37 628.24,3188.13 628.24,3186.61 L 628.24,3181.59 C 628.24,3181.22 628.534,3180.93 628.898,3180.93 C 629.261,3180.93 629.555,3181.22 629.555,3181.59 L 629.555,3186.61 C 629.555,3187.4 630.203,3188.05 631,3188.05 L 645.418,3188.05 C 646.214,3188.05 646.862,3187.4 646.862,3186.61 L 646.862,3186.52 C 646.862,3186.16 647.157,3185.87 647.52,3185.87 Z" marker-start="none" marker-end="none"/>
   <path d="M 630.741,3170.3 C 629.374,3170.3 628.262,3169.19 628.262,3167.83 C 628.262,3166.46 629.374,3165.35 630.741,3165.35 C 632.107,3165.35 633.219,3166.46 633.219,3167.83 C 633.219,3169.19 632.107,3170.3 630.741,3170.3 Z M 630.741,3166.66 C 630.099,3166.66 629.577,3167.18 629.577,3167.83 C 629.577,3168.47 630.099,3168.99 630.741,3168.99 C 631.382,3168.99 631.904,3168.47 631.904,3167.83 C 631.904,3167.18 631.382,3166.66 630.741,3166.66 Z" marker-start="none" marker-end="none"/>
   <path d="M 630.741,3162.78 C 629.374,3162.78 628.262,3161.67 628.262,3160.3 C 628.262,3158.93 629.374,3157.82 630.741,3157.82 C 632.107,3157.82 633.219,3158.93 633.219,3160.3 C 633.219,3161.67 632.107,3162.78 630.741,3162.78 Z M 630.741,3159.14 C 630.099,3159.14 629.577,3159.66 629.577,3160.3 C 629.577,3160.94 630.099,3161.46 630.741,3161.46 C 631.382,3161.46 631.904,3160.94 631.904,3160.3 C 631.904,3159.66 631.382,3159.14 630.741,3159.14 Z" marker-start="none" marker-end="none"/>
   <path d="M 639.781,3170.3 L 635.406,3170.3 C 635.043,3170.3 634.749,3170.01 634.749,3169.65 C 634.749,3169.28 635.043,3168.99 635.406,3168.99 L 639.781,3168.99 C 640.144,3168.99 640.438,3169.28 640.438,3169.65 C 640.438,3170.01 640.144,3170.3 639.781,3170.3 Z" marker-start="none" marker-end="none"/>
   <path d="M 642.072,3166.66 L 635.406,3166.66 C 635.043,3166.66 634.749,3166.37 634.749,3166.01 C 634.749,3165.64 635.043,3165.35 635.406,3165.35 L 642.072,3165.35 C 642.435,3165.35 642.73,3165.64 642.73,3166.01 C 642.73,3166.37 642.435,3166.66 642.072,3166.66 Z" marker-start="none" marker-end="none"/>
   <path d="M 646.522,3162.78 L 635.406,3162.78 C 635.043,3162.78 634.749,3162.48 634.749,3162.12 C 634.749,3161.76 635.043,3161.46 635.406,3161.46 L 646.522,3161.46 C 646.885,3161.46 647.179,3161.76 647.179,3162.12 C 647.179,3162.48 646.885,3162.78 646.522,3162.78 Z" marker-start="none" marker-end="none"/>
   <path d="M 646.522,3159.14 L 635.406,3159.14 C 635.043,3159.14 634.749,3158.84 634.749,3158.48 C 634.749,3158.12 635.043,3157.82 635.406,3157.82 L 646.522,3157.82 C 646.885,3157.82 647.179,3158.12 647.179,3158.48 C 647.179,3158.84 646.885,3159.14 646.522,3159.14 Z" marker-start="none" marker-end="none"/>
   <path d="M 642.243,3180.19 L 641.72,3180.8 C 642.082,3181.4 642.291,3182.12 642.291,3182.87 C 642.291,3185.12 640.46,3186.96 638.209,3186.96 C 635.958,3186.96 634.127,3185.12 634.127,3182.87 C 634.127,3182.12 634.335,3181.4 634.697,3180.8 L 634.174,3180.19 C 633.304,3179.18 632.825,3177.89 632.825,3176.56 L 632.825,3175.12 L 631,3175.12 C 630.203,3175.12 629.555,3175.77 629.555,3176.57 L 629.555,3178.78 C 629.555,3179.15 629.261,3179.44 628.898,3179.44 C 628.534,3179.44 628.24,3179.15 628.24,3178.78 L 628.24,3176.57 C 628.24,3175.04 629.478,3173.81 631,3173.81 L 644.688,3173.81 C 645.051,3173.81 645.346,3174.1 645.346,3174.46 C 645.346,3174.83 645.051,3175.12 644.688,3175.12 L 643.593,3175.12 L 643.593,3176.56 C 643.593,3177.89 643.114,3179.18 642.243,3180.19 Z M 638.209,3185.64 C 639.735,3185.64 640.976,3184.4 640.976,3182.87 C 640.976,3181.35 639.735,3180.11 638.209,3180.11 C 636.683,3180.11 635.442,3181.35 635.442,3182.87 C 635.442,3184.4 636.683,3185.64 638.209,3185.64 Z M 634.14,3176.56 C 634.14,3177.58 634.506,3178.56 635.17,3179.33 L 635.555,3179.78 C 636.269,3179.16 637.196,3178.79 638.209,3178.79 C 639.221,3178.79 640.149,3179.16 640.863,3179.78 L 641.247,3179.33 C 641.912,3178.56 642.278,3177.58 642.278,3176.56 L 642.278,3175.12 L 634.14,3175.12 Z" marker-start="none" marker-end="none"/>
   <path d="M 653.871,3162.47 C 653.747,3162.87 653.354,3163.13 652.937,3163.1 C 651.788,3163 650.656,3163.34 649.751,3164.05 L 643.461,3169.04 C 642.984,3169.41 642.874,3170.08 643.206,3170.59 C 643.547,3171.12 644.236,3171.28 644.776,3170.97 L 648.179,3168.99 C 648.505,3168.8 648.906,3168.83 649.201,3169.07 C 649.496,3169.3 649.615,3169.68 649.503,3170.05 L 647.851,3175.37 C 647.743,3175.71 647.375,3175.91 647.028,3175.8 C 646.681,3175.69 646.487,3175.32 646.595,3174.98 L 647.937,3170.65 L 645.437,3172.1 C 644.291,3172.77 642.826,3172.42 642.104,3171.31 C 641.4,3170.23 641.632,3168.81 642.644,3168.01 L 648.935,3163.02 C 650.014,3162.17 651.346,3161.73 652.712,3161.76 L 655.021,3154.33 C 655.109,3154.04 655.369,3153.86 655.649,3153.86 C 655.714,3153.86 655.779,3153.87 655.844,3153.89 C 656.191,3154 656.385,3154.37 656.277,3154.72 Z" marker-start="none" marker-end="none"/>
   <path d="M 666.494,3158.31 L 664.3,3165.37 C 664.267,3165.48 664.255,3165.59 664.263,3165.7 L 664.29,3166.06 C 664.406,3167.65 664.235,3169.24 663.781,3170.77 C 663.78,3170.78 663.78,3170.78 663.779,3170.78 L 661.24,3178.96 C 660.85,3180.22 659.508,3180.93 658.25,3180.54 C 657.766,3180.39 657.364,3180.1 657.075,3179.72 C 656.467,3180.32 655.563,3180.57 654.698,3180.3 C 654.194,3180.14 653.778,3179.83 653.486,3179.43 C 652.88,3179.97 652.014,3180.2 651.183,3179.94 C 650.814,3179.82 650.493,3179.63 650.233,3179.37 L 649.131,3182.92 C 648.741,3184.18 647.399,3184.89 646.141,3184.5 C 644.882,3184.11 644.177,3182.76 644.567,3181.51 L 645.764,3177.65 C 645.872,3177.31 646.24,3177.11 646.587,3177.22 C 646.934,3177.33 647.127,3177.7 647.02,3178.04 L 645.823,3181.9 C 645.648,3182.46 645.965,3183.06 646.531,3183.24 C 647.096,3183.42 647.699,3183.1 647.875,3182.53 L 650.674,3173.52 C 650.781,3173.17 651.149,3172.98 651.497,3173.09 C 651.843,3173.2 652.037,3173.56 651.93,3173.91 L 650.866,3177.34 C 650.69,3177.9 651.008,3178.51 651.573,3178.68 C 652.138,3178.86 652.742,3178.54 652.917,3177.97 L 653.981,3174.55 C 654.069,3174.27 654.329,3174.09 654.609,3174.09 C 654.674,3174.09 654.739,3174.09 654.804,3174.12 C 655.151,3174.22 655.345,3174.59 655.237,3174.94 L 654.381,3177.7 C 654.205,3178.26 654.523,3178.87 655.088,3179.04 C 655.654,3179.22 656.257,3178.9 656.433,3178.33 L 657.289,3175.58 C 657.377,3175.29 657.636,3175.11 657.917,3175.11 C 657.981,3175.11 658.047,3175.12 658.112,3175.14 C 658.459,3175.25 658.653,3175.62 658.545,3175.97 L 657.932,3177.94 C 657.757,3178.5 658.075,3179.11 658.64,3179.28 C 658.914,3179.37 659.205,3179.34 659.459,3179.21 C 659.713,3179.07 659.899,3178.85 659.984,3178.58 L 662.522,3170.4 C 662.929,3169.02 663.082,3167.59 662.978,3166.16 L 662.951,3165.79 C 662.931,3165.52 662.963,3165.24 663.044,3164.98 L 665.238,3157.92 C 665.326,3157.63 665.586,3157.45 665.866,3157.45 C 665.931,3157.45 665.996,3157.46 666.061,3157.48 C 666.408,3157.59 666.602,3157.96 666.494,3158.31 Z" marker-start="none" marker-end="none"/>
  </g>
 </g>
</svg>
