<svg xmlns="http://www.w3.org/2000/svg" xmlns:xlink="http://www.w3.org/1999/xlink" width="50" height="50" viewBox="0 0 50 50"><defs><path id="nk2ha" d="M1045.64 1286.88l-1.51 1.51-2.08-2.07 1.52-1.51a1.47 1.47 0 0 1 2.07 2.07zM1035 1297.5l-2.07-2.07 7.04-7.05 2.08 2.07zm-4.14 0l2.07 2.07-.79.8-3.1 1.03 1.03-3.1zm3.29 15.1c0 .8-.66 1.46-1.47 1.46h-29.3c-.8 0-1.46-.66-1.46-1.46v-41.22c0-.8.66-1.46 1.46-1.46h21.98v7.32c0 .81.65 1.47 1.46 1.47h7.33v11.36l-4.33 4.32-2.07 2.07c-.16.17-.28.36-.35.58l-2.07 6.21a1.46 1.46 0 0 0 1.85 1.85l6.22-2.07c.21-.07.4-.19.57-.35l.18-.18zm-5.86-42.68c.27 0 .8-.05 1.28.43l4.15 4.14c.46.47.43.98.43 1.29h-5.86zm19.4 12.8a4.4 4.4 0 0 0-6.2 0l-4.41 4.42v-11.61c0-1.18-.46-2.28-1.3-3.11l-4.13-4.14a4.37 4.37 0 0 0-3.11-1.29h-25.16a4.4 4.4 0 0 0-4.39 4.4v41.2a4.4 4.4 0 0 0 4.4 4.4h29.3a4.4 4.4 0 0 0 4.39-4.4v-13.02l10.62-10.63a4.4 4.4 0 0 0 0-6.21z"/><path id="nk2hc" d="M1026.83 1281.65h-20.5a1.46 1.46 0 0 0 0 2.93h20.5a1.46 1.46 0 0 0 0-2.93z"/><path id="nk2he" d="M1020.97 1287.5h-14.65a1.46 1.46 0 0 0 0 2.94h14.65a1.46 1.46 0 0 0 0-2.93z"/><path id="nk2hg" d="M1020.97 1293.37h-14.65a1.46 1.46 0 0 0 0 2.93h14.65a1.46 1.46 0 0 0 0-2.93z"/><path id="nk2hi" d="M1020.97 1299.23h-14.65a1.46 1.46 0 0 0 0 2.93h14.65a1.46 1.46 0 0 0 0-2.93z"/><path id="nk2hk" d="M1026.83 1308.21h-8.79a1.46 1.46 0 0 0 0 2.93h8.8a1.46 1.46 0 0 0 0-2.93z"/><linearGradient id="nk2hb" x1="1024" x2="1024" y1="1267" y2="1317" gradientUnits="userSpaceOnUse"><stop offset="0" stop-color="#5077e7"/><stop offset="1" stop-color="#a776dd"/></linearGradient><linearGradient id="nk2hd" x1="1016.58" x2="1016.58" y1="1281.65" y2="1284.58" gradientUnits="userSpaceOnUse"><stop offset="0" stop-color="#5077e7"/><stop offset="1" stop-color="#a776dd"/></linearGradient><linearGradient id="nk2hf" x1="1013.65" x2="1013.65" y1="1287.51" y2="1290.44" gradientUnits="userSpaceOnUse"><stop offset="0" stop-color="#5077e7"/><stop offset="1" stop-color="#a776dd"/></linearGradient><linearGradient id="nk2hh" x1="1013.65" x2="1013.65" y1="1293.37" y2="1296.3" gradientUnits="userSpaceOnUse"><stop offset="0" stop-color="#5077e7"/><stop offset="1" stop-color="#a776dd"/></linearGradient><linearGradient id="nk2hj" x1="1013.65" x2="1013.65" y1="1299.23" y2="1302.16" gradientUnits="userSpaceOnUse"><stop offset="0" stop-color="#5077e7"/><stop offset="1" stop-color="#a776dd"/></linearGradient><linearGradient id="nk2hl" x1="1022.44" x2="1022.44" y1="1308.21" y2="1311.14" gradientUnits="userSpaceOnUse"><stop offset="0" stop-color="#5077e7"/><stop offset="1" stop-color="#a776dd"/></linearGradient></defs><g><g transform="translate(-999 -1267)"><g><g><g><use fill="url(#nk2hb)" xlink:href="#nk2ha"/></g></g></g><g><g><g><use fill="url(#nk2hd)" xlink:href="#nk2hc"/></g></g></g><g><g><g><use fill="url(#nk2hf)" xlink:href="#nk2he"/></g></g></g><g><g><g><use fill="url(#nk2hh)" xlink:href="#nk2hg"/></g></g></g><g><g><g><use fill="url(#nk2hj)" xlink:href="#nk2hi"/></g></g></g><g><g><g><use fill="url(#nk2hl)" xlink:href="#nk2hk"/></g></g></g></g></g></svg>