<svg xmlns="http://www.w3.org/2000/svg" xmlns:xlink="http://www.w3.org/1999/xlink" width="24" height="32" viewBox="0 0 24 32"><defs><path id="ops9a" d="M377.06 1781.13v-1.33h14.79c.5 0 .9-.42.9-.94v-21.43-.1-.04l-.01-.04-.01-.05v-.04l-.03-.05v-.03a.19.19 0 0 0-.03-.05.14.14 0 0 0-.02-.03l-.03-.04-.01-.04-.03-.04-.02-.04a.07.07 0 0 0-.03-.03l-.02-.02-.65-.72h2.32v25.06zm-3.25-3.2v-25.06h12.12v4.56c0 .52.4.94.91.94h4.1v19.56zm13.94-23.63l2 2.2h-2zm7.35-.1h-4.95l-2.65-2.9-.01-.01-.04-.04-.03-.02-.04-.04-.03-.02a128.49 128.49 0 0 0-.15-.09h-.01a.76.76 0 0 0-.35-.08h-13.93c-.5 0-.91.42-.91.94v26.92c0 .52.4.94.9.94h2.34v2.26c0 .52.4.94.91.94h18.94c.5 0 .91-.42.91-.94v-26.92c0-.52-.4-.94-.9-.94z"/><linearGradient id="ops9b" x1="384" x2="384" y1="1751" y2="1783" gradientUnits="userSpaceOnUse"><stop offset="0" stop-color="#5077e7"/><stop offset="1" stop-color="#a776dd"/></linearGradient></defs><g><g transform="translate(-372 -1751)"><g><g><use fill="url(#ops9b)" xlink:href="#ops9a"/></g></g></g></g></svg>