<?xml version="1.0" standalone="no"?>
<!DOCTYPE svg PUBLIC "-//W3C//DTD SVG 1.1//EN" "http://www.w3.org/Graphics/SVG/1.1/DTD/svg11.dtd">
<!--Generator: Xara Designer (www.xara.com), SVG filter version: 6.5.0.22-->
<svg fill="none" fill-rule="evenodd" stroke="black" stroke-width="0.501" stroke-linejoin="bevel" stroke-miterlimit="10" font-family="Times New Roman" font-size="16" style="font-variant-ligatures:none" xmlns:xlink="http://www.w3.org/1999/xlink" xmlns="http://www.w3.org/2000/svg" version="1.1" overflow="visible" width="34.496pt" height="34.496pt" viewBox="778.063 -2159.24 34.496 34.496">
 <defs>
	</defs>
 <g id="Layer 1" transform="scale(1 -1)">
  <path d="M 812.559,2144.77 L 811.309,2144.77 L 809.446,2143.79 C 809.236,2143.91 809.018,2144.01 808.782,2144.06 L 806.438,2144.65 L 806.438,2144.92 C 807.475,2145.64 808.108,2146.84 808.108,2148.11 L 808.108,2149.08 C 808.108,2151.24 806.414,2153.05 804.333,2153.12 C 804.227,2153.12 804.123,2153.12 804.019,2153.11 L 804.626,2154.53 L 801.68,2157.48 L 799.943,2156.35 C 799.283,2156.72 798.585,2157.01 797.86,2157.21 L 797.431,2159.24 L 793.191,2159.24 L 792.762,2157.21 C 792.037,2157.01 791.339,2156.72 790.679,2156.35 L 788.943,2157.48 L 785.999,2154.53 L 786.596,2153.11 C 786.573,2153.11 786.552,2153.12 786.529,2153.12 C 785.463,2153.15 784.46,2152.76 783.697,2152.02 C 782.934,2151.28 782.514,2150.29 782.514,2149.22 L 782.514,2148.11 C 782.514,2146.84 783.146,2145.64 784.183,2144.92 L 784.183,2144.65 L 782.654,2144.27 L 779.883,2145.89 L 778.063,2145.89 L 778.063,2134.36 L 783.536,2132.53 L 784.603,2132.53 L 784.736,2133 L 786.414,2131.99 C 786.441,2131.08 787.173,2130.34 788.084,2130.31 C 788.116,2129.4 788.846,2128.68 789.753,2128.64 C 789.785,2127.74 790.515,2127.01 791.422,2126.97 C 791.456,2126.05 792.216,2125.3 793.153,2125.3 C 793.5,2125.3 793.841,2125.41 794.128,2125.6 L 794.621,2125.16 C 794.93,2124.89 795.328,2124.74 795.74,2124.74 L 795.843,2124.74 C 796.769,2124.74 797.523,2125.49 797.534,2126.41 C 798.45,2126.43 799.192,2127.17 799.204,2128.08 C 800.12,2128.09 800.862,2128.84 800.873,2129.75 C 801.798,2129.78 802.544,2130.53 802.544,2131.46 C 802.544,2131.52 802.541,2131.57 802.536,2131.63 L 812.559,2136.64 Z M 806.995,2149.08 L 806.995,2148.11 C 806.995,2147.12 806.462,2146.2 805.603,2145.7 L 805.324,2145.54 L 805.327,2143.78 L 808.106,2143.09 L 801.988,2139.87 L 801.988,2141.37 C 801.988,2142.11 801.686,2142.8 801.191,2143.3 L 803.101,2143.78 L 803.101,2145.54 L 802.823,2145.7 C 801.964,2146.2 801.431,2147.12 801.431,2148.11 L 801.431,2149.22 C 801.431,2149.98 801.731,2150.69 802.277,2151.22 C 802.821,2151.75 803.544,2152.03 804.299,2152 C 805.786,2151.96 806.995,2150.65 806.995,2149.08 Z M 796.15,2140.3 L 793.631,2141.11 C 792.483,2141.48 791.241,2141.53 790.066,2141.27 L 789.747,2141.2 L 789.747,2141.37 C 789.747,2142.13 790.267,2142.8 791.011,2142.99 L 794.198,2143.78 L 794.198,2145.54 L 793.92,2145.7 C 793.062,2146.2 792.529,2147.12 792.529,2148.11 L 792.529,2149.22 C 792.529,2149.98 792.829,2150.69 793.374,2151.22 C 793.919,2151.75 794.646,2152.03 795.397,2152 C 796.883,2151.96 798.093,2150.65 798.093,2149.08 L 798.093,2148.11 C 798.093,2147.12 797.559,2146.2 796.7,2145.7 L 796.422,2145.54 L 796.424,2143.78 L 799.611,2142.99 C 800.355,2142.8 800.875,2142.13 800.875,2141.37 L 800.875,2139.28 L 800.737,2139.21 L 800.397,2139.21 L 796.976,2140.18 C 796.706,2140.26 796.429,2140.29 796.15,2140.3 Z M 789.872,2150.91 C 790.917,2152.93 793.02,2154.23 795.311,2154.23 C 797.581,2154.23 799.675,2152.95 800.727,2150.96 C 800.463,2150.42 800.319,2149.84 800.319,2149.22 L 800.319,2148.11 C 800.319,2146.84 800.951,2145.64 801.988,2144.92 L 801.988,2144.65 L 799.762,2144.09 L 797.536,2144.65 L 797.536,2144.92 C 798.573,2145.64 799.206,2146.84 799.206,2148.11 L 799.206,2149.08 C 799.206,2151.24 797.512,2153.05 795.43,2153.12 C 794.366,2153.15 793.361,2152.76 792.599,2152.02 C 791.836,2151.28 791.416,2150.29 791.416,2149.22 L 791.416,2148.11 C 791.416,2146.84 792.048,2145.64 793.085,2144.92 L 793.085,2144.65 L 790.86,2144.09 L 788.634,2144.65 L 788.634,2144.92 C 789.671,2145.64 790.303,2146.84 790.303,2148.11 L 790.303,2149.08 C 790.303,2149.74 790.146,2150.36 789.872,2150.91 Z M 787.313,2154.28 L 789.09,2156.05 L 790.655,2155.03 L 790.954,2155.22 C 791.704,2155.68 792.515,2156.01 793.364,2156.22 L 793.706,2156.3 L 794.093,2158.13 L 796.529,2158.13 L 796.916,2156.3 L 797.258,2156.22 C 798.106,2156.02 798.917,2155.68 799.667,2155.22 L 799.966,2155.04 L 801.531,2156.05 L 803.306,2154.28 L 802.675,2152.8 C 802.246,2152.62 801.848,2152.36 801.501,2152.02 C 801.478,2152 801.458,2151.97 801.436,2151.95 C 800.125,2154.03 797.808,2155.34 795.311,2155.34 C 792.796,2155.34 790.472,2154.02 789.165,2151.92 C 788.815,2152.28 788.398,2152.58 787.937,2152.79 Z M 785.296,2143.78 L 785.296,2145.54 L 785.018,2145.7 C 784.16,2146.2 783.627,2147.12 783.627,2148.11 L 783.627,2149.22 C 783.627,2149.98 783.927,2150.69 784.472,2151.22 C 785.017,2151.75 785.741,2152.03 786.495,2152 C 787.981,2151.96 789.191,2150.65 789.191,2149.08 L 789.191,2148.11 C 789.191,2147.12 788.657,2146.2 787.798,2145.7 L 787.52,2145.54 L 787.522,2143.78 L 789.431,2143.3 C 788.936,2142.8 788.634,2142.11 788.634,2141.37 L 788.634,2140.95 L 786.899,2140.57 L 786.944,2140.72 L 786.965,2141.75 L 784.031,2143.47 Z M 779.176,2144.77 L 779.581,2144.77 L 783.583,2142.44 L 781.563,2134.36 L 779.176,2135.16 Z M 783.717,2133.64 L 782.622,2134.01 L 784.583,2141.85 L 785.852,2141.11 L 785.852,2140.95 L 783.764,2133.64 Z M 787.521,2132.04 C 787.521,2132.21 787.588,2132.37 787.704,2132.48 L 788.682,2133.46 C 788.798,2133.58 788.959,2133.64 789.123,2133.64 C 789.467,2133.64 789.747,2133.36 789.747,2133.02 C 789.747,2132.86 789.681,2132.7 789.564,2132.58 L 788.586,2131.6 C 788.47,2131.49 788.309,2131.42 788.145,2131.42 C 787.801,2131.42 787.521,2131.7 787.521,2132.04 Z M 789.191,2130.37 C 789.191,2130.54 789.257,2130.7 789.373,2130.81 L 790.351,2131.79 C 790.467,2131.91 790.628,2131.97 790.792,2131.97 C 791.136,2131.97 791.416,2131.7 791.416,2131.35 C 791.416,2131.19 791.35,2131.03 791.234,2130.91 L 790.256,2129.93 C 790.139,2129.82 789.978,2129.75 789.814,2129.75 C 789.47,2129.75 789.191,2130.03 789.191,2130.37 Z M 790.86,2128.7 C 790.86,2128.87 790.926,2129.03 791.042,2129.15 L 792.02,2130.12 C 792.137,2130.24 792.297,2130.31 792.462,2130.31 C 792.806,2130.31 793.085,2130.03 793.085,2129.68 C 793.085,2129.52 793.019,2129.36 792.903,2129.24 L 791.925,2128.26 C 791.808,2128.15 791.648,2128.08 791.484,2128.08 C 791.14,2128.08 790.86,2128.36 790.86,2128.7 Z M 793.153,2126.41 C 792.809,2126.41 792.529,2126.69 792.529,2127.03 C 792.529,2127.2 792.595,2127.36 792.712,2127.48 L 793.69,2128.45 C 793.806,2128.57 793.967,2128.64 794.131,2128.64 C 794.475,2128.64 794.755,2128.36 794.755,2128.01 C 794.755,2127.85 794.688,2127.69 794.572,2127.57 L 793.594,2126.59 C 793.478,2126.48 793.317,2126.41 793.153,2126.41 Z M 795.843,2125.86 L 795.74,2125.86 C 795.599,2125.86 795.463,2125.91 795.357,2126 L 794.941,2126.37 L 795.359,2126.78 C 795.508,2126.93 795.624,2127.11 795.709,2127.3 L 796.215,2126.88 C 796.347,2126.77 796.424,2126.61 796.424,2126.43 C 796.424,2126.12 796.163,2125.86 795.843,2125.86 Z M 800.833,2130.86 L 800.737,2130.86 C 800.597,2130.86 800.461,2130.91 800.354,2131 L 797.337,2133.52 L 796.624,2132.66 L 799.554,2130.22 C 799.686,2130.11 799.762,2129.95 799.762,2129.77 C 799.762,2129.45 799.502,2129.19 799.182,2129.19 L 799.06,2129.19 C 798.925,2129.19 798.793,2129.24 798.689,2129.33 L 795.667,2131.85 L 794.954,2130.99 L 797.884,2128.55 C 798.017,2128.44 798.093,2128.28 798.093,2128.1 C 798.093,2127.78 797.833,2127.52 797.513,2127.52 C 797.299,2127.52 797.091,2127.6 796.927,2127.74 L 795.685,2128.77 C 795.412,2129.33 794.85,2129.72 794.191,2129.74 C 794.159,2130.65 793.43,2131.38 792.522,2131.41 C 792.49,2132.32 791.761,2133.05 790.853,2133.08 C 790.82,2134.01 790.06,2134.76 789.123,2134.76 C 788.666,2134.76 788.219,2134.57 787.895,2134.25 L 786.917,2133.27 C 786.859,2133.21 786.81,2133.15 786.761,2133.08 L 785.052,2134.11 L 786.55,2139.35 L 790.307,2140.18 C 791.292,2140.41 792.331,2140.36 793.292,2140.05 L 794.111,2139.79 L 791.333,2138.4 C 790.698,2138.08 790.303,2137.44 790.303,2136.73 L 790.303,2136.62 C 790.303,2135.59 791.14,2134.76 792.167,2134.76 C 792.505,2134.76 792.837,2134.85 793.126,2135.02 L 795.198,2136.26 C 795.614,2136.51 796.173,2136.46 796.532,2136.14 L 801.233,2131.91 C 801.359,2131.79 801.431,2131.63 801.431,2131.46 C 801.431,2131.13 801.163,2130.86 800.833,2130.86 Z M 811.446,2137.33 L 802.073,2132.64 C 802.042,2132.67 802.011,2132.7 801.977,2132.73 L 797.277,2136.96 C 796.865,2137.33 796.332,2137.54 795.778,2137.54 C 795.372,2137.54 794.974,2137.43 794.625,2137.22 L 792.552,2135.98 C 792.436,2135.91 792.303,2135.87 792.167,2135.87 C 791.753,2135.87 791.416,2136.21 791.416,2136.62 L 791.416,2136.73 C 791.416,2137.02 791.575,2137.27 791.831,2137.4 L 794.935,2138.95 C 795.466,2139.22 796.097,2139.28 796.669,2139.12 L 800.166,2138.12 L 801.012,2138.1 L 811.446,2143.59 Z" stroke="none" fill="#2f7fe6" stroke-width="0.07" fill-rule="nonzero" stroke-linejoin="miter" marker-start="none" marker-end="none"/>
 </g>
</svg>
