<svg xmlns="http://www.w3.org/2000/svg" xmlns:xlink="http://www.w3.org/1999/xlink" width="50" height="50" viewBox="0 0 50 50"><defs><path id="dwesa" d="M1278.3 1153.43a.98.98 0 0 0-1.37 0 .98.98 0 0 0 0 1.38.98.98 0 0 0 1.38 0 .98.98 0 0 0 0-1.38z"/><path id="dwesc" d="M1315.85 1126.87a.98.98 0 0 0-1.38 0 .98.98 0 0 0 .69 1.67.98.98 0 0 0 .98-.98c0-.26-.1-.51-.29-.7z"/><path id="dwese" d="M1307.01 1136.72a2.72 2.72 0 1 1 0-5.45 2.72 2.72 0 0 1 0 5.45zm11.04 20.33h-6.97a3.3 3.3 0 0 0 0-2.74h.3a3.32 3.32 0 0 0 2.97-4.8 3.33 3.33 0 0 0 1.79-5.18v-12.38a.98.98 0 0 0-1.95 0v11.11a3.32 3.32 0 0 0-.72-.07h-.03a3.32 3.32 0 0 0-3.02-4.69h-1.57a4.68 4.68 0 1 0-3.67 0h-5.34v-18.57a4.6 4.6 0 0 0 3.5-3.5h7.34a4.6 4.6 0 0 0 3.5 3.5v3.04a.98.98 0 0 0 1.96 0v-3.91a.98.98 0 0 0-.98-.98 2.63 2.63 0 0 1-2.63-2.63.98.98 0 0 0-.97-.98h-9.1a.98.98 0 0 0-.97.98 2.63 2.63 0 0 1-2.63 2.63.98.98 0 0 0-.98.98v19.44h-1.9v-27.35h22.07zm-10 0h-18.5c-.72 0-1.42-.26-1.96-.73l-2.36-2.06v-13.5l4.27-4.27.77 3.03c.11.43.5.73.95.73h19.2a1.37 1.37 0 0 1 0 2.74h-9.84a.98.98 0 0 0 0 1.95h12.9a1.37 1.37 0 0 1 0 2.73h-12.9a.98.98 0 0 0 0 1.96h10.8a1.37 1.37 0 0 1 0 2.73h-10.8a.98.98 0 0 0 0 1.95h7.47a1.37 1.37 0 0 1 0 2.74zm-14.03-34.16v8.24l-1.78-6.6a4.58 4.58 0 0 0 1.78-1.64zm-7.8-6l7.8-2.1v3.62l-.65.18a.98.98 0 0 0-.7 1.2 2.63 2.63 0 0 1-1.85 3.21.98.98 0 0 0-.7 1.2l3.82 14.1h-1.96l-1.01-3.95a.98.98 0 0 0-.17-.35zm-2.94 39.18c0 .54-.44.98-.98.98h-9.37a.98.98 0 0 1-.98-.98v-15.92c0-.53.44-.97.98-.97h3.71v11.25a.98.98 0 0 0 1.95 0v-11.25h3.71c.54 0 .98.44.98.97v15.92zm36.43-46.78a.98.98 0 0 0-.69-.29H1295a.98.98 0 0 0-.98.98v2.8l-9.25 2.47a.98.98 0 0 0-.7 1.2l4.8 17.9-4.15 4.15a2.93 2.93 0 0 0-2.42-1.28h-9.37a2.93 2.93 0 0 0-2.93 2.93v15.92a2.93 2.93 0 0 0 2.93 2.93h9.37c1.38 0 2.53-.95 2.85-2.22l1.16 1c.9.8 2.04 1.22 3.23 1.22h29.48c.54 0 .98-.44.98-.98v-48.04c0-.26-.1-.51-.29-.7z"/><linearGradient id="dwesb" x1="1277.62" x2="1277.62" y1="1153.14" y2="1155.09" gradientUnits="userSpaceOnUse"><stop offset="0" stop-color="#5077e7"/><stop offset="1" stop-color="#a776dd"/></linearGradient><linearGradient id="dwesd" x1="1315.17" x2="1315.17" y1="1126.58" y2="1128.53" gradientUnits="userSpaceOnUse"><stop offset="0" stop-color="#5077e7"/><stop offset="1" stop-color="#a776dd"/></linearGradient><linearGradient id="dwesf" x1="1295" x2="1295" y1="1109" y2="1159" gradientUnits="userSpaceOnUse"><stop offset="0" stop-color="#5077e7"/><stop offset="1" stop-color="#a776dd"/></linearGradient></defs><g><g transform="translate(-1270 -1109)"><g><g><g><use fill="url(#dwesb)" xlink:href="#dwesa"/></g></g></g><g><g><g><use fill="url(#dwesd)" xlink:href="#dwesc"/></g></g></g><g><g><g><use fill="url(#dwesf)" xlink:href="#dwese"/></g></g></g></g></g></svg>