<svg xmlns="http://www.w3.org/2000/svg" xmlns:xlink="http://www.w3.org/1999/xlink" width="50" height="50" viewBox="0 0 50 50"><defs><path id="tv18a" d="M1017.77 1475.74l-7.02 9.47a7.36 7.36 0 0 1-5.86 2.93h-22.07v-12.62l1.02-.9a7.34 7.34 0 0 1 9.67 0c.5.44 1.85 1.7 2.49 1.7h8.89a1.47 1.47 0 0 1 0 2.93h-10.51a1.46 1.46 0 0 0 0 2.93h11.49a4.4 4.4 0 0 0 3.21-1.4l6.45-6.92a1.46 1.46 0 0 1 2.24 1.88zm-34.95-15.53c0-7.32 5.91-13.28 13.18-13.28a13.3 13.3 0 0 1 13.28 13.28c0 7-5.51 12.73-12.45 13.16-.25-.05-.5-.17-.7-.34l-.68-.6a10.26 10.26 0 0 0-8.28-2.44 13.14 13.14 0 0 1-4.35-9.78zm-2.93 29.4c0 .8-.66 1.46-1.47 1.46h-4.49v-17.68h4.5c.8 0 1.46.66 1.46 1.47zm39.55-18.1a4.4 4.4 0 0 0-6.05.35l-4.3 4.63a4.4 4.4 0 0 0-3.82-3.08 15.94 15.94 0 0 0 6.94-13.2c0-8.88-7.3-16.21-16.21-16.21a16.2 16.2 0 0 0-11.97 26.99c-.71.36-1.39.8-2.02 1.34a4.4 4.4 0 0 0-3.59-1.87h-5.96c-.8 0-1.46.66-1.46 1.47v20.6c0 .81.66 1.47 1.46 1.47h5.96a4.4 4.4 0 0 0 4.15-2.95l.25.02h22.07a10.3 10.3 0 0 0 8.2-4.1l7.03-9.48a4.39 4.39 0 0 0-.68-5.99z"/><path id="tv18c" d="M996 1458.75a1.47 1.47 0 0 1-.5-2.85c.75-.27 1.63.1 2.4 1.02a1.46 1.46 0 0 0 2.24-1.88 6.1 6.1 0 0 0-2.68-1.92v-1.7a1.46 1.46 0 0 0-2.92 0v1.72l-.04.01a4.4 4.4 0 0 0 1.5 8.52 1.47 1.47 0 0 1 .57 2.82c-.66.28-1.44.04-2.15-.65a1.46 1.46 0 0 0-2.04 2.1c.66.65 1.4 1.1 2.16 1.35v1.71a1.46 1.46 0 0 0 2.92 0v-1.72a4.4 4.4 0 0 0-1.46-8.53z"/><linearGradient id="tv18b" x1="996" x2="996" y1="1444" y2="1494" gradientUnits="userSpaceOnUse"><stop offset="0" stop-color="#5077e7"/><stop offset="1" stop-color="#a776dd"/></linearGradient><linearGradient id="tv18d" x1="996.05" x2="996.05" y1="1449.96" y2="1470.47" gradientUnits="userSpaceOnUse"><stop offset="0" stop-color="#5077e7"/><stop offset="1" stop-color="#a776dd"/></linearGradient></defs><g><g transform="translate(-971 -1444)"><g><g><g><use fill="url(#tv18b)" xlink:href="#tv18a"/></g></g></g><g><g><g><use fill="url(#tv18d)" xlink:href="#tv18c"/></g></g></g></g></g></svg>