<svg xmlns="http://www.w3.org/2000/svg" xmlns:xlink="http://www.w3.org/1999/xlink" width="24" height="40" viewBox="0 0 24 40"><defs><path id="tvcla" d="M773.6 1631.67a1.6 1.6 0 0 1-1.6-1.6V1625h20v5.06c0 .89-.72 1.6-1.6 1.6zm0-37.34h16.8c.88 0 1.6.72 1.6 1.6v1.07h-20v-1.06c0-.89.72-1.6 1.6-1.6zm-1.6 4h20v25.34h-20zm18.4-5.33h-16.8a2.94 2.94 0 0 0-2.93 2.94v34.12a2.94 2.94 0 0 0 2.93 2.94h16.8a2.94 2.94 0 0 0 2.93-2.94v-34.12a2.94 2.94 0 0 0-2.93-2.94z"/><path id="tvclc" d="M782 1629.67a1.33 1.33 0 1 1 0-2.67 1.33 1.33 0 0 1 0 2.67zm0-4a2.67 2.67 0 1 0 0 5.34 2.67 2.67 0 0 0 0-5.34z"/><path id="tvcle" d="M779.33 1596.33H782a.67.67 0 1 0 0-1.33h-2.67a.67.67 0 1 0 0 1.33z"/><path id="tvclg" d="M784 1596.33h.67a.67.67 0 1 0 0-1.33H784a.67.67 0 1 0 0 1.33z"/><linearGradient id="tvclb" x1="782" x2="782" y1="1593" y2="1633" gradientUnits="userSpaceOnUse"><stop offset="0" stop-color="#5077e7"/><stop offset="1" stop-color="#a776dd"/></linearGradient><linearGradient id="tvcld" x1="782" x2="782" y1="1625.67" y2="1631" gradientUnits="userSpaceOnUse"><stop offset="0" stop-color="#5077e7"/><stop offset="1" stop-color="#a776dd"/></linearGradient><linearGradient id="tvclf" x1="780.67" x2="780.67" y1="1595" y2="1596.33" gradientUnits="userSpaceOnUse"><stop offset="0" stop-color="#5077e7"/><stop offset="1" stop-color="#a776dd"/></linearGradient><linearGradient id="tvclh" x1="784.33" x2="784.33" y1="1595" y2="1596.33" gradientUnits="userSpaceOnUse"><stop offset="0" stop-color="#5077e7"/><stop offset="1" stop-color="#a776dd"/></linearGradient></defs><g><g transform="translate(-770 -1593)"><g><use fill="url(#tvclb)" xlink:href="#tvcla"/></g><g><use fill="url(#tvcld)" xlink:href="#tvclc"/></g><g><use fill="url(#tvclf)" xlink:href="#tvcle"/></g><g><use fill="url(#tvclh)" xlink:href="#tvclg"/></g></g></g></svg>