<svg xmlns="http://www.w3.org/2000/svg" xmlns:xlink="http://www.w3.org/1999/xlink" width="48" height="50" viewBox="0 0 48 50"><defs><path id="idxaa" d="M1008.91 1629.23l.01-.24c0-7.73-6.24-14.02-13.92-14.02a13.98 13.98 0 0 0-13.92 14.02v.24h-7.15v-21.38h42.14v21.38zM995 1640.05c-6.06 0-11-4.96-11-11.06 0-6.1 4.94-11.07 11-11.07s11 4.96 11 11.07c0 6.1-4.94 11.06-11 11.06zm-12.58-41.17v1.33c0 .81.66 1.47 1.46 1.47.81 0 1.47-.66 1.47-1.47v-1.33h8.19v1.33c0 .81.65 1.47 1.46 1.47.8 0 1.46-.66 1.46-1.47v-1.33h8.56v1.33c0 .81.65 1.47 1.46 1.47.8 0 1.46-.66 1.46-1.47v-1.33h8.13v6.02h-42.14v-6.02zm35.12-2.95h-9.6v-1.46c0-.81-.65-1.47-1.46-1.47-.8 0-1.46.66-1.46 1.47v1.46h-8.56v-1.46c0-.81-.65-1.47-1.46-1.47-.8 0-1.46.66-1.46 1.47v1.46h-8.2v-1.46c0-.81-.65-1.47-1.46-1.47-.8 0-1.46.66-1.46 1.47v1.46h-9.96c-.8 0-1.46.66-1.46 1.47v33.3c0 .82.66 1.48 1.46 1.48h8.99A13.96 13.96 0 0 0 995 1643c6.58 0 12.11-4.63 13.55-10.82h8.99c.8 0 1.46-.66 1.46-1.48v-33.3c0-.81-.66-1.47-1.46-1.47z"/><path id="idxac" d="M996.46 1629.36v-7.13c0-.82-.65-1.48-1.46-1.48-.8 0-1.46.66-1.46 1.48v7.74c0 .39.15.76.42 1.04l3.37 3.39a1.45 1.45 0 0 0 2.07 0c.57-.58.57-1.51 0-2.09l-2.94-2.95z"/><linearGradient id="idxab" x1="995" x2="995" y1="1593" y2="1643" gradientUnits="userSpaceOnUse"><stop offset="0" stop-color="#5077e7"/><stop offset="1" stop-color="#a776dd"/></linearGradient><linearGradient id="idxad" x1="996.69" x2="996.69" y1="1620.75" y2="1634.83" gradientUnits="userSpaceOnUse"><stop offset="0" stop-color="#5077e7"/><stop offset="1" stop-color="#a776dd"/></linearGradient></defs><g><g transform="translate(-971 -1593)"><g><use fill="url(#idxab)" xlink:href="#idxaa"/></g><g><use fill="url(#idxad)" xlink:href="#idxac"/></g></g></g></svg>