<svg xmlns="http://www.w3.org/2000/svg" xmlns:xlink="http://www.w3.org/1999/xlink" width="55" height="55" viewBox="0 0 55 55"><defs><path id="oukta" d="M1222.78 2027.95c0 .89-.73 1.6-1.61 1.6h-16.22v-6.44h16.22c.88 0 1.6.73 1.6 1.61zm-3.23 29.22c0 .88-.72 1.6-1.6 1.6h-13v-25.99h14.6zm-17.83 1.6h-6.44v-35.66h6.44zm-9.67-29.21h-16.22c-.88 0-1.6-.72-1.6-1.61v-3.23c0-.88.72-1.6 1.6-1.6h16.22zm0 29.22h-13c-.88 0-1.6-.73-1.6-1.61v-24.39h14.6zm-3.22-48.56c3.3 0 4.24 1.98 6.71 8.25l.57 1.42h-7.28a4.84 4.84 0 0 1 0-9.67zm12.63 8.25c2.47-6.27 3.4-8.25 6.7-8.25a4.84 4.84 0 0 1 0 9.67h-7.27l.57-1.42zm19.7 1.42h-6.55a8.07 8.07 0 0 0-6.44-12.9c-2.68.01-4.65.97-6.21 3.03-1.3 1.72-2.26 4.12-3.46 7.16-1.2-3.04-2.15-5.44-3.46-7.16a7.23 7.23 0 0 0-6.2-3.02 8.07 8.07 0 0 0-6.45 12.9h-6.56a4.84 4.84 0 0 0-4.83 4.82v3.23c0 2.1 1.35 3.89 3.22 4.55v24.67a4.84 4.84 0 0 0 4.84 4.83h38.88a4.84 4.84 0 0 0 4.84-4.83v-24.67a4.84 4.84 0 0 0 3.22-4.55v-3.23a4.84 4.84 0 0 0-4.83-4.83z"/><linearGradient id="ouktb" x1="1198.5" x2="1198.5" y1="2007" y2="2062" gradientUnits="userSpaceOnUse"><stop offset="0" stop-color="#5077e7"/><stop offset="1" stop-color="#a776dd"/></linearGradient></defs><g><g transform="translate(-1171 -2007)"><use fill="url(#ouktb)" xlink:href="#oukta"/></g></g></svg>