<svg xmlns="http://www.w3.org/2000/svg" width="127" height="58" viewBox="0 0 127 58"><defs><linearGradient id="khapa" x1="63.93" x2="63.09" y1="57.92" y2="-.04" gradientUnits="userSpaceOnUse"><stop offset="0" stop-color="#a776dd"/><stop offset="1" stop-color="#5077e7"/></linearGradient></defs><g><g><path fill="url(#khapa)" d="M108.645 2.945a11.389 11.389 0 0 1 7.68-2.986c2.734 0 5.465.988 7.637 2.963a9.85 9.85 0 0 1 2.964 7.323 10.589 10.589 0 0 1-3.231 7.759c-4.204 4.055-10.936 3.943-15.006-.246l-.006-.008a10.33 10.33 0 0 1-2.97-7.546 9.845 9.845 0 0 1 2.932-7.259zm.686 7.254a7.793 7.793 0 0 0 1.949 5.41 6.82 6.82 0 0 0 5.026 2.199 6.867 6.867 0 0 0 5.06-2.215c1.315-1.495 2.001-3.41 1.934-5.33a7.287 7.287 0 0 0-1.952-5.226 4.83 4.83 0 0 0-.124-.125c-2.762-2.696-7.213-2.65-9.922.104l-.021.023c-1.317 1.43-2.01 3.283-1.95 5.16zM92.852 57.317H80.508V37.296h11.904v2.627h-7.47a.996.996 0 0 0-.998.994v4.001c0 .55.447.995.999.995h5.761v2.627h-5.761a.996.996 0 0 0-1 .995v4.159c0 .55.448.995 1 .995h7.909zm1.007-48.945l.03-.557c.013-.273-.114-.539-.304-.737a1.068 1.068 0 0 0-.754-.31 1 1 0 0 0-.95.69 128.84 128.84 0 0 1-1.226 3.656l-2.088 5.723H85.31l-2.078-5.698-1.239-3.692c-.223-.668-1.266-.878-1.748-.362a.99.99 0 0 0-.265.75c.086 1.177.086 2.37 0 3.552l-.616 8.983H75.92L77.591.36h4.263l2.982 8.59 1.118 3.632c.129.418.576.703 1.015.703.45 0 .844-.299.963-.731a57.163 57.163 0 0 1 1.1-3.57L92.024.358h4.26L97.92 20.37h-3.408l-.625-8.997a19.276 19.276 0 0 1-.057-1.58c0-.594.009-1.064.03-1.421zM24.892.359h6.779a11.917 11.917 0 0 1 3.918.455 5.133 5.133 0 0 1 2.508 1.984 6.111 6.111 0 0 1 .936 3.491 6.644 6.644 0 0 1-.765 3.08 4.546 4.546 0 0 1-2.017 2.035c-.334.17-.544.572-.544.946 0 .21.067.416.192.587.282.384.54.79.774 1.221l3.484 6.212H36.41l-3.654-6.883a.998.998 0 0 0-.883-.53h-2.546a.997.997 0 0 0-.999.995v6.418h-3.435zm3.435 8.976c0 .549.447.995.999.995l2.297-.002c.079.005.157.007.236.007.942 0 1.846-.339 2.616-1.012a3.64 3.64 0 0 0 1.035-2.66c.144-1.393-.611-2.707-1.98-3.322a6.396 6.396 0 0 0-2.377-.355h-1.827a.997.997 0 0 0-.999.995zm21.555-6.39A11.4 11.4 0 0 1 57.568-.04c2.736 0 5.468.988 7.64 2.962a9.88 9.88 0 0 1 2.956 7.325 10.59 10.59 0 0 1-3.237 7.772c-4.207 4.048-10.935 3.933-15-.26l-.007-.008a10.334 10.334 0 0 1-2.968-7.546 9.842 9.842 0 0 1 2.93-7.259zm.686 7.254a7.764 7.764 0 0 0 1.962 5.414 6.808 6.808 0 0 0 5.02 2.195c1.85 0 3.699-.745 5.053-2.213 1.318-1.494 2.01-3.41 1.946-5.334a7.313 7.313 0 0 0-1.985-5.247l-.11-.11c-2.762-2.69-7.204-2.639-9.904.113a.48.48 0 0 0-.019.02c-1.326 1.426-2.023 3.281-1.963 5.162zm10.855 47.118h-6.88V37.296l6.933-.001c2.819-.157 5.532.79 7.6 2.615a9.553 9.553 0 0 1 2.795 7.29.716.716 0 0 0 0 .111c.152 2.732-.868 5.412-2.757 7.316a10.507 10.507 0 0 1-7.639 2.69h-.052zm-.277-2.629c.132.008.264.012.397.012 1.792 0 3.531-.706 4.87-2.018a7.55 7.55 0 0 0 1.843-5.426c.114-1.95-.562-3.901-1.92-5.427-1.386-1.315-3.28-2.007-5.132-1.906h-2.228a.997.997 0 0 0-.998.994v12.778c0 .55.447.995.998.995zM2.282.359h8.247a5.868 5.868 0 0 1 4.456 1.794c1.189 1.302 1.806 2.987 1.738 4.82a6.725 6.725 0 0 1-1.727 4.774 5.847 5.847 0 0 1-4.506 1.827H6.705a.997.997 0 0 0-.998.995v5.801H2.282zm3.425 9.593c0 .55.447.995.998.995l2.612-.002c.08.005.158.007.237.007 1.009 0 1.969-.422 2.714-1.24a4.596 4.596 0 0 0 .026-5.523.873.873 0 0 0-.077-.092c-.726-.772-1.749-1.175-2.745-1.11H6.705a.997.997 0 0 0-.998.994zm22.052 44.735a10.336 10.336 0 0 1-2.968-7.546 9.858 9.858 0 0 1 2.93-7.258 11.414 11.414 0 0 1 7.681-2.975c2.735 0 5.466.985 7.636 2.95a9.868 9.868 0 0 1 2.965 7.324 10.589 10.589 0 0 1-3.231 7.759 10.557 10.557 0 0 1-7.554 2.973 10.56 10.56 0 0 1-7.452-3.22l-.007-.007zm.649-7.553a7.74 7.74 0 0 0 1.962 5.415 6.803 6.803 0 0 0 5.02 2.195c1.85 0 3.698-.744 5.052-2.213 1.318-1.494 2.005-3.411 1.936-5.33a7.267 7.267 0 0 0-1.975-5.24l-.11-.11c-2.761-2.691-7.206-2.64-9.904.112l-.017.018c-1.329 1.422-2.026 3.274-1.964 5.153zm-25.42 7.628a10.274 10.274 0 0 1-2.894-7.534 9.909 9.909 0 0 1 2.977-7.352 10.363 10.363 0 0 1 7.66-2.948h.024c1.425 0 2.828.244 4.182.731a9.351 9.351 0 0 1 2.822 1.567l-1.492 2.413a10.406 10.406 0 0 0-1.954-1.066 8.466 8.466 0 0 0-3.262-.707c-2.064-.154-4.069.633-5.513 2.176a7.517 7.517 0 0 0-1.829 5.077 8.07 8.07 0 0 0 1.876 5.31 6.696 6.696 0 0 0 5.424 2.32 9.345 9.345 0 0 0 5.718-2.182l1.633 2.302c-2.072 1.862-4.823 2.878-7.675 2.817a10.42 10.42 0 0 1-7.697-2.924z"/></g></g></svg>