<svg xmlns="http://www.w3.org/2000/svg" xmlns:xlink="http://www.w3.org/1999/xlink" width="50" height="50" viewBox="0 0 50 50"><defs><path id="h9wya" d="M418.33 1118.33h-5.5a3.83 3.83 0 1 0-7.32 0H400v-5.5a3.83 3.83 0 1 0 0-7.31V1100h18.33zm0 20zm-18.33 0v-5.5a3.83 3.83 0 1 0 0-7.32V1120h6.67a.83.83 0 0 0 .79-1.1l-.35-1.04a2.17 2.17 0 1 1 4.12 0l-.35 1.04a.83.83 0 0 0 .79 1.1h6.66v18.33zm-1.62-6.93a.83.83 0 0 0-.05.27v6.66H380V1120h5.51a3.83 3.83 0 1 0 7.31 0h5.51v6.67a.83.83 0 0 0 1.1.79l1.05-.35a2.17 2.17 0 1 1 0 4.12l-1.05-.35a.83.83 0 0 0-1.05.52zm.79-33.07a.83.83 0 0 0-.84.84v7.5a.83.83 0 0 0 1.1.79l1.05-.35a2.17 2.17 0 1 1 0 4.12l-1.05-.35a.83.83 0 0 0-1.1.79v6.66h-6.66a.83.83 0 0 0-.8 1.1l.36 1.05a2.17 2.17 0 1 1-4.12 0l.35-1.05a.83.83 0 0 0-.8-1.1h-7.5a.83.83 0 0 0-.83.84v20c0 .46.38.83.84.83h40c.46 0 .83-.37.83-.83v-40a.83.83 0 0 0-.83-.84z"/><path id="h9wyc" d="M393.5 1102.9c-.45.14-.92.14-1.36 0l-1.04-.36a.83.83 0 0 0-1.1.8v6.66h-6.67a.83.83 0 0 0-.79 1.1l.35 1.04a2.17 2.17 0 1 1-4.12 0l.35-1.04a.83.83 0 0 0-.79-1.1h-6.66v-18.33H390v6.66a.83.83 0 0 0 1.1.8l1.04-.36a2.17 2.17 0 0 1 1.35 4.12zm.47-5.72a3.83 3.83 0 0 0-2.3 0v-6.35a.83.83 0 0 0-.84-.83h-20a.83.83 0 0 0-.83.83v20c0 .46.37.84.83.84h6.35a3.83 3.83 0 1 0 7.3 0h6.35c.46 0 .84-.38.84-.84v-6.34a3.83 3.83 0 0 0 2.3-7.31z"/><linearGradient id="h9wyb" x1="399.17" x2="399.17" y1="1098.33" y2="1140" gradientUnits="userSpaceOnUse"><stop offset="0" stop-color="#5077e7"/><stop offset="1" stop-color="#a776dd"/></linearGradient><linearGradient id="h9wyd" x1="383.33" x2="383.33" y1="1090" y2="1116.65" gradientUnits="userSpaceOnUse"><stop offset="0" stop-color="#5077e7"/><stop offset="1" stop-color="#a776dd"/></linearGradient></defs><g><g transform="translate(-370 -1090)"><g><g><g><use fill="url(#h9wyb)" xlink:href="#h9wya"/></g></g></g><g><g><g><use fill="url(#h9wyd)" xlink:href="#h9wyc"/></g></g></g></g></g></svg>