<svg xmlns="http://www.w3.org/2000/svg" width="91" height="90" viewBox="0 0 91 90"><defs><linearGradient id="wim7a" x1="45.57" x2="45.46" y1="89.8" y2="0" gradientUnits="userSpaceOnUse"><stop offset="0" stop-color="#a776dd"/><stop offset="1" stop-color="#5077e7"/></linearGradient></defs><g><g><path fill="url(#wim7a)" d="M90.574 76.332v10.474a3.001 3.001 0 0 1-3.004 2.992H3.46a3.001 3.001 0 0 1-3.004-2.992V76.332a2.982 2.982 0 0 1 1.503-2.577v-39.32c.002-2.477 2.018-4.486 4.505-4.488h10.514V17.825a7.5 7.5 0 0 1-6.008-7.33V1.517A1.5 1.5 0 0 1 12.472.021a1.5 1.5 0 0 1 1.502 1.496v5.985h3.004V1.517A1.5 1.5 0 0 1 18.48.021a1.5 1.5 0 0 1 1.502 1.496v5.985h3.004V1.517A1.5 1.5 0 0 1 24.488.021a1.5 1.5 0 0 1 1.502 1.496v8.978a7.5 7.5 0 0 1-6.008 7.33v12.122h16.064a16.425 16.425 0 0 1-6.289-18.433C31.924 4.66 38.303 0 45.515 0c7.213 0 13.592 4.661 15.759 11.514s-.379 14.315-6.29 18.433h11.56V1.517a1.5 1.5 0 0 1 1.5-1.496c.768 0 7.496.462 7.496 16.444a3.008 3.008 0 0 1-3.004 3.007h-2.989v10.475h15.02c2.487.002 4.503 2.01 4.506 4.489v39.32a2.981 2.981 0 0 1 1.501 2.576zM69.547 16.48l2.989-.015c0-7.876-1.672-11.147-2.989-12.502zM45.515 29.947c7.466 0 13.518-6.03 13.518-13.467S52.981 3.013 45.515 3.013c-7.465 0-13.517 6.03-13.517 13.467.008 7.434 6.055 13.459 13.517 13.467zM24.8 42.296a3.012 3.012 0 0 0-.049 2.56 2.533 2.533 0 0 0 1.663 1.442c.269.072.547.108.825.108a3.034 3.034 0 0 0 3.067-2.993 1.5 1.5 0 0 1 1.502-1.496 1.5 1.5 0 0 1 1.502 1.496 3.063 3.063 0 0 0 3.067 2.993c1.67 0 3.032-1.33 3.067-2.993a1.5 1.5 0 0 1 1.503-1.496c.829 0 1.501.67 1.501 1.496a3.062 3.062 0 0 0 3.067 2.996 3.062 3.062 0 0 0 3.067-2.996 1.5 1.5 0 0 1 1.503-1.496 1.5 1.5 0 0 1 1.501 1.496 3.063 3.063 0 0 0 3.068 2.993c1.669 0 3.032-1.33 3.067-2.993a1.5 1.5 0 0 1 1.502-1.496 1.5 1.5 0 0 1 1.502 1.496 3.034 3.034 0 0 0 3.067 2.993c.278 0 .555-.036.823-.108a2.533 2.533 0 0 0 1.665-1.442 3.014 3.014 0 0 0-.049-2.56c-1.4-2.814-6.223-9.357-20.716-9.357-14.492 0-19.315 6.543-20.715 9.357zm37.237 7.102v17.956h18.026l-.003-17.956zm-33.043 0H10.97v17.956h18.026zM18.48 14.984c2.489 0 4.506-2.01 4.506-4.49h-9.012c0 2.48 2.017 4.49 4.506 4.49zm16.521 61.348H3.461v10.474H35zm18.024-2.992h-15.02v13.466h15.02zm0-16.46h-2.382l-7.07 7.043a1.506 1.506 0 0 1-2.533-.66c-.137-.524.02-1.08.41-1.456l4.945-4.927h-8.39v13.466h3.885l5.568-5.546a1.506 1.506 0 0 1 2.105.018c.58.578.588 1.51.019 2.098l-3.444 3.43h6.887zm3.004 0v16.46h30.04V34.436c0-.826-.673-1.496-1.502-1.497h-24.2a18.268 18.268 0 0 1 8.556 8.026 5.947 5.947 0 0 1 .096 5.118c-.052.116-.131.212-.19.323H80.06a3.002 3.002 0 0 1 3.005 2.992v17.956a3.002 3.002 0 0 1-3.005 2.993H62.037a3.001 3.001 0 0 1-3.004-2.993V49.398c0-.615.193-1.215.552-1.717-.119-.113-.253-.209-.362-.331a6.114 6.114 0 0 1-4.57 2.048 6.113 6.113 0 0 1-4.568-2.048 6.115 6.115 0 0 1-4.57 2.048 6.113 6.113 0 0 1-4.568-2.048 6.115 6.115 0 0 1-4.57 2.048 6.115 6.115 0 0 1-4.57-2.048c-.108.122-.243.218-.361.33.358.503.55 1.103.552 1.718v17.956a3 3 0 0 1-3.004 2.993H10.97a3.001 3.001 0 0 1-3.004-2.993V49.398a3.002 3.002 0 0 1 3.004-2.992h11.233c-.06-.111-.138-.207-.19-.323a5.944 5.944 0 0 1 .095-5.117 18.267 18.267 0 0 1 8.556-8.027h-24.2c-.83.001-1.5.67-1.502 1.497V73.34h30.04V56.88a3.002 3.002 0 0 1 3.004-2.992h15.02a3.001 3.001 0 0 1 3.003 2.992zM87.57 76.332H56.03v10.474h31.54zm-40.552 2.993v-1.497c0-.826.672-1.496 1.501-1.496a1.5 1.5 0 0 1 1.503 1.496v1.497a1.5 1.5 0 0 1-1.503 1.496c-.829 0-1.501-.67-1.501-1.496zm18.138-21.872a1.493 1.493 0 0 1 .325-1.63l3.004-2.994a1.506 1.506 0 0 1 2.106.019c.579.577.587 1.51.018 2.097l-3.004 2.993c-.281.281-.664.439-1.062.438a1.502 1.502 0 0 1-1.387-.923zm2.889 5.412c0-.397.158-.777.44-1.058l6.008-5.985a1.506 1.506 0 0 1 2.106.019c.579.576.587 1.51.017 2.097l-6.007 5.985a1.502 1.502 0 0 1-2.564-1.058zm-53.956-5.412a1.492 1.492 0 0 1 .325-1.63l3.004-2.994a1.506 1.506 0 0 1 2.105.019c.58.577.588 1.51.019 2.097l-3.004 2.993a1.502 1.502 0 0 1-2.449-.485zm2.89 5.412c0-.397.157-.777.44-1.058l6.007-5.985a1.506 1.506 0 0 1 2.106.019c.579.576.587 1.51.018 2.097l-6.008 5.985a1.503 1.503 0 0 1-2.564-1.058zm28.536-35.91c-5.806 0-10.514-4.69-10.514-10.475 0-5.785 4.708-10.474 10.514-10.474a1.5 1.5 0 0 1 1.503 1.496A1.5 1.5 0 0 1 45.515 9a7.5 7.5 0 0 0-7.343 5.914 7.47 7.47 0 0 0 4.273 8.388 7.523 7.523 0 0 0 9.127-2.412 7.456 7.456 0 0 0-.464-9.396 1.491 1.491 0 0 1-.337-1.48 1.506 1.506 0 0 1 2.574-.516 10.428 10.428 0 0 1 2.684 6.983c0 5.785-4.707 10.474-10.514 10.474z"/></g></g></svg>