<svg xmlns="http://www.w3.org/2000/svg" xmlns:xlink="http://www.w3.org/1999/xlink" width="55" height="55" viewBox="0 0 55 55"><defs><path id="30joa" d="M420.78 1113.78h-48.56v-12.9h48.56zm-3.23-16.13v-21.58h-3.22v21.58h-35.66v-21.58h-3.22v21.58H369V1117h55v-19.35z"/><path id="30joc" d="M375.45 1107.32v-3.22h3.22v3.22z"/><path id="30joe" d="M381.9 1107.32v-3.22h3.22v3.22z"/><path id="30jog" d="M388.35 1107.32v-3.22h3.22v3.22z"/><path id="30joi" d="M401.42 1110.55v-3.22h16.13v3.22z"/><path id="30jok" d="M390 1079.87l2.27 2.27a5.99 5.99 0 0 1 8.46 0l2.28-2.27a9.21 9.21 0 0 0-13.02 0z"/><path id="30jom" d="M384.62 1074.5l2.28 2.28c5.3-5.3 13.9-5.3 19.2 0l2.28-2.28a16.81 16.81 0 0 0-23.76 0z"/><path id="30joo" d="M396.5 1062a24.22 24.22 0 0 0-17.24 7.13l2.28 2.28a21.19 21.19 0 0 1 29.92 0l2.28-2.28a24.22 24.22 0 0 0-17.24-7.13z"/><linearGradient id="30job" x1="396.5" x2="396.5" y1="1076.07" y2="1117" gradientUnits="userSpaceOnUse"><stop offset="0" stop-color="#5077e7"/><stop offset="1" stop-color="#a776dd"/></linearGradient><linearGradient id="30jod" x1="377.06" x2="377.06" y1="1104.1" y2="1107.32" gradientUnits="userSpaceOnUse"><stop offset="0" stop-color="#5077e7"/><stop offset="1" stop-color="#a776dd"/></linearGradient><linearGradient id="30jof" x1="383.51" x2="383.51" y1="1104.1" y2="1107.32" gradientUnits="userSpaceOnUse"><stop offset="0" stop-color="#5077e7"/><stop offset="1" stop-color="#a776dd"/></linearGradient><linearGradient id="30joh" x1="389.96" x2="389.96" y1="1104.1" y2="1107.32" gradientUnits="userSpaceOnUse"><stop offset="0" stop-color="#5077e7"/><stop offset="1" stop-color="#a776dd"/></linearGradient><linearGradient id="30joj" x1="409.49" x2="409.49" y1="1107.33" y2="1110.55" gradientUnits="userSpaceOnUse"><stop offset="0" stop-color="#5077e7"/><stop offset="1" stop-color="#a776dd"/></linearGradient><linearGradient id="30jol" x1="396.5" x2="396.5" y1="1077.17" y2="1082.14" gradientUnits="userSpaceOnUse"><stop offset="0" stop-color="#5077e7"/><stop offset="1" stop-color="#a776dd"/></linearGradient><linearGradient id="30jon" x1="396.5" x2="396.5" y1="1069.59" y2="1076.78" gradientUnits="userSpaceOnUse"><stop offset="0" stop-color="#5077e7"/><stop offset="1" stop-color="#a776dd"/></linearGradient><linearGradient id="30jop" x1="396.51" x2="396.51" y1="1062" y2="1071.41" gradientUnits="userSpaceOnUse"><stop offset="0" stop-color="#5077e7"/><stop offset="1" stop-color="#a776dd"/></linearGradient></defs><g><g transform="translate(-369 -1062)"><g><g><g><use fill="url(#30job)" xlink:href="#30joa"/></g></g></g><g><g><g><use fill="url(#30jod)" xlink:href="#30joc"/></g></g></g><g><g><g><use fill="url(#30jof)" xlink:href="#30joe"/></g></g></g><g><g><g><use fill="url(#30joh)" xlink:href="#30jog"/></g></g></g><g><g><g><use fill="url(#30joj)" xlink:href="#30joi"/></g></g></g><g><g><g><use fill="url(#30jol)" xlink:href="#30jok"/></g></g></g><g><g><g><use fill="url(#30jon)" xlink:href="#30jom"/></g></g></g><g><g><g><use fill="url(#30jop)" xlink:href="#30joo"/></g></g></g></g></g></svg>