<svg xmlns="http://www.w3.org/2000/svg" width="90" height="90" viewBox="0 0 90 90"><defs><linearGradient id="hu2fa" x1="45" x2="45" y1="90" y2="0" gradientUnits="userSpaceOnUse"><stop offset="0" stop-color="#a776dd"/><stop offset="1" stop-color="#5077e7"/></linearGradient></defs><g><g><path fill="url(#hu2fa)" d="M21.05 71.763a7.333 7.333 0 0 1 2.162 5.22 7.333 7.333 0 0 1-2.162 5.22 7.335 7.335 0 0 1-5.22 2.163 7.332 7.332 0 0 1-5.22-2.163 7.332 7.332 0 0 1-2.164-5.22c0-1.48.433-2.893 1.238-4.095A45.082 45.082 0 0 1 0 45c0-12.02 4.68-23.32 13.18-31.82S32.98 0 45 0c3.014 0 6.028.3 8.958.892a1.758 1.758 0 0 1-.696 3.446A41.798 41.798 0 0 0 45 3.516C22.125 3.516 3.516 22.125 3.516 45a41.56 41.56 0 0 0 8.767 25.505 7.338 7.338 0 0 1 3.546-.905c1.972 0 3.826.768 5.22 2.163zm-1.354 5.22a3.842 3.842 0 0 0-1.133-2.735 3.844 3.844 0 0 0-2.734-1.132 3.84 3.84 0 0 0-2.734 1.132 3.842 3.842 0 0 0-1.133 2.735c0 1.033.402 2.004 1.133 2.734a3.841 3.841 0 0 0 2.734 1.133 3.84 3.84 0 0 0 2.734-1.133 3.842 3.842 0 0 0 1.133-2.734zM90 45c0 12.02-4.68 23.32-13.18 31.82S57.02 90 45 90a45.36 45.36 0 0 1-8.873-.875 1.758 1.758 0 0 1 .69-3.448c2.676.536 5.43.807 8.183.807 22.875 0 41.484-18.61 41.484-41.484a41.562 41.562 0 0 0-8.767-25.506 7.338 7.338 0 0 1-3.546.905 7.334 7.334 0 0 1-5.22-2.162 7.334 7.334 0 0 1-2.163-5.22c0-1.972.768-3.826 2.162-5.221a7.337 7.337 0 0 1 5.22-2.162c1.973 0 3.827.768 5.221 2.162 2.528 2.528 2.835 6.447.924 9.314A45.085 45.085 0 0 1 90 45zM74.17 16.884a3.845 3.845 0 0 0 2.736-1.132 3.873 3.873 0 0 0 0-5.47A3.843 3.843 0 0 0 74.17 9.15a3.84 3.84 0 0 0-2.734 1.132 3.842 3.842 0 0 0-1.133 2.735c0 1.033.402 2.004 1.133 2.735.73.73 1.7 1.132 2.734 1.132zM37.747 71.826a27.544 27.544 0 0 1-6.597-2.734l-2.405 2.406a1.758 1.758 0 0 1-2.486 0l-7.77-7.775a1.758 1.758 0 0 1 0-2.485l2.404-2.404a27.533 27.533 0 0 1-2.734-6.597h-3.395a1.759 1.759 0 0 1-1.758-1.758l.006-10.991c0-.97.787-1.758 1.758-1.758h3.389a27.528 27.528 0 0 1 2.734-6.596l-2.39-2.39a1.759 1.759 0 0 1 0-2.487l7.775-7.77a1.758 1.758 0 0 1 2.485.001l2.388 2.388a27.496 27.496 0 0 1 6.596-2.734v-3.377c0-.97.788-1.757 1.758-1.757h10.991c.971 0 1.758.786 1.758 1.757v3.377a27.52 27.52 0 0 1 6.597 2.734l2.387-2.388a1.758 1.758 0 0 1 2.486 0l7.775 7.768a1.759 1.759 0 0 1 0 2.487l-2.39 2.39a27.538 27.538 0 0 1 2.734 6.597h3.395c.971 0 1.758.787 1.758 1.758V50.48c0 .971-.787 1.758-1.758 1.758h-3.395a27.533 27.533 0 0 1-2.734 6.597l2.403 2.404c.686.686.686 1.799 0 2.485l-7.768 7.774a1.756 1.756 0 0 1-2.487.001l-2.406-2.406a27.52 27.52 0 0 1-6.597 2.734v3.408c0 .971-.787 1.758-1.758 1.758h-10.99c-.971 0-1.759-.787-1.759-1.758zm2.127-3.101c.81.174 1.389.89 1.389 1.719v3.033h7.475v-3.033c0-.83.579-1.545 1.389-1.72a24.077 24.077 0 0 0 8.035-3.329 1.757 1.757 0 0 1 2.197.234l2.14 2.14 5.284-5.289-2.138-2.138a1.758 1.758 0 0 1-.233-2.197 24.055 24.055 0 0 0 3.33-8.035c.173-.81.889-1.388 1.718-1.388h3.02v-7.476h-3.02a1.757 1.757 0 0 1-1.719-1.388 24.074 24.074 0 0 0-3.33-8.035 1.758 1.758 0 0 1 .234-2.198l2.124-2.124-5.287-5.284-2.123 2.122a1.756 1.756 0 0 1-2.197.234 24.07 24.07 0 0 0-8.035-3.33 1.757 1.757 0 0 1-1.389-1.718v-3.002h-7.475v3.002c0 .829-.579 1.545-1.389 1.719a24.05 24.05 0 0 0-8.035 3.33 1.76 1.76 0 0 1-2.197-.234l-2.122-2.123L22.23 27.5l2.124 2.125c.586.586.683 1.5.234 2.197a24.06 24.06 0 0 0-3.33 8.035 1.758 1.758 0 0 1-1.718 1.388h-3.016l-.004 7.476h3.02c.828 0 1.544.578 1.718 1.388a24.058 24.058 0 0 0 3.33 8.036c.45.695.352 1.61-.234 2.196l-2.138 2.14 5.284 5.287 2.14-2.14a1.758 1.758 0 0 1 2.197-.234 24.067 24.067 0 0 0 8.035 3.33zm5.127-9.2c-8.009 0-14.525-6.516-14.525-14.525 0-8.01 6.516-14.525 14.525-14.525S59.525 36.991 59.525 45 53.009 59.525 45 59.525zm0-3.516c6.07 0 11.009-4.94 11.009-11.01 0-6.07-4.938-11.008-11.009-11.008-6.07 0-11.009 4.938-11.009 11.009 0 6.07 4.938 11.009 11.009 11.009zM59.943 6.133a1.774 1.774 0 0 1-.515-1.245c0-.462.188-.914.515-1.243a1.766 1.766 0 0 1 1.243-.515c.462 0 .916.188 1.242.515.328.33.515.783.515 1.243 0 .463-.188.916-.515 1.245a1.77 1.77 0 0 1-1.242.515c-.465 0-.916-.188-1.243-.515zM30.134 83.898c.327.327.515.781.515 1.243 0 .462-.188.916-.515 1.243-.327.327-.78.515-1.243.515-.462 0-.916-.188-1.243-.515a1.768 1.768 0 0 1-.515-1.243c0-.462.189-.916.515-1.243.327-.327.781-.515 1.243-.515.462 0 .916.188 1.243.515z"/></g></g></svg>