<svg xmlns="http://www.w3.org/2000/svg" xmlns:xlink="http://www.w3.org/1999/xlink" width="50" height="50" viewBox="0 0 50 50"><defs><path id="3ucpa" d="M417.07 1152.07h-2.93v-29.5h-38.28v29.5h-2.93v-37.6l22.07-6.42 22.07 6.42zm-8.79 0v-11.82h-5.9v-11.81h-14.75v11.81h-5.91v11.82h-2.93v-26.57h32.42v26.57zm-2.93 0h-8.89v-8.89h2.98v3.91h2.93v-3.9h2.98zm-8.89-16.8v-3.9h2.98v8.88h-8.88v-8.88h2.97v3.9zm-2.93 16.8h-8.88v-8.89h2.98v3.91h2.93v-3.9h2.97zM395 1105l-25 7.27V1155h50v-42.73z"/><path id="3ucpc" d="M375.86 1119.64v-2.93h38.28v2.93z"/><linearGradient id="3ucpb" x1="395" x2="395" y1="1105" y2="1155" gradientUnits="userSpaceOnUse"><stop offset="0" stop-color="#5077e7"/><stop offset="1" stop-color="#a776dd"/></linearGradient><linearGradient id="3ucpd" x1="395" x2="395" y1="1116.71" y2="1119.64" gradientUnits="userSpaceOnUse"><stop offset="0" stop-color="#5077e7"/><stop offset="1" stop-color="#a776dd"/></linearGradient></defs><g><g transform="translate(-370 -1105)"><g><g><g><use fill="url(#3ucpb)" xlink:href="#3ucpa"/></g></g></g><g><g><g><use fill="url(#3ucpd)" xlink:href="#3ucpc"/></g></g></g></g></g></svg>