<svg xmlns="http://www.w3.org/2000/svg" xmlns:xlink="http://www.w3.org/1999/xlink" width="64" height="30" viewBox="0 0 64 30"><defs><path id="e85ca" d="M391 1080.24h-13.04-.01c-.54 0-1-.4-1.06-.95l-1.63-13.94-.01-.14c0-.59.48-1.06 1.09-1.06h.02c.52 0 .97.39 1.05.92l1.87 12.1c.08.52.53.9 1.05.9l10.67.03a1.07 1.07 0 0 1 0 2.14zm0-4.29l-9.75-.02-1.73-11.18a3.21 3.21 0 0 0-3.14-2.75h-.06a3.21 3.21 0 0 0-3.18 3.61l1.63 13.93a3.2 3.2 0 0 0 3.17 2.84H391a3.21 3.21 0 0 0 0-6.43z"/><path id="e85cc" d="M375.05 1090.6l3.2-9.64 2.02.67-3.2 9.65z"/><path id="e85ce" d="M387.85 1081.63l2.03-.68 3.2 9.65-2.03.67z"/><path id="e85cg" d="M416.87 1070.58h-27.74v-2.15h27.74v2.15zm1.06-4.29h-29.86c-.6 0-1.07.48-1.07 1.07v4.29c0 .59.48 1.07 1.07 1.07h29.86c.6 0 1.07-.48 1.07-1.07v-4.29c0-.6-.48-1.07-1.07-1.07z"/><path id="e85ci" d="M404.07 1089.86h-2.14v-17.14h2.14zm1.06-19.28h-4.26c-.6 0-1.07.47-1.07 1.07v19.28c0 .6.48 1.07 1.07 1.07h4.26c.6 0 1.07-.47 1.07-1.07v-19.28c0-.6-.48-1.07-1.07-1.07z"/><path id="e85ck" d="M430.74 1065.36l-1.63 13.93c-.06.54-.52.95-1.07.95H415a1.07 1.07 0 0 1 0-2.14l10.67-.02c.52 0 .97-.4 1.05-.91l1.87-12.1c.07-.53.53-.92 1.07-.92h.02a1.07 1.07 0 0 1 1.06 1.21zm-1.03-3.36h-.07a3.21 3.21 0 0 0-3.16 2.74l-1.73 11.2-9.75.01a3.21 3.21 0 0 0 0 6.43H428.05c1.63 0 2.99-1.22 3.18-2.84l1.63-13.92c.02-.14.02-.29.02-.43a3.2 3.2 0 0 0-3.17-3.19z"/><path id="e85cm" d="M425.72 1081.63l2.02-.68 3.2 9.65-2.02.68z"/><path id="e85co" d="M412.92 1090.59l3.2-9.64 2.03.67-3.2 9.65z"/><path id="e85cq" d="M371 1092v-2.14h64v2.14z"/><linearGradient id="e85cb" x1="383.66" x2="383.66" y1="1062" y2="1082.38" gradientUnits="userSpaceOnUse"><stop offset="0" stop-color="#5077e7"/><stop offset="1" stop-color="#a776dd"/></linearGradient><linearGradient id="e85cd" x1="376.64" x2="378.67" y1="1085.78" y2="1086.45" gradientUnits="userSpaceOnUse"><stop offset="0" stop-color="#5077e7"/><stop offset="1" stop-color="#a776dd"/></linearGradient><linearGradient id="e85cf" x1="388.87" x2="392.08" y1="1081.29" y2="1090.93" gradientUnits="userSpaceOnUse"><stop offset="0" stop-color="#5077e7"/><stop offset="1" stop-color="#a776dd"/></linearGradient><linearGradient id="e85ch" x1="403" x2="403" y1="1066.29" y2="1072.72" gradientUnits="userSpaceOnUse"><stop offset="0" stop-color="#5077e7"/><stop offset="1" stop-color="#a776dd"/></linearGradient><linearGradient id="e85cj" x1="403" x2="403" y1="1070.58" y2="1092.01" gradientUnits="userSpaceOnUse"><stop offset="0" stop-color="#5077e7"/><stop offset="1" stop-color="#a776dd"/></linearGradient><linearGradient id="e85cl" x1="422.34" x2="422.34" y1="1062" y2="1082.38" gradientUnits="userSpaceOnUse"><stop offset="0" stop-color="#5077e7"/><stop offset="1" stop-color="#a776dd"/></linearGradient><linearGradient id="e85cn" x1="426.73" x2="429.94" y1="1081.3" y2="1090.93" gradientUnits="userSpaceOnUse"><stop offset="0" stop-color="#5077e7"/><stop offset="1" stop-color="#a776dd"/></linearGradient><linearGradient id="e85cp" x1="414.52" x2="416.55" y1="1085.77" y2="1086.44" gradientUnits="userSpaceOnUse"><stop offset="0" stop-color="#5077e7"/><stop offset="1" stop-color="#a776dd"/></linearGradient><linearGradient id="e85cr" x1="403" x2="403" y1="1089.86" y2="1092" gradientUnits="userSpaceOnUse"><stop offset="0" stop-color="#5077e7"/><stop offset="1" stop-color="#a776dd"/></linearGradient></defs><g><g transform="translate(-371 -1062)"><g><g><g><use fill="url(#e85cb)" xlink:href="#e85ca"/></g></g></g><g><g><g><use fill="url(#e85cd)" xlink:href="#e85cc"/></g></g></g><g><g><g><use fill="url(#e85cf)" xlink:href="#e85ce"/></g></g></g><g><g><g><use fill="url(#e85ch)" xlink:href="#e85cg"/></g></g></g><g><g><g><use fill="url(#e85cj)" xlink:href="#e85ci"/></g></g></g><g><g><g><use fill="url(#e85cl)" xlink:href="#e85ck"/></g></g></g><g><g><g><use fill="url(#e85cn)" xlink:href="#e85cm"/></g></g></g><g><g><g><use fill="url(#e85cp)" xlink:href="#e85co"/></g></g></g><g><g><g><use fill="url(#e85cr)" xlink:href="#e85cq"/></g></g></g></g></g></svg>