<svg xmlns="http://www.w3.org/2000/svg" xmlns:xlink="http://www.w3.org/1999/xlink" width="50" height="50" viewBox="0 0 50 50"><defs><path id="deiqa" d="M1318.2 1079.2c0 .13-.1.25-.23.27l-4.39.73c-.55.1-.99.5-1.12 1.04-.4 1.53-1 3-1.82 4.37-.28.48-.26 1.08.06 1.54l2.58 3.63c.07.1.06.26-.03.36l-3.11 3.11a.27.27 0 0 1-.2.08.26.26 0 0 1-.16-.05l-3.62-2.58a1.41 1.41 0 0 0-1.54-.06 16.72 16.72 0 0 1-4.37 1.82c-.55.13-.95.58-1.04 1.12l-.74 4.4a.27.27 0 0 1-.27.22h-4.4a.27.27 0 0 1-.27-.23l-.73-4.39c-.1-.55-.5-.99-1.04-1.12-1.49-.39-2.93-.99-4.28-1.76a1.45 1.45 0 0 0-.7-.19c-.29 0-.58.09-.82.26l-3.66 2.6a.31.31 0 0 1-.16.06.28.28 0 0 1-.2-.09l-3.1-3.1a.28.28 0 0 1-.04-.36l2.57-3.6c.33-.47.35-1.07.06-1.55a16.56 16.56 0 0 1-1.83-4.37 1.43 1.43 0 0 0-1.13-1.03l-4.42-.76a.27.27 0 0 1-.23-.27v-4.4c0-.13.1-.24.23-.27l4.36-.73c.55-.1 1-.5 1.13-1.04a16.7 16.7 0 0 1 1.79-4.39 1.4 1.4 0 0 0-.07-1.52l-2.6-3.66a.28.28 0 0 1 .03-.35l3.11-3.12a.27.27 0 0 1 .2-.08c.06 0 .11.02.16.05l3.6 2.57c.46.33 1.06.35 1.54.06a16.56 16.56 0 0 1 4.37-1.83c.53-.15.94-.59 1.03-1.13l.76-4.42a.27.27 0 0 1 .27-.23h4.4c.13 0 .25.1.27.23l.73 4.36c.1.55.5 1 1.04 1.13 1.58.4 3.08 1.02 4.48 1.84.48.28 1.08.26 1.54-.06l3.6-2.6c.05-.02.1-.04.16-.04.04 0 .12 0 .2.08l3.11 3.11c.1.1.1.24.03.36l-2.58 3.62a1.41 1.41 0 0 0-.06 1.54 16.72 16.72 0 0 1 1.82 4.37c.13.55.58.95 1.12 1.04l4.4.74c.13.02.22.14.22.27v4.4zm.24-7.45l-3.5-.6a19.82 19.82 0 0 0-1.42-3.4l2.07-2.9a3.08 3.08 0 0 0-.33-3.97l-3.12-3.11a3.07 3.07 0 0 0-3.97-.34l-2.9 2.07c-1.13-.6-2.3-1.09-3.53-1.45l-.59-3.47a3.09 3.09 0 0 0-3.05-2.58h-4.4a3.09 3.09 0 0 0-3.04 2.58l-.6 3.55c-1.18.37-2.32.85-3.4 1.43l-2.88-2.07a3.07 3.07 0 0 0-3.97.34l-3.13 3.11a3.1 3.1 0 0 0-.33 3.98l2.09 2.94a19.36 19.36 0 0 0-1.4 3.41l-3.46.59a3.09 3.09 0 0 0-2.58 3.05v4.4c0 1.5 1.09 2.8 2.58 3.04l3.55.6c.37 1.18.85 2.32 1.43 3.4l-2.06 2.87a3.08 3.08 0 0 0 .34 3.97l3.11 3.12a3.07 3.07 0 0 0 3.97.33l2.94-2.09c1.05.56 2.16 1 3.3 1.36l.58 3.51a3.09 3.09 0 0 0 3.05 2.58h4.4c1.52 0 2.8-1.09 3.06-2.58l.6-3.5c1.17-.37 2.31-.84 3.4-1.42l2.9 2.07a3.07 3.07 0 0 0 3.98-.33l3.1-3.12a3.1 3.1 0 0 0 .34-3.98l-2.07-2.9c.57-1.1 1.06-2.24 1.41-3.4l3.51-.6a3.09 3.09 0 0 0 2.58-3.04v-4.4a3.05 3.05 0 0 0-2.56-3.05z"/><path id="deiqc" d="M1296 1084.96a7.97 7.97 0 1 1 .02-15.95 7.97 7.97 0 0 1-.01 15.95zm0-18.75a10.8 10.8 0 1 0 .02 21.59 10.8 10.8 0 0 0-.01-21.6z"/><linearGradient id="deiqb" x1="1296" x2="1296" y1="1052" y2="1102" gradientUnits="userSpaceOnUse"><stop offset="0" stop-color="#5077e7"/><stop offset="1" stop-color="#a776dd"/></linearGradient><linearGradient id="deiqd" x1="1296.01" x2="1296.01" y1="1066.21" y2="1087.78" gradientUnits="userSpaceOnUse"><stop offset="0" stop-color="#5077e7"/><stop offset="1" stop-color="#a776dd"/></linearGradient></defs><g><g transform="translate(-1271 -1052)"><g><g><use fill="url(#deiqb)" xlink:href="#deiqa"/></g><g><use fill="url(#deiqd)" xlink:href="#deiqc"/></g></g></g></g></svg>